<?xml version="1.0" encoding="UTF-8" standalone="no"?>
<!-- Generator: Adobe Illustrator 19.2.0, SVG Export Plug-In . SVG Version: 6.00 Build 0)  -->

<svg
   xmlns:dc="http://purl.org/dc/elements/1.1/"
   xmlns:cc="http://creativecommons.org/ns#"
   xmlns:rdf="http://www.w3.org/1999/02/22-rdf-syntax-ns#"
   xmlns:svg="http://www.w3.org/2000/svg"
   xmlns="http://www.w3.org/2000/svg"
   xmlns:sodipodi="http://sodipodi.sourceforge.net/DTD/sodipodi-0.dtd"
   xmlns:inkscape="http://www.inkscape.org/namespaces/inkscape"
   version="1.1"
   id="Layer_1"
   x="0px"
   y="0px"
   viewBox="0 0 171.21213 99.999997"
   xml:space="preserve"
   sodipodi:docname="ARC_stacked.svg"
   width="171.21213"
   height="100"
   inkscape:version="0.92.3 (2405546, 2018-03-11)"><metadata
   id="metadata485"><rdf:RDF><cc:Work
       rdf:about=""><dc:format>image/svg+xml</dc:format><dc:type
         rdf:resource="http://purl.org/dc/dcmitype/StillImage" /><dc:title></dc:title></cc:Work></rdf:RDF></metadata><defs
   id="defs483" /><sodipodi:namedview
   pagecolor="#ffffff"
   bordercolor="#666666"
   borderopacity="1"
   objecttolerance="10"
   gridtolerance="10"
   guidetolerance="10"
   inkscape:pageopacity="0"
   inkscape:pageshadow="2"
   inkscape:window-width="1920"
   inkscape:window-height="1001"
   id="namedview481"
   showgrid="false"
   inkscape:zoom="0.28031832"
   inkscape:cx="141.64999"
   inkscape:cy="420.95001"
   inkscape:window-x="-9"
   inkscape:window-y="-9"
   inkscape:window-maximized="1"
   inkscape:current-layer="Layer_1" />
<style
   type="text/css"
   id="style2">
	.st0{fill-rule:evenodd;clip-rule:evenodd;}
	.st1{fill:#FFFFFF;}
	.st2{fill:none;stroke:#000000;stroke-width:1.2756;stroke-miterlimit:3.8637;}
</style>
<g
   id="g478"
   transform="matrix(0.60606061,0,0,0.60606061,-94.545455,-205.39394)">
	<path
   class="st0"
   d="m 183.5,458.3 h -6.2 l -0.7,1.7 c -0.2,0.6 -0.4,1 -0.4,1.4 0,0.5 0.2,0.9 0.6,1.1 0.2,0.1 0.8,0.2 1.7,0.3 v 0.5 h -5.8 v -0.5 c 0.6,-0.1 1.1,-0.4 1.5,-0.8 0.4,-0.4 0.9,-1.3 1.5,-2.6 l 6.3,-13.9 h 0.2 l 6.3,14.3 c 0.6,1.4 1.1,2.2 1.5,2.6 0.3,0.3 0.7,0.4 1.2,0.5 v 0.5 h -8.5 v -0.5 h 0.3 c 0.7,0 1.2,-0.1 1.4,-0.3 0.2,-0.1 0.3,-0.3 0.3,-0.6 0,-0.2 0,-0.3 -0.1,-0.5 0,-0.1 -0.1,-0.4 -0.4,-1 z m -0.5,-0.9 -2.6,-6 -2.7,6 z"
   id="path4"
   inkscape:connector-curvature="0"
   style="clip-rule:evenodd;fill-rule:evenodd" />
	<path
   d="m 202,451.2 v 9.4 c 0,0.9 0.1,1.5 0.3,1.7 0.2,0.2 0.5,0.4 1,0.4 v 0.5 h -4.9 v -1.6 c -0.6,0.7 -1.2,1.2 -1.7,1.5 -0.6,0.3 -1.2,0.5 -1.9,0.5 -0.7,0 -1.3,-0.2 -1.8,-0.6 -0.5,-0.4 -0.9,-0.9 -1.1,-1.5 -0.2,-0.6 -0.3,-1.5 -0.3,-2.9 v -4.8 c 0,-0.9 -0.1,-1.5 -0.3,-1.7 -0.2,-0.2 -0.5,-0.4 -1,-0.4 v -0.5 h 4.9 v 8.2 c 0,0.9 0,1.4 0.1,1.7 0.1,0.2 0.2,0.4 0.4,0.6 0.2,0.1 0.4,0.2 0.6,0.2 0.3,0 0.6,-0.1 0.8,-0.2 0.3,-0.2 0.8,-0.7 1.2,-1.4 v -6.4 c 0,-0.9 -0.1,-1.5 -0.3,-1.7 -0.2,-0.2 -0.5,-0.4 -1,-0.4 v -0.5 h 5 z"
   id="path6"
   inkscape:connector-curvature="0" />
	<path
   d="m 211.7,450.9 0.2,4.1 h -0.4 c -0.5,-1.2 -1.1,-2.1 -1.6,-2.5 -0.6,-0.4 -1.1,-0.7 -1.7,-0.7 -0.4,0 -0.7,0.1 -0.9,0.4 -0.2,0.2 -0.4,0.5 -0.4,0.8 0,0.2 0.1,0.5 0.3,0.7 0.3,0.4 1,1 2.3,1.8 1.3,0.9 2.1,1.6 2.5,2.2 0.4,0.6 0.6,1.3 0.6,2 0,0.7 -0.2,1.3 -0.5,2 -0.3,0.6 -0.8,1.1 -1.4,1.5 -0.6,0.3 -1.3,0.5 -2,0.5 -0.6,0 -1.3,-0.2 -2.3,-0.5 -0.3,-0.1 -0.4,-0.1 -0.5,-0.1 -0.3,0 -0.5,0.2 -0.7,0.6 h -0.4 l -0.2,-4.3 h 0.4 c 0.4,1.1 0.9,2 1.6,2.6 0.7,0.6 1.3,0.9 1.9,0.9 0.4,0 0.7,-0.1 1,-0.4 0.3,-0.3 0.4,-0.6 0.4,-0.9 0,-0.4 -0.1,-0.8 -0.4,-1.1 -0.3,-0.3 -0.8,-0.8 -1.7,-1.4 -1.3,-0.9 -2.2,-1.6 -2.6,-2.1 -0.6,-0.7 -0.9,-1.5 -0.9,-2.3 0,-0.9 0.3,-1.8 1,-2.5 0.6,-0.8 1.6,-1.1 2.8,-1.1 0.7,0 1.3,0.2 1.9,0.5 0.2,0.1 0.4,0.2 0.6,0.2 0.2,0 0.3,0 0.4,-0.1 0.1,-0.1 0.2,-0.3 0.5,-0.6 h 0.2 z"
   id="path8"
   inkscape:connector-curvature="0" />
	<path
   d="m 218.1,446.8 v 4.4 h 2.9 v 1.3 h -2.9 v 7.4 c 0,0.7 0,1.1 0.1,1.4 0.1,0.2 0.2,0.4 0.3,0.5 0.2,0.1 0.3,0.2 0.5,0.2 0.6,0 1.1,-0.4 1.6,-1.3 l 0.4,0.3 c -0.7,1.7 -1.8,2.5 -3.4,2.5 -0.8,0 -1.4,-0.2 -1.9,-0.6 -0.5,-0.4 -0.9,-0.9 -1,-1.4 -0.1,-0.3 -0.1,-1.1 -0.1,-2.4 v -6.5 H 213 v -0.5 c 1.1,-0.8 2,-1.6 2.8,-2.4 0.8,-0.8 1.4,-1.8 2,-2.8 h 0.3 z"
   id="path10"
   inkscape:connector-curvature="0" />
	<path
   d="m 226.8,451.2 v 2.7 c 0.8,-1.2 1.5,-2.1 2.1,-2.5 0.6,-0.4 1.2,-0.6 1.7,-0.6 0.5,0 0.9,0.2 1.1,0.5 0.3,0.3 0.4,0.7 0.4,1.3 0,0.6 -0.1,1 -0.4,1.3 -0.3,0.3 -0.6,0.5 -1,0.5 -0.5,0 -0.9,-0.1 -1.2,-0.4 -0.3,-0.3 -0.5,-0.5 -0.6,-0.5 -0.1,-0.1 -0.2,-0.1 -0.3,-0.1 -0.2,0 -0.5,0.1 -0.7,0.3 -0.4,0.3 -0.6,0.7 -0.8,1.3 -0.3,0.8 -0.4,1.8 -0.4,2.8 v 2.8 0.7 c 0,0.5 0,0.8 0.1,0.9 0.1,0.2 0.3,0.4 0.5,0.5 0.2,0.1 0.5,0.2 1,0.2 v 0.5 h -6.5 v -0.5 c 0.5,0 0.9,-0.2 1.1,-0.4 0.2,-0.2 0.3,-0.9 0.3,-1.9 v -6.7 c 0,-0.7 0,-1.1 -0.1,-1.3 -0.1,-0.2 -0.2,-0.4 -0.4,-0.5 -0.2,-0.1 -0.5,-0.2 -0.9,-0.2 v -0.5 h 5 z"
   id="path12"
   inkscape:connector-curvature="0" />
	<path
   class="st0"
   d="m 238.9,461.5 c -1.5,1.3 -2.8,1.9 -4,1.9 -0.7,0 -1.3,-0.2 -1.7,-0.7 -0.5,-0.5 -0.7,-1 -0.7,-1.7 0,-0.9 0.4,-1.7 1.2,-2.5 0.8,-0.7 2.5,-1.7 5.2,-2.9 v -1.2 c 0,-0.9 -0.1,-1.5 -0.2,-1.7 -0.1,-0.2 -0.3,-0.4 -0.6,-0.6 -0.3,-0.2 -0.6,-0.3 -0.9,-0.3 -0.6,0 -1,0.1 -1.4,0.4 -0.2,0.2 -0.3,0.3 -0.3,0.5 0,0.2 0.1,0.4 0.4,0.7 0.3,0.4 0.5,0.7 0.5,1.1 0,0.4 -0.2,0.8 -0.5,1.1 -0.3,0.3 -0.7,0.4 -1.2,0.4 -0.5,0 -1,-0.2 -1.4,-0.5 -0.4,-0.3 -0.5,-0.7 -0.5,-1.1 0,-0.6 0.2,-1.2 0.7,-1.8 0.5,-0.6 1.2,-1 2,-1.3 0.9,-0.3 1.8,-0.5 2.7,-0.5 1.1,0 2,0.2 2.7,0.7 0.7,0.5 1.1,1 1.3,1.6 0.1,0.4 0.2,1.2 0.2,2.5 v 4.7 c 0,0.6 0,0.9 0.1,1 0,0.1 0.1,0.2 0.2,0.3 0.1,0.1 0.2,0.1 0.3,0.1 0.2,0 0.5,-0.2 0.7,-0.5 l 0.4,0.3 c -0.4,0.6 -0.9,1.1 -1.3,1.4 -0.5,0.3 -1,0.4 -1.6,0.4 -0.7,0 -1.2,-0.2 -1.6,-0.5 -0.4,-0.1 -0.6,-0.6 -0.7,-1.3 z m 0,-0.9 v -4 c -1,0.6 -1.8,1.3 -2.3,2 -0.3,0.5 -0.5,0.9 -0.5,1.4 0,0.4 0.1,0.7 0.4,1 0.2,0.2 0.5,0.3 0.9,0.3 0.4,0 0.9,-0.2 1.5,-0.7 z"
   id="path14"
   inkscape:connector-curvature="0"
   style="clip-rule:evenodd;fill-rule:evenodd" />
	<path
   d="m 249.4,445.8 v 15 c 0,0.9 0.1,1.4 0.3,1.6 0.2,0.2 0.6,0.4 1.2,0.4 v 0.5 h -6.5 v -0.5 c 0.5,0 0.9,-0.2 1.2,-0.5 0.2,-0.2 0.3,-0.7 0.3,-1.6 v -12.5 c 0,-0.8 -0.1,-1.4 -0.3,-1.6 -0.2,-0.2 -0.6,-0.4 -1.1,-0.4 v -0.5 h 4.9 z"
   id="path16"
   inkscape:connector-curvature="0" />
	<path
   class="st0"
   d="m 254.9,445.4 c 0.6,0 1,0.2 1.4,0.6 0.4,0.4 0.6,0.9 0.6,1.4 0,0.6 -0.2,1 -0.6,1.4 -0.4,0.4 -0.9,0.6 -1.4,0.6 -0.6,0 -1,-0.2 -1.4,-0.6 -0.4,-0.4 -0.6,-0.9 -0.6,-1.4 0,-0.5 0.2,-1 0.6,-1.4 0.4,-0.4 0.8,-0.6 1.4,-0.6 z m 1.8,5.8 v 9.6 c 0,0.9 0.1,1.4 0.3,1.6 0.2,0.2 0.6,0.4 1.2,0.4 v 0.5 h -6.5 v -0.5 c 0.5,0 0.9,-0.2 1.2,-0.5 0.2,-0.2 0.3,-0.7 0.3,-1.6 v -7 c 0,-0.9 -0.1,-1.4 -0.3,-1.6 -0.2,-0.2 -0.6,-0.4 -1.1,-0.4 v -0.5 z"
   id="path18"
   inkscape:connector-curvature="0"
   style="clip-rule:evenodd;fill-rule:evenodd" />
	<path
   class="st0"
   d="m 265.2,461.5 c -1.5,1.3 -2.8,1.9 -4,1.9 -0.7,0 -1.3,-0.2 -1.7,-0.7 -0.5,-0.5 -0.7,-1 -0.7,-1.7 0,-0.9 0.4,-1.7 1.2,-2.5 0.8,-0.7 2.5,-1.7 5.2,-2.9 v -1.2 c 0,-0.9 -0.1,-1.5 -0.2,-1.7 -0.1,-0.2 -0.3,-0.4 -0.6,-0.6 -0.3,-0.2 -0.6,-0.3 -0.9,-0.3 -0.6,0 -1,0.1 -1.4,0.4 -0.2,0.2 -0.3,0.3 -0.3,0.5 0,0.2 0.1,0.4 0.4,0.7 0.3,0.4 0.5,0.7 0.5,1.1 0,0.4 -0.2,0.8 -0.5,1.1 -0.3,0.3 -0.7,0.4 -1.2,0.4 -0.5,0 -1,-0.2 -1.4,-0.5 -0.4,-0.3 -0.5,-0.7 -0.5,-1.1 0,-0.6 0.2,-1.2 0.7,-1.8 0.5,-0.6 1.2,-1 2,-1.3 0.9,-0.3 1.8,-0.5 2.7,-0.5 1.1,0 2,0.2 2.7,0.7 0.7,0.5 1.1,1 1.3,1.6 0.1,0.4 0.2,1.2 0.2,2.5 v 4.7 c 0,0.6 0,0.9 0.1,1 0,0.1 0.1,0.2 0.2,0.3 0.1,0.1 0.2,0.1 0.3,0.1 0.2,0 0.5,-0.2 0.7,-0.5 l 0.4,0.3 c -0.4,0.6 -0.9,1.1 -1.3,1.4 -0.5,0.3 -1,0.4 -1.6,0.4 -0.7,0 -1.2,-0.2 -1.6,-0.5 -0.4,-0.1 -0.6,-0.6 -0.7,-1.3 z m 0,-0.9 v -4 c -1,0.6 -1.8,1.3 -2.3,2 -0.3,0.5 -0.5,0.9 -0.5,1.4 0,0.4 0.1,0.7 0.4,1 0.2,0.2 0.5,0.3 0.9,0.3 0.4,0 0.9,-0.2 1.5,-0.7 z"
   id="path20"
   inkscape:connector-curvature="0"
   style="clip-rule:evenodd;fill-rule:evenodd" />
	<path
   d="m 275.6,451.2 v 1.6 c 0.6,-0.7 1.2,-1.2 1.8,-1.5 0.6,-0.3 1.2,-0.5 1.8,-0.5 0.8,0 1.4,0.2 1.9,0.7 0.5,0.4 0.9,1 1,1.6 0.1,0.5 0.2,1.4 0.2,2.8 v 4.7 c 0,0.9 0.1,1.5 0.2,1.7 0.2,0.2 0.5,0.4 1.1,0.4 v 0.5 h -6.1 v -0.5 c 0.5,-0.1 0.8,-0.2 1,-0.6 0.1,-0.2 0.2,-0.7 0.2,-1.6 v -5.4 c 0,-1 0,-1.6 -0.1,-1.9 -0.1,-0.3 -0.2,-0.5 -0.4,-0.6 -0.2,-0.1 -0.4,-0.2 -0.6,-0.2 -0.7,0 -1.4,0.5 -2.1,1.6 v 6.5 c 0,0.9 0.1,1.5 0.2,1.7 0.2,0.2 0.5,0.4 0.9,0.5 v 0.5 h -6.1 v -0.5 c 0.5,-0.1 0.9,-0.2 1.1,-0.5 0.1,-0.2 0.2,-0.7 0.2,-1.7 v -6.8 c 0,-0.9 -0.1,-1.5 -0.3,-1.7 -0.2,-0.2 -0.5,-0.4 -1,-0.4 v -0.5 h 5.1 z"
   id="path22"
   inkscape:connector-curvature="0" />
	<path
   d="m 307.4,445.4 v 6.2 h -0.5 c -0.6,-1.7 -1.4,-3 -2.6,-3.8 -1.2,-0.9 -2.4,-1.3 -3.8,-1.3 -1.3,0 -2.4,0.4 -3.3,1.1 -0.9,0.7 -1.5,1.8 -1.8,3.1 -0.4,1.3 -0.5,2.7 -0.5,4 0,1.7 0.2,3.1 0.6,4.4 0.4,1.3 1,2.2 1.9,2.8 0.9,0.6 1.9,0.9 3.1,0.9 0.4,0 0.9,0 1.3,-0.1 0.4,-0.1 0.9,-0.2 1.4,-0.4 v -3.6 c 0,-0.7 0,-1.1 -0.1,-1.3 -0.1,-0.2 -0.3,-0.4 -0.6,-0.6 -0.3,-0.2 -0.6,-0.2 -1.1,-0.2 H 301 V 456 h 8.5 v 0.5 c -0.6,0 -1.1,0.1 -1.4,0.3 -0.2,0.1 -0.4,0.3 -0.6,0.7 -0.1,0.2 -0.1,0.6 -0.1,1.2 v 3.6 c -1.1,0.5 -2.3,0.9 -3.5,1.1 -1.2,0.3 -2.5,0.4 -3.8,0.4 -1.7,0 -3,-0.2 -4.1,-0.7 -1.1,-0.5 -2.1,-1 -2.9,-1.8 -0.8,-0.7 -1.5,-1.6 -2,-2.5 -0.6,-1.2 -0.9,-2.5 -0.9,-4 0,-2.6 0.9,-4.9 2.8,-6.7 1.8,-1.8 4.2,-2.7 7,-2.7 0.9,0 1.6,0.1 2.3,0.2 0.4,0.1 1,0.3 1.8,0.6 0.9,0.3 1.4,0.5 1.5,0.5 0.2,0 0.5,-0.1 0.7,-0.3 0.2,-0.2 0.4,-0.5 0.6,-1 z"
   id="path24"
   inkscape:connector-curvature="0" />
	<path
   class="st0"
   d="m 315.8,450.9 c 1,0 2,0.3 2.9,0.8 0.9,0.5 1.6,1.3 2,2.3 0.5,1 0.7,2.1 0.7,3.3 0,1.7 -0.4,3.1 -1.3,4.3 -1,1.4 -2.5,2.1 -4.3,2.1 -1.8,0 -3.2,-0.6 -4.2,-1.9 -1,-1.3 -1.5,-2.7 -1.5,-4.4 0,-1.7 0.5,-3.2 1.5,-4.5 1.1,-1.4 2.4,-2 4.2,-2 z m 0,0.9 c -0.4,0 -0.8,0.2 -1.1,0.5 -0.3,0.3 -0.5,1 -0.6,2 -0.1,1 -0.1,2.3 -0.1,4.1 0,0.9 0.1,1.8 0.2,2.6 0.1,0.6 0.3,1.1 0.6,1.4 0.3,0.3 0.7,0.5 1.1,0.5 0.4,0 0.7,-0.1 1,-0.3 0.3,-0.3 0.6,-0.7 0.7,-1.2 0.2,-0.8 0.3,-2.5 0.3,-4.9 0,-1.5 -0.1,-2.5 -0.2,-3 -0.2,-0.5 -0.4,-0.9 -0.7,-1.2 -0.5,-0.4 -0.8,-0.5 -1.2,-0.5 z"
   id="path26"
   inkscape:connector-curvature="0"
   style="clip-rule:evenodd;fill-rule:evenodd" />
	<path
   d="m 327.2,463.7 -4.1,-9.3 c -0.5,-1.1 -0.9,-1.8 -1.1,-2.1 -0.2,-0.2 -0.5,-0.4 -0.9,-0.5 v -0.5 h 6.4 v 0.5 c -0.4,0 -0.7,0.1 -0.8,0.2 -0.2,0.2 -0.3,0.4 -0.3,0.7 0,0.3 0.2,0.9 0.6,1.8 l 2,4.5 1.6,-3.9 c 0.5,-1.1 0.7,-1.9 0.7,-2.4 0,-0.3 -0.1,-0.5 -0.3,-0.6 -0.2,-0.2 -0.5,-0.3 -1,-0.3 v -0.5 h 3.9 v 0.5 c -0.4,0.1 -0.7,0.2 -0.9,0.4 -0.2,0.2 -0.6,0.9 -1.1,2 l -4,9.5 z"
   id="path28"
   inkscape:connector-curvature="0" />
	<path
   class="st0"
   d="m 343.3,456.8 h -6.6 c 0.1,1.6 0.5,2.9 1.3,3.8 0.6,0.7 1.3,1.1 2.1,1.1 0.5,0 1,-0.1 1.4,-0.4 0.4,-0.3 0.9,-0.8 1.4,-1.6 l 0.4,0.3 c -0.7,1.3 -1.4,2.3 -2.2,2.8 -0.8,0.5 -1.7,0.8 -2.7,0.8 -1.8,0 -3.1,-0.7 -4.1,-2.1 -0.7,-1.1 -1.1,-2.5 -1.1,-4.1 0,-2 0.5,-3.6 1.6,-4.8 1.1,-1.2 2.4,-1.8 3.8,-1.8 1.2,0 2.3,0.5 3.2,1.5 0.9,1.1 1.4,2.6 1.5,4.5 z m -3.2,-0.8 c 0,-1.4 -0.1,-2.3 -0.2,-2.8 -0.1,-0.5 -0.4,-0.9 -0.7,-1.2 -0.2,-0.2 -0.4,-0.2 -0.7,-0.2 -0.4,0 -0.8,0.2 -1.1,0.7 -0.5,0.8 -0.8,1.8 -0.8,3.1 v 0.5 h 3.5 z"
   id="path30"
   inkscape:connector-curvature="0"
   style="clip-rule:evenodd;fill-rule:evenodd" />
	<path
   d="m 349,451.2 v 2.7 c 0.8,-1.2 1.5,-2.1 2.1,-2.5 0.6,-0.4 1.2,-0.6 1.7,-0.6 0.5,0 0.9,0.2 1.1,0.5 0.3,0.3 0.4,0.7 0.4,1.3 0,0.6 -0.1,1 -0.4,1.3 -0.3,0.3 -0.6,0.5 -1,0.5 -0.5,0 -0.9,-0.1 -1.2,-0.4 -0.3,-0.3 -0.5,-0.5 -0.6,-0.5 -0.1,-0.1 -0.2,-0.1 -0.3,-0.1 -0.2,0 -0.5,0.1 -0.7,0.3 -0.4,0.3 -0.6,0.7 -0.8,1.3 -0.3,0.8 -0.4,1.8 -0.4,2.8 v 2.8 0.7 c 0,0.5 0,0.8 0.1,0.9 0.1,0.2 0.3,0.4 0.5,0.5 0.2,0.1 0.6,0.2 1,0.2 v 0.5 H 344 v -0.5 c 0.5,0 0.9,-0.2 1.1,-0.4 0.2,-0.2 0.3,-0.9 0.3,-1.9 v -6.7 c 0,-0.7 0,-1.1 -0.1,-1.3 -0.1,-0.2 -0.2,-0.4 -0.4,-0.5 -0.2,-0.1 -0.5,-0.2 -0.9,-0.2 v -0.5 h 5 z"
   id="path32"
   inkscape:connector-curvature="0" />
	<path
   d="m 360.1,451.2 v 1.6 c 0.6,-0.7 1.2,-1.2 1.8,-1.5 0.6,-0.3 1.2,-0.5 1.8,-0.5 0.8,0 1.4,0.2 1.9,0.7 0.5,0.4 0.9,1 1,1.6 0.1,0.5 0.2,1.4 0.2,2.8 v 4.7 c 0,0.9 0.1,1.5 0.2,1.7 0.2,0.2 0.5,0.4 1.1,0.4 v 0.5 H 362 v -0.5 c 0.5,-0.1 0.8,-0.2 1,-0.6 0.1,-0.2 0.2,-0.7 0.2,-1.6 v -5.4 c 0,-1 0,-1.6 -0.1,-1.9 -0.1,-0.3 -0.2,-0.5 -0.4,-0.6 -0.2,-0.1 -0.4,-0.2 -0.6,-0.2 -0.7,0 -1.4,0.5 -2.1,1.6 v 6.5 c 0,0.9 0.1,1.5 0.2,1.7 0.2,0.2 0.5,0.4 0.9,0.5 v 0.5 H 355 v -0.5 c 0.5,-0.1 0.9,-0.2 1.1,-0.5 0.1,-0.2 0.2,-0.7 0.2,-1.7 v -6.8 c 0,-0.9 -0.1,-1.5 -0.3,-1.7 -0.2,-0.2 -0.5,-0.4 -1,-0.4 v -0.5 h 5.1 z"
   id="path34"
   inkscape:connector-curvature="0" />
	<path
   d="m 374.1,451.2 v 1.6 c 0.7,-0.7 1.3,-1.2 1.8,-1.5 0.6,-0.3 1.2,-0.4 1.9,-0.4 0.8,0 1.4,0.2 1.9,0.5 0.5,0.4 0.9,0.9 1.2,1.7 0.7,-0.8 1.3,-1.3 2,-1.7 0.6,-0.3 1.3,-0.5 2,-0.5 0.8,0 1.5,0.2 2,0.6 0.5,0.4 0.8,0.9 1,1.5 0.2,0.6 0.3,1.5 0.3,2.8 v 4.9 c 0,0.9 0.1,1.5 0.2,1.7 0.2,0.2 0.5,0.4 1.1,0.4 v 0.5 h -6.2 v -0.5 c 0.5,0 0.9,-0.2 1.1,-0.6 0.2,-0.2 0.2,-0.8 0.2,-1.6 v -5.2 c 0,-1.1 0,-1.8 -0.1,-2 -0.1,-0.3 -0.2,-0.5 -0.4,-0.6 -0.2,-0.1 -0.4,-0.2 -0.6,-0.2 -0.4,0 -0.7,0.1 -1.1,0.4 -0.4,0.3 -0.8,0.7 -1.1,1.2 v 6.5 c 0,0.9 0.1,1.4 0.2,1.6 0.2,0.3 0.6,0.5 1.1,0.5 v 0.5 h -6.2 v -0.5 c 0.3,0 0.6,-0.1 0.8,-0.2 0.2,-0.2 0.3,-0.3 0.4,-0.5 0.1,-0.2 0.1,-0.7 0.1,-1.4 v -5.2 c 0,-1.1 0,-1.8 -0.1,-2 -0.1,-0.3 -0.2,-0.5 -0.4,-0.6 -0.2,-0.2 -0.4,-0.2 -0.6,-0.2 -0.3,0 -0.7,0.1 -0.9,0.3 -0.4,0.3 -0.8,0.7 -1.3,1.4 v 6.5 c 0,0.9 0.1,1.4 0.2,1.7 0.2,0.3 0.5,0.4 1.1,0.5 v 0.5 h -6.2 v -0.5 c 0.5,-0.1 0.9,-0.2 1.1,-0.5 0.1,-0.2 0.2,-0.7 0.2,-1.7 v -6.8 c 0,-0.9 -0.1,-1.5 -0.3,-1.7 -0.2,-0.2 -0.5,-0.4 -1,-0.4 v -0.5 h 4.6 z"
   id="path36"
   inkscape:connector-curvature="0" />
	<path
   class="st0"
   d="m 400.2,456.8 h -6.6 c 0.1,1.6 0.5,2.9 1.3,3.8 0.6,0.7 1.3,1.1 2.1,1.1 0.5,0 1,-0.1 1.4,-0.4 0.4,-0.3 0.9,-0.8 1.4,-1.6 l 0.4,0.3 c -0.7,1.3 -1.4,2.3 -2.2,2.8 -0.8,0.5 -1.7,0.8 -2.7,0.8 -1.8,0 -3.1,-0.7 -4.1,-2.1 -0.7,-1.1 -1.1,-2.5 -1.1,-4.1 0,-2 0.5,-3.6 1.6,-4.8 1.1,-1.2 2.4,-1.8 3.8,-1.8 1.2,0 2.3,0.5 3.2,1.5 1,1.1 1.5,2.6 1.5,4.5 z m -3.1,-0.8 c 0,-1.4 -0.1,-2.3 -0.2,-2.8 -0.1,-0.5 -0.4,-0.9 -0.7,-1.2 -0.2,-0.2 -0.4,-0.2 -0.7,-0.2 -0.4,0 -0.8,0.2 -1.1,0.7 -0.5,0.8 -0.8,1.8 -0.8,3.1 v 0.5 h 3.5 z"
   id="path38"
   inkscape:connector-curvature="0"
   style="clip-rule:evenodd;fill-rule:evenodd" />
	<path
   d="m 405.6,451.2 v 1.6 c 0.6,-0.7 1.2,-1.2 1.8,-1.5 0.6,-0.3 1.2,-0.5 1.8,-0.5 0.8,0 1.4,0.2 1.9,0.7 0.5,0.4 0.9,1 1,1.6 0.1,0.5 0.2,1.4 0.2,2.8 v 4.7 c 0,0.9 0.1,1.5 0.2,1.7 0.2,0.2 0.5,0.4 1.1,0.4 v 0.5 h -6.1 v -0.5 c 0.5,-0.1 0.8,-0.2 1,-0.6 0.1,-0.2 0.2,-0.7 0.2,-1.6 v -5.4 c 0,-1 0,-1.6 -0.1,-1.9 -0.1,-0.3 -0.2,-0.5 -0.4,-0.6 -0.2,-0.1 -0.4,-0.2 -0.6,-0.2 -0.7,0 -1.4,0.5 -2.1,1.6 v 6.5 c 0,0.9 0.1,1.5 0.2,1.7 0.2,0.2 0.5,0.4 0.9,0.5 v 0.5 h -6.1 v -0.5 c 0.5,-0.1 0.9,-0.2 1.1,-0.5 0.1,-0.2 0.2,-0.7 0.2,-1.7 v -6.8 c 0,-0.9 -0.1,-1.5 -0.3,-1.7 -0.2,-0.2 -0.5,-0.4 -1,-0.4 v -0.5 h 5.1 z"
   id="path40"
   inkscape:connector-curvature="0" />
	<path
   d="m 418.8,446.8 v 4.4 h 2.9 v 1.3 h -2.9 v 7.4 c 0,0.7 0,1.1 0.1,1.4 0.1,0.2 0.2,0.4 0.3,0.5 0.2,0.1 0.3,0.2 0.5,0.2 0.6,0 1.1,-0.4 1.6,-1.3 l 0.4,0.3 c -0.7,1.7 -1.8,2.5 -3.4,2.5 -0.8,0 -1.4,-0.2 -1.9,-0.6 -0.5,-0.4 -0.9,-0.9 -1,-1.4 -0.1,-0.3 -0.1,-1.1 -0.1,-2.4 v -6.5 h -1.6 v -0.5 c 1.1,-0.8 2,-1.6 2.8,-2.4 0.8,-0.8 1.4,-1.8 2,-2.8 h 0.3 z"
   id="path42"
   inkscape:connector-curvature="0" />
	<path
   d="m 276.3,414.6 c -0.1,0.1 -0.2,0.3 -0.3,0.3"
   id="path44"
   inkscape:connector-curvature="0" />
	<path
   d="m 279.3,391 c 0.3,0 0.6,-0.3 0.6,-0.6 0,-0.4 -0.3,-0.6 -0.6,-0.6 -0.3,0 -0.6,0.3 -0.6,0.6 0,0.3 0.3,0.6 0.6,0.6 z"
   id="path46"
   inkscape:connector-curvature="0" />
	<path
   d="m 308.6,364.4 v 0 h -22.7 v 0 0 18.4 c 0,1.8 0.8,3.3 1.8,3.8 l 8.7,5.2 c 0.2,0.2 0.5,0.4 0.8,0.4 0.3,0 0.5,-0.1 0.7,-0.3 l 8.9,-5.3 c 1,-0.5 1.8,-2 1.8,-3.8 z m -15.2,5.3 h -2 V 365 h 2 z m -1.4,1.6 0.3,-0.3 -0.2,-0.3 h 0.4 l 0.2,-0.4 0.2,0.4 h 0.4 l -0.2,0.3 0.3,0.3 -0.4,0.1 v 0.4 l -0.3,-0.3 -0.3,0.3 v -0.4 z m -5.5,5.9 v -4.5 h 2.4 v 4.5 z m 0.4,-6.5 h 0.4 l 0.2,-0.4 0.2,0.4 h 0.4 l -0.2,0.3 0.3,0.3 -0.4,0.1 v 0.4 l -0.3,-0.3 -0.3,0.3 v -0.4 l -0.4,-0.1 0.3,-0.3 z m 2.7,4.5 h 0.4 l 0.2,-0.4 0.2,0.4 h 0.4 l -0.2,0.3 0.3,0.3 -0.4,0.1 v 0.4 l -0.3,-0.3 -0.3,0.3 v -0.4 l -0.4,-0.1 0.3,-0.3 z m 1.6,-3.5 c 0,-0.1 -0.2,-0.2 -0.2,-0.2 -0.2,0 -0.3,0.4 -0.5,0.4 -0.1,0 -0.2,0 -0.2,-0.1 0,-0.1 0.3,-0.2 0.4,-0.3 -1.5,0 -1.5,0.7 -1.7,0.7 -0.4,0 0.3,-0.7 0.5,-0.9 -0.3,0 -0.5,-0.4 -0.8,-0.6 0.2,-0.2 0.2,-0.1 0.4,0 0,-0.2 0.1,-0.3 0.5,-0.3 0.7,0 0.5,0.6 0.6,0.6 0.1,0 0,-0.6 0.4,-0.6 0.7,0 1.5,1.7 0.7,1.7 -0.4,-0.2 -0.1,-0.4 -0.1,-0.4 z m -1.7,-5 0.3,-0.3 -0.2,-0.3 h 0.4 l 0.2,-0.4 0.2,0.4 h 0.4 l -0.2,0.3 0.3,0.3 -0.4,0.1 v 0.4 l -0.3,-0.3 -0.3,0.3 v -0.4 z m -0.6,-1.7 v 4.7 h -2.4 V 365 Z m 4.5,24.2 -5.4,-3.2 c -0.9,-0.6 -1.4,-1.7 -1.5,-3 v -5.2 h 6.9 z m -2,-12 v -4.5 h 2 v 4.5 z m 9,12.4 -2.5,1.5 v 0 c -0.2,0.1 -0.4,0.2 -0.7,0.2 -0.3,0 -0.5,-0.1 -0.7,-0.2 l -2.5,-1.5 v -11.8 h 6.4 z m 0,-12.4 H 294 V 365 h 6.4 z m 7.6,5.8 c -0.1,1.3 -0.6,2.4 -1.5,3 l -5.4,3.3 v -11.5 h 6.9 z m 0,-5.8 h -7 V 365 h 6.9 v 12.2 z"
   id="path48"
   inkscape:connector-curvature="0" />
	<path
   d="m 293,382 c 0,-0.1 -0.9,0.3 -0.6,0.3 0,-0.2 0.5,-0.7 0.7,-0.9 0,-0.3 -0.4,0 -0.8,0.2 1.3,-1.9 0.5,-1.1 -0.3,-1 1.2,-1.2 0.9,-1.2 0,-0.8 0.7,-0.5 0.8,-1.2 0.7,-1.3 -0.6,0.8 -1.2,0.7 -1.2,1.5 0,0.5 -0.2,1.3 -0.4,1.6 -0.3,0.4 -0.1,-1.4 -1,-1.4 -0.3,0 -1,0 -1.2,0.3 0.2,0 0.5,0.5 0.5,0.6 0,0.2 0.2,0.7 -0.1,0.7 -0.3,0 -0.7,-0.6 -0.7,-0.9 0,-0.3 0,-0.2 0,-0.7 0,-0.7 -1.2,-1.8 -1.7,-1.8 0,0.5 0.7,0.6 0.7,1.3 -0.3,0 -0.7,-0.5 -0.7,-0.2 0,0.3 0.4,0.4 0.4,0.7 0,0.3 -0.5,-0.1 -0.5,0.2 0,0.3 0.3,0.2 0.3,0.5 -0.2,-0.1 -0.4,0 -0.4,0.1 0,0.1 0.1,0.2 0.2,0.3 -0.1,0.1 -0.1,0.2 -0.1,0.6 0,1.5 0.9,2.1 1.6,2.1 0.5,0 0.4,-0.3 0.5,-0.5 0,0.2 0.3,-0.1 0.3,0.3 0,0.4 -0.5,0.3 -0.5,0.6 0,0.5 0.7,0 0.7,0.6 0,0.7 -0.1,0.7 -0.1,0.9 0,0.2 0.8,-0.3 0.7,-0.3 0.2,0.1 0.2,0.6 0.5,0.6 0.2,0 0.3,-0.6 0.4,-0.6 -0.1,0 0.7,0.5 0.7,0.3 0,-0.7 -0.3,-0.4 -0.3,-0.9 0,-0.4 0.9,-0.3 0.8,-0.6 -0.1,-0.2 -0.2,-0.1 -0.3,-0.4 0,0.1 -0.7,-1.1 0.2,-0.5 1,0.7 1.1,-1.4 1,-1.5 z"
   id="path50"
   inkscape:connector-curvature="0" />
	<path
   d="m 317.3,386.8 c 0.4,0 0.7,-0.3 0.7,-0.7 0,-0.4 -0.3,-0.7 -0.7,-0.7 -0.4,0 -0.7,0.3 -0.7,0.7 0,0.4 0.3,0.7 0.7,0.7 z"
   id="path52"
   inkscape:connector-curvature="0" />
	<path
   d="m 314.3,388.6 c 0.4,0 0.7,-0.3 0.7,-0.7 0,-0.4 -0.3,-0.7 -0.7,-0.7 -0.4,0 -0.7,0.3 -0.7,0.7 -0.1,0.4 0.3,0.7 0.7,0.7 z"
   id="path54"
   inkscape:connector-curvature="0" />
	<path
   d="m 278.3,392.8 c 0.4,0 0.7,-0.3 0.7,-0.7 0,-0.4 -0.3,-0.7 -0.7,-0.7 -0.4,0 -0.7,0.3 -0.7,0.7 0,0.4 0.3,0.7 0.7,0.7 z"
   id="path56"
   inkscape:connector-curvature="0" />
	<path
   d="m 280.7,393 c 0.4,0 0.7,-0.3 0.7,-0.7 0,-0.4 -0.3,-0.7 -0.7,-0.7 -0.4,0 -0.7,0.3 -0.7,0.7 -0.1,0.4 0.2,0.7 0.7,0.7 z"
   id="path58"
   inkscape:connector-curvature="0" />
	<path
   d="m 345.4,361.6 c 1.1,1.3 1.3,3.4 0.6,5 -0.4,0 -0.4,-0.6 -0.4,-0.9 -0.8,-1.5 -1.4,-3.4 -0.7,-5 0.4,0 0.2,0.6 0.5,0.9 z"
   id="path60"
   inkscape:connector-curvature="0" />
	<path
   d="m 250.4,363.4 c -0.2,1 -0.2,2.3 0,3.2 -0.2,0.2 -0.2,-0.2 -0.4,-0.2 -1.5,-1.1 -0.8,-3.3 -1.2,-4.9 0.1,-0.1 0.3,-0.2 0.4,-0.1 0.7,0.5 1.1,1.2 1.2,2 z"
   id="path62"
   inkscape:connector-curvature="0" />
	<path
   d="m 348.8,363.5 c 0.2,0.4 -0.2,0.9 -0.5,1.1 -0.4,0.1 -0.8,-0.1 -1,-0.4 -0.1,-0.4 0.1,-0.8 0.5,-1 0.4,-0.1 0.7,-0.1 1,0.3 z"
   id="path64"
   inkscape:connector-curvature="0" />
	<path
   d="m 248,365.3 c -0.1,0.4 -0.2,0.7 -0.5,0.9 -0.2,0 -0.6,0 -0.8,-0.2 -0.2,-0.2 -0.3,-0.6 -0.2,-0.8 0.2,-0.3 0.5,-0.3 0.8,-0.4 0.3,0.1 0.6,0.1 0.7,0.5 z"
   id="path66"
   inkscape:connector-curvature="0" />
	<path
   d="m 350.3,365.9 c 0.1,0.2 0.1,0.4 0,0.6 -0.3,0.4 -0.7,0.5 -1.1,0.4 -0.3,-0.2 -0.4,-0.4 -0.4,-0.7 0.1,-0.3 0.4,-0.6 0.7,-0.7 0.4,0 0.6,0.2 0.8,0.4 z"
   id="path68"
   inkscape:connector-curvature="0" />
	<path
   d="m 348.1,366 c 0.3,0.2 0.1,0.6 0,0.8 -0.2,0.2 -0.5,0.5 -0.8,0.4 -0.2,-0.2 -0.4,-0.2 -0.5,-0.5 0,-0.4 0.2,-0.8 0.6,-0.9 0.2,-0.1 0.4,0.1 0.7,0.2 z"
   id="path70"
   inkscape:connector-curvature="0" />
	<path
   d="m 345.2,366.6 c 0,0.4 0,1 -0.5,1.1 -0.5,0.2 -0.8,-0.2 -0.9,-0.6 0,-0.4 0.2,-0.8 0.6,-1 0.3,0 0.6,0.2 0.8,0.5 z"
   id="path72"
   inkscape:connector-curvature="0" />
	<path
   d="m 252.3,366.8 c 0.1,0.4 -0.3,0.6 -0.5,0.8 -0.3,0.1 -0.6,-0.2 -0.8,-0.4 -0.3,-0.3 0.1,-0.5 0.2,-0.8 0.4,-0.3 1,-0.1 1.1,0.4 z"
   id="path74"
   inkscape:connector-curvature="0" />
	<path
   d="m 249.9,366.9 c 0,0.3 -0.2,0.6 -0.4,0.8 -0.3,0.1 -0.6,-0.1 -0.8,-0.4 -0.2,-0.4 0,-0.8 0.4,-0.9 0.4,-0.2 0.7,0.2 0.8,0.5 z"
   id="path76"
   inkscape:connector-curvature="0" />
	<path
   d="m 335.6,367.1 c 0.4,0.8 0.7,1.8 0.8,2.9 -0.2,0.8 0.1,1.8 -0.4,2.3 -0.6,-0.2 -0.6,-0.9 -1,-1.2 -0.7,-1.4 -0.1,-3 0.2,-4.4 0.3,-0.2 0.3,0.2 0.4,0.4 z"
   id="path78"
   inkscape:connector-curvature="0" />
	<path
   d="m 248.1,367.5 c 0.1,0.5 -0.2,0.7 -0.5,1 -0.5,0.1 -0.8,-0.2 -1,-0.6 0,-0.4 0.2,-0.8 0.5,-1 0.4,0.1 0.8,0.3 1,0.6 z"
   id="path80"
   inkscape:connector-curvature="0" />
	<path
   d="m 341.8,368.7 c 0.5,1.2 0.6,2.6 0.2,3.8 l -0.2,0.2 c -0.6,-1.1 -1.3,-2.1 -1.6,-3.2 0,-0.8 0.2,-1.6 0.5,-2.3 0.3,-0.2 0.4,0 0.6,0.3 0,0.4 0.1,1 0.5,1.2 z"
   id="path82"
   inkscape:connector-curvature="0" />
	<path
   d="m 346.8,368 c 0,0.4 -0.2,0.8 -0.6,1 -0.4,0.1 -0.8,0 -0.9,-0.5 -0.1,-0.4 0.1,-0.8 0.4,-1 0.5,-0.2 0.9,0.2 1.1,0.5 z"
   id="path84"
   inkscape:connector-curvature="0" />
	<path
   d="m 250,369.2 c 0,0.3 -0.3,0.7 -0.6,0.8 -0.3,0.2 -0.6,-0.2 -0.8,-0.3 -0.1,-0.3 -0.2,-0.6 0,-0.9 0.1,-0.2 0.4,-0.2 0.6,-0.3 0.3,0.2 0.7,0.3 0.8,0.7 z"
   id="path86"
   inkscape:connector-curvature="0" />
	<path
   d="m 251.7,369 c 0.2,0.4 -0.3,0.6 -0.4,0.8 -0.5,0.2 -0.7,-0.2 -0.9,-0.5 -0.1,-0.4 0.2,-0.6 0.4,-0.9 0.5,-0.1 0.7,0.3 0.9,0.6 z"
   id="path88"
   inkscape:connector-curvature="0" />
	<path
   d="m 348,368.9 c 0,0.5 -0.8,1 -0.9,1.6 -0.4,1.1 -1.4,1.9 -2.5,2.2 -0.2,0.2 -0.6,0.5 -0.9,0.5 -0.1,-0.8 0.6,-1.5 1.1,-2.2 0.8,-1.1 1.9,-1.8 3.2,-2.1 z"
   id="path90"
   inkscape:connector-curvature="0" />
	<path
   d="m 249.2,370.6 c 0.6,0.7 0.9,1.3 1.6,1.9 0,0.2 -0.1,0.4 -0.3,0.4 -1.9,-0.1 -3.3,-2.1 -4.2,-3.5 0.1,-0.4 0.6,-0.1 0.9,-0.1 0.7,0.4 1.5,0.6 2,1.3 z"
   id="path92"
   inkscape:connector-curvature="0" />
	<path
   d="m 348.5,371.1 c -0.1,1.7 -0.9,3.5 -2.5,4.3 -0.4,0.2 -0.9,0.6 -1.3,0.3 0.8,-1.7 2.1,-3.1 3.5,-4.6 z"
   id="path94"
   inkscape:connector-curvature="0" />
	<path
   d="m 340.9,372.3 c 0.1,0.6 -0.2,1 -0.7,1.2 -0.4,0 -0.7,-0.3 -0.9,-0.6 0,-0.4 0.2,-0.8 0.6,-0.9 0.1,-0.1 0.3,-0.1 0.5,-0.1 0.2,0 0.3,0.2 0.5,0.4 z"
   id="path96"
   inkscape:connector-curvature="0" />
	<path
   d="m 247,372.7 c 0.8,0.5 1.4,1.2 2.1,1.9 -0.5,0.4 -1.2,0 -1.7,0 -1.3,-0.5 -2.3,-1.6 -3.6,-2 0,-0.4 0.6,-0.3 0.8,-0.4 0.9,-0.1 1.6,0.2 2.4,0.5 z"
   id="path98"
   inkscape:connector-curvature="0" />
	<path
   d="m 289.5,360.8 c -2.2,-0.9 -3.7,1.4 -6,1.2 -0.3,0.2 -0.2,0.4 -0.4,0.6 -0.1,0.1 -0.3,0 -0.4,0 -0.1,-1 -0.4,-1.8 -0.6,-2.8 -0.2,-0.4 -0.1,-1 -0.3,-1.4 -1.3,-3.5 3.1,-0.8 4,-2.9 0.8,-1.8 -1.5,-2 -2.1,-3.2 v -0.5 c -0.6,-0.6 -1.3,-0.8 -1.7,-1.7 0.3,-1 0.4,-2.1 0.1,-3.1 0,-0.2 -0.2,-0.6 -0.6,-0.4 -0.8,1 -1.3,1.9 -2,2.9 -0.8,-0.6 -1.5,-1.3 -2.3,-1.8 -0.6,-0.1 -1.2,-0.7 -1.8,-0.4 -0.1,0.2 0,0.4 0.1,0.6 0,1.6 0.8,2.8 1.9,3.9 l 0.1,0.6 c -0.7,1.6 -0.5,3.5 -0.7,5.3 -1.8,4.6 -4.7,8.9 -8.6,12.1 -2.3,2.6 -5,5 -5.3,8.5 -0.1,0.6 0.1,1.2 -0.4,1.6 -1.3,-0.5 -2.6,-1.1 -3.7,-2 -1.8,-1.3 -4.4,-1.1 -5.6,-3.4 -0.5,-0.9 0.1,-1.8 0.6,-2.5 1.3,-1.3 1.2,-3.6 0.4,-5.1 -0.2,0 -0.2,0.2 -0.3,0.2 -0.1,2.4 -2,4 -1.3,6.6 0.2,0.8 0.6,1.2 0.8,2 -0.3,-0.1 -0.7,-0.1 -0.9,-0.2 -0.9,-0.1 -1.7,-0.5 -2.7,-0.4 -1.8,0.8 -4.3,-0.2 -5.8,1.5 -0.2,0 -0.6,0.1 -0.5,0.4 0.9,0 1.7,0.2 2.6,0.2 1.4,0.2 2.3,-0.9 3.3,-1.4 h 0.2 c 0.4,-0.4 1.1,-0.2 1.6,-0.2 2.5,0.3 4.4,1.5 6.5,2.7 v 0.2 c -0.8,0.4 -1.7,0.6 -2.5,1 -0.9,0.7 -1.9,1.6 -2.2,2.7 -0.6,1 0.2,1.9 0.6,2.7 0,0.4 0.1,0.9 0.4,1 1.3,-1.4 0.1,-3 0.3,-4.6 0.3,-1.2 1.4,-1.8 2.6,-2.1 2.3,-1 3.9,0.9 5.7,1.9 0,1.8 0.2,3.6 -0.2,5.4 -0.6,0.2 -1.3,0.3 -1.9,0.3 -3.1,0.2 -5.6,2 -8.4,2.9 -1.3,0.4 -2.8,0.4 -4,0.9 1,0.3 2,-0.1 3.1,-0.1 3.9,-0.6 6.9,-3.6 11.1,-3 l 0.1,0.1 c -0.5,1 -1.1,1.8 -1.9,2.6 -0.1,-0.4 -0.2,-0.8 -0.6,-1 -0.3,-0.2 -0.7,0 -0.9,0.3 -0.1,0.2 -0.1,0.4 0,0.6 0.2,0.4 0.5,0.4 0.9,0.6 -0.1,0.4 -0.5,0.5 -0.8,0.8 -1.1,1.9 -3.4,1.1 -4.7,2.4 -0.2,0.3 -0.9,0.4 -0.6,0.9 1.5,0.2 3,-0.2 4.1,-1 1.5,-1.6 3,-3.2 4.5,-4.8 0.2,1.3 -0.1,2.6 -0.9,3.6 -0.4,-0.2 -0.6,-0.5 -1.1,-0.6 -0.4,0.1 -0.7,0.5 -0.7,0.8 0.2,0.3 0.3,0.6 0.6,0.8 -1.3,1 -3.1,1 -4.6,1.5 -2.9,0.4 -5.7,0.6 -8.6,0.6 -1.4,-0.1 -3,0.4 -4.3,0 -1.5,0.3 -3.1,-0.2 -4.4,0.6 -0.2,0.2 0,0.4 0,0.6 1.8,1.2 4.3,0.2 6.4,0.6 h 15.6 c 1.2,0 2.3,-0.1 3.2,-0.6 2,-1.2 3.1,-3.2 4.2,-5.3 0.4,-0.7 0.7,-1.6 0.8,-2.4 0.4,-1.4 1.6,-2.3 3,-2.4 0.2,2.1 -0.2,4.2 -0.7,6.1 -0.2,1.3 -1.1,2.5 -0.6,3.9 0.1,0.6 0.8,0.6 1.3,0.7 4.8,-0.1 9.6,-0.3 14.7,0.1 0.9,0.2 1.7,0.4 2.7,0.4 0.1,-0.1 0.4,-0.2 0.2,-0.4 -0.1,-0.4 -0.4,-1 -1,-1.1 -0.1,-0.2 -0.4,-0.2 -0.6,-0.3 -2.5,-1.4 -5.6,-0.7 -8.6,-0.6 -1.5,0.2 -3.1,0.4 -4.4,-0.4 -0.6,-0.7 -0.2,-3 -0.2,-3 0,-0.9 2.2,-7.2 2.5,-7.7 0.1,-0.6 0.3,-1.2 0.2,-1.8 0.3,-0.8 0.2,-1.8 0.2,-2.7 0.2,-1.3 0.8,-2.5 1.2,-3.7 0.2,-0.6 0.4,-1.2 0.7,-1.8 0.2,-0.8 0.3,-1.5 0.8,-2.1 1.3,0.8 2.6,0.8 3.2,2.3 l 0.5,3.3 c 0,0.2 0.2,0.6 0.4,0.4 1,-0.7 0.7,-2.2 0.7,-3.2 0.2,-1.2 -0.6,-1.8 -1,-2.9 -0.3,-0.2 -0.7,-1.2 -0.7,-1.2 -0.2,-0.9 -2.1,-1.5 -1.6,-2.6 0.2,-0.9 0.5,-1.8 1.3,-2.3 0.1,0.1 0.2,0.2 0.2,0.3 l 0.5,-0.3 v -3.3 c 1.3,0 3.2,0.2 4.5,0.2 0.4,0.1 0.6,0.4 1,0.4 l 0.3,-0.4 3.2,-0.6 c -0.9,-0.1 -1.7,-1.7 -3,-1.7 z"
   id="path100"
   inkscape:connector-curvature="0" />
	<path
   class="st1"
   d="m 293,362.2 c 0.1,0 0.2,0 0.3,-0.1 z"
   id="path102"
   inkscape:connector-curvature="0"
   style="fill:#ffffff" />
	<path
   d="m 258.4,373.4 c 0,0.5 -0.2,0.8 -0.6,0.9 -0.3,-0.1 -0.6,-0.2 -0.8,-0.5 -0.2,-0.4 0.2,-0.8 0.6,-0.9 0.4,0.1 0.7,0.1 0.8,0.5 z"
   id="path104"
   inkscape:connector-curvature="0" />
	<path
   d="m 255.9,373.4 c 0.2,0.2 0.3,0.6 0.2,0.9 -0.3,0.2 -0.7,0.4 -1,0.1 -0.2,-0.2 -0.5,-0.5 -0.3,-0.8 0.3,-0.3 0.7,-0.6 1.1,-0.2 z"
   id="path106"
   inkscape:connector-curvature="0" />
	<path
   class="st1"
   d="m 311.1,373.8 c 0,0 0,0 0,0"
   id="path108"
   inkscape:connector-curvature="0"
   style="fill:#ffffff" />
	<path
   d="m 341.3,374.5 c 0.2,0.4 -0.2,0.8 -0.5,0.9 -0.4,-0.1 -0.9,-0.2 -0.9,-0.7 0,-0.3 0.3,-0.5 0.6,-0.6 0.3,-0.1 0.6,0.1 0.8,0.4 z"
   id="path110"
   inkscape:connector-curvature="0" />
	<path
   d="m 343.4,374.4 c 0.1,0.2 0.4,0.5 0.1,0.7 -0.2,0.1 -0.3,0.2 -0.4,0.3 -0.4,0.1 -0.8,-0.1 -1,-0.5 -0.1,-0.4 0.3,-0.6 0.6,-0.8 0.3,-0.1 0.5,0.1 0.7,0.3 z"
   id="path112"
   inkscape:connector-curvature="0" />
	<path
   d="m 245.9,374.9 c -0.2,0.5 -0.6,0.7 -1.1,0.5 -0.1,-0.1 -0.2,-0.3 -0.3,-0.5 0,-0.3 0.1,-0.6 0.4,-0.7 0.5,0 0.9,0.2 1,0.7 z"
   id="path114"
   inkscape:connector-curvature="0" />
	<path
   d="m 259.3,375.6 c 0,0.3 -0.4,0.6 -0.7,0.8 -0.4,0 -0.7,-0.3 -0.9,-0.6 0,-0.3 0.2,-0.7 0.5,-0.8 0.4,-0.2 0.9,0.1 1.1,0.6 z"
   id="path116"
   inkscape:connector-curvature="0" />
	<path
   d="m 256.9,375.3 c 0.1,0.1 0.2,0.4 0.1,0.6 -0.2,0.2 -0.6,0.6 -1,0.3 -0.2,-0.2 -0.5,-0.4 -0.4,-0.8 0.2,-0.2 0.4,-0.4 0.6,-0.5 0.3,0 0.5,0.2 0.7,0.4 z"
   id="path118"
   inkscape:connector-curvature="0" />
	<path
   d="m 349.5,375.8 c 0,0.3 -0.3,0.6 -0.5,0.8 -0.3,0.1 -0.7,0 -0.9,-0.2 -0.2,-0.1 -0.2,-0.4 -0.2,-0.6 0.2,-0.3 0.5,-0.4 0.8,-0.5 0.3,0 0.6,0.2 0.8,0.5 z"
   id="path120"
   inkscape:connector-curvature="0" />
	<path
   d="m 352,376.1 c -0.1,0.4 -0.4,0.7 -0.8,0.7 -0.2,0 -0.7,-0.1 -0.6,-0.5 0,-0.3 0.2,-0.6 0.4,-0.6 0.4,-0.2 0.9,0 1,0.4 z"
   id="path122"
   inkscape:connector-curvature="0" />
	<path
   d="m 250.4,376.7 c 0.1,0.5 -0.1,0.8 -0.5,1 -0.3,0.2 -0.6,0 -0.8,-0.2 -0.2,-0.2 -0.4,-0.5 -0.2,-0.8 0.1,-0.4 0.4,-0.3 0.7,-0.4 0.4,-0.1 0.6,0.1 0.8,0.4 z"
   id="path124"
   inkscape:connector-curvature="0" />
	<path
   d="m 252.4,377 c 0.1,0.3 -0.2,0.4 -0.3,0.7 -0.2,0.1 -0.5,0.2 -0.7,0.1 -0.3,-0.2 -0.6,-0.6 -0.3,-1 0.2,-0.6 1.1,-0.2 1.3,0.2 z"
   id="path126"
   inkscape:connector-curvature="0" />
	<path
   d="m 347.1,376.8 c 0,0.4 -0.3,0.7 -0.6,0.9 -0.4,0.1 -0.7,-0.2 -0.8,-0.5 0,-0.3 0.2,-0.6 0.4,-0.8 0.5,0.1 0.8,0.1 1,0.4 z"
   id="path128"
   inkscape:connector-curvature="0" />
	<path
   d="m 350.4,377.5 c -0.1,0.4 0,0.8 -0.4,1 -0.3,0.1 -0.7,0 -1,-0.2 -0.2,-0.2 -0.3,-0.6 -0.2,-0.8 0.2,-0.3 0.6,-0.6 1,-0.5 0.3,0.2 0.3,0.4 0.6,0.5 z"
   id="path130"
   inkscape:connector-curvature="0" />
	<path
   d="m 248.9,378.3 c 0.2,0.3 -0.2,0.4 -0.3,0.6 -0.3,0.2 -0.6,0 -0.8,-0.1 -0.3,-0.2 -0.2,-0.6 -0.1,-0.8 0.3,-0.6 1.1,-0.2 1.2,0.3 z"
   id="path132"
   inkscape:connector-curvature="0" />
	<path
   d="m 347.9,379.1 c 0.2,0 0.1,0.3 0,0.4 -1,0.5 -2.4,0.6 -3.2,-0.2 -0.5,-0.4 -1.1,-0.6 -1.6,-0.9 0.2,-0.5 0.9,-0.5 1.4,-0.6 1.2,0.2 2.1,1.2 3.4,1.3 z"
   id="path134"
   inkscape:connector-curvature="0" />
	<path
   d="m 250.8,378.7 c 0.1,0.3 -0.2,0.4 -0.2,0.7 -0.2,0.2 -0.5,0.2 -0.7,0.1 -0.4,-0.2 -0.5,-0.7 -0.3,-1 0.5,-0.5 1,-0.2 1.2,0.2 z"
   id="path136"
   inkscape:connector-curvature="0" />
	<path
   d="m 254.3,379 c 0.2,0.4 -0.1,0.7 -0.4,0.9 -0.3,0.2 -0.5,-0.1 -0.8,-0.1 -0.2,-0.3 -0.6,-0.6 -0.2,-0.9 0.4,-0.7 1.1,-0.4 1.4,0.1 z"
   id="path138"
   inkscape:connector-curvature="0" />
	<path
   d="m 300.2,380.7 c -0.1,0.8 -1.4,-0.1 -1.2,0.9 0.2,0.8 0.3,1.7 0.8,2.2 0.4,0.5 0.2,1.4 0.2,2 -0.3,0.6 -0.9,1 -1.5,1.3 -1.1,-0.1 -2.8,0.6 -3.3,-0.8 -0.2,-0.6 -0.6,-1.2 -0.6,-1.9 0.1,-0.1 0.3,-0.1 0.4,-0.2 0,-0.3 -0.3,-0.4 -0.3,-0.7 1.3,-0.2 -0.5,-1.4 0.6,-1.4 0.9,0.9 2.4,0.6 3.2,1.7 0.2,0.2 0.3,0.4 0.6,0.5 -0.2,-0.9 -0.6,-1.9 -0.8,-2.9 -0.1,-0.5 0.1,-1 0.5,-1.3 0.4,-0.6 1,0.1 1.4,0.6 z"
   id="path140"
   inkscape:connector-curvature="0" />
	<path
   d="m 257.8,380.4 c 0.1,0.4 -0.2,0.6 -0.4,0.8 -0.4,0.2 -0.6,-0.2 -0.7,-0.4 -0.1,-0.4 0.2,-0.6 0.4,-0.8 0.2,0 0.5,0.1 0.7,0.4 z"
   id="path142"
   inkscape:connector-curvature="0" />
	<path
   d="m 282.3,380.8 c 0.5,1.6 0.3,3.2 -0.5,4.5 0,0.3 0.1,0.8 -0.4,0.8 -1.1,-1.5 -0.3,-3.6 0.2,-5.1 0.1,-0.4 0.5,-0.6 0.7,-0.2 z"
   id="path144"
   inkscape:connector-curvature="0" />
	<path
   d="m 316.2,381.6 c 0.6,1.1 0.6,2.6 0.1,3.7 l -0.3,0.3 c -0.4,-0.9 -0.8,-1.8 -0.9,-2.8 0.2,-0.7 0.4,-1.4 0.5,-2.1 0.5,-0.2 0.5,0.5 0.6,0.9 z"
   id="path146"
   inkscape:connector-curvature="0" />
	<path
   d="m 260.9,382 c -0.2,0.5 -0.9,0.6 -1.3,0.9 -1,0.7 -2.3,0.9 -3.5,0.7 1,-1.4 2.6,-2.3 4.5,-1.9 0,0.2 0.2,0.1 0.3,0.3 z"
   id="path148"
   inkscape:connector-curvature="0" />
	<path
   d="m 244.6,383.4 c 1.5,1 1.9,2.5 2.7,3.9 0.1,0.2 0.5,0.2 0.4,0.5 -0.3,0.2 -0.6,-0.2 -1.1,-0.2 -1.5,-0.7 -2.5,-2.4 -2.4,-4.1 0,-0.1 0.2,-0.1 0.4,-0.1 z"
   id="path150"
   inkscape:connector-curvature="0" />
	<path
   d="m 314.7,384.7 c 0,0.4 0,0.8 -0.4,0.9 -0.4,0.1 -0.8,-0.1 -0.9,-0.5 -0.1,-0.3 0.1,-0.4 0.2,-0.6 0.3,-0.3 0.9,-0.2 1.1,0.2 z"
   id="path152"
   inkscape:connector-curvature="0" />
	<path
   d="m 331.4,386.8 c 0,-0.8 0.2,-1.5 0.3,-2.2 0.1,-0.2 0.2,-0.5 0.2,-0.8 1,-1.3 2.9,-0.9 4.4,-0.8 0.6,0.3 1.3,0.3 2,0.4 0.3,-0.2 0.7,-0.2 1,-0.2 1.3,-0.7 0.4,-2.2 0.5,-3.3 l -0.5,-1.2 c -0.1,-0.2 -0.2,-0.5 -0.3,-0.8 -0.2,-0.3 -0.4,-0.8 -0.6,-1.1 -0.7,-1.8 -2,-2.8 -3.1,-4.2 -2,-2.6 -5.2,-4.1 -8.4,-5.2 -3.1,-1.1 -6.3,0.3 -9.1,1.3 -0.9,-0.2 -1.3,-0.9 -1.5,-1.7 -0.2,-1.5 0.2,-3 0.8,-4.2 0.1,-1 0.8,-1.8 1.1,-2.7 0.7,-2.2 1.5,-4.4 1.6,-6.9 0.1,-1.5 -1,-2.5 -2.1,-3.2 -0.8,-0.2 -1.6,-0.2 -2.2,0.4 -0.5,1.1 -1.6,1.8 -2.6,2.3 -0.1,0.7 0.8,0.2 1,0.5 0.9,0.2 1.9,-0.1 2.6,0.4 0.1,1.6 -0.8,2.9 -1.7,4.1 -1.3,2 -2.8,4 -3.6,6.2 l -0.2,-0.2 0.2,9.8 c 1.3,2.1 2.8,4.5 5.2,5.3 1.3,1 2.9,2.3 4.6,1.4 0.9,-0.3 1,1 1.4,1.5 0.5,1.5 -0.6,2.5 -0.7,3.9 l -1,2.2 c -1.2,2.3 -2.3,4.8 -4.1,6.8 -0.6,0 -1,0.6 -1.5,0.7 -0.3,0.4 -1,0.1 -1.3,0.3 -1.2,0.5 -3,0.2 -3.8,1.4 0.1,0.1 0.2,0.2 0.3,0.2 2.4,0 5.1,0.2 7.7,0.1 0.3,-0.1 0.6,-0.4 0.6,-0.8 -0.4,-0.7 0.1,-1.3 0.4,-1.8 0.2,-1 0.8,-1.6 1.1,-2.5 0.8,-1.6 1.8,-3.2 2.7,-4.9 l 1.2,-2 c 0.3,-0.7 0.8,-1.5 1.2,-2.2 0.3,-0.3 0.5,-0.7 0.7,-1.1 0,-0.4 -0.2,-0.6 -0.4,-0.8 0.3,-0.3 0.7,-0.2 1.1,-0.3 1,0.6 2,1.6 2.2,2.6 l 0.4,1 0.2,0.5 -0.1,1.3 0.2,1.2 c 0.2,1.9 -0.2,3.9 -0.4,5.8 -0.7,2.3 -3.3,2.1 -5.2,2.6 -0.5,0.3 -1.4,0.2 -1.4,1 2.3,0.5 5,0.2 7.5,0.2 0.4,-0.2 0.5,-0.5 0.7,-0.9 0.1,-0.5 0.6,-1 0.4,-1.5 -0.4,-0.6 0,-1.4 -0.2,-2.2 0.1,-0.2 0.1,-0.5 0,-0.8 0.3,-1.2 0.2,-2.6 0.5,-3.7 z"
   id="path154"
   inkscape:connector-curvature="0" />
	<path
   d="m 350.9,385.2 c -1.3,1.8 -2.6,3.8 -4.8,4.5 -0.2,0 -0.3,0.1 -0.4,-0.1 1.3,-1.4 2.1,-3.7 4.2,-4.2 0.3,-0.2 0.7,-0.3 1,-0.2 z"
   id="path156"
   inkscape:connector-curvature="0" />
	<path
   d="m 242.6,387.2 c -0.2,0.2 0,0.5 -0.4,0.6 -0.3,0.2 -0.7,0 -0.8,-0.4 -0.2,-0.4 0.2,-0.8 0.5,-0.9 0.3,0.2 0.7,0.3 0.7,0.7 z"
   id="path158"
   inkscape:connector-curvature="0" />
	<path
   d="m 254.1,387.8 c 0.1,0.4 -0.3,0.4 -0.5,0.4 -1.7,0.6 -3.4,0 -4.6,-1.2 0,-0.2 0,-0.3 0.2,-0.4 1.6,0.5 3.5,0.2 4.9,1.2 z"
   id="path160"
   inkscape:connector-curvature="0" />
	<path
   d="m 244.8,387.2 c 0.1,0.2 0.1,0.4 0.1,0.6 -0.2,0.4 -0.6,0.4 -1,0.4 -0.2,-0.1 -0.4,-0.3 -0.5,-0.5 0,-0.4 0.4,-0.6 0.7,-0.8 0.3,0.1 0.5,0.1 0.7,0.3 z"
   id="path162"
   inkscape:connector-curvature="0" />
	<path
   d="m 282,387.4 c 0.1,0.4 -0.2,0.6 -0.5,0.8 -0.4,0.1 -0.7,-0.1 -0.8,-0.3 -0.1,-0.3 0,-0.7 0.3,-0.8 0.3,-0.1 0.9,0 1,0.3 z"
   id="path164"
   inkscape:connector-curvature="0" />
	<path
   d="m 352.4,387.6 c 0.1,0.4 -0.2,0.6 -0.5,0.8 -0.2,0.1 -0.5,0 -0.8,-0.1 0,-0.2 -0.3,-0.4 -0.2,-0.6 0.2,-0.4 0.5,-0.5 0.9,-0.5 0.3,0.2 0.4,0.2 0.6,0.4 z"
   id="path166"
   inkscape:connector-curvature="0" />
	<path
   d="m 355.1,387.4 c 0.2,0.4 0,0.6 -0.2,0.9 -0.2,0.3 -0.5,0.4 -0.7,0.2 -0.2,-0.2 -0.6,-0.4 -0.6,-0.7 0,-0.3 0.4,-0.6 0.6,-0.7 0.4,-0.1 0.5,0.3 0.9,0.3 z"
   id="path168"
   inkscape:connector-curvature="0" />
	<path
   d="m 241,388.6 c 0,0.3 -0.2,0.4 -0.3,0.7 -0.2,0.1 -0.4,0.2 -0.6,0.2 -0.3,-0.1 -0.5,-0.4 -0.6,-0.6 0.1,-0.4 0.3,-0.7 0.7,-0.8 0.3,0 0.7,0.1 0.8,0.5 z"
   id="path170"
   inkscape:connector-curvature="0" />
	<path
   d="m 324.5,388.6 c 0.1,0.2 0,0.4 0,0.5 -0.2,0.3 -0.6,0.6 -1,0.4 -0.2,-0.2 -0.5,-0.5 -0.4,-0.8 0.4,-0.5 1.1,-0.6 1.4,-0.1 z"
   id="path172"
   inkscape:connector-curvature="0" />
	<path
   d="m 247.4,389.2 c -0.1,0.3 -0.2,0.6 -0.6,0.6 -0.4,0 -0.5,-0.3 -0.7,-0.4 0,-0.4 0,-0.7 0.3,-0.9 0.5,-0.2 1,0.2 1,0.7 z"
   id="path174"
   inkscape:connector-curvature="0" />
	<path
   d="m 243.6,389.3 c 0.1,0.4 -0.2,0.7 -0.4,0.9 -0.5,0.2 -0.9,-0.2 -1.1,-0.6 0,-0.4 0.3,-0.8 0.7,-0.9 0.4,0 0.6,0.4 0.8,0.6 z"
   id="path176"
   inkscape:connector-curvature="0" />
	<path
   d="m 327.1,389.2 c 0.1,0.4 0,0.8 -0.4,1 -0.5,0.2 -0.9,-0.2 -1.1,-0.6 0.2,-0.3 0.2,-0.8 0.7,-0.8 0.4,0 0.6,0.1 0.8,0.4 z"
   id="path178"
   inkscape:connector-curvature="0" />
	<path
   d="m 245.4,389.3 c 0.1,0.3 -0.1,0.4 -0.2,0.6 -0.2,0 -0.3,0.2 -0.6,0.2 -0.2,-0.2 -0.5,-0.3 -0.5,-0.6 0,-0.4 0.2,-0.6 0.5,-0.8 0.5,0.1 0.7,0.3 0.8,0.6 z"
   id="path180"
   inkscape:connector-curvature="0" />
	<path
   d="m 350.3,389.7 c -0.1,0.3 -0.4,0.5 -0.7,0.6 -0.3,0.1 -0.5,-0.2 -0.8,-0.3 -0.2,-0.2 -0.1,-0.5 0,-0.7 0.4,-0.7 1.5,-0.4 1.5,0.4 z"
   id="path182"
   inkscape:connector-curvature="0" />
	<path
   d="m 353.3,389.8 c -0.1,0.4 -0.6,0.6 -1,0.7 -0.4,-0.2 -0.8,-0.4 -0.5,-0.9 0.2,-0.2 0.2,-0.3 0.5,-0.4 0.5,-0.1 0.8,0.2 1,0.6 z"
   id="path184"
   inkscape:connector-curvature="0" />
	<path
   d="m 334.4,390.1 c 0.2,0.5 -0.3,0.7 -0.6,0.9 -0.3,0 -0.5,-0.2 -0.8,-0.3 -0.1,-0.4 0.1,-0.8 0.6,-1 0.4,0 0.6,0.1 0.8,0.4 z"
   id="path186"
   inkscape:connector-curvature="0" />
	<path
   d="m 323.5,390.6 c 0.2,0.1 0.1,0.4 0.1,0.5 -0.2,0.2 -0.6,0.6 -0.9,0.3 -0.3,-0.2 -0.5,-0.4 -0.4,-0.8 0.2,-0.4 1,-0.5 1.2,0 z"
   id="path188"
   inkscape:connector-curvature="0" />
	<path
   d="m 325.7,390.9 c 0,0.3 0,0.5 -0.3,0.6 -0.3,0.3 -0.6,0 -0.9,-0.1 -0.1,-0.2 -0.2,-0.4 0,-0.6 0.1,-0.2 0.3,-0.3 0.5,-0.3 0.3,0 0.6,0 0.7,0.4 z"
   id="path190"
   inkscape:connector-curvature="0" />
	<path
   d="m 258.4,390.9 c 0.2,0.2 0,0.5 -0.1,0.8 -0.2,0.2 -0.6,0.4 -1,0.2 -0.4,-0.2 -0.4,-0.7 -0.3,-1 0.2,-0.1 0.2,-0.4 0.6,-0.4 0.4,0 0.6,0.2 0.8,0.4 z"
   id="path192"
   inkscape:connector-curvature="0" />
	<path
   d="m 338.7,391.1 c 0.1,0.4 -0.3,0.6 -0.6,0.6 -0.5,0.2 -0.7,-0.2 -0.9,-0.5 0,-0.2 0.2,-0.4 0.3,-0.6 0.5,-0.3 0.9,0.1 1.2,0.5 z"
   id="path194"
   inkscape:connector-curvature="0" />
	<path
   d="m 336.5,391.1 c 0.2,0.4 -0.3,0.6 -0.4,0.8 -0.3,0.1 -0.6,0.1 -0.9,-0.2 -0.2,-0.1 -0.2,-0.4 -0.2,-0.6 0.2,-0.2 0.4,-0.4 0.6,-0.5 0.4,0 0.8,0.2 0.9,0.5 z"
   id="path196"
   inkscape:connector-curvature="0" />
	<path
   d="m 354.4,391.5 c 0.1,0.6 -0.6,0.3 -0.9,0.4 -1.7,1 -3.8,0.2 -5.4,-0.4 0.1,-0.5 0.7,-0.3 1,-0.5 1.7,-1.1 3.4,0.2 5.2,0.3 z"
   id="path198"
   inkscape:connector-curvature="0" />
	<path
   d="m 245.9,391.1 -0.2,0.3 c -1.5,0.9 -3.4,1.5 -5.1,0.9 l -0.2,-0.2 c 1.5,-1.1 3.4,-1.4 5.3,-1.1 z"
   id="path200"
   inkscape:connector-curvature="0" />
	<path
   d="m 342.7,391.3 c 0,0.3 -0.2,0.6 -0.4,0.8 -0.4,0.1 -0.9,0 -1,-0.4 -0.1,-0.3 0.2,-0.6 0.5,-0.8 0.3,0 0.8,0 0.9,0.4 z"
   id="path202"
   inkscape:connector-curvature="0" />
	<path
   d="m 253,391.5 c -0.2,0.3 -0.1,0.6 -0.5,0.8 -0.4,0.2 -0.9,-0.2 -1,-0.5 -0.1,-0.4 0.2,-0.6 0.4,-0.8 0.5,-0.2 0.8,0.1 1.1,0.5 z"
   id="path204"
   inkscape:connector-curvature="0" />
	<path
   d="m 250.1,391.7 c 0.1,0.3 -0.1,0.4 -0.2,0.6 -0.2,0.2 -0.6,0.2 -0.8,0.1 -0.3,-0.2 -0.6,-0.5 -0.4,-1 0.2,-0.2 0.4,-0.3 0.6,-0.4 0.4,0.1 0.8,0.3 0.8,0.7 z"
   id="path206"
   inkscape:connector-curvature="0" />
	<path
   d="m 345.5,392.6 c 0,0.4 -0.3,0.6 -0.6,0.7 -0.3,0 -0.6,-0.2 -0.8,-0.4 -0.1,-0.2 -0.1,-0.6 0.2,-0.8 0.1,-0.1 0.4,-0.1 0.5,-0.2 0.3,0.1 0.6,0.4 0.7,0.7 z"
   id="path208"
   inkscape:connector-curvature="0" />
	<path
   d="m 247.2,392.2 c 0.1,0.3 -0.2,0.4 -0.2,0.7 -0.1,0.7 -0.6,1.1 -0.9,1.7 -0.8,0.9 -1.8,0.9 -2.9,1.2 l -0.2,-0.3 c 1.2,-1.5 2.4,-2.6 4,-3.4 z"
   id="path210"
   inkscape:connector-curvature="0" />
	<path
   d="m 343.5,393.1 c 0.1,0.5 -0.3,0.6 -0.6,0.8 -0.4,0 -0.6,-0.2 -0.8,-0.5 -0.1,-0.4 0.3,-0.6 0.5,-0.8 0.4,-0.1 0.8,0.1 0.9,0.5 z"
   id="path212"
   inkscape:connector-curvature="0" />
	<path
   d="m 251.8,393.1 c 0,0.1 0,0.2 0.1,0.2 0,0.4 -0.4,0.6 -0.6,0.8 -0.4,0 -0.6,-0.1 -0.9,-0.4 -0.2,-0.4 0,-0.8 0.4,-0.9 0.4,-0.1 0.8,-0.1 1,0.3 z"
   id="path214"
   inkscape:connector-curvature="0" />
	<path
   d="m 350.8,394.3 c 0.4,0 0.5,-0.5 0.9,-0.6 0.4,-0.1 0.8,0.2 1,0.4 0.2,0.5 -0.2,0.7 -0.5,0.9 -0.3,0.2 -0.9,-0.2 -0.8,0.3 0.3,0.2 0.5,0.5 0.6,0.8 -0.1,0.2 -0.4,0.1 -0.5,0 -1.2,-0.5 -2.4,-1.3 -2.9,-2.5 -0.2,-0.4 -0.9,-0.6 -0.5,-1 1.1,0 2.1,0.9 2.7,1.7 z"
   id="path216"
   inkscape:connector-curvature="0" />
	<path
   d="m 354.6,393 c 0.2,0.2 0.1,0.6 0,0.8 -0.2,0.4 -0.8,0.2 -1.2,0.2 -0.2,-0.2 -0.4,-0.4 -0.3,-0.7 0.2,-0.2 0.3,-0.4 0.6,-0.5 0.4,-0.1 0.6,0 0.9,0.2 z"
   id="path218"
   inkscape:connector-curvature="0" />
	<path
   d="m 340.2,395.2 c 0.4,0.4 0.7,1.1 0.9,1.6 -0.1,0.1 -0.3,0.1 -0.4,0.1 -1.3,-0.8 -3.1,-1.6 -3.6,-3.2 -0.1,-0.2 -0.4,-0.4 -0.4,-0.6 1,-0.2 2,0.6 2.7,1.1 0.3,0.3 0.7,0.5 0.8,1 z"
   id="path220"
   inkscape:connector-curvature="0" />
	<path
   d="m 249.5,393.7 c 0.2,0.4 -0.2,0.6 -0.4,0.8 -0.4,0.1 -0.7,-0.1 -0.9,-0.3 -0.3,-0.4 0.2,-0.8 0.6,-1 0.3,-0.1 0.5,0.3 0.7,0.5 z"
   id="path222"
   inkscape:connector-curvature="0" />
	<path
   d="m 345.2,394.6 c 0,0.2 -0.3,0.4 -0.4,0.6 -0.3,0 -0.6,0.2 -0.9,-0.1 -0.1,-0.2 -0.3,-0.5 0,-0.7 0.4,-0.7 1,-0.2 1.3,0.2 z"
   id="path224"
   inkscape:connector-curvature="0" />
	<path
   d="m 355.1,395.1 c 0.1,0.5 -0.2,0.8 -0.6,1 -0.4,0.1 -0.7,-0.2 -1,-0.4 -0.2,-0.2 0,-0.5 0,-0.8 0.3,-0.2 0.6,-0.4 1,-0.3 0.2,0.3 0.4,0.3 0.6,0.5 z"
   id="path226"
   inkscape:connector-curvature="0" />
	<path
   d="m 327.6,400.7 c 0,0.5 -0.9,0.4 -1.2,0.7 -1.2,0.6 -2.7,0.6 -4.2,0.6 v -0.2 c 1.4,-1.3 3.5,-1.7 5.4,-1.1 z"
   id="path228"
   inkscape:connector-curvature="0" />
	<path
   d="m 269.7,402.4 c 0,0.4 -0.2,0.6 -0.6,0.7 -0.3,0 -0.6,-0.2 -0.7,-0.4 -0.2,-0.5 0.2,-0.7 0.5,-0.9 0.4,0 0.8,0.3 0.8,0.6 z"
   id="path230"
   inkscape:connector-curvature="0" />
	<path
   d="m 326.9,402.8 c -0.1,0.4 -0.2,0.8 -0.6,0.9 -0.4,0.1 -0.6,-0.1 -0.9,-0.3 -0.2,-0.2 -0.1,-0.4 -0.1,-0.6 0.3,-0.7 1.4,-0.7 1.6,0 z"
   id="path232"
   inkscape:connector-curvature="0" />
	<path
   d="m 334.8,403 c -1,0.6 -2.1,1.4 -3.4,1.4 h -2.1 l -0.2,-0.2 c 1.3,-1.6 3.7,-1.6 5.8,-1.4 v 0.2 z"
   id="path234"
   inkscape:connector-curvature="0" />
	<path
   d="m 258.9,403.9 c 0,0.4 -0.2,0.6 -0.5,0.8 -0.4,0.1 -0.7,-0.1 -0.8,-0.4 -0.2,-0.4 0,-0.7 0.3,-0.9 0.4,-0.3 0.8,0.2 1,0.5 z"
   id="path236"
   inkscape:connector-curvature="0" />
	<path
   d="m 260.8,404.3 c 0.1,0.2 -0.1,0.3 -0.2,0.5 -0.2,0.1 -0.6,0.2 -0.8,0 -0.3,-0.2 -0.4,-0.4 -0.2,-0.7 0.1,-0.2 0.4,-0.2 0.5,-0.4 0.4,0.2 0.6,0.4 0.7,0.6 z"
   id="path238"
   inkscape:connector-curvature="0" />
	<path
   d="m 245.7,408.4 c -0.4,0.5 -1,-0.1 -1.5,-0.4 -1.4,-0.8 -1.3,-2.4 -2.7,-3.3 0.2,-0.5 0.5,0 0.8,0 0.2,0.2 0.6,0.3 0.8,0.4 1.3,0.8 1.6,2.1 2.6,3.3 z"
   id="path240"
   inkscape:connector-curvature="0" />
	<path
   d="m 361.3,392.9 c -0.6,-1.2 -1.7,-1.6 -3,-1.6 -1,0.1 -1.8,0.8 -2.2,1.6 -0.2,0.9 0.1,1.7 0.8,2.2 0.3,0.1 0.6,0.1 0.8,-0.2 0.2,-0.5 -0.4,-0.5 -0.4,-0.9 -0.2,-0.6 0,-1 0.4,-1.4 0.4,-0.4 1.1,-0.2 1.5,-0.2 0.5,0.3 1,0.6 1.2,1.2 0.2,0.7 0.2,1.4 0,2.1 -0.4,1 -1.4,1.8 -2.5,2 -3.3,0.5 -39.4,0.3 -39.4,0.3 -4.2,0.4 -9.1,-0.8 -12.7,1.4 -1.7,0.8 -2.5,2.6 -2.9,4.3 -1.1,1 -2.2,2.1 -3.1,3.2 l -0.1,-0.1 c 0.2,-1 0.6,-1.8 0.8,-2.8 0.6,-0.8 0.6,-1.9 1,-2.8 1.5,-2.4 2.9,-4.9 5.3,-6.6 1,-1.3 2.7,-1.1 4.2,-1.1 1.6,0.8 3.5,1 5.5,0.8 0.1,-0.1 0.1,-0.2 0.1,-0.3 -0.6,-0.5 -1.5,-0.7 -2.1,-1.2 -1.6,-0.8 -3.1,0.2 -4.8,0.1 -0.1,-0.1 -0.2,-0.1 -0.1,-0.2 1.5,-1.1 3.2,-1.9 4.9,-2.6 1.4,-0.8 2.9,-1.2 4.3,-1.7 0.6,0 1.2,-0.5 1.7,-0.2 l 2.1,-0.6 c 0.1,0 0.2,0.2 0.3,0.1 1.8,-0.6 4,0 6.1,-0.1 l 0.3,0.2 1.9,0.5 c 0.7,0.1 1,0.9 1.8,1 0.4,-0.6 -0.4,-0.8 -0.6,-1.2 0.9,-0.2 1.9,0 2.7,0.4 l -0.4,0.4 c -0.2,0.4 0.1,0.8 0.5,0.9 0.3,0.1 0.5,-0.1 0.7,-0.2 0.5,-0.4 0,-0.7 0.1,-1 2.9,0.5 5.8,1.2 8.4,2.4 0.8,0.2 1.5,0.8 2.3,0.8 -0.8,-0.8 -2,-1.2 -3,-1.6 -0.7,-0.4 -1.6,-0.4 -2.1,-1 0.1,-0.2 0.4,-0.1 0.5,-0.3 1.4,-0.2 2.5,-1.2 3.5,-2.2 0.1,-0.2 0.5,-0.2 0.5,-0.5 -0.4,-0.4 -1,0.1 -1.4,0.1 -1.7,0.3 -2.4,2.3 -4,2.6 -2,-0.5 -4.1,-1 -6.1,-1.5 -1,-0.2 -2.1,-0.2 -3,-0.6 l -2.2,-0.2 h -4 c 0,-0.1 -0.2,-0.1 -0.1,-0.2 1.4,-0.4 2.7,-1.2 4.1,-1.6 l 10.6,-4.9 c 1.1,-1 2.1,-2.1 3,-3.3 0,-0.3 -0.2,-0.6 -0.4,-0.8 -0.3,-0.1 -0.6,-0.1 -0.8,0.2 -0.5,0.4 0,0.8 0,1.2 -0.5,0.6 -1.2,1.2 -1.8,1.6 -0.2,0 -10.9,4.9 -10.9,4.9 -1.6,0.7 -3.2,1.4 -4.8,1.8 l -2.3,0.4 c -0.2,0.5 -0.6,0.8 -1,0.9 -0.6,0.1 -1.1,0.5 -1.8,0.5 -5.2,2 -10.5,4.1 -14.6,8.2 0.2,-0.5 0.4,-1.1 0.4,-1.7 -0.1,-0.6 0,-1.3 -0.4,-1.8 -0.1,-0.2 -0.4,-0.9 -0.3,-1.1 l -0.6,0.4 c -0.4,0.9 -0.7,2.5 -0.3,3.4 0.1,0.7 0.7,1.6 0.2,2.2 -1.9,2.3 -3,5.1 -4.2,7.8 -0.5,-0.1 -0.7,-0.5 -0.9,-1 1.3,-1.7 2.4,-3.6 2.8,-5.8 0.3,-0.2 0.1,-0.7 0.4,-1 -0.1,-0.6 0.4,-1.3 0,-1.8 0.3,-0.9 -1.2,-1.7 -0.3,-2.2 l -0.7,0.4 c -1.7,2.2 0.9,5.6 -1.1,7.8 v 0.2 c -0.6,0.7 -0.8,1.4 -1.6,1.9 -1,-0.4 -1.3,-1.5 -1.9,-2.3 -0.9,-0.8 -0.9,-2.6 -0.4,-3.7 0.4,-1.2 -0.2,-2.2 -0.4,-3.2 l -0.4,-0.2 c -1,1.2 -1.3,3.2 -0.6,4.7 0.4,0.7 0.4,1.7 1,2.3 0.4,1.2 1.1,1.9 1.7,3 0.2,0.4 -0.2,0.5 -0.4,0.7 -0.4,-0.3 -0.4,-0.9 -0.8,-1.2 -1.3,-2.8 -3,-5 -5.1,-7.3 -0.1,-0.4 -0.4,-0.7 -0.2,-1.1 0.8,-0.7 0.9,-2.1 0.5,-3 -0.1,-0.2 -0.3,-0.4 -0.3,-0.6 l -0.6,-0.5 c 0.1,1.4 -0.8,2.6 -0.4,4.1 v 0.1 c -4.1,-3.1 -8.6,-5.8 -13.2,-8 l -0.4,1 c 1.2,0.3 4.2,2.2 4.2,2.2 1.4,0.5 2.7,1.4 4,2.1 5.4,3 9,8 11.4,13.5 0,0.4 0.4,0.9 0.2,1.4 -0.8,-1.3 -2,-2 -3,-3 -0.3,-1.9 -1.4,-3.7 -3,-4.4 -0.6,-0.9 -1.9,-1 -2.9,-1.2 l -14.4,-0.1 c -11.7,-0.2 -22.5,0.4 -34.1,0.2 -1.6,-0.2 -3.6,-0.7 -4.1,-2.4 -0.3,-0.6 -0.3,-1.6 0,-2.2 0.4,-0.8 1.2,-1 2,-1.1 0.6,0.1 1.1,0.7 1.4,1.1 0,0.5 -0.4,1 -0.6,1.4 0,0.2 0.2,0.5 0.5,0.4 0.5,-0.2 0.9,-0.8 1,-1.3 0,-0.3 0.2,-0.7 -0.1,-0.9 -0.2,-0.8 -1.1,-1.4 -1.9,-1.6 -1,-0.1 -2,0.2 -2.7,0.9 -1,0.8 -0.9,2.2 -0.6,3.4 0.6,1.8 2.5,3 4.3,3.2 l 38.6,0.2 c 3.8,0.2 8,-0.4 11.8,0.3 1.4,0.4 2.9,1.5 3.2,3 0,0.1 -0.2,0 -0.3,0 -3.1,-2 -7.3,-2.8 -11.3,-2.3 -1.6,-0.1 -3,0.5 -4.4,0.9 -0.8,0.2 -1.5,-0.2 -1.9,-0.6 -1.4,-1.3 -3.9,-1.2 -5.8,-0.7 0,0.1 0,0.2 0,0.3 1.9,-0.2 3.1,1.5 4.8,1.7 0.4,0.1 0.7,-0.4 1.1,0 -1.8,0.9 -3.6,1.9 -5.5,2.5 -0.6,-0.1 -0.9,-0.7 -1.4,-1 -0.8,-0.8 -2.1,-0.5 -3.2,-0.6 -0.4,0.1 -0.7,-0.2 -0.9,0 0.3,0.6 1,1 1.7,1.3 1,0.4 2.1,0 3.1,0.6 -0.2,0.3 -0.6,0.4 -0.8,0.6 -1.9,0.7 -3.4,2.4 -5.5,2.3 -2.2,0.2 -4.4,-0.4 -5.9,-1.9 -0.6,-1.6 -2.3,-2.4 -4,-2.3 -0.1,0.1 -0.3,0.1 -0.2,0.3 0.9,0.5 1.5,1.6 2.4,2.2 0.6,0.7 1.6,0 2.1,0.8 0.8,0.5 1.7,1 2.6,1.1 0.6,0.3 1.3,0.4 2.1,0.6 l -0.3,0.2 c -3.6,1.2 -7.8,1.3 -11.8,1.2 -1.2,0 -2.3,-0.4 -3.5,-0.4 0.2,0.2 0.6,0.4 1,0.6 -0.3,0.2 -0.7,0.3 -1.1,0.3 -0.5,0.1 -1,0.2 -1.5,0.4 -0.6,0 -1.2,0.2 -1.7,0.4 -0.7,0.7 -1.5,1.5 -2.3,1.8 0,0.2 0,0.4 0.2,0.4 0.8,-0.3 1.7,-0.1 2.5,-0.4 1.3,-0.1 2.1,-1.6 3.1,-2.2 1.1,-0.9 2.7,-0.7 4,-0.5 0.8,0.2 -0.1,0.5 0.2,1 0.3,0.3 0.6,0.6 1,0.5 0.1,-0.1 0.2,-0.2 0.3,-0.2 0.2,-0.3 0.2,-0.7 0,-1 0.6,-0.4 1.3,0 1.9,-0.2 1.5,0 3,-0.4 4.5,-0.4 0.2,0 0.5,-0.3 0.8,0 -0.1,0.3 -0.5,0.4 -0.4,0.8 0.1,0.4 0.5,0.5 0.8,0.6 0.4,-0.2 0.8,-0.4 0.6,-1 -0.1,-0.3 -0.4,-0.3 -0.6,-0.4 0.8,-0.4 1.8,-0.5 2.6,-0.9 0.6,-0.1 1.2,-0.3 1.7,-0.6 0.5,0 1,-0.5 1.4,-0.3 -0.2,0.7 -0.5,1.3 -0.8,1.9 -0.6,2.1 -1.1,4.9 0,7 0.1,0 0.2,0 0.2,-0.1 -0.8,-2.1 -0.4,-4.6 0.4,-6.6 0.6,-3.4 4,-4.4 6.5,-5.7 l 0.1,0.2 c -0.7,1.8 -1.7,3.4 -1.5,5.6 0.1,0.4 -0.2,0.7 0,1 0.7,-0.4 1.1,-1.2 1.5,-1.8 0.3,-1.8 -0.8,-4 1.1,-5.4 3.3,-1.3 6.3,-3 10.1,-3 0.1,0.1 0.4,-0.1 0.4,0.2 -0.8,0.9 -1.9,1.7 -2.3,2.8 -1.3,1.8 -1.2,4.8 -0.7,6.9 0.4,1.2 -0.7,1.9 -1.2,2.9 -0.2,0.3 -0.3,0.9 -0.5,1.3 l 0.8,0.1 c 0.7,-0.7 1.3,-1.6 1.3,-2.6 0.1,0.4 0.4,0.7 0.8,0.8 0.3,-0.4 -0.2,-0.8 -0.3,-1.2 0.6,-0.4 0.9,0.4 1.4,0.6 0.8,0.2 1.5,0.6 2.4,0.6 l 0.3,-0.3 c -0.9,-1.4 -2.6,-1.6 -4.1,-1.7 -0.8,-1.3 -0.8,-3 -0.7,-4.6 0.2,-0.8 0.3,-1.7 0.8,-2.5 0.2,-0.6 0.8,-1.1 1.1,-1.5 0.7,-0.7 1.6,-1.2 2.5,-1.4 h 0.1 c 0,0.1 0,0.1 0,0.1 -1.1,0.8 -1.2,2 -1.8,3 -0.7,1 -1,2.4 -0.4,3.5 0.2,0.5 0.1,1.3 0.7,1.7 0.5,-0.7 0.6,-1.6 0.8,-2.4 -0.1,-1.3 -0.9,-2.6 -0.2,-3.8 0.4,-1 1.2,-1.4 2.1,-1.8 2.2,-0.2 4.1,0.9 6,1.8 0.4,0.3 1.1,0.5 1.2,1.1 0,1.1 -0.6,2.2 -1.5,2.7 -1.1,0.6 -2.6,0.7 -3.6,0 -0.6,-0.6 -0.8,-1.6 -0.6,-2.4 0.4,-0.5 1,-0.9 1.7,-0.6 0.4,0.2 0.8,0.6 1.3,0.4 0.2,-0.1 0.3,-0.4 0.2,-0.6 -0.4,-0.2 -0.6,-0.8 -1.2,-0.9 -0.8,-0.1 -1.7,-0.1 -2.2,0.4 -0.8,0.7 -1.2,1.8 -0.9,2.8 0.3,1.3 1.2,2.2 2.5,2.6 1.8,0.4 3.7,-0.1 4.9,-1.7 0.5,-0.5 0.6,-1.1 0.9,-1.7 1.9,1.2 3.3,3.2 4.1,5.3 0,0.7 0.2,1.4 0,2 l 1.4,0.1 c -0.1,-0.3 0,-0.7 0.1,-1 0.5,-2.6 2.1,-4.8 4.1,-6.6 0.7,-0.4 0.5,0.5 0.7,0.8 0.6,1.5 2,2.6 3.5,3 1.7,0.3 3.3,-0.1 4.3,-1.4 0.5,-1 1.2,-2.4 0.3,-3.4 -0.6,-0.7 -1.3,-1 -2.2,-1 -1,0 -1.7,0.7 -2.2,1.5 0,0.3 0,0.7 0.2,0.8 0.2,0 0.5,0 0.6,-0.2 0.1,-0.6 0.6,-0.9 1.1,-1.2 0.4,-0.2 0.9,0 1.3,0.2 0.4,0.4 0.5,1 0.6,1.6 -0.1,0.8 -0.6,1.6 -1.3,1.9 -1.2,0.6 -2.8,0.3 -3.8,-0.4 -0.5,-0.5 -0.8,-1.1 -1.1,-1.8 -0.1,-0.6 -0.3,-1.2 0,-1.8 1.7,-1 3.6,-1.8 5.7,-2 0.8,0.2 1.5,0.7 2.1,1.3 1.8,1.9 -0.4,4.6 0.9,6.6 0.5,-0.1 0.5,-0.7 0.7,-1.1 0.6,-1.4 -0.2,-3 -0.5,-4.4 -0.5,-0.9 -0.8,-1.6 -1.5,-2.4 0.2,-0.1 0.3,-0.1 0.5,-0.1 0.8,0.6 1.7,1.2 2.4,2.1 1.2,1.9 1.7,4.1 1.5,6.6 -0.3,1.2 -1.6,1.8 -2.6,2.2 -0.4,0.3 -0.9,0.8 -1.1,1.3 0.5,0.3 1.2,0 1.6,-0.2 0.8,-0.3 1.2,-1.2 1.7,-1.7 0.1,0 0,0.2 0.1,0.2 0,0.4 -0.2,1 0.2,1.2 0.2,-0.6 0.2,-1.4 0.4,-2 0.5,0.6 0.6,1.3 0.8,2 0.4,0.7 1,1.7 1.9,1.8 0.2,-0.4 0,-0.7 -0.1,-1 -0.1,-1 -1,-1.5 -1.5,-2.2 -1.4,-1.9 -0.8,-4.9 -1.8,-7.1 -0.4,-1.2 -1.2,-2 -2.1,-3 l 0.2,-0.2 c 1.9,0 3.6,0.6 5.4,1 2.2,1.1 5.4,0.8 6.4,3.7 0.4,1.6 1.2,3.1 2.3,4.3 l 0.1,-0.1 c 0.2,-0.4 0.2,-1.1 0,-1.5 -0.2,-2 -2,-2.5 -2.9,-4.2 l 0.1,-0.2 c 1,0.3 1.9,0.5 2.9,0.9 3.2,0.9 5.4,4 5.8,7.2 0,2.6 -0.5,4.7 -1.5,6.8 -0.1,0.3 -0.7,0.7 -0.3,1 0.4,-0.3 0.5,-0.8 0.8,-1.2 1.3,-2.2 2,-5.2 1.3,-8 0,-0.5 -0.6,-0.9 -0.4,-1.4 0.2,0.2 0.4,0.3 0.7,0.4 0.2,-0.2 0.6,-0.2 0.8,-0.4 0,-0.2 0.2,-0.5 0,-0.7 -0.2,-0.4 -0.8,-0.4 -1.2,-0.3 -0.2,0.2 -0.4,0.6 -0.5,0.9 -0.4,-0.7 -0.8,-1.6 -1.4,-2.1 l 0.1,-0.1 c 1.8,0.6 3.4,1.5 5.2,2 0.4,0.2 0.8,0.4 1.4,0.4 1.5,0.6 3.3,0.8 4.9,1.2 1.2,-0.1 2.2,0.4 3.4,0.2 v -0.1 0 c -0.4,-0.6 -1.4,0 -1.9,-0.4 -2.7,-0.3 -5.4,-1 -7.8,-2 0,-0.1 0.2,-0.1 0.3,-0.1 0.4,-0.2 0.7,-0.6 0.6,-1 -0.2,-0.3 -0.5,-0.4 -0.9,-0.4 -0.2,0.1 -0.6,0.4 -0.6,0.7 0,0.3 0.3,0.7 0.6,0.8 -0.1,0.1 -0.2,0 -0.4,0 -1.2,-0.6 -2.4,-1.1 -3.6,-1.6 -0.4,-0.1 -0.8,-0.4 -1.2,-0.5 -0.9,-0.4 -1.8,-0.9 -2.7,-1.2 -2.5,-1.3 -5.4,-2 -8.1,-3 -0.6,-0.2 -1.2,-0.3 -1.7,-0.5 -1,-0.3 -2,-0.5 -3,-0.8 -3.4,-0.8 -7.9,-0.9 -10.8,0.9 -0.5,-0.2 -0.8,0.6 -1,0.1 0.8,-2.2 3.3,-2.9 5.4,-3 15.9,-0.2 30.8,-0.3 46.5,-0.5 1.8,0 3.6,-0.6 4.6,-2.3 -0.3,-1.9 -0.2,-3.6 -0.7,-4.6 z m -63.1,14.7 c -0.2,0.5 -0.5,0.9 -0.4,1.4 l -0.2,0.1 c 0.1,-0.6 -0.5,-1 -0.3,-1.6 -0.3,-0.5 -0.3,-1.1 -0.6,-1.6 -0.4,-0.6 0.3,-0.9 0.6,-1.4 0.6,0.2 0.8,0.8 1.2,1.2 0.2,0.7 -0.3,1.3 -0.3,1.9 z"
   id="path242"
   inkscape:connector-curvature="0" />
	<path
   d="m 341.3,405.1 c 0,0.1 0.2,0.2 0.2,0.4 -1.4,1.2 -3.3,1.6 -5.3,1.7 -0.2,0 -0.3,0.2 -0.5,0.1 -0.1,-0.1 -0.2,-0.2 -0.1,-0.3 1.3,-1.6 3.5,-2.4 5.7,-1.9 z"
   id="path244"
   inkscape:connector-curvature="0" />
	<path
   d="m 334.9,405.7 c 0.2,0.6 -0.2,0.9 -0.6,1.1 -0.4,0 -0.7,-0.3 -0.9,-0.6 -0.1,-0.3 0.2,-0.5 0.3,-0.7 0.3,-0.3 1,-0.3 1.2,0.2 z"
   id="path246"
   inkscape:connector-curvature="0" />
	<path
   d="m 259.5,405.8 c 0.1,0.3 0,0.6 -0.2,0.8 -0.2,0.2 -0.5,0.2 -0.7,0.2 -0.3,0 -0.4,-0.4 -0.5,-0.6 0,-0.4 0.2,-0.6 0.5,-0.8 0.3,0.1 0.6,0 0.9,0.4 z"
   id="path248"
   inkscape:connector-curvature="0" />
	<path
   d="m 252.4,408.4 v 0.3 c -1,0.2 -1.9,0 -2.6,-0.6 -0.6,-0.8 -1.2,-1.6 -2.1,-2 0,-0.1 -0.2,-0.3 0,-0.4 2,0 3.2,1.6 4.7,2.7 z"
   id="path250"
   inkscape:connector-curvature="0" />
	<path
   d="m 347.3,405.8 c -0.9,1.4 -1.7,3 -3.3,3.6 -0.3,0 -0.5,0.4 -0.8,0.1 0.6,-1.5 2,-3.2 3.5,-3.8 0.2,0 0.4,0 0.6,0.1 z"
   id="path252"
   inkscape:connector-curvature="0" />
	<path
   d="m 261.8,406.2 c 0,0.4 -0.3,0.5 -0.6,0.8 -0.3,0 -0.5,-0.2 -0.7,-0.4 -0.2,-0.4 0.2,-0.6 0.4,-0.8 0.3,-0.1 0.7,0.2 0.9,0.4 z"
   id="path254"
   inkscape:connector-curvature="0" />
	<path
   d="m 352.3,406.5 c -0.4,0.5 -0.2,1.3 -0.6,1.8 -0.8,0.9 -1.5,2 -2.7,2.2 -0.2,-0.4 0.3,-0.8 0.5,-1.2 0.6,-1.2 1.3,-2.6 2.6,-3.1 z"
   id="path256"
   inkscape:connector-curvature="0" />
	<path
   d="m 240.1,406.8 c 0.1,0.3 0.2,0.6 0,0.9 -0.2,0.2 -0.6,0.3 -0.9,0.2 -0.4,-0.2 -0.5,-0.6 -0.3,-1 0.2,-0.3 0.9,-0.5 1.2,-0.1 z"
   id="path258"
   inkscape:connector-curvature="0" />
	<path
   d="m 237.8,407.3 c 0,0.2 0.2,0.4 0.1,0.6 -0.1,0.2 -0.3,0.4 -0.6,0.5 -0.4,0.1 -0.7,-0.2 -0.9,-0.5 0,-0.4 0.1,-0.7 0.4,-0.8 0.4,-0.3 0.8,-0.1 1,0.2 z"
   id="path260"
   inkscape:connector-curvature="0" />
	<path
   d="m 242.5,407.6 c 0.1,0.3 0.2,0.9 -0.3,1 -0.6,0.2 -0.9,-0.2 -1.2,-0.5 0,-0.4 0.2,-0.6 0.5,-0.8 0.3,-0.1 0.7,-0.1 1,0.3 z"
   id="path262"
   inkscape:connector-curvature="0" />
	<path
   d="m 249,408.1 c 0,0.3 0,0.7 -0.3,0.8 -0.2,0.2 -0.6,0.1 -0.8,0.1 -0.1,-0.2 -0.5,-0.4 -0.3,-0.7 0.2,-0.2 0.3,-0.3 0.6,-0.4 0.3,0 0.6,-0.1 0.8,0.2 z"
   id="path264"
   inkscape:connector-curvature="0" />
	<path
   d="m 356.1,408.4 c -0.1,0.3 -0.3,0.6 -0.6,0.6 -0.4,0 -0.7,-0.1 -0.9,-0.4 -0.2,-0.4 0.2,-0.7 0.5,-0.8 0.4,0 0.9,0.1 1,0.6 z"
   id="path266"
   inkscape:connector-curvature="0" />
	<path
   d="m 348.8,408.6 c 0,0.3 -0.3,0.6 -0.5,0.7 -0.6,0.2 -1,-0.2 -1.2,-0.6 0.1,-0.4 0.4,-0.6 0.7,-0.7 0.5,-0.1 0.8,0.2 1,0.6 z"
   id="path268"
   inkscape:connector-curvature="0" />
	<path
   d="m 353.7,408.5 c 0,0.3 -0.2,0.6 -0.4,0.7 -0.3,0.1 -0.7,0.1 -1,-0.2 -0.4,-0.3 -0.1,-0.6 0.2,-0.8 0.5,-0.2 1.1,-0.2 1.2,0.3 z"
   id="path270"
   inkscape:connector-curvature="0" />
	<path
   d="m 239,409.2 c 0.1,0.4 -0.1,0.8 -0.5,1 -0.4,0 -0.8,-0.2 -0.9,-0.6 0,-0.4 0.1,-0.7 0.4,-0.8 0.5,-0.2 0.8,0.1 1,0.4 z"
   id="path272"
   inkscape:connector-curvature="0" />
	<path
   d="m 346.8,409.6 c 0.1,0.4 -0.1,0.8 -0.6,1 -0.3,0.1 -0.5,-0.1 -0.8,-0.3 -0.2,-0.2 -0.4,-0.6 0,-0.8 0.4,-0.6 1.2,-0.3 1.4,0.1 z"
   id="path274"
   inkscape:connector-curvature="0" />
	<path
   d="m 260.4,410 c 0.2,0.4 -0.3,0.5 -0.4,0.8 -0.2,0.1 -0.5,0.1 -0.6,0 -0.2,-0.2 -0.4,-0.5 -0.3,-0.8 0.2,-0.2 0.3,-0.3 0.5,-0.4 0.4,-0.2 0.5,0.2 0.8,0.4 z"
   id="path276"
   inkscape:connector-curvature="0" />
	<path
   d="m 355.4,410.3 c 0.1,0.3 -0.2,0.4 -0.2,0.6 -0.2,0.2 -0.6,0.2 -0.9,0.2 -0.4,-0.2 -0.4,-0.5 -0.4,-0.9 0.2,-0.2 0.3,-0.4 0.6,-0.4 0.3,0 0.8,0.1 0.9,0.5 z"
   id="path278"
   inkscape:connector-curvature="0" />
	<path
   d="m 352.9,410.4 c 0.2,0.5 -0.3,0.7 -0.6,0.8 -0.2,0 -0.4,-0.1 -0.4,0.2 1,0.5 1.7,1.4 2.5,2.1 v 0.3 c -1.4,0 -2.9,-0.4 -3.9,-1.5 -0.3,-0.2 -0.8,-0.2 -1.1,-0.5 0.5,-0.5 1.5,-0.3 2.2,-0.4 0.5,-0.6 -0.6,-1 0.1,-1.4 0.2,0 0.4,-0.3 0.7,-0.2 0.2,0.2 0.4,0.4 0.5,0.6 z"
   id="path280"
   inkscape:connector-curvature="0" />
	<path
   d="m 336.7,410.5 c 0.1,0.2 -0.2,0.4 -0.2,0.6 -0.2,0.2 -0.6,0.3 -0.9,0.2 -0.2,-0.3 -0.5,-0.5 -0.4,-0.9 0.3,-0.6 1.4,-0.5 1.5,0.1 z"
   id="path282"
   inkscape:connector-curvature="0" />
	<path
   d="m 248,411.9 c -0.1,0.4 -0.3,0.6 -0.7,0.6 -0.3,0 -0.6,-0.2 -0.7,-0.5 0,-0.3 0.2,-0.4 0.2,-0.6 0.4,-0.4 1.2,-0.1 1.2,0.5 z"
   id="path284"
   inkscape:connector-curvature="0" />
	<path
   d="m 251.2,411.4 c 0,0.6 -0.6,0.9 -0.8,1.4 -0.6,1.3 -1.7,2.5 -3.2,2.6 -0.2,-0.4 0.5,-0.8 0.7,-1.2 0.6,-1.4 1.9,-2.1 3.1,-2.9 h 0.2 z"
   id="path286"
   inkscape:connector-curvature="0" />
	<path
   d="m 335.7,411.9 c 0,0.4 -0.4,0.8 -0.7,0.9 -0.4,0.1 -0.6,-0.2 -0.8,-0.3 -0.3,-0.3 -0.1,-0.6 0,-1 0.5,-0.4 1.2,0 1.5,0.4 z"
   id="path288"
   inkscape:connector-curvature="0" />
	<path
   d="m 338.2,412.2 c 0,0.4 -0.3,0.8 -0.7,0.9 -0.1,-0.1 -0.3,0 -0.4,-0.1 -0.3,-0.2 -0.5,-0.4 -0.5,-0.7 0.2,-0.2 0.3,-0.5 0.6,-0.6 0.3,0 0.9,0 1,0.5 z"
   id="path290"
   inkscape:connector-curvature="0" />
	<path
   d="m 257.4,412.2 c 0,0.4 -0.3,0.7 -0.6,0.8 -0.4,0 -0.6,-0.2 -0.8,-0.5 -0.1,-0.4 0.3,-0.6 0.5,-0.8 0.5,-0.1 0.6,0.2 0.9,0.5 z"
   id="path292"
   inkscape:connector-curvature="0" />
	<path
   d="m 260.1,412.3 c -0.1,0.4 -0.4,0.6 -0.8,0.7 -0.3,-0.1 -0.6,-0.2 -0.7,-0.5 0,-0.4 0.3,-0.6 0.6,-0.8 0.4,0 0.8,0.2 0.9,0.6 z"
   id="path294"
   inkscape:connector-curvature="0" />
	<path
   d="m 346.7,415.1 c 0.2,0.2 0.6,0.4 0.5,0.6 -0.6,0.3 -1.1,-0.4 -1.7,-0.6 -1,-1 -1.7,-2 -2.1,-3.2 0.4,-0.4 0.8,0.1 1.1,0.2 0.9,0.9 1.7,1.9 2.2,3 z"
   id="path296"
   inkscape:connector-curvature="0" />
	<path
   d="m 348.2,412.3 c 0.1,0.3 0.1,0.6 -0.1,0.9 -0.2,0.4 -0.8,0.3 -1.1,0.2 -0.2,-0.2 -0.6,-0.6 -0.3,-0.9 0.1,-0.3 0.5,-0.4 0.8,-0.5 0.2,0 0.4,0.2 0.7,0.3 z"
   id="path298"
   inkscape:connector-curvature="0" />
	<path
   d="m 263.7,413.4 c 0,0.3 0.1,0.8 -0.3,1 -0.4,0.1 -0.8,0 -1,-0.5 -0.2,-0.5 0.2,-0.6 0.5,-0.8 0.4,-0.1 0.6,0.1 0.8,0.3 z"
   id="path300"
   inkscape:connector-curvature="0" />
	<path
   d="m 338.1,416 c 0.6,0.8 1,1.8 1,2.8 -0.1,0.3 0.2,0.6 0,0.8 h -0.2 c -1.8,-1.3 -2.2,-3.1 -2.9,-4.9 -0.2,-0.1 -0.2,-0.2 -0.2,-0.4 0.4,-0.4 0.7,0.4 1.1,0.5 z"
   id="path302"
   inkscape:connector-curvature="0" />
	<path
   d="m 268.9,414.6 c 0,0 0,0.1 0,0 -1.5,1.2 -3.8,1.9 -5.6,0.8 0,-0.1 0,-0.3 0.2,-0.4 1.2,-0.4 2.3,-0.9 3.5,-0.8 z"
   id="path304"
   inkscape:connector-curvature="0" />
	<path
   d="m 259.9,414.8 c -1.3,0.8 -2.6,2.5 -4.2,2.9 -0.3,0.1 -0.5,0.6 -0.9,0.3 0.7,-2.2 3.1,-3.3 5.2,-3.5 v 0.3 z"
   id="path306"
   inkscape:connector-curvature="0" />
	<path
   d="m 335.7,416.6 c 0.1,0.3 0,0.8 -0.3,0.8 -0.2,0.2 -0.6,0.2 -0.8,0 -0.4,-0.2 -0.4,-0.5 -0.4,-0.8 0.1,-0.3 0.4,-0.3 0.6,-0.4 0.5,0.1 0.7,0.1 0.9,0.4 z"
   id="path308"
   inkscape:connector-curvature="0" />
	<path
   d="m 332.4,416.8 c -0.2,0.6 -0.9,0.9 -1.4,1 -1.3,0.5 -2.6,-0.2 -3.8,-0.5 0,-0.3 0.4,-0.2 0.6,-0.4 1.3,-0.3 2.7,-0.6 4,-0.2 0.2,0 0.5,-0.1 0.6,0.1 z"
   id="path310"
   inkscape:connector-curvature="0" />
	<path
   d="m 259.9,418 c -0.1,0.2 -0.2,0.5 -0.5,0.6 -0.3,0.1 -0.6,0 -0.8,-0.2 -0.1,-0.2 -0.4,-0.4 -0.2,-0.7 0.1,-0.3 0.4,-0.4 0.6,-0.4 0.5,0 0.8,0.3 0.9,0.7 z"
   id="path312"
   inkscape:connector-curvature="0" />
	<path
   d="m 262.2,418.3 c -0.1,0.2 -0.2,0.6 -0.6,0.8 -0.3,0.1 -0.6,-0.1 -0.8,-0.3 -0.1,-0.2 -0.2,-0.5 -0.1,-0.8 0.1,-0.2 0.4,-0.2 0.6,-0.4 0.4,0 0.7,0.4 0.9,0.7 z"
   id="path314"
   inkscape:connector-curvature="0" />
	<path
   d="m 335,418.7 c 0,0.3 -0.1,0.5 -0.3,0.8 -0.2,0.3 -0.6,0.3 -0.9,0.2 -0.3,0 -0.4,-0.4 -0.5,-0.6 -0.2,-0.3 0.2,-0.5 0.3,-0.8 0.5,-0.4 1.2,-0.2 1.4,0.4 z"
   id="path316"
   inkscape:connector-curvature="0" />
	<path
   d="m 336.7,418.6 c 0,0.2 0.2,0.4 0.1,0.6 -0.2,0.2 -0.4,0.7 -0.9,0.5 -0.2,0.1 -0.4,-0.2 -0.5,-0.3 -0.2,-0.4 0,-1 0.5,-1.1 0.4,-0.1 0.6,0.2 0.8,0.3 z"
   id="path318"
   inkscape:connector-curvature="0" />
	<path
   d="m 260.8,419.8 c 0.1,0.4 -0.1,0.8 -0.4,1.1 -0.4,0.1 -1,0.1 -1.2,-0.4 0,-0.4 0,-0.9 0.5,-1.2 0.4,-0.1 0.9,0 1.1,0.5 z"
   id="path320"
   inkscape:connector-curvature="0" />
	<path
   d="m 263,419.6 c -0.1,1.1 -0.3,2.5 -1.4,3.1 -0.6,0.1 -1.3,0.7 -1.9,0.3 v -0.2 c 0.8,-1.1 2.3,-2.1 3.3,-3.2 z"
   id="path322"
   inkscape:connector-curvature="0" />
	<path
   d="m 328.8,420.6 c 0.2,0.2 -0.1,0.4 -0.2,0.6 -0.2,0.3 -0.7,0.2 -1,0 -0.3,-0.1 -0.3,-0.5 -0.2,-0.8 0.1,-0.2 0.3,-0.4 0.5,-0.4 0.3,0 0.7,0.3 0.9,0.6 z"
   id="path324"
   inkscape:connector-curvature="0" />
	<path
   d="m 267,422.4 c 0.6,0.9 0.2,2.2 0.6,3.2 -0.7,0.1 -1,-0.7 -1.4,-1.1 -0.9,-1.2 -0.8,-2.8 -1.2,-4.2 0.1,-0.1 0.2,-0.1 0.3,-0.1 0.6,0.4 1,1.2 1.5,1.7 -0.1,0.2 0.2,0.2 0.2,0.5 z"
   id="path326"
   inkscape:connector-curvature="0" />
	<path
   d="m 330.7,420.9 c 0,0.3 -0.4,0.4 -0.6,0.6 -0.3,0 -0.5,-0.2 -0.8,-0.4 -0.1,-0.4 0.2,-0.5 0.4,-0.7 0.5,-0.2 0.9,0 1,0.5 z"
   id="path328"
   inkscape:connector-curvature="0" />
	<path
   d="m 335.5,424.4 c 0,0.1 0,0.4 -0.2,0.3 h -0.2 c -1.1,-1 -2.3,-2.2 -2.1,-3.8 h 0.2 c 1,0.9 2.2,1.9 2.3,3.5 z"
   id="path330"
   inkscape:connector-curvature="0" />
	<path
   d="m 332.5,423.1 c 0,0.3 -0.2,0.6 -0.4,0.8 -0.4,0.1 -1.1,0.1 -1.2,-0.5 0,-0.4 0.4,-0.6 0.6,-0.8 0.5,-0.1 0.8,0.2 1,0.5 z"
   id="path332"
   inkscape:connector-curvature="0" />
	<path
   d="m 329.9,424 c -0.6,1.5 -2.1,2.2 -3.1,3.4 -0.2,-0.1 -0.1,-0.4 -0.1,-0.6 0.4,-1.5 1.6,-3 3.1,-3.6 0.6,0 -0.1,0.5 0.1,0.8 z"
   id="path334"
   inkscape:connector-curvature="0" />
	<path
   d="m 332.8,425.2 c 0,0.4 -0.4,0.5 -0.6,0.7 -0.3,0 -0.6,-0.1 -0.9,-0.4 0,-0.4 0.3,-0.5 0.5,-0.7 0.5,-0.1 0.9,0.1 1,0.4 z"
   id="path336"
   inkscape:connector-curvature="0" />
	<path
   d="m 303.3,352.7 c 0.5,0 1,0.4 1,1 0,0.5 -0.4,1 -1,1 h -11.8 c -0.5,0 -1,-0.4 -1,-1 0,-0.5 0.4,-1 1,-1 z m -8.3,1.7 c 1.1,0 0.1,-1.4 -0.6,-1.4 h -1.1 c -1.1,0 -0.1,1.4 0.6,1.4 z m 4.8,0 c 1.1,0 0.1,-1.4 -0.6,-1.4 h -1.1 c -1.1,0 -0.1,1.4 0.6,1.4 z m 3.6,-1.4 H 303 c -1.1,0 -0.2,1.4 0.4,1.4 0.8,0 0.8,-1.4 0,-1.4 z"
   id="path338"
   inkscape:connector-curvature="0" />
	<path
   d="m 302.3,366.2 2.2,0.9 2.2,-0.9 -0.9,3.3 1.8,-0.4 -0.6,2 0.6,1.9 -1.6,-0.4 0.7,3.6 -2.2,-0.9 -2.2,0.9 0.9,-3.6 -1.8,0.5 0.5,-2 -0.5,-1.9 1.7,0.3 z m 3.3,5.9 c 0.5,0 0.5,-0.7 0.5,-1.3 0,-1.4 -1.1,0 -1.6,-1.3 -0.4,1.1 -1.5,0.1 -1.5,1.2 0,0.8 0,1.3 0.8,1.3 h 1.8 z m -2.2,-1.2 c 0,0.5 0.7,0.2 1.2,0.2 0.5,0 1.2,0.3 1.2,-0.2 0,-0.7 -0.7,-0.5 -1.2,-0.5 -0.5,0 -1.2,-0.2 -1.2,0.5 z"
   id="path340"
   inkscape:connector-curvature="0" />
	<polygon
   points="296.8,369.9 297.2,369.9 297.4,369.5 297.6,369.9 298,369.9 297.8,370.2 298.1,370.5 297.7,370.6 297.7,371 297.4,370.8 297,371 297,370.6 296.7,370.5 297,370.2 "
   id="polygon342" />
	<polygon
   points="295,372.1 295.4,372.2 295.6,371.8 295.9,372.2 296.3,372.1 296.1,372.5 296.4,372.8 296,372.8 296,373.3 295.6,373 295.3,373.3 295.3,372.8 294.9,372.8 295.2,372.5 "
   id="polygon344" />
	<polygon
   points="298,371.8 298.4,371.9 298.6,371.5 298.8,371.9 299.2,371.8 299,372.2 299.3,372.5 299,372.6 299,373 298.6,372.7 298.2,373 298.2,372.6 297.9,372.5 298.2,372.2 "
   id="polygon346" />
	<polygon
   points="298.4,374 298.7,374 298.8,373.8 298.9,374 299.1,374 299,374.2 299.2,374.4 299,374.4 299,374.7 298.8,374.5 298.6,374.7 298.6,374.4 298.4,374.4 298.6,374.2 "
   id="polygon348" />
	<polygon
   points="295.4,374.6 296.1,374.7 296.5,374 296.9,374.7 297.5,374.6 297.2,375.2 297.7,375.7 297.1,375.9 297.1,376.6 296.5,376.1 295.9,376.6 295.9,375.9 295.2,375.7 295.7,375.2 "
   id="polygon350" />
	<polygon
   points="303.4,346.7 299.8,347.3 300,351 297.3,348.5 294.5,351 294.7,347.3 291.1,346.7 294.1,344.5 292.3,341.3 295.9,342.3 297.3,338.9 298.6,342.3 302.2,341.3 300.4,344.5 "
   id="polygon352" />
	<path
   d="m 284.5,415.9 c -0.4,0.2 -0.6,0.3 -0.5,0.7 l 0.5,2.1 c 0.1,0.4 0.1,1 -0.1,1.4 -0.3,0.5 -1,0.7 -1.4,0.9 -0.3,0.1 -1.1,0.2 -1.7,0 -0.4,-0.2 -0.7,-0.4 -0.8,-1.1 l -0.5,-2.2 c -0.1,-0.6 -0.3,-0.5 -0.8,-0.5 V 417 l 2.7,-0.6 v 0.2 c -0.5,0.1 -0.8,0.2 -0.6,0.8 l 0.5,2.2 c 0.1,0.4 0.3,1.3 1.4,1 1.4,-0.3 1.2,-1.3 1.1,-1.8 l -0.5,-2 c -0.1,-0.4 -0.2,-0.6 -0.9,-0.5 v -0.2 l 1.7,-0.4 z"
   id="path354"
   inkscape:connector-curvature="0" />
	<path
   d="m 288.4,416.4 c -0.2,-0.4 -0.9,-1.1 -1.8,-0.9 -0.4,0.1 -0.8,0.4 -0.7,0.8 0.1,0.4 0.3,0.5 1,0.6 l 1.3,0.2 c 0.3,0.1 1,0.3 1.1,1 0.1,0.6 -0.2,1.5 -1.7,1.8 -0.7,0.2 -1.2,0 -1.4,0.1 -0.2,0 -0.2,0.2 -0.2,0.3 l -0.2,0.1 -0.4,-1.6 0.2,-0.1 c 0.3,0.6 0.9,1.3 1.9,1.1 0.9,-0.2 0.8,-0.9 0.8,-1 -0.1,-0.4 -0.5,-0.5 -1.1,-0.6 l -0.6,-0.1 c -1.5,-0.2 -1.6,-0.8 -1.7,-1.1 -0.1,-0.4 0,-1.4 1.5,-1.7 0.6,-0.1 1.1,0 1.3,-0.1 0.2,0 0.2,-0.1 0.2,-0.3 l 0.2,-0.1 0.3,1.4 z"
   id="path356"
   inkscape:connector-curvature="0" />
	<path
   d="m 293.6,419 -2.9,0.3 v -0.2 c 0.6,-0.1 0.8,-0.1 0.7,-0.7 l -0.3,-3.6 c -0.6,0.1 -1.4,0.2 -1.4,1.3 h -0.2 l -0.1,-1.4 4.8,-0.5 0.1,1.4 h -0.2 c -0.3,-1.1 -1.1,-1 -1.7,-1 l 0.3,3.6 c 0.1,0.6 0.2,0.6 0.8,0.5 z"
   id="path358"
   inkscape:connector-curvature="0" />
	<path
   d="m 300.4,419 h -1.7 l -1.6,-2.2 h -0.2 v 1.3 c 0,0.5 0.2,0.6 0.7,0.6 v 0.2 l -2.7,-0.1 v -0.2 c 0.6,0 0.7,-0.1 0.7,-0.6 l 0.1,-3 c 0,-0.6 -0.2,-0.6 -0.7,-0.6 v -0.2 l 2.6,0.1 c 0.6,0 2.3,0.1 2.3,1.2 0,0.8 -0.9,1 -1.3,1.1 l 1.6,2 c 0.1,0.1 0.2,0.1 0.3,0.1 z m -3.5,-2.4 c 1.1,0 1.5,-0.1 1.5,-1 0,-0.7 -0.3,-1 -1,-1 -0.4,0 -0.5,0.1 -0.5,0.3 z"
   id="path360"
   inkscape:connector-curvature="0" />
	<path
   d="m 305.7,419.7 -2.6,-0.3 v -0.2 c 0.5,0 0.6,0 0.7,-0.2 0,-0.2 -0.2,-0.7 -0.3,-0.9 l -1.8,-0.2 c -0.3,0.5 -0.4,0.7 -0.5,0.8 0,0.3 0.4,0.3 0.6,0.4 v 0.2 l -1.6,-0.2 v -0.2 c 0.4,0 0.6,-0.2 0.9,-0.7 l 2.2,-3.5 h 0.2 l 1.3,3.8 c 0.3,0.8 0.4,1 0.8,1 z m -2.3,-1.9 -0.6,-1.7 -1,1.5 z"
   id="path362"
   inkscape:connector-curvature="0" />
	<path
   d="m 310.4,420.6 -4.6,-0.8 v -0.2 c 0.5,0 0.7,0.1 0.8,-0.3 l 0.6,-3.2 c 0.1,-0.4 -0.2,-0.5 -0.6,-0.6 v -0.2 l 2.8,0.5 v 0.2 c -0.6,-0.1 -0.8,-0.1 -0.9,0.5 l -0.6,3.2 c -0.1,0.3 0.1,0.4 0.6,0.5 1.2,0.2 1.7,-0.3 2.3,-0.9 h 0.2 z"
   id="path364"
   inkscape:connector-curvature="0" />
	<path
   d="m 313.4,421.3 -2.8,-0.6 v -0.2 c 0.4,0.1 0.7,0.1 0.8,-0.3 l 0.7,-3.2 c 0.1,-0.4 -0.3,-0.5 -0.6,-0.6 v -0.2 l 2.8,0.6 v 0.2 c -0.4,-0.1 -0.8,-0.1 -0.8,0.3 l -0.7,3.2 c -0.1,0.4 0.2,0.5 0.7,0.6 z"
   id="path366"
   inkscape:connector-curvature="0" />
	<path
   d="m 319.1,422 -2.6,-0.3 v -0.2 c 0.5,0 0.6,0 0.7,-0.2 0,-0.2 -0.2,-0.7 -0.3,-0.9 l -1.8,-0.2 c -0.3,0.5 -0.4,0.7 -0.4,0.8 0,0.3 0.4,0.3 0.6,0.4 v 0.2 l -1.6,-0.2 v -0.2 c 0.4,0 0.6,-0.2 0.9,-0.7 l 2.2,-3.5 h 0.2 l 1.4,3.7 c 0.3,0.8 0.4,1 0.8,1 z m -2.3,-1.8 -0.6,-1.7 -0.9,1.6 z"
   id="path368"
   inkscape:connector-curvature="0" />
	<path
   d="m 298.4,367.2 c 0,-1.6 -0.9,-0.1 -1.4,-1.5 -0.4,1.2 -1.5,0.2 -1.5,1.4 0,0.5 0.1,0.8 0.4,0.9 v 0.5 c 0,0.1 0.1,0.2 0.2,0.2 h 1.7 c 0.1,0 0.2,-0.1 0.2,-0.2 V 368 c 0.2,-0.1 0.4,-0.4 0.4,-0.8 z m -1.4,0.4 c -0.5,0 -1.1,0.3 -1.1,-0.2 0,-0.8 0.5,-0.6 1,-0.6 0.5,0 1.2,-0.2 1.2,0.6 0,0.5 -0.7,0.2 -1.1,0.2 z"
   id="path370"
   inkscape:connector-curvature="0" />
	<path
   d="m 312.6,387.3 c 0.4,0 0.7,-0.3 0.7,-0.7 0,-0.4 -0.3,-0.7 -0.7,-0.7 -0.4,0 -0.7,0.3 -0.7,0.7 -0.1,0.4 0.2,0.7 0.7,0.7 z"
   id="path372"
   inkscape:connector-curvature="0" />
	<path
   d="m 309,363.1 c 0,0 -0.4,0.6 -0.4,0.7 0,0.2 0.2,0.4 0.4,0.4 0.2,0 0.4,-0.2 0.4,-0.4 0,0 -0.4,-0.7 -0.4,-0.7 z"
   id="path374"
   inkscape:connector-curvature="0" />
	<path
   d="m 285.1,363.1 c 0,0 -0.4,0.6 -0.4,0.7 0,0.2 0.2,0.4 0.4,0.4 0.2,0 0.4,-0.2 0.4,-0.4 -0.1,0 -0.4,-0.7 -0.4,-0.7 z"
   id="path376"
   inkscape:connector-curvature="0" />
	<path
   d="m 291.1,363.1 c 0,0 -0.3,0.6 -0.3,0.7 0,0.2 0.2,0.4 0.4,0.4 0.2,0 0.4,-0.2 0.4,-0.4 -0.2,0 -0.5,-0.7 -0.5,-0.7 z"
   id="path378"
   inkscape:connector-curvature="0" />
	<path
   d="m 297.1,363.1 c 0,0 -0.4,0.6 -0.4,0.7 0,0.2 0.2,0.4 0.4,0.4 0.2,0 0.4,-0.2 0.4,-0.4 -0.1,0 -0.4,-0.7 -0.4,-0.7 z"
   id="path380"
   inkscape:connector-curvature="0" />
	<path
   d="m 303.1,363.1 c 0,0 -0.3,0.6 -0.3,0.7 0,0.2 0.2,0.4 0.4,0.4 0.2,0 0.4,-0.2 0.4,-0.4 -0.2,0 -0.5,-0.7 -0.5,-0.7 z"
   id="path382"
   inkscape:connector-curvature="0" />
	<path
   d="m 285.1,371.3 c 0,0 0.3,0.6 0.3,0.7 0,0.2 -0.2,0.4 -0.4,0.4 -0.2,0 -0.4,-0.2 -0.4,-0.4 0.1,0 0.5,-0.7 0.5,-0.7 z"
   id="path384"
   inkscape:connector-curvature="0" />
	<path
   d="m 285.1,379.3 c 0,0 0.3,0.6 0.3,0.7 0,0.2 -0.2,0.4 -0.4,0.4 -0.2,0 -0.4,-0.2 -0.4,-0.4 0.1,0 0.5,-0.7 0.5,-0.7 z"
   id="path386"
   inkscape:connector-curvature="0" />
	<path
   d="m 286.1,385.6 c 0,0 0.4,0.6 0.4,0.7 0,0.2 -0.2,0.4 -0.4,0.4 -0.2,0 -0.4,-0.2 -0.4,-0.4 0,0 0.4,-0.7 0.4,-0.7 z"
   id="path388"
   inkscape:connector-curvature="0" />
	<path
   d="m 291.1,389 c 0,0 0.4,0.6 0.4,0.7 0,0.2 -0.2,0.4 -0.4,0.4 -0.2,0 -0.4,-0.2 -0.4,-0.4 0,0 0.4,-0.7 0.4,-0.7 z"
   id="path390"
   inkscape:connector-curvature="0" />
	<path
   d="m 309.3,371.3 c 0,0 -0.3,0.6 -0.3,0.7 0,0.2 0.2,0.4 0.4,0.4 0.2,0 0.4,-0.2 0.4,-0.4 -0.1,0 -0.5,-0.7 -0.5,-0.7 z"
   id="path392"
   inkscape:connector-curvature="0" />
	<path
   d="m 309.3,379.3 c 0,0 -0.3,0.6 -0.3,0.7 0,0.2 0.2,0.4 0.4,0.4 0.2,0 0.4,-0.2 0.4,-0.4 -0.1,0 -0.5,-0.7 -0.5,-0.7 z"
   id="path394"
   inkscape:connector-curvature="0" />
	<path
   d="m 308.4,385.6 c 0,0 -0.4,0.6 -0.4,0.7 0,0.2 0.2,0.4 0.4,0.4 0.2,0 0.4,-0.2 0.4,-0.4 -0.1,0 -0.4,-0.7 -0.4,-0.7 z"
   id="path396"
   inkscape:connector-curvature="0" />
	<path
   d="m 303.4,389 c 0,0 -0.3,0.6 -0.3,0.7 0,0.2 0.2,0.4 0.4,0.4 0.2,0 0.4,-0.2 0.4,-0.4 -0.2,0 -0.5,-0.7 -0.5,-0.7 z"
   id="path398"
   inkscape:connector-curvature="0" />
	<path
   d="m 297.2,392.6 c 0,0 -0.3,0.6 -0.3,0.7 0,0.2 0.2,0.4 0.4,0.4 0.2,0 0.4,-0.2 0.4,-0.4 -0.1,0 -0.5,-0.7 -0.5,-0.7 z"
   id="path400"
   inkscape:connector-curvature="0" />
	<path
   d="m 307,380.7 c 0.1,0.1 0.3,0.2 0.5,0.1 l 0.2,-0.6 c 0,0 -0.3,-0.3 -0.4,-0.3 -0.6,0.2 -1.3,0.2 -1.7,0.8 0,0.4 0.3,0.8 0.6,1 0.2,-0.1 0.3,0.2 0.4,0.3 0,0.2 -0.1,0.3 -0.3,0.3 -0.5,-0.5 -1.2,0.2 -1.6,-0.4 0.1,-0.6 0.5,-1.2 0,-1.7 0,-0.1 0.2,-0.2 0.1,-0.3 -0.2,-0.5 -0.8,-0.1 -1.1,-0.1 -0.6,-0.1 -1,0.2 -1.4,0.7 0,0.2 0.1,0.4 0.3,0.6 0.2,0 0.2,0 0.3,0.2 l -0.4,0.2 c 0.1,0.1 0.1,0.3 0.2,0.4 -0.3,0.1 -0.5,-0.3 -0.6,-0.5 0,-0.3 0,-0.8 -0.4,-0.9 -0.1,0 -0.3,0.1 -0.3,0.1 -0.1,0.1 -0.2,0.4 -0.2,0.6 0,0.3 0.1,0.7 0.1,0.7 0,0 1.2,0.9 1.4,1.4 -0.3,0.7 -0.3,1.6 -1.1,2 -0.2,0.2 -0.2,0.4 -0.2,0.6 l 0.2,0.2 c 0.5,-0.3 1.4,-0.3 1.4,-1.2 0.2,-0.3 0.4,-0.7 0.7,-1 0.4,-0.1 0.7,0.1 0.9,0.4 -0.1,0.6 -0.5,0.9 -1,1.1 -0.1,0.1 0,0.2 0,0.3 0.2,0.3 0.6,0.2 0.8,0.1 0.6,-0.4 0.9,-1.2 1.5,-1.4 0.1,0.4 -0.8,0.5 -0.2,0.9 0.3,-0.1 0.8,0 1,-0.4 -0.3,-0.6 0.9,-0.9 0.2,-1.5 0,-0.6 0.6,-0.8 0.6,-1.4 -0.2,-0.6 -0.9,-0.6 -1.1,-1.2 0,-0.3 0.4,-0.3 0.6,-0.1 z"
   id="path402"
   inkscape:connector-curvature="0" />
	<path
   d="m 279.5,387.6 c 0.4,0 0.7,-0.3 0.7,-0.7 0,-0.4 -0.3,-0.7 -0.7,-0.7 -0.4,0 -0.7,0.3 -0.7,0.7 -0.1,0.4 0.3,0.7 0.7,0.7 z"
   id="path404"
   inkscape:connector-curvature="0" />
	<path
   d="m 240.6,410.3 c 0.4,0 0.7,-0.3 0.7,-0.7 0,-0.4 -0.3,-0.7 -0.7,-0.7 -0.4,0 -0.7,0.3 -0.7,0.7 0,0.3 0.3,0.7 0.7,0.7 z"
   id="path406"
   inkscape:connector-curvature="0" />
	<path
   d="m 265.3,415.8 v 0 0 l -0.1,-0.1 v 0 c 0,0.1 0.1,0.1 0.1,0.1 v 0 h -0.2 v 0 c 0,0 0,0 0,0 v -0.1 c 0,0 0,0 0,0 v 0 h 0.1 c 0.1,-0.1 0.1,-0.1 0.1,0.1 0,-0.1 0,-0.1 0,0 v 0 c 0,0 0,0 0,0 z m -0.1,-0.1 c 0.1,0 0.1,0 0,0 0.1,-0.1 0.1,-0.1 0,0 0,-0.1 0,-0.1 0,0 z"
   id="path408"
   inkscape:connector-curvature="0" />
	<path
   d="m 265.5,415.7 c -0.1,0 -0.1,-0.1 0,0 -0.1,-0.1 -0.1,-0.1 0,0 -0.1,0 -0.1,0 0,0 v 0 c -0.1,0 0,0 0,0 0,0 0,0.1 0,0 -0.1,0.1 -0.1,0.1 0,0 -0.1,0.1 -0.1,0.1 0,0 l -0.1,0.1 v 0 l 0.1,-0.1 c -0.1,0 -0.1,0.1 0,0 -0.1,0.1 -0.1,0 0,0 -0.1,0 -0.1,0 0,0 v 0 c -0.1,0 -0.1,0 0,0 -0.1,0 -0.1,-0.1 0,0 -0.1,-0.1 -0.1,-0.1 0,0 -0.1,-0.1 0,-0.1 0,0 z"
   id="path410"
   inkscape:connector-curvature="0" />
	<path
   d="m 265.7,415.6 c 0,0 0,0 0,0 l -0.1,0.1 v 0 -0.1 0 0.1 0 -0.1 c 0,0 0,0 0,0 v 0 h 0.1 v 0 c 0,0 0,0 0,0 0,0 0,0 0,0 v 0.1 0 -0.1 0 c 0,0 0,0 0,0 v 0 0 0 c -0.1,0 -0.1,0 0,0 -0.1,0 -0.1,0 0,0 v 0 0 0 c 0,0 0,0 0,0 0,0 0,0 0,0 z"
   id="path412"
   inkscape:connector-curvature="0" />
	<path
   d="m 265.7,415.8 c 0,0 0.1,-0.1 0,0 0.1,-0.1 0.1,-0.1 0,0 0.1,-0.1 0.1,-0.1 0,0 0,-0.1 0,-0.1 0,0 0,-0.1 0,-0.1 0.1,-0.1 0,0 0.1,0 0.1,0.1 -0.1,-0.1 -0.1,0 -0.2,0 z m 0.1,-0.1 c 0,0 0,0 0,0 0,0 0,0 0,0 0,-0.1 0,-0.1 0,0 -0.1,-0.1 -0.1,-0.1 0,0 -0.1,0 -0.1,0 0,0 z"
   id="path414"
   inkscape:connector-curvature="0" />
	<path
   d="m 265.8,415.7 c 0.1,0 0.1,0 0,0 0.1,0 0.1,0 0,0 0.1,0 0.1,0.1 0,0 0,0.1 0,0.1 0,0 0,0 0,0 0,0 0,0 0.1,0.1 0,0 0.1,0.1 0.1,0 0,0 0.1,0 0.1,0 0,0 0.1,0 0,0 0,0 v 0 0 z"
   id="path416"
   inkscape:connector-curvature="0" />
	<path
   d="m 311,362.2 v 0 h -27.6 v 0 0 21.1 c 0,2.2 0.9,4 2.2,4.6 l 10.6,6.8 c 0.2,0.3 0.6,0.4 1,0.4 0.3,0 0.6,-0.1 0.9,-0.3 l 10.8,-6.8 c 1.3,-0.6 2.2,-2.5 2.2,-4.6 z m -0.7,21.4 c -0.1,1.6 -0.7,2.9 -1.8,3.7 l -10.4,6.6 H 298 c -0.2,0.2 -0.5,0.3 -0.8,0.3 -0.3,0 -0.6,-0.1 -0.8,-0.3 L 286,387.3 c -1.1,-0.8 -1.6,-2.1 -1.8,-3.7 v -20.7 h 26.1 z"
   id="path418"
   inkscape:connector-curvature="0" />
	<path
   d="m 300.9,392.9 0.3,-0.2 c -0.1,0.1 -0.2,0.2 -0.3,0.2 z"
   id="path420"
   inkscape:connector-curvature="0" />
	<path
   d="m 280.1,421.8 -2.6,0.3 v -0.2 c 0.5,-0.1 0.6,-0.1 0.6,-0.3 0,-0.2 -0.3,-0.7 -0.5,-0.9 l -1.8,0.2 c -0.2,0.5 -0.3,0.8 -0.3,0.9 0,0.3 0.4,0.2 0.7,0.2 v 0.2 l -1.6,0.2 v -0.2 c 0.4,-0.1 0.5,-0.3 0.7,-0.9 l 1.4,-3.9 h 0.2 l 2.2,3.3 c 0.4,0.7 0.6,0.9 1,0.8 z m -2.7,-1.3 -1,-1.5 -0.6,1.7 z"
   id="path422"
   inkscape:connector-curvature="0" />
	<path
   d="m 325.9,411.9 c -0.5,-1.2 -1.5,-2.1 -2.7,-2.5 -1.3,-0.3 -2.6,-0.1 -3.5,0.9 -1.4,1.2 -0.4,3.1 -0.4,4.6 0,0.3 0,0.6 -0.3,0.7 -5.8,-0.5 -11.1,-2 -16.8,-2.6 -1.3,-0.2 -2.6,-0.2 -3.9,-0.4 l -1.6,-0.2 c -5,0.2 -9.9,0.4 -14.6,1.6 -1,0.3 -2.1,0.4 -3.1,0.8 -0.7,-0.1 -1.3,0.4 -2,0.2 l -1.3,0.3 c -0.1,0 -0.3,0 -0.4,0 -0.6,-1.6 1.3,-2.6 0.7,-4.2 -0.5,-0.9 -1.5,-1.8 -2.7,-1.6 -1.3,-0.2 -2.5,0.6 -3.2,1.6 -0.9,2 0.2,4.1 0.6,6 -0.1,0.6 0.6,1.4 0,1.9 -1.3,-0.9 -2.9,-1.4 -4.5,-0.9 -0.5,0.2 -1.3,-0.1 -1.6,0.5 1.7,0.9 3.9,0.8 5.8,0.7 0.2,-0.1 0.4,-0.1 0.6,0 0.2,1 -0.2,2.4 0.4,3.4 0.7,1 1.9,1.2 3.1,1.3 3.7,-0.1 6.9,-1.2 10.2,-2 0.5,0 0.9,-0.3 1.5,-0.3 1.8,-0.4 3.7,-0.7 5.6,-0.8 -0.8,1.1 -1.3,2.3 -1.7,3.6 -0.5,1.1 0.8,1.2 1.2,1.8 -1.2,0.4 -2.1,1.2 -3.3,1.7 -2.5,-0.1 -4.7,0.9 -7.1,1.2 0,0.5 0.8,0.4 0.9,0.9 -0.1,0.4 -0.5,0.4 -0.8,0.6 0,0.2 0,0.3 0.2,0.3 0.2,-0.3 0.8,-0.1 1,-0.4 0.8,0 1.5,-0.2 2.2,-0.3 0.7,-0.3 1.4,-0.3 2,-0.8 0.8,-0.2 1.3,-0.8 2.2,-1 1.2,0 2.3,-0.4 3.4,-0.5 v 0.2 c -0.9,1.5 -1.9,3 -2.8,4.4 -0.2,0.3 0,0.6 0.3,0.6 0.6,0.2 1.1,0 1.5,-0.2 0.8,-1.4 1.6,-2.8 2.3,-4.3 0.3,-1.4 1.3,-2.1 2.3,-3 0.2,-0.1 0.4,-0.3 0.6,-0.1 -0.8,0.9 -1.3,1.8 -1.9,2.8 -0.3,1.1 -0.4,2.6 0.6,3.5 0.5,0.4 1.2,0.3 1.8,0.3 1.5,-0.8 3.5,0.5 4.7,-1 0.7,-0.1 0.8,0.7 1.2,1.1 0.7,0.2 1.4,0.9 2.1,0.4 0,-0.4 -0.5,-0.8 -0.8,-1.2 -0.5,-0.8 -1.1,-1.5 -1.5,-2.3 -0.2,-0.6 -0.6,-0.9 -0.6,-1.5 0.7,0.2 1.3,0.7 2.1,0.8 0.7,0.3 1.5,0.2 2.1,0.6 0.5,0.7 1.3,1.1 2,1.5 1,0.5 2.1,0.6 3.1,1 0.4,0 1,0.4 1.3,0 -0.2,-0.2 -0.4,-0.3 -0.6,-0.4 -0.1,-0.5 0.7,-0.2 1,-0.6 -0.1,-0.2 -0.3,-0.3 -0.5,-0.3 -0.6,-0.3 -2,-0.4 -2.4,-0.6 -0.5,-0.1 -0.9,-0.3 -1.4,-0.4 -2.4,0 -3.7,-2.2 -5.6,-3 0.4,-0.4 1.1,-0.7 1.4,-1.3 0.4,-0.6 0.5,-1.5 0.1,-2.1 -0.4,-1.2 -1.9,-1.1 -2.9,-1.8 l 0.1,-0.1 c 1.5,-0.1 2.9,0.3 4.3,0.6 3.8,0.5 7.3,2 11.3,2 2.2,0 4.9,0.1 6,-2 0.2,-1.2 0.4,-2.5 0.6,-3.7 1,-1.9 2.3,-3.8 2.1,-6 z m -42.9,18.2 -0.6,-0.5 c 0.3,-0.4 0.9,-0.2 1.3,-0.4 1,-0.3 2.2,-0.7 3.4,-0.5 -1.1,1 -2.7,1.1 -4.1,1.4 z m 24.8,-0.6 c 0.9,0.4 2.9,0.8 4.2,1 -0.1,0.5 -1.1,0 -1,0.8 -1.2,-0.5 -2.7,-0.7 -3.6,-1.7 0.1,0 0.2,-0.1 0.4,-0.1 z m -37.2,-17 c 0.1,-0.7 0.3,-1.5 1,-2 1,-0.5 2.3,-0.4 3.1,0.1 0.3,0.2 0.5,0.4 0.6,0.8 0.2,0.7 -0.1,1.4 -0.6,1.8 h -0.4 c 0,-0.6 0,-1.3 0.2,-1.8 0,-0.5 -0.4,-0.5 -0.8,-0.7 -0.7,-0.2 -1.3,0.1 -1.8,0.4 -0.4,0.5 -0.8,1.1 -0.5,1.8 0.3,0.4 0,1 0.2,1.5 l -0.1,0.2 c -0.4,-0.6 -1.1,-1.2 -0.9,-2.1 z m 1.8,1.2 c 0.6,0.4 1.4,0.2 2.1,0.4 0.1,0.4 0.1,1 -0.2,1.4 -0.7,-0.2 -1.5,-0.1 -1.9,-0.7 0.1,-0.4 0,-0.8 0,-1.1 z m -0.1,-1.4 c 0.1,-0.3 0,-0.8 0.4,-0.9 0.3,-0.1 0.7,-0.1 0.8,0.2 0,0.5 -0.1,1 -0.2,1.4 -0.6,0.1 -0.8,-0.2 -1,-0.7 z m 18.6,12.8 c -0.2,-1.4 0.4,-2.6 1.3,-3.6 0.6,-0.1 1.2,-0.2 1.7,0.1 -1,0.3 -2.3,0.5 -2.6,1.8 0,0.5 -0.1,0.8 0.1,1.2 0.4,0.8 1.4,0.4 2,1 0,0.2 -0.2,0.4 -0.4,0.5 -0.6,-0.3 -1.5,-0.4 -2.1,-1 z m -1.4,2.8 c 1,-0.4 1.9,-1.2 3,-0.9 -0.8,0.6 -2,0.9 -3,0.9 z m 3.8,0.4 c -0.6,1.3 -1.2,2.5 -1.9,3.8 -0.1,0.2 -0.4,0.2 -0.6,0.3 0,-0.6 0.6,-1 0.8,-1.5 0.8,-1.1 1.1,-2.2 2,-3.3 0.1,0.2 -0.3,0.4 -0.3,0.7 z m 0.9,-2.3 v 0.2 h -0.1 l 0.1,-0.2 v 0 0 c 0.1,-0.1 0,-0.1 0,0 z m -0.3,-1.1 c -0.7,-0.1 -1.3,-0.3 -1.9,-0.5 -0.4,-0.4 0,-0.8 0,-1.3 0.6,-0.9 2.1,-1.3 2.9,-0.5 -0.1,0.9 -0.5,1.7 -1,2.3 z m 0.9,0 c 0.1,-0.5 0.4,-1.2 0.6,-1.7 0,0.5 -0.3,1.3 -0.6,1.7 z m 0.4,-3.2 c -0.5,-0.1 -0.8,-0.7 -1.3,-0.7 0.5,-0.2 1,-0.1 1.5,0 0.2,0.2 -0.2,0.4 -0.2,0.7 z m 0.5,1.2 v 0 -0.4 0 z m 0,1.8 c 0,-0.2 0.1,-0.4 0.1,-0.6 0.2,-0.2 0.4,0.2 0.5,0.3 -0.1,0.2 -0.3,0.3 -0.6,0.3 z m 0.6,-2.5 c 0.2,-0.6 0.2,-1 0.6,-1.5 0.4,0 0.8,0 1.1,0.2 0.1,0.8 1.1,1.9 0,2.6 -0.4,0.2 -0.9,0.5 -1.3,0.2 -0.5,-0.5 -0.6,-0.9 -0.4,-1.5 z m 2.9,-1.1 c -0.1,-0.4 0.4,-0.1 0.5,-0.2 l 1.2,0.1 c -0.6,-0.1 -1.4,1.3 -1.7,0.1 z m 2,0.5 c -0.5,0.2 -0.8,0.7 -1.3,0.8 0.2,-0.4 0.8,-0.8 1.3,-0.8 z m -1.7,2.5 v 0.1 0 z m 0.1,2.4 c 0,0.1 0,0.2 -0.1,0.3 l -0.9,-0.7 c 0.4,-0.1 0.8,0.1 1,0.4 z m -1.1,-1.2 c 0.1,-0.1 0.3,-0.1 0.4,0 z m -0.5,-0.6 c 0.2,-0.2 0.4,-0.6 0.6,-0.6 0,0 0,0.1 0.1,0.1 -0.2,0.2 -0.4,0.4 -0.7,0.5 z m -0.9,-0.1 h -0.2 l 0.2,-0.2 c 0.2,0.1 0,0.1 0,0.2 z m 0.1,1.5 c 0.5,-0.6 1,0.3 1.2,0.8 0.6,0.9 2.1,1.7 1.5,2.9 -0.8,0.7 -1.9,0 -2.8,0.6 -0.4,0 -1.2,0.1 -1.4,-0.4 0.5,-1.3 0.8,-2.7 1.5,-3.9 z m -1.1,0.8 0.2,-0.3 c -0.3,1 -0.8,2 -1.3,2.9 -0.3,-1 0.7,-1.8 1.1,-2.6 z m 1.7,4.8 c -0.8,0 -1.9,0.5 -2.6,-0.2 0,-0.3 -0.3,-0.5 -0.3,-0.8 0.6,-0.2 1.2,0.5 1.8,0 0.9,0 1.9,-0.1 2.8,0.1 0.4,0.1 1.1,-0.7 1.2,0.1 -0.3,1.3 -1.9,0.4 -2.9,0.8 z m 2.3,-5.8 v -0.1 h 0.1 z m 0.3,2.5 c 0,0.4 0.4,0.6 0.2,0.9 -0.1,-0.1 -0.4,-0.5 -0.2,-0.9 z m 1.1,2.4 -0.2,0.1 c -0.2,-0.2 -0.1,-0.6 -0.1,-0.8 0.2,0.2 0.4,0.4 0.3,0.7 z m 2,1 c 0,0.1 -0.2,0.1 -0.3,0 -1.2,-1.5 -1.7,-3.1 -2.5,-4.8 h 0.2 c 0.8,1.5 1.6,3.3 2.6,4.8 z m 1.4,-3.7 c -0.1,0 -0.1,0.1 -0.1,0.2 -1.2,0 -1.9,-0.6 -2.8,-1.2 v -0.2 c 1.1,0 2,0.7 2.9,1.2 z m -1,-5.3 c 0.5,0.1 0.5,0.6 0.6,1 0,0.9 -0.5,1.6 -1.3,2 -0.4,0.2 -1.1,0.3 -1.5,0.2 1,0 2,-0.4 2.4,-1.4 z m -0.9,-0.2 c 0.2,0.6 0.6,1.1 0.4,1.8 -0.4,0.8 -1.2,0.8 -1.9,0.9 -0.4,0 -0.6,-0.1 -0.9,-0.3 0,-0.2 0,-0.3 -0.2,-0.4 0.1,-0.5 -0.9,-1 -0.2,-1.5 0.6,-0.6 2.1,-1.9 2.8,-0.5 z m 20.2,-2.9 c -0.3,0.4 0,1 -0.4,1.4 0,0.7 -0.6,1.1 -1.1,1.4 -4.7,1 -9.4,-0.6 -13.9,-1.4 -6.4,-1.4 -13.8,-1.8 -20.3,-0.3 -3.1,0.6 -6,1.3 -9,2.1 -1.8,0.2 -3.8,0.5 -5.6,0 -1.4,-0.7 -0.8,-2.5 -1.3,-3.8 0.1,-1 -0.3,-1.8 -0.3,-2.8 -0.1,-0.3 -0.2,-0.7 -0.2,-1 0.6,0.1 1.2,0.5 1.8,0.7 3.3,0.6 6.3,-0.4 9.4,-1 3,-0.6 6,-1.2 9.2,-1.4 3.6,0 7.2,-0.2 10.6,0.4 1.1,0 2.1,0.3 3.1,0.4 2.2,0.3 4.3,0.9 6.5,1 0.4,0.1 0.8,0.1 1.2,0.2 3.6,0.6 7.6,1.6 11,0 0.1,1.4 -0.5,2.7 -0.7,4.1 z m -1.1,-4.9 c 0,0.6 -0.6,0.5 -0.9,0.7 h -1 c -0.2,-0.3 -0.1,-0.8 -0.1,-1.1 0.6,0.2 1.4,0.2 2,0.4 z m -0.5,-1 c 0.4,-0.4 -0.1,-3 1.1,-1.3 0,0.3 0,0.8 -0.3,1 -0.2,0.2 -0.5,0.5 -0.8,0.3 z m 3.2,-0.4 c -0.4,0.7 -0.9,1.2 -1.7,1.4 0,-1 0.9,-1.6 0.6,-2.7 -0.5,-0.8 -1.5,-1 -2.5,-0.8 -0.4,0.2 -0.2,0.6 -0.3,1 l -0.2,1.3 c -0.8,0 -0.8,-0.7 -1.1,-1.3 0,-0.8 0.4,-1.7 1.2,-2.1 0.6,-0.3 1.7,-0.3 2.3,0.1 0.5,0.1 1.1,0.4 1.3,0.8 0.7,0.6 0.5,1.6 0.4,2.3 z"
   id="path424"
   inkscape:connector-curvature="0" />
	<line
   class="st2"
   x1="156"
   y1="476"
   x2="438.39999"
   y2="476"
   id="line426"
   style="fill:none;stroke:#000000;stroke-width:1.27559996;stroke-miterlimit:3.86369991" />
	<path
   class="st0"
   d="m 165.8,498.9 h -5.6 l -0.7,1.5 c -0.2,0.5 -0.3,0.9 -0.3,1.3 0,0.4 0.2,0.8 0.5,1 0.2,0.1 0.7,0.2 1.6,0.3 v 0.4 H 156 V 503 c 0.6,-0.1 1,-0.3 1.4,-0.7 0.4,-0.4 0.8,-1.2 1.4,-2.4 l 5.7,-12.7 h 0.2 l 5.7,13 c 0.5,1.2 1,2 1.3,2.3 0.3,0.2 0.6,0.4 1.1,0.4 v 0.4 h -7.7 V 503 h 0.3 c 0.6,0 1.1,-0.1 1.3,-0.3 0.2,-0.1 0.3,-0.3 0.3,-0.5 0,-0.1 0,-0.3 -0.1,-0.4 0,-0.1 -0.1,-0.4 -0.4,-0.9 z m -0.4,-0.8 -2.4,-5.5 -2.4,5.5 z"
   id="path428"
   inkscape:connector-curvature="0"
   style="clip-rule:evenodd;fill-rule:evenodd" />
	<path
   d="m 183,492.5 v 8.6 c 0,0.8 0.1,1.4 0.2,1.6 0.2,0.2 0.5,0.3 0.9,0.4 v 0.4 h -4.5 V 502 c -0.5,0.6 -1,1.1 -1.6,1.4 -0.5,0.3 -1.1,0.4 -1.8,0.4 -0.6,0 -1.2,-0.2 -1.7,-0.6 -0.5,-0.4 -0.8,-0.8 -1,-1.3 -0.2,-0.5 -0.2,-1.4 -0.2,-2.7 v -4.3 c 0,-0.8 -0.1,-1.3 -0.2,-1.5 -0.1,-0.2 -0.5,-0.3 -0.9,-0.4 v -0.4 h 4.5 v 7.5 c 0,0.8 0,1.3 0.1,1.5 0.1,0.2 0.2,0.4 0.4,0.5 0.2,0.1 0.4,0.2 0.6,0.2 0.3,0 0.5,-0.1 0.8,-0.2 0.3,-0.2 0.7,-0.6 1.1,-1.2 V 495 c 0,-0.8 -0.1,-1.3 -0.2,-1.5 -0.1,-0.2 -0.5,-0.3 -0.9,-0.4 v -0.4 h 4.4 z"
   id="path430"
   inkscape:connector-curvature="0" />
	<path
   d="m 192.2,492.2 0.2,3.7 H 192 c -0.5,-1.1 -1,-1.9 -1.5,-2.3 -0.5,-0.4 -1,-0.6 -1.5,-0.6 -0.3,0 -0.6,0.1 -0.8,0.3 -0.2,0.2 -0.3,0.5 -0.3,0.7 0,0.2 0.1,0.4 0.2,0.6 0.2,0.3 0.9,0.9 2.1,1.7 1.1,0.8 1.9,1.4 2.3,2 0.4,0.5 0.6,1.1 0.6,1.8 0,0.6 -0.2,1.2 -0.5,1.8 -0.3,0.6 -0.7,1 -1.3,1.3 -0.6,0.3 -1.2,0.5 -1.8,0.5 -0.5,0 -1.2,-0.2 -2.1,-0.5 -0.2,-0.1 -0.4,-0.1 -0.5,-0.1 -0.3,0 -0.5,0.2 -0.6,0.6 h -0.4 l -0.2,-3.9 h 0.4 c 0.4,1 0.8,1.8 1.4,2.3 0.6,0.5 1.2,0.8 1.7,0.8 0.4,0 0.7,-0.1 0.9,-0.3 0.2,-0.2 0.4,-0.5 0.4,-0.8 0,-0.4 -0.1,-0.7 -0.4,-1 -0.2,-0.3 -0.8,-0.7 -1.6,-1.2 -1.2,-0.8 -2,-1.5 -2.3,-1.9 -0.5,-0.6 -0.8,-1.3 -0.8,-2.1 0,-0.8 0.3,-1.6 0.9,-2.3 0.6,-0.7 1.4,-1 2.5,-1 0.6,0 1.2,0.1 1.7,0.4 0.2,0.1 0.4,0.2 0.5,0.2 0.1,0 0.3,0 0.3,-0.1 0.1,-0.1 0.2,-0.2 0.4,-0.5 h 0.5 z"
   id="path432"
   inkscape:connector-curvature="0" />
	<path
   d="m 198.5,488.5 v 4 h 2.6 v 1.2 h -2.6 v 6.8 c 0,0.6 0,1 0.1,1.2 0.1,0.2 0.2,0.3 0.3,0.4 0.1,0.1 0.3,0.2 0.4,0.2 0.5,0 1,-0.4 1.4,-1.2 l 0.4,0.3 c -0.6,1.5 -1.7,2.3 -3.1,2.3 -0.7,0 -1.3,-0.2 -1.8,-0.6 -0.5,-0.4 -0.8,-0.8 -0.9,-1.3 -0.1,-0.3 -0.1,-1 -0.1,-2.2 v -5.9 h -1.4 v -0.4 c 1,-0.7 1.8,-1.4 2.5,-2.2 0.7,-0.8 1.3,-1.6 1.8,-2.6 z"
   id="path434"
   inkscape:connector-curvature="0" />
	<path
   d="m 206.7,492.5 v 2.5 c 0.7,-1.1 1.4,-1.9 1.9,-2.3 0.5,-0.4 1.1,-0.6 1.6,-0.6 0.4,0 0.8,0.1 1,0.4 0.3,0.3 0.4,0.6 0.4,1.1 0,0.5 -0.1,0.9 -0.4,1.2 -0.3,0.3 -0.6,0.4 -0.9,0.4 -0.4,0 -0.8,-0.1 -1.1,-0.4 -0.3,-0.3 -0.5,-0.4 -0.5,-0.4 -0.1,0 -0.2,-0.1 -0.3,-0.1 -0.2,0 -0.4,0.1 -0.6,0.3 -0.3,0.3 -0.6,0.6 -0.7,1.1 -0.3,0.8 -0.4,1.6 -0.4,2.5 v 2.5 0.7 c 0,0.4 0,0.7 0.1,0.9 0.1,0.2 0.2,0.4 0.4,0.5 0.2,0.1 0.5,0.2 0.9,0.2 v 0.4 h -5.9 V 503 c 0.5,0 0.8,-0.2 1,-0.4 0.2,-0.2 0.3,-0.8 0.3,-1.8 v -6.1 c 0,-0.6 0,-1 -0.1,-1.2 -0.1,-0.2 -0.2,-0.4 -0.3,-0.5 -0.1,-0.1 -0.4,-0.2 -0.8,-0.2 v -0.4 h 4.4 z"
   id="path436"
   inkscape:connector-curvature="0" />
	<path
   class="st0"
   d="m 218.1,501.8 c -1.3,1.2 -2.5,1.8 -3.6,1.8 -0.6,0 -1.1,-0.2 -1.6,-0.6 -0.4,-0.4 -0.6,-0.9 -0.6,-1.5 0,-0.8 0.4,-1.6 1.1,-2.3 0.7,-0.7 2.3,-1.6 4.7,-2.7 v -1.1 c 0,-0.8 0,-1.3 -0.1,-1.6 -0.1,-0.2 -0.3,-0.4 -0.5,-0.6 -0.3,-0.2 -0.5,-0.2 -0.8,-0.2 -0.5,0 -0.9,0.1 -1.3,0.3 -0.2,0.1 -0.3,0.3 -0.3,0.5 0,0.2 0.1,0.4 0.3,0.6 0.3,0.3 0.4,0.7 0.4,1 0,0.4 -0.1,0.7 -0.4,1 -0.3,0.3 -0.7,0.4 -1.1,0.4 -0.5,0 -0.9,-0.1 -1.2,-0.4 -0.3,-0.3 -0.5,-0.6 -0.5,-1 0,-0.6 0.2,-1.1 0.7,-1.6 0.4,-0.5 1.1,-0.9 1.9,-1.2 0.8,-0.3 1.6,-0.4 2.5,-0.4 1,0 1.9,0.2 2.5,0.7 0.6,0.4 1,0.9 1.2,1.4 0.1,0.3 0.2,1.1 0.2,2.3 v 4.3 c 0,0.5 0,0.8 0.1,0.9 0,0.1 0.1,0.2 0.2,0.3 0.1,0.1 0.2,0.1 0.3,0.1 0.2,0 0.4,-0.1 0.6,-0.4 l 0.4,0.3 c -0.4,0.6 -0.8,1 -1.2,1.3 -0.4,0.3 -0.9,0.4 -1.4,0.4 -0.6,0 -1.1,-0.1 -1.5,-0.4 -0.7,-0.5 -0.9,-1 -1,-1.6 z m 0,-0.8 v -3.7 c -0.9,0.6 -1.6,1.1 -2.1,1.8 -0.3,0.4 -0.5,0.8 -0.5,1.3 0,0.4 0.1,0.7 0.4,0.9 0.2,0.2 0.5,0.3 0.8,0.3 0.4,0 0.9,-0.2 1.4,-0.6 z"
   id="path438"
   inkscape:connector-curvature="0"
   style="clip-rule:evenodd;fill-rule:evenodd" />
	<path
   d="m 227.9,487.6 v 13.6 c 0,0.8 0.1,1.3 0.3,1.5 0.2,0.2 0.5,0.3 1.1,0.4 v 0.4 h -5.9 V 503 c 0.5,0 0.8,-0.2 1.1,-0.4 0.2,-0.2 0.2,-0.7 0.2,-1.4 v -11.3 c 0,-0.8 -0.1,-1.3 -0.3,-1.5 -0.2,-0.2 -0.5,-0.3 -1,-0.4 v -0.4 z"
   id="path440"
   inkscape:connector-curvature="0" />
	<path
   class="st0"
   d="m 233.1,487.2 c 0.5,0 0.9,0.2 1.3,0.5 0.4,0.4 0.5,0.8 0.5,1.3 0,0.5 -0.2,0.9 -0.5,1.3 -0.4,0.4 -0.8,0.5 -1.3,0.5 -0.5,0 -0.9,-0.2 -1.3,-0.5 -0.4,-0.4 -0.5,-0.8 -0.5,-1.3 0,-0.5 0.2,-0.9 0.5,-1.3 0.4,-0.3 0.8,-0.5 1.3,-0.5 z m 1.7,5.3 v 8.7 c 0,0.8 0.1,1.3 0.3,1.5 0.2,0.2 0.5,0.3 1.1,0.4 v 0.4 h -5.9 V 503 c 0.5,0 0.8,-0.2 1.1,-0.4 0.2,-0.2 0.2,-0.7 0.2,-1.4 v -6.4 c 0,-0.8 -0.1,-1.3 -0.3,-1.5 -0.2,-0.2 -0.5,-0.3 -1,-0.4 v -0.4 z"
   id="path442"
   inkscape:connector-curvature="0"
   style="clip-rule:evenodd;fill-rule:evenodd" />
	<path
   class="st0"
   d="m 243,501.8 c -1.3,1.2 -2.5,1.8 -3.6,1.8 -0.6,0 -1.1,-0.2 -1.6,-0.6 -0.4,-0.4 -0.6,-0.9 -0.6,-1.5 0,-0.8 0.4,-1.6 1.1,-2.3 0.7,-0.7 2.3,-1.6 4.7,-2.7 v -1.1 c 0,-0.8 0,-1.3 -0.1,-1.6 -0.1,-0.2 -0.3,-0.4 -0.5,-0.6 -0.3,-0.2 -0.5,-0.2 -0.8,-0.2 -0.5,0 -0.9,0.1 -1.3,0.3 -0.2,0.1 -0.3,0.3 -0.3,0.5 0,0.2 0.1,0.4 0.3,0.6 0.3,0.3 0.4,0.7 0.4,1 0,0.4 -0.1,0.7 -0.4,1 -0.3,0.3 -0.7,0.4 -1.1,0.4 -0.5,0 -0.9,-0.1 -1.2,-0.4 -0.3,-0.3 -0.5,-0.6 -0.5,-1 0,-0.6 0.2,-1.1 0.7,-1.6 0.4,-0.5 1.1,-0.9 1.9,-1.2 0.8,-0.3 1.6,-0.4 2.5,-0.4 1,0 1.9,0.2 2.5,0.7 0.6,0.4 1,0.9 1.2,1.4 0.1,0.3 0.2,1.1 0.2,2.3 v 4.3 c 0,0.5 0,0.8 0.1,0.9 0,0.1 0.1,0.2 0.2,0.3 0.1,0.1 0.2,0.1 0.3,0.1 0.2,0 0.4,-0.1 0.6,-0.4 l 0.4,0.3 c -0.4,0.6 -0.8,1 -1.2,1.3 -0.4,0.3 -0.9,0.4 -1.4,0.4 -0.6,0 -1.1,-0.1 -1.5,-0.4 -0.7,-0.5 -0.9,-1 -1,-1.6 z m 0,-0.8 v -3.7 c -0.9,0.6 -1.6,1.1 -2.1,1.8 -0.3,0.4 -0.5,0.8 -0.5,1.3 0,0.4 0.1,0.7 0.4,0.9 0.2,0.2 0.5,0.3 0.8,0.3 0.4,0 0.9,-0.2 1.4,-0.6 z"
   id="path444"
   inkscape:connector-curvature="0"
   style="clip-rule:evenodd;fill-rule:evenodd" />
	<path
   d="m 252.7,492.5 v 1.4 c 0.6,-0.6 1.1,-1.1 1.6,-1.3 0.5,-0.3 1.1,-0.4 1.7,-0.4 0.7,0 1.3,0.2 1.8,0.6 0.5,0.4 0.8,0.9 0.9,1.5 0.1,0.4 0.2,1.3 0.2,2.6 v 4.3 c 0,0.8 0.1,1.4 0.2,1.6 0.2,0.2 0.5,0.3 1,0.4 v 0.4 h -5.5 V 503 c 0.4,-0.1 0.7,-0.2 0.9,-0.5 0.1,-0.2 0.2,-0.7 0.2,-1.5 v -4.9 c 0,-0.9 0,-1.5 -0.1,-1.7 -0.1,-0.2 -0.2,-0.4 -0.4,-0.5 -0.2,-0.1 -0.3,-0.2 -0.6,-0.2 -0.7,0 -1.3,0.5 -1.9,1.4 v 5.9 c 0,0.8 0.1,1.3 0.2,1.6 0.2,0.2 0.4,0.4 0.9,0.4 v 0.4 h -5.5 V 503 c 0.5,0 0.8,-0.2 1,-0.4 0.1,-0.2 0.2,-0.7 0.2,-1.5 v -6.2 c 0,-0.8 -0.1,-1.3 -0.2,-1.5 -0.1,-0.2 -0.5,-0.3 -0.9,-0.4 v -0.4 h 4.3 z"
   id="path446"
   inkscape:connector-curvature="0" />
	<path
   class="st0"
   d="m 271.9,496.2 v 4.5 c 0,0.9 0.1,1.4 0.2,1.6 0.1,0.2 0.3,0.4 0.6,0.5 0.3,0.1 0.8,0.2 1.5,0.2 v 0.4 H 266 V 503 c 0.7,0 1.2,-0.1 1.5,-0.2 0.3,-0.1 0.4,-0.3 0.6,-0.5 0.1,-0.2 0.2,-0.8 0.2,-1.6 v -10.3 c 0,-0.9 -0.1,-1.4 -0.2,-1.6 -0.1,-0.2 -0.3,-0.4 -0.6,-0.5 -0.3,-0.1 -0.8,-0.2 -1.5,-0.2 v -0.4 h 7.4 c 1.9,0 3.3,0.1 4.2,0.4 0.9,0.3 1.6,0.8 2.2,1.5 0.6,0.7 0.8,1.5 0.8,2.5 0,1.2 -0.4,2.1 -1.3,2.9 -0.5,0.5 -1.3,0.8 -2.3,1.1 l 3.8,5.4 c 0.5,0.7 0.9,1.1 1.1,1.3 0.3,0.2 0.7,0.4 1.1,0.4 v 0.4 h -5 l -5.1,-7.2 h -1 z m 0,-7.8 v 7 h 0.7 c 1.1,0 1.9,-0.1 2.4,-0.3 0.5,-0.2 1,-0.6 1.3,-1.1 0.3,-0.5 0.5,-1.2 0.5,-2 0,-1.2 -0.3,-2.1 -0.9,-2.7 -0.6,-0.6 -1.5,-0.9 -2.7,-0.9 z"
   id="path448"
   inkscape:connector-curvature="0"
   style="clip-rule:evenodd;fill-rule:evenodd" />
	<path
   class="st0"
   d="m 292.2,497.6 h -6 c 0.1,1.5 0.5,2.6 1.2,3.4 0.5,0.6 1.2,1 1.9,1 0.5,0 0.9,-0.1 1.3,-0.4 0.4,-0.3 0.8,-0.7 1.2,-1.4 l 0.4,0.3 c -0.6,1.2 -1.3,2.1 -2,2.6 -0.7,0.5 -1.6,0.7 -2.5,0.8 -1.6,0 -2.9,-0.6 -3.7,-1.9 -0.7,-1 -1,-2.3 -1,-3.8 0,-1.8 0.5,-3.3 1.5,-4.4 1,-1.1 2.2,-1.6 3.5,-1.6 1.1,0 2.1,0.5 2.9,1.4 0.8,0.9 1.3,2.2 1.3,4 z m -2.8,-0.8 c 0,-1.3 -0.1,-2.1 -0.2,-2.6 -0.1,-0.5 -0.3,-0.8 -0.6,-1.1 -0.2,-0.1 -0.4,-0.2 -0.7,-0.2 -0.4,0 -0.7,0.2 -1,0.6 -0.5,0.7 -0.7,1.6 -0.7,2.9 v 0.4 z"
   id="path450"
   inkscape:connector-curvature="0"
   style="clip-rule:evenodd;fill-rule:evenodd" />
	<path
   d="m 300.5,492.2 0.2,3.7 h -0.4 c -0.5,-1.1 -1,-1.9 -1.5,-2.3 -0.5,-0.4 -1,-0.6 -1.5,-0.6 -0.3,0 -0.6,0.1 -0.8,0.3 -0.2,0.2 -0.3,0.5 -0.3,0.7 0,0.2 0.1,0.4 0.2,0.6 0.2,0.3 0.9,0.9 2.1,1.7 1.1,0.8 1.9,1.4 2.3,2 0.4,0.5 0.6,1.1 0.6,1.8 0,0.6 -0.2,1.2 -0.5,1.8 -0.3,0.6 -0.7,1 -1.3,1.3 -0.6,0.3 -1.2,0.5 -1.8,0.5 -0.5,0 -1.2,-0.2 -2.1,-0.5 -0.2,-0.1 -0.4,-0.1 -0.5,-0.1 -0.3,0 -0.5,0.2 -0.6,0.6 h -0.4 l -0.2,-3.9 h 0.4 c 0.4,1 0.8,1.8 1.4,2.3 0.6,0.5 1.2,0.8 1.7,0.8 0.4,0 0.7,-0.1 0.9,-0.3 0.2,-0.2 0.4,-0.5 0.4,-0.8 0,-0.4 -0.1,-0.7 -0.4,-1 -0.2,-0.3 -0.8,-0.7 -1.6,-1.2 -1.2,-0.8 -2,-1.5 -2.3,-1.9 -0.5,-0.6 -0.8,-1.3 -0.8,-2.1 0,-0.8 0.3,-1.6 0.9,-2.3 0.6,-0.7 1.4,-1 2.5,-1 0.6,0 1.2,0.1 1.7,0.4 0.2,0.1 0.4,0.2 0.5,0.2 0.1,0 0.3,0 0.3,-0.1 0.1,-0.1 0.2,-0.2 0.4,-0.5 h 0.5 z"
   id="path452"
   inkscape:connector-curvature="0" />
	<path
   class="st0"
   d="m 312,497.6 h -6 c 0.1,1.5 0.5,2.6 1.2,3.4 0.5,0.6 1.2,1 1.9,1 0.5,0 0.9,-0.1 1.3,-0.4 0.4,-0.3 0.8,-0.7 1.2,-1.4 l 0.4,0.3 c -0.6,1.2 -1.3,2.1 -2,2.6 -0.7,0.5 -1.6,0.7 -2.5,0.8 -1.6,0 -2.9,-0.6 -3.7,-1.9 -0.7,-1 -1,-2.3 -1,-3.8 0,-1.8 0.5,-3.3 1.5,-4.4 1,-1.1 2.2,-1.6 3.5,-1.6 1.1,0 2.1,0.5 2.9,1.4 0.8,0.9 1.2,2.2 1.3,4 z m -2.9,-0.8 c 0,-1.3 -0.1,-2.1 -0.2,-2.6 -0.1,-0.5 -0.3,-0.8 -0.6,-1.1 -0.2,-0.1 -0.4,-0.2 -0.7,-0.2 -0.4,0 -0.7,0.2 -1,0.6 -0.5,0.7 -0.7,1.6 -0.7,2.9 v 0.4 z"
   id="path454"
   inkscape:connector-curvature="0"
   style="clip-rule:evenodd;fill-rule:evenodd" />
	<path
   class="st0"
   d="m 319.2,501.8 c -1.3,1.2 -2.5,1.8 -3.6,1.8 -0.6,0 -1.1,-0.2 -1.6,-0.6 -0.4,-0.4 -0.6,-0.9 -0.6,-1.5 0,-0.8 0.4,-1.6 1.1,-2.3 0.7,-0.7 2.3,-1.6 4.7,-2.7 v -1.1 c 0,-0.8 0,-1.3 -0.1,-1.6 -0.1,-0.2 -0.3,-0.4 -0.5,-0.6 -0.3,-0.2 -0.5,-0.2 -0.8,-0.2 -0.5,0 -0.9,0.1 -1.3,0.3 -0.2,0.1 -0.3,0.3 -0.3,0.5 0,0.2 0.1,0.4 0.3,0.6 0.3,0.3 0.4,0.7 0.4,1 0,0.4 -0.1,0.7 -0.4,1 -0.3,0.3 -0.7,0.4 -1.1,0.4 -0.5,0 -0.9,-0.1 -1.2,-0.4 -0.3,-0.3 -0.5,-0.6 -0.5,-1 0,-0.6 0.2,-1.1 0.7,-1.6 0.4,-0.5 1.1,-0.9 1.9,-1.2 0.8,-0.3 1.6,-0.4 2.5,-0.4 1,0 1.9,0.2 2.5,0.7 0.6,0.4 1,0.9 1.2,1.4 0.1,0.3 0.2,1.1 0.2,2.3 v 4.3 c 0,0.5 0,0.8 0.1,0.9 0,0.1 0.1,0.2 0.2,0.3 0.1,0.1 0.2,0.1 0.3,0.1 0.2,0 0.4,-0.1 0.6,-0.4 l 0.4,0.3 c -0.4,0.6 -0.8,1 -1.2,1.3 -0.4,0.3 -0.9,0.4 -1.4,0.4 -0.6,0 -1.1,-0.1 -1.5,-0.4 -0.7,-0.5 -0.9,-1 -1,-1.6 z m 0,-0.8 v -3.7 c -0.9,0.6 -1.6,1.1 -2.1,1.8 -0.3,0.4 -0.5,0.8 -0.5,1.3 0,0.4 0.1,0.7 0.4,0.9 0.2,0.2 0.5,0.3 0.8,0.3 0.4,0 0.9,-0.2 1.4,-0.6 z"
   id="path456"
   inkscape:connector-curvature="0"
   style="clip-rule:evenodd;fill-rule:evenodd" />
	<path
   d="m 329.4,492.5 v 2.5 c 0.7,-1.1 1.4,-1.9 1.9,-2.3 0.5,-0.4 1.1,-0.6 1.6,-0.6 0.4,0 0.8,0.1 1,0.4 0.3,0.3 0.4,0.6 0.4,1.1 0,0.5 -0.1,0.9 -0.4,1.2 -0.3,0.3 -0.6,0.4 -0.9,0.4 -0.4,0 -0.8,-0.1 -1.1,-0.4 -0.3,-0.3 -0.5,-0.4 -0.5,-0.4 -0.1,0 -0.2,-0.1 -0.3,-0.1 -0.2,0 -0.4,0.1 -0.6,0.3 -0.3,0.3 -0.6,0.6 -0.7,1.1 -0.3,0.8 -0.4,1.6 -0.4,2.5 v 2.5 0.7 c 0,0.4 0,0.7 0.1,0.9 0.1,0.2 0.2,0.4 0.4,0.5 0.2,0.1 0.5,0.2 0.9,0.2 v 0.4 H 325 V 503 c 0.5,0 0.8,-0.2 1,-0.4 0.2,-0.2 0.3,-0.8 0.3,-1.8 v -6.1 c 0,-0.6 0,-1 -0.1,-1.2 -0.1,-0.2 -0.2,-0.4 -0.3,-0.5 -0.1,-0.1 -0.4,-0.2 -0.8,-0.2 v -0.4 h 4.3 z"
   id="path458"
   inkscape:connector-curvature="0" />
	<path
   d="m 343.8,500.6 0.4,0.3 c -0.5,1 -1.2,1.7 -1.9,2.2 -0.8,0.5 -1.6,0.7 -2.4,0.7 -1.5,0 -2.6,-0.6 -3.5,-1.7 -0.9,-1.1 -1.3,-2.4 -1.3,-4 0,-1.5 0.4,-2.8 1.2,-3.9 1,-1.4 2.3,-2.1 4,-2.1 1.1,0 2,0.3 2.7,0.9 0.7,0.6 1,1.2 1,1.9 0,0.4 -0.1,0.8 -0.4,1.1 -0.3,0.3 -0.6,0.4 -1.1,0.4 -0.5,0 -0.8,-0.2 -1.1,-0.5 -0.3,-0.3 -0.5,-0.8 -0.6,-1.6 0,-0.5 -0.2,-0.8 -0.3,-1 -0.2,-0.2 -0.4,-0.3 -0.6,-0.3 -0.4,0 -0.7,0.2 -1,0.6 -0.4,0.6 -0.6,1.5 -0.6,2.8 0,1 0.2,2 0.5,3 0.3,0.9 0.8,1.6 1.3,2.1 0.4,0.3 0.9,0.5 1.5,0.5 0.4,0 0.7,-0.1 1.1,-0.3 0.2,-0.2 0.6,-0.6 1.1,-1.1 z"
   id="path460"
   inkscape:connector-curvature="0" />
	<path
   d="m 349.2,487.6 v 6.3 c 0.6,-0.6 1.2,-1.1 1.7,-1.3 0.5,-0.3 1,-0.4 1.6,-0.4 0.7,0 1.3,0.2 1.8,0.6 0.5,0.4 0.8,0.9 1,1.4 0.2,0.5 0.2,1.4 0.2,2.7 v 4.3 c 0,0.8 0.1,1.4 0.2,1.6 0.2,0.2 0.5,0.3 0.9,0.4 v 0.4 H 351 V 503 c 0.4,-0.1 0.7,-0.2 0.9,-0.5 0.1,-0.2 0.2,-0.7 0.2,-1.5 v -4.9 c 0,-0.9 0,-1.5 -0.1,-1.7 -0.1,-0.2 -0.2,-0.4 -0.4,-0.5 -0.2,-0.1 -0.4,-0.2 -0.6,-0.2 -0.3,0 -0.6,0.1 -0.9,0.3 -0.3,0.2 -0.6,0.6 -1,1.1 v 5.9 c 0,0.8 0.1,1.3 0.2,1.5 0.1,0.3 0.5,0.4 0.9,0.5 v 0.4 h -5.6 V 503 c 0.5,0 0.8,-0.2 1,-0.4 0.1,-0.2 0.2,-0.7 0.2,-1.5 V 490 c 0,-0.8 -0.1,-1.3 -0.2,-1.5 -0.1,-0.2 -0.5,-0.3 -0.9,-0.4 v -0.4 h 4.5 z"
   id="path462"
   inkscape:connector-curvature="0" />
	<path
   class="st0"
   d="m 378.1,487.2 v 5.5 h -0.5 c -0.3,-1.4 -1,-2.5 -1.9,-3.3 -0.9,-0.8 -2,-1.1 -3.2,-1.1 -1,0 -1.9,0.3 -2.7,0.9 -0.8,0.6 -1.4,1.3 -1.8,2.2 -0.5,1.2 -0.7,2.5 -0.7,3.9 0,1.4 0.2,2.7 0.5,3.9 0.4,1.2 0.9,2 1.7,2.6 0.8,0.6 1.8,0.9 3,0.9 1,0 1.9,-0.2 2.7,-0.7 0.8,-0.4 1.7,-1.2 2.6,-2.3 v 1.4 c -0.9,0.9 -1.8,1.6 -2.8,2 -1,0.4 -2.1,0.6 -3.4,0.6 -1.7,0 -3.2,-0.3 -4.5,-1 -1.3,-0.7 -2.3,-1.7 -3,-2.9 -0.7,-1.3 -1.1,-2.6 -1.1,-4.1 0,-1.5 0.4,-3 1.2,-4.3 0.8,-1.4 1.9,-2.4 3.2,-3.2 1.4,-0.8 2.8,-1.1 4.3,-1.1 1.1,0 2.3,0.2 3.5,0.7 0.7,0.3 1.2,0.4 1.4,0.4 0.2,0 0.5,-0.1 0.6,-0.3 0.2,-0.2 0.3,-0.5 0.4,-0.9 h 0.5 z"
   id="path464"
   inkscape:connector-curvature="0"
   style="clip-rule:evenodd;fill-rule:evenodd" />
	<path
   class="st0"
   d="m 384.2,492.2 c 1,0 1.8,0.2 2.7,0.7 0.8,0.5 1.4,1.2 1.9,2.1 0.4,0.9 0.6,1.9 0.6,3 0,1.6 -0.4,2.9 -1.2,3.9 -1,1.3 -2.3,1.9 -3.9,1.9 -1.6,0 -2.9,-0.6 -3.8,-1.7 -0.9,-1.2 -1.3,-2.5 -1.3,-4 0,-1.6 0.5,-2.9 1.4,-4.1 0.8,-1.2 2,-1.8 3.6,-1.8 z m 0.1,0.8 c -0.4,0 -0.7,0.2 -1,0.5 -0.3,0.3 -0.5,0.9 -0.6,1.8 -0.1,0.9 -0.1,2.1 -0.1,3.7 0,0.8 0.1,1.6 0.2,2.3 0.1,0.6 0.3,1 0.6,1.3 0.3,0.3 0.6,0.4 1,0.4 0.4,0 0.6,-0.1 0.9,-0.3 0.3,-0.3 0.5,-0.6 0.6,-1.1 0.2,-0.7 0.2,-2.2 0.2,-4.5 0,-1.3 -0.1,-2.2 -0.2,-2.7 -0.1,-0.5 -0.4,-0.9 -0.7,-1.1 -0.4,-0.2 -0.6,-0.3 -0.9,-0.3 z"
   id="path466"
   inkscape:connector-curvature="0"
   style="clip-rule:evenodd;fill-rule:evenodd" />
	<path
   d="m 400.7,492.5 v 8.6 c 0,0.8 0.1,1.4 0.2,1.6 0.2,0.2 0.5,0.3 0.9,0.4 v 0.4 h -4.5 V 502 c -0.5,0.6 -1,1.1 -1.6,1.4 -0.5,0.3 -1.1,0.4 -1.8,0.4 -0.6,0 -1.2,-0.2 -1.7,-0.6 -0.5,-0.4 -0.8,-0.8 -1,-1.3 -0.2,-0.5 -0.2,-1.4 -0.2,-2.7 v -4.3 c 0,-0.8 -0.1,-1.3 -0.2,-1.5 -0.1,-0.2 -0.5,-0.3 -0.9,-0.4 v -0.4 h 4.5 v 7.5 c 0,0.8 0,1.3 0.1,1.5 0.1,0.2 0.2,0.4 0.4,0.5 0.2,0.1 0.4,0.2 0.6,0.2 0.3,0 0.5,-0.1 0.8,-0.2 0.3,-0.2 0.7,-0.6 1.1,-1.2 V 495 c 0,-0.8 -0.1,-1.3 -0.2,-1.5 -0.1,-0.2 -0.5,-0.3 -0.9,-0.4 v -0.4 h 4.4 z"
   id="path468"
   inkscape:connector-curvature="0" />
	<path
   d="m 407.4,492.5 v 1.4 c 0.6,-0.6 1.1,-1.1 1.6,-1.3 0.5,-0.3 1.1,-0.4 1.7,-0.4 0.7,0 1.3,0.2 1.8,0.6 0.5,0.4 0.8,0.9 0.9,1.5 0.1,0.4 0.2,1.3 0.2,2.6 v 4.3 c 0,0.8 0.1,1.4 0.2,1.6 0.2,0.2 0.5,0.3 1,0.4 v 0.4 h -5.5 V 503 c 0.4,-0.1 0.7,-0.2 0.9,-0.5 0.1,-0.2 0.2,-0.7 0.2,-1.5 v -4.9 c 0,-0.9 0,-1.5 -0.1,-1.7 -0.1,-0.2 -0.2,-0.4 -0.4,-0.5 -0.2,-0.1 -0.3,-0.2 -0.6,-0.2 -0.7,0 -1.3,0.5 -1.9,1.4 v 5.9 c 0,0.8 0.1,1.3 0.2,1.6 0.2,0.2 0.4,0.4 0.9,0.4 v 0.4 H 403 V 503 c 0.5,0 0.8,-0.2 1,-0.4 0.1,-0.2 0.2,-0.7 0.2,-1.5 v -6.2 c 0,-0.8 -0.1,-1.3 -0.2,-1.5 -0.1,-0.2 -0.5,-0.3 -0.9,-0.4 v -0.4 h 4.3 z"
   id="path470"
   inkscape:connector-curvature="0" />
	<path
   d="m 424.3,500.6 0.4,0.3 c -0.5,1 -1.2,1.7 -1.9,2.2 -0.8,0.5 -1.6,0.7 -2.4,0.7 -1.5,0 -2.6,-0.6 -3.5,-1.7 -0.9,-1.1 -1.3,-2.4 -1.3,-4 0,-1.5 0.4,-2.8 1.2,-3.9 1,-1.4 2.3,-2.1 4,-2.1 1.1,0 2,0.3 2.7,0.9 0.7,0.6 1,1.2 1,1.9 0,0.4 -0.1,0.8 -0.4,1.1 -0.3,0.3 -0.6,0.4 -1.1,0.4 -0.5,0 -0.8,-0.2 -1.1,-0.5 -0.3,-0.3 -0.5,-0.8 -0.6,-1.6 0,-0.5 -0.2,-0.8 -0.3,-1 -0.2,-0.2 -0.4,-0.3 -0.6,-0.3 -0.4,0 -0.7,0.2 -1,0.6 -0.4,0.6 -0.6,1.5 -0.6,2.8 0,1 0.2,2 0.5,3 0.3,0.9 0.8,1.6 1.3,2.1 0.4,0.3 0.9,0.5 1.5,0.5 0.4,0 0.7,-0.1 1.1,-0.3 0.2,-0.2 0.6,-0.6 1.1,-1.1 z"
   id="path472"
   inkscape:connector-curvature="0" />
	<path
   class="st0"
   d="m 428.1,487.2 c 0.5,0 0.9,0.2 1.3,0.5 0.4,0.4 0.5,0.8 0.5,1.3 0,0.5 -0.2,0.9 -0.5,1.3 -0.4,0.4 -0.8,0.5 -1.3,0.5 -0.5,0 -0.9,-0.2 -1.3,-0.5 -0.4,-0.4 -0.5,-0.8 -0.5,-1.3 0,-0.5 0.2,-0.9 0.5,-1.3 0.4,-0.3 0.8,-0.5 1.3,-0.5 z m 1.7,5.3 v 8.7 c 0,0.8 0.1,1.3 0.3,1.5 0.2,0.2 0.5,0.3 1.1,0.4 v 0.4 h -5.9 V 503 c 0.5,0 0.8,-0.2 1.1,-0.4 0.2,-0.2 0.2,-0.7 0.2,-1.4 v -6.4 c 0,-0.8 -0.1,-1.3 -0.3,-1.5 -0.2,-0.2 -0.5,-0.3 -1,-0.4 v -0.4 z"
   id="path474"
   inkscape:connector-curvature="0"
   style="clip-rule:evenodd;fill-rule:evenodd" />
	<path
   d="m 437.1,487.6 v 13.6 c 0,0.8 0.1,1.3 0.3,1.5 0.2,0.2 0.5,0.3 1.1,0.4 v 0.4 h -5.9 V 503 c 0.5,0 0.8,-0.2 1.1,-0.4 0.2,-0.2 0.2,-0.7 0.2,-1.4 v -11.3 c 0,-0.8 -0.1,-1.3 -0.3,-1.5 -0.2,-0.2 -0.5,-0.3 -1,-0.4 v -0.4 z"
   id="path476"
   inkscape:connector-curvature="0" />
</g>
</svg>