<?xml version="1.0" encoding="UTF-8" standalone="no"?>
<svg
   xmlns:dc="http://purl.org/dc/elements/1.1/"
   xmlns:cc="http://creativecommons.org/ns#"
   xmlns:rdf="http://www.w3.org/1999/02/22-rdf-syntax-ns#"
   xmlns:svg="http://www.w3.org/2000/svg"
   xmlns="http://www.w3.org/2000/svg"
   xmlns:sodipodi="http://sodipodi.sourceforge.net/DTD/sodipodi-0.dtd"
   xmlns:inkscape="http://www.inkscape.org/namespaces/inkscape"
   id="Layer_1"
   data-name="Layer 1"
   viewBox="0 0 100.49908 100"
   version="1.1"
   sodipodi:docname="coedl-stacked.svg"
   width="100.49908"
   height="100"
   inkscape:version="0.92.3 (2405546, 2018-03-11)">
  <metadata
     id="metadata223">
    <rdf:RDF>
      <cc:Work
         rdf:about="">
        <dc:format>image/svg+xml</dc:format>
        <dc:type
           rdf:resource="http://purl.org/dc/dcmitype/StillImage" />
      </cc:Work>
    </rdf:RDF>
  </metadata>
  <sodipodi:namedview
     pagecolor="#ffffff"
     bordercolor="#666666"
     borderopacity="1"
     objecttolerance="10"
     gridtolerance="10"
     guidetolerance="10"
     inkscape:pageopacity="0"
     inkscape:pageshadow="2"
     inkscape:window-width="1486"
     inkscape:window-height="865"
     id="namedview221"
     showgrid="false"
     inkscape:zoom="0.40204429"
     inkscape:cx="295"
     inkscape:cy="293.57"
     inkscape:window-x="0"
     inkscape:window-y="0"
     inkscape:window-maximized="0"
     inkscape:current-layer="Layer_1" />
  <defs
     id="defs4">
    <style
       id="style2">.cls-1{fill:#2a505d;}.cls-2{fill:#751625;}.cls-3{fill:#322f30;}.cls-4{fill:#302c2d;}.cls-5{fill:#434041;}.cls-6{fill:#cc492c;}.cls-7{fill:#731221;}.cls-8{fill:#cc4729;}.cls-9{fill:#837a27;}.cls-10{fill:#827920;}.cls-11{fill:#264d5a;}.cls-12{fill:#cd4a2d;}.cls-13{fill:#837a21;}.cls-14{fill:#947469;}</style>
  </defs>
  <title
     id="title6">coedl-stacked</title>
  <path
     class="cls-1"
     d="m 49.56735,0.0017 c -0.185664,2.00143 -0.06984,4.00627 -0.06302,6.00941 0,0.72732 -0.151597,0.97601 -0.926619,0.95046 -1.892417,-0.0613 -3.789944,-0.0426 -5.684064,0 -0.608094,0.0119 -0.766505,-0.19077 -0.754582,-0.77332 0.03407,-1.7817 0.01533,-3.56339 0.0085,-5.34509 0,-0.27765 -0.04769,-0.557 -0.07324,-0.83464 h 7.49472 z"
     id="path8"
     inkscape:connector-curvature="0"
     style="fill:#2a505d;stroke-width:0.17033453" />
  <path
     class="cls-2"
     d="m 60.298426,0.0017 c 0.01533,2.15474 0.02555,4.30776 0.0511,6.4625 0,0.37473 -0.151597,0.48545 -0.511003,0.48375 -2.098522,-0.0102 -4.198746,-0.0153 -6.302378,0 -0.511004,0 -0.511004,-0.28957 -0.511004,-0.6592 q 0.01022,-2.68106 0,-5.36043 c 0,-0.31001 -0.03747,-0.61831 -0.05621,-0.92832 h 7.324385 z"
     id="path10"
     inkscape:connector-curvature="0"
     style="fill:#751625;stroke-width:0.17033453" />
  <path
     class="cls-3"
     d="m 94.024664,99.98808 c -0.412209,-0.42414 -1.141241,-0.58255 -1.182121,-1.31499 -0.06813,-1.20937 -0.284459,-2.4477 0.143081,-3.61449 0.287865,-0.78695 1.054371,-0.87893 1.795326,-0.79547 a 1.3745997,1.3745997 0 0 1 1.303059,1.24515 c 0.03066,0.19077 0.223138,0.511 -0.129454,0.55359 -0.289569,0.0375 -0.737549,0.24187 -0.851673,-0.23847 -0.114124,-0.48035 -0.340669,-0.712 -0.831232,-0.59277 -0.490564,0.11924 -0.430947,0.53656 -0.43265,0.89937 0,0.73584 0,1.47339 0.01874,2.21435 0.01022,0.37984 0.265721,0.5587 0.620017,0.55529 0.354296,-0.003 0.568918,-0.21633 0.608095,-0.58084 0.02555,-0.23847 0.03407,-0.48546 -0.303196,-0.47524 -0.44287,0.0136 -0.413913,-0.27594 -0.396879,-0.56891 0.02385,-0.40029 0.330449,-0.3049 0.567214,-0.31853 0.197588,-0.0102 0.400286,0.0204 0.594467,0 0.546774,-0.0749 0.693262,0.18567 0.654085,0.68134 -0.03407,0.42243 0.03577,0.85167 -0.01874,1.2724 -0.0494,0.36962 0.362813,1.38482 -0.742659,0.62172 -0.155004,-0.10731 -0.642161,0.20099 -0.895959,0.46501 h -0.511004 z"
     id="path12"
     inkscape:connector-curvature="0"
     style="fill:#322f30;stroke-width:0.17033453" />
  <path
     class="cls-3"
     d="m 84.315596,99.98808 c -1.192342,-0.6081 -1.332016,-1.65906 -1.241739,-2.84289 a 20.332834,20.332834 0 0 0 0,-2.2944 c -0.01533,-0.4037 0.105607,-0.54848 0.521224,-0.53656 0.374736,0.0102 0.563807,0.0733 0.551884,0.51101 -0.02896,1.04755 0,2.09681 -0.01022,3.14437 0,0.51101 0.114124,0.92662 0.725625,0.92322 0.611501,-0.003 0.713701,-0.44287 0.713701,-0.94025 0,-1.02201 0.02214,-2.04402 0,-3.06602 -0.01363,-0.44628 0.126048,-0.58936 0.572324,-0.58425 0.446277,0.005 0.528038,0.17033 0.511004,0.55699 a 21.348028,21.348028 0 0 0 0,2.38469 c 0.109014,1.34053 -0.185665,2.38468 -1.664168,2.74068 h -0.681339 z"
     id="path14"
     inkscape:connector-curvature="0"
     style="fill:#322f30;stroke-width:0.17033453" />
  <path
     class="cls-4"
     d="m 79.375894,99.98808 c -1.800436,-1.23493 -1.166791,-3.04047 -1.022007,-4.6825 0.06643,-0.75969 0.826123,-1.12591 1.703345,-1.06629 0.805683,0.0545 1.3235,0.46501 1.493834,1.26217 0.04088,0.19419 0.197588,0.51953 -0.132861,0.5553 -0.279348,0.0307 -0.722218,0.27594 -0.851672,-0.23336 -0.119235,-0.46502 -0.356,-0.71541 -0.841453,-0.59617 -0.485453,0.11923 -0.44287,0.53314 -0.446276,0.89766 0,0.70859 0,1.41718 0.01363,2.12577 0,0.29979 0.131158,0.557 0.465014,0.62854 0.272535,0.0579 0.53485,0 0.664304,-0.25039 0.160115,-0.31512 0.403693,-0.73244 -0.241875,-0.79036 -0.413913,-0.0375 -0.325339,-0.30319 -0.340669,-0.54336 -0.01363,-0.32534 0.197588,-0.35259 0.449683,-0.34067 a 8.1760578,8.1760578 0 0 0 0.851673,0 c 0.381549,-0.0273 0.492267,0.1533 0.480343,0.511 -0.01703,0.48205 0.02555,0.9658 -0.01363,1.44444 -0.03236,0.40199 0.303195,1.28943 -0.740956,0.63024 -0.170334,-0.1022 -0.640457,0.29468 -0.97261,0.4599 h -0.511003 z"
     id="path16"
     inkscape:connector-curvature="0"
     style="fill:#302c2d;stroke-width:0.17033453" />
  <path
     class="cls-4"
     d="m 55.699394,99.98808 c -1.774886,-1.24515 -1.161682,-3.04047 -1.011788,-4.68591 0.06813,-0.75458 0.810793,-1.1208 1.703346,-1.06288 0.776725,0.0511 1.403556,0.3577 1.533011,1.19234 a 12.216393,12.216393 0 0 1 0,3.21932 c -0.107311,0.89937 -0.9164,1.01179 -1.533011,1.33031 h -0.681338 z m 1.221298,-2.96553 c 0,-0.39347 0,-0.78694 0,-1.18212 0,-0.39518 -0.190774,-0.63024 -0.611501,-0.64557 -0.420726,-0.0153 -0.681338,0.16012 -0.681338,0.56892 -0.02385,0.84316 -0.02385,1.68631 0,2.52947 0,0.39858 0.257205,0.61831 0.659195,0.6132 0.449683,0 0.654084,-0.26231 0.648974,-0.70348 -0.01703,-0.39347 -0.01363,-0.78694 -0.01533,-1.18042 z"
     id="path18"
     inkscape:connector-curvature="0"
     style="fill:#302c2d;stroke-width:0.17033453" />
  <path
     class="cls-3"
     d="m 49.737685,99.98808 c -0.340669,-0.4054 -0.976017,-0.48035 -1.158275,-1.04245 -0.07154,-0.22144 -0.45309,-0.511 0.02044,-0.68134 0.267425,-0.092 0.645568,-0.39688 0.851673,0.12435 a 1.035634,1.035634 0 0 0 0.07665,0.15159 c 0.170335,0.28957 0.420727,0.46842 0.775022,0.39518 a 0.54677386,0.54677386 0 0 0 0.449684,-0.4565 0.73243851,0.73243851 0 0 0 -0.379846,-0.79035 c -0.356,-0.23165 -0.725625,-0.44287 -1.090141,-0.6609 -0.630238,-0.37644 -0.90107,-0.91299 -0.766506,-1.64884 0.126048,-0.68133 0.587654,-1.01008 1.228112,-1.11398 0.725625,-0.11753 1.362676,0.0562 1.785106,0.70007 0.117531,0.17034 0.419023,0.44798 0.05962,0.63365 -0.257205,0.13115 -0.609797,0.41391 -0.878926,-0.0494 a 0.89595966,0.89595966 0 0 0 -0.281052,-0.30831 c -0.267425,-0.17033 -0.558697,-0.17033 -0.766505,0.0869 a 0.49226681,0.49226681 0 0 0 0.09539,0.74948 7.4436193,7.4436193 0 0 0 0.865299,0.53655 c 0.732439,0.41391 1.296246,0.92321 1.192342,1.87368 -0.09879,0.89937 -0.698371,1.23152 -1.490427,1.36268 a 0.29638209,0.29638209 0 0 0 -0.08517,0.12945 h -0.511004 z"
     id="path20"
     inkscape:connector-curvature="0"
     style="fill:#322f30;stroke-width:0.17033453" />
  <path
     class="cls-4"
     d="m 44.968318,99.98808 c -0.390066,-0.44287 -1.112285,-0.61661 -1.154868,-1.34054 -0.06813,-1.15316 -0.223139,-2.32336 0.09539,-3.45268 0.229952,-0.8176 0.955577,-0.98283 1.703345,-0.95217 0.788649,0.0324 1.350753,0.4054 1.521088,1.21619 0.04429,0.21122 0.223138,0.57062 -0.187368,0.59617 -0.272536,0.017 -0.717109,0.26913 -0.810793,-0.28786 -0.07665,-0.4548 -0.359406,-0.61661 -0.788649,-0.5604 -0.487156,0.063 -0.541663,0.42583 -0.541663,0.8159 q 0,1.06118 0,2.12066 c 0,0.41903 0.160114,0.72904 0.621721,0.75288 0.461606,0.0239 0.711998,-0.22143 0.703481,-0.65919 -0.01363,-0.64046 0.439463,-0.47013 0.763099,-0.45309 0.466717,0.0238 0.286162,0.40539 0.275942,0.65068 -0.04088,0.96239 -0.817606,1.223 -1.519384,1.55174 h -0.681338 z"
     id="path22"
     inkscape:connector-curvature="0"
     style="fill:#302c2d;stroke-width:0.17033453" />
  <path
     class="cls-4"
     d="m 100.49738,99.81774 c -0.763102,-0.0102 -1.533014,-0.0443 -2.291003,-0.0204 -0.465013,0.0153 -0.652381,-0.10901 -0.642161,-0.6115 0.03066,-1.44444 0.02214,-2.89569 0,-4.33501 0,-0.4071 0.127751,-0.57744 0.533147,-0.52293 0.795463,0.10731 1.631805,-0.23506 2.398307,0.20951 v 0.68134 c -0.39347,0 -0.788645,0.0409 -1.180415,0.0187 -0.4582,-0.0273 -0.720515,0.0341 -0.717108,0.61661 0,0.54507 0.192478,0.68134 0.681338,0.64216 0.352592,-0.0324 0.744365,-0.1005 0.718812,0.511 -0.02555,0.6115 -0.42754,0.44287 -0.717109,0.41221 -0.594467,-0.063 -0.681338,0.21292 -0.681338,0.72733 -0.01533,0.56892 0.170335,0.74777 0.717109,0.68134 0.388362,-0.0426 0.785241,-0.0255 1.177011,-0.0341 v 1.02201 z"
     id="path24"
     inkscape:connector-curvature="0"
     style="fill:#302c2d;stroke-width:0.17033453" />
  <path
     class="cls-4"
     d="m 0,94.36704 c 1.0475574,-0.0136 2.0951148,-0.017 3.1409689,-0.0443 0.340669,0 0.5110036,0.0698 0.5110036,0.46331 0,0.39347 -0.1703346,0.511 -0.5110036,0.4565 -0.6455679,-0.10391 -0.7409553,0.22995 -0.7222185,0.78013 0.03577,1.07481 0,2.15132 0.017034,3.23635 0,0.39518 -0.1141242,0.55189 -0.5314438,0.54848 -0.4173196,-0.003 -0.5416638,-0.14138 -0.5416638,-0.54677 0.02044,-1.02201 -0.04599,-2.04402 0.023847,-3.05751 0.052804,-0.77502 -0.1839613,-1.09525 -0.96579679,-0.96579 A 1.9963208,1.9963208 0 0 1 0,95.21871 Z"
     id="path26"
     inkscape:connector-curvature="0"
     style="fill:#302c2d;stroke-width:0.17033453" />
  <path
     class="cls-5"
     d="m 100.37303,91.49009 c -0.27764,0.0698 -0.497374,0.0307 -0.614905,-0.27595 a 6.3960619,6.3960619 0 0 0 -0.310009,-0.69496 c -0.219731,-0.41902 -0.257205,-1.06629 -0.99305,-0.89766 -0.735845,0.16863 -0.214622,0.74095 -0.340669,1.10887 a 1.5330108,1.5330108 0 0 0 -0.01192,0.51101 0.24698508,0.24698508 0 0 1 -0.246985,0.27764 0.21802821,0.21802821 0 0 1 -0.269128,-0.23676 q 0,-1.86346 0,-3.72692 a 0.30319548,0.30319548 0 0 1 0.233358,-0.30149 c 0.889146,-0.34067 2.176875,0.13626 2.679358,0.99475 v 0.511 c -0.923209,0.52974 -0.930022,1.2196 -0.37814,2.0355 a 3.0200313,3.0200313 0 0 1 0.25209,0.69497 z M 98.09055,88.2367 c 0.03918,0.48375 -0.170335,1.01178 0.5604,0.93513 0.511004,-0.0545 1.156572,0.0579 1.209376,-0.70688 0.0494,-0.72563 -0.511004,-0.74096 -1.037338,-0.77503 -0.476936,-0.0358 -0.863596,0.003 -0.730735,0.54167 z"
     id="path28"
     inkscape:connector-curvature="0"
     style="fill:#434041;stroke-width:0.17033453" />
  <path
     class="cls-6"
     d="m 71.199836,43.11508 c 3.318117,0.0153 6.643047,0.063 9.956054,0.0256 0.814199,-0.009 0.97772,0.24869 0.95728,0.99646 -0.0494,1.90093 -0.03407,3.80357 0,5.7045 0,0.511 -0.124344,0.68134 -0.659194,0.68134 -3.406691,-0.0375 -6.813382,-0.0409 -10.220073,-0.0545 -2.239899,0 -4.479798,-0.0204 -6.719697,-0.0187 a 2.4596307,2.4596307 0 0 0 -0.565511,0.13627 c -1.192342,-0.18907 -2.39831,-0.0784 -3.597465,-0.0409 l -0.05962,-0.0272 c -2.364244,-0.13627 -4.728487,-0.0375 -7.094434,-0.0511 l -0.265722,0.0187 c -1.159978,0.0664 -2.330176,-0.12093 -3.483341,0.13116 q -0.124344,-3.77121 0,-7.54071 c 1.192342,0.17034 2.39831,0.10731 3.599169,0.0341 h 7.271581 c 1.192342,0.11583 2.384684,0.0647 3.577026,0.0324 l 0.07324,0.0119 0.07324,-0.0136 0.170335,0.0426 c 2.285889,0.18737 4.573482,0.0988 6.861075,0.0392 a 0.31682224,0.31682224 0 0 0 0.117531,-0.11242 z"
     id="path30"
     inkscape:connector-curvature="0"
     style="fill:#cc492c;stroke-width:0.17033453" />
  <path
     class="cls-7"
     d="m 60.329086,43.09975 h -7.271581 c 0,-0.92322 0,-1.84643 -0.02725,-2.76794 0,-0.25209 0.149895,-0.57743 -0.214621,-0.73414 l 0.04088,-0.0341 0.129454,-0.21121 v 0 c 0.178852,-0.14479 0.151598,-0.35089 0.151598,-0.54507 q 0,-2.86844 0,-5.73687 c 0,-0.19418 0.02725,-0.39858 -0.151598,-0.54507 v 0 l -0.01192,-0.18226 0.06984,-3.5668 c 0.170335,-2.39831 0.09368,-4.79833 0.03577,-7.19834 a 0.330449,0.330449 0 0 0 -0.103904,-0.12946 c 0.01874,-3.28745 0.06984,-6.57661 0.03066,-9.86407 -0.01022,-0.86019 0.199291,-1.09866 1.06459,-1.06459 1.841317,0.0732 3.68604,0.0477 5.52906,0 0.592764,-0.0119 0.756285,0.14479 0.751175,0.74607 -0.02725,3.37432 -0.0085,6.75035 0,10.12468 q 0,3.69967 -0.01363,7.39933 0,1.70335 0,3.39647 0,3.74736 0,7.49472 z"
     id="path32"
     inkscape:connector-curvature="0"
     style="fill:#731221;stroke-width:0.17033453" />
  <path
     class="cls-7"
     d="m 49.458336,43.07079 q -0.132861,3.77121 0,7.54071 0,1.6812 0,3.3607 c -0.08176,2.47667 -0.102201,4.95163 0.01022,7.42829 0,3.34537 -0.01022,6.69074 0.01703,10.03611 0,0.59447 -0.08517,0.84145 -0.768209,0.82272 -1.955441,-0.0528 -3.917694,-0.0409 -5.868025,0 -0.580841,0.0119 -0.706888,-0.19078 -0.703482,-0.72392 0.02044,-3.06603 0.01192,-6.13205 0,-9.18615 0,-0.34067 -0.04088,-0.68133 -0.06302,-1.01349 a 0.54677386,0.54677386 0 0 0 0.124344,-0.21121 c 0,-2.37106 0.112421,-4.74382 -0.0511,-7.11487 -0.06132,-1.19235 0.09368,-2.38469 -0.08517,-3.55829 a 0.52974041,0.52974041 0 0 0 0.131158,-0.20781 c 0.01703,-2.38469 0.110717,-4.75745 -0.04429,-7.13532 l 0.02044,-3.42372 7.03652,-0.0613 0.231655,0.0698 q 0.0085,1.68631 0.01192,3.37773 z"
     id="path34"
     inkscape:connector-curvature="0"
     style="fill:#731221;stroke-width:0.17033453" />
  <path
     class="cls-8"
     d="m 49.451523,39.68965 -0.231655,-0.0698 C 49.09893,39.22297 48.763371,39.35413 48.506166,39.35413 q -4.581999,-0.0119 -9.165701,0 c -0.250392,0 -0.511004,-0.0443 -0.711999,0.18056 l -0.303195,-0.0341 c -0.294679,-0.2555 -0.650678,-0.14138 -0.97772,-0.14308 q -8.44689,-0.0102 -16.89378,0 0,-3.40669 0,-6.81338 4.585406,0 9.170812,0 c 0.296382,0 0.631941,0.11412 0.872113,-0.18226 l 0.769912,-0.0256 0.240171,0.0358 a 26.43592,26.43592 0 0 0 6.823602,0 l 0.318525,-0.0204 3.428835,-0.0187 0.190774,-0.0136 a 0.87040948,0.87040948 0 0 1 0.144785,0.0596 0.51100361,0.51100361 0 0 0 0.204401,0.13627 q 3.203993,0.0102 6.407985,0 a 0.51100361,0.51100361 0 0 0 0.202699,-0.13627 l 0.226544,-0.0869 3.348777,0.063 0.185665,0.17033 v 0 q 0,3.40669 0,6.8253 v 0 l -0.129454,0.21122 -0.04088,0.0341 z"
     id="path36"
     inkscape:connector-curvature="0"
     style="fill:#cc4729;stroke-width:0.17033453" />
  <path
     class="cls-6"
     d="m 42.161205,54.00627 c 0.170334,2.37106 0.05621,4.74382 0.0511,7.11487 a 0.54677386,0.54677386 0 0 1 -0.124344,0.21122 l -3.496968,0.0528 q -3.650269,-0.11583 -7.300539,0 c -2.156435,0 -4.314573,-0.029 -6.472712,-0.009 -0.551884,0 -0.812496,-0.0903 -0.800572,-0.73073 0.03918,-1.95715 0.03236,-3.9177 0,-5.87484 0,-0.5604 0.170334,-0.73073 0.729032,-0.72733 2.185392,0.0136 4.36908,-0.0153 6.554473,-0.029 l 7.217074,-0.017 0.06473,0.0221 a 30.731757,30.731757 0 0 0 3.578729,-0.0136 z"
     id="path38"
     inkscape:connector-curvature="0"
     style="fill:#cc492c;stroke-width:0.17033453" />
  <path
     class="cls-6"
     d="m 60.337603,28.80698 q 0,-3.69967 0.01363,-7.39934 h 3.577025 c 2.425564,0.075 4.851128,0.0852 7.276692,0 2.127478,0.009 4.258363,0.0443 6.380731,0.0102 0.681338,-0.0102 0.940247,0.12605 0.918103,0.87041 -0.05621,1.89923 -0.03918,3.80017 0,5.6994 0.01022,0.58595 -0.149894,0.77843 -0.756285,0.77161 -2.181985,-0.0256 -4.365674,0 -6.549363,0.017 a 0.55869728,0.55869728 0 0 0 -0.155004,-0.0409 c -1.205969,-0.22825 -2.423861,-0.092 -3.634939,-0.092 -1.067998,0 -2.146215,-0.1499 -3.209103,0.0954 a 0.39687947,0.39687947 0 0 0 -0.143081,0.0307 0.24698508,0.24698508 0 0 0 -0.158411,0 c -1.187232,-0.0256 -2.374464,-0.1022 -3.559992,0.0375 z"
     id="path40"
     inkscape:connector-curvature="0"
     style="fill:#cc492c;stroke-width:0.17033453" />
  <path
     class="cls-7"
     d="m 63.953805,50.58084 a 2.4630374,2.4630374 0 0 1 0.565511,-0.13627 c 2.239899,0 4.479798,0.0102 6.719697,0.0187 q -0.01192,1.77659 -0.02555,3.55318 0.01022,3.67582 0.01874,7.35334 c 0,2.18028 -0.03066,4.36056 -0.01022,6.53914 0,0.52974 -0.100497,0.73926 -0.681338,0.72733 -1.980991,-0.0392 -3.963685,-0.0307 -5.944676,0 -0.531443,0 -0.669414,-0.17033 -0.667711,-0.68134 0.0085,-2.21435 -0.02214,-4.41336 -0.03918,-6.6209 a 0.17033454,0.17033454 0 0 0 0.01363,-0.13797 c 0.146488,-0.17034 0.134564,-0.36452 0.134564,-0.5621 q 0,-3.13757 -0.01703,-6.27683 l -0.06643,-0.34067 q -0.0034,-1.72038 0,-3.43565 z"
     id="path42"
     inkscape:connector-curvature="0"
     style="fill:#731221;stroke-width:0.17033453" />
  <path
     class="cls-7"
     d="m 38.648906,32.33801 -0.318525,0.0204 h -6.818492 l -0.240171,-0.0358 q 0.01363,-1.76466 0.02896,-3.52763 c 0.05962,-2.46644 0.07835,-4.9397 -0.01022,-7.39763 0,-2.17857 0.02214,-4.35886 -0.01022,-6.53743 -0.0085,-0.57744 0.180555,-0.71711 0.725626,-0.7103 q 2.970634,0.0409 5.942972,0 c 0.526333,0 0.671118,0.17033 0.669414,0.68134 0,2.20583 0.02725,4.40996 0.04599,6.61579 -0.299789,2.4409 -0.170335,4.8852 -0.06643,7.32439 z"
     id="path44"
     inkscape:connector-curvature="0"
     style="fill:#731221;stroke-width:0.17033453" />
  <path
     class="cls-9"
     d="m 38.592696,28.77632 c -0.107311,-2.4443 -0.233358,-4.8886 0.06643,-7.32439 l 3.473121,-0.0272 7.356748,-0.009 3.485045,0.0341 a 0.32874566,0.32874566 0 0 1 0.103904,0.12775 c 0.05791,2.40001 0.137971,4.80003 -0.03577,7.19834 a 27.87695,27.87695 0 0 0 -3.600872,0 h -7.274988 a 30.031682,30.031682 0 0 0 -3.573619,0 z"
     id="path46"
     inkscape:connector-curvature="0"
     style="fill:#837a27;stroke-width:0.17033453" />
  <path
     class="cls-10"
     d="m 63.945289,54.01649 0.06643,0.34067 c -0.170335,0.18907 -0.124344,0.42583 -0.124344,0.64557 q 0,3.09668 0,6.19166 a 0.17033454,0.17033454 0 0 1 -0.01363,0.13797 l -3.532738,0.0426 -7.324385,-0.009 -3.549772,0.0375 c -0.112421,-2.47667 -0.09198,-4.95163 -0.01022,-7.42829 1.192342,0.14989 2.401717,0.0903 3.602575,0.0341 l 0.264019,0.0307 c 0.938543,0.2589 1.89923,0.11923 2.844587,0.10731 1.314982,-0.017 2.636778,0.17033 3.944947,-0.10561 a 1.3081692,1.3081692 0 0 0 0.139675,-0.0324 0.24357839,0.24357839 0 0 0 0.110717,0.0221 z"
     id="path48"
     inkscape:connector-curvature="0"
     style="fill:#827920;stroke-width:0.17033453" />
  <path
     class="cls-11"
     d="m 38.524562,53.99434 -7.217074,0.017 q 0,-1.7306 -0.01363,-3.4612 c 0.06132,-2.47496 0.07154,-4.94992 0,-7.42488 l 0.01363,-3.4629 0.08006,-0.0153 c 0.817606,0 1.635212,0 2.452817,0.0255 1.575595,0.0443 3.154596,-0.11583 4.728487,0.0869 l 0.02044,3.35559 c -0.161817,2.37446 -0.06302,4.75233 -0.04769,7.1285 a 0.57232404,0.57232404 0 0 0 0.119234,0.21803 l -0.09368,3.46971 -0.04088,0.0153 v 0.0511 z"
     id="path50"
     inkscape:connector-curvature="0"
     style="fill:#264d5a;stroke-width:0.17033453" />
  <path
     class="cls-11"
     d="m 64.056006,28.75758 a 0.39347278,0.39347278 0 0 1 0.143081,-0.0307 c 2.280779,0.0784 4.563262,0.0869 6.844042,0 a 0.55869728,0.55869728 0 0 1 0.155004,0.0409 q 0.01022,1.74593 0.01874,3.49015 0,3.69286 0,7.38571 0,1.73571 -0.01533,3.47142 l -0.01022,-0.0136 -6.983716,0.0732 -0.170335,-0.0426 -0.09879,-0.17033 V 39.6368 l 0.05791,-0.27765 v -6.82701 l -0.04599,-0.31852 q 0,-1.64543 0,-3.28916 z"
     id="path52"
     inkscape:connector-curvature="0"
     style="fill:#264d5a;stroke-width:0.17033453" />
  <path
     class="cls-10"
     d="m 71.218573,39.64196 q 0,-3.69286 0,-7.38571 c 3.348777,0.009 6.697554,0.0341 10.049738,0.0102 0.647271,0 0.873816,0.13797 0.851673,0.83123 -0.0511,1.92819 -0.04258,3.85978 0,5.79138 0.01192,0.60809 -0.180555,0.75288 -0.766506,0.74947 -3.38114,-0.0238 -6.757171,-0.003 -10.134905,0.003 z"
     id="path54"
     inkscape:connector-curvature="0"
     style="fill:#827920;stroke-width:0.17033453" />
  <path
     class="cls-10"
     d="m 31.288751,43.1253 c 0.07495,2.47496 0.06473,4.94992 0,7.42488 -3.316413,-0.0153 -6.632827,-0.0528 -9.947537,-0.0272 -0.722218,0 -0.97772,-0.13797 -0.950467,-0.92151 0.06473,-1.89753 0.04429,-3.79846 0,-5.69769 -0.01192,-0.60469 0.182258,-0.75799 0.768209,-0.75459 3.382844,0.0136 6.757171,-0.0119 10.129795,-0.0238 z"
     id="path56"
     inkscape:connector-curvature="0"
     style="fill:#827920;stroke-width:0.17033453" />
  <path
     class="cls-11"
     d="m 53.018328,61.36302 7.324385,0.009 c 0,3.37263 -0.01703,6.74355 0,10.11447 0,0.56892 -0.109014,0.78354 -0.730735,0.76991 q -2.931457,-0.063 -5.864618,0 c -0.625128,0.0136 -0.739252,-0.21292 -0.735845,-0.77843 0.03066,-3.37092 0.01363,-6.74354 0.0068,-10.11446 z"
     id="path58"
     inkscape:connector-curvature="0"
     style="fill:#264d5a;stroke-width:0.17033453" />
  <path
     class="cls-11"
     d="m 49.487293,21.41275 -7.356749,0.009 c 0,-3.34367 0.02896,-6.68563 0.01022,-10.02759 0,-0.63024 0.119235,-0.88745 0.827826,-0.86701 q 2.844587,0.0801 5.692581,0 c 0.696668,-0.0187 0.827825,0.21974 0.822715,0.85168 -0.02385,3.34877 -0.0017,6.69755 0.0034,10.0344 z"
     id="path60"
     inkscape:connector-curvature="0"
     style="fill:#264d5a;stroke-width:0.17033453" />
  <path
     class="cls-12"
     d="m 13.175376,32.2801 c 1.022008,0 2.044015,0.0136 3.066022,0 0.430946,0 0.599578,0.13286 0.596171,0.58425 q -0.02725,3.10008 0,6.20017 c 0,0.46331 -0.192478,0.57573 -0.611501,0.57233 -2.044014,-0.0136 -4.077809,-0.017 -6.11501,0 -0.4530898,0 -0.5757306,-0.15671 -0.5723239,-0.58936 q 0.027254,-3.10009 0,-6.20018 c 0,-0.4582 0.1584111,-0.58084 0.5893579,-0.57062 1.00838,0.0187 2.028684,0.003 3.047284,0.003 z"
     id="path62"
     inkscape:connector-curvature="0"
     style="fill:#cd4a2d;stroke-width:0.17033453" />
  <path
     class="cls-2"
     d="m 45.905158,75.84316 c 0.96239,0 1.926483,0.0221 2.895687,-0.009 0.48886,-0.0153 0.710295,0.0903 0.701778,0.64386 -0.02896,2.00995 -0.02555,4.0216 0,6.03155 0,0.47183 -0.120937,0.63194 -0.613204,0.62513 q -3.066022,-0.0392 -6.116713,0 c -0.487157,0 -0.623425,-0.14649 -0.618315,-0.62343 0.02214,-2.00994 0.02725,-4.0216 0,-6.03154 0,-0.55529 0.219732,-0.6592 0.705185,-0.64557 1.004974,0.029 2.025278,0.009 3.045582,0.009 z"
     id="path64"
     inkscape:connector-curvature="0"
     style="fill:#751625;stroke-width:0.17033453" />
  <path
     class="cls-13"
     d="m 13.194113,50.50589 c -0.991347,0 -1.982694,-0.0204 -2.972337,0.009 -0.4803438,0.0136 -0.7068888,-0.0715 -0.6966687,-0.63875 0.03577,-2.04402 0.022144,-4.07781 0,-6.11672 0,-0.4105 0.074947,-0.61491 0.5518837,-0.6098 q 3.066022,0.0324 6.116713,0 c 0.483751,0 0.635348,0.17034 0.630238,0.64217 q -0.03066,3.01492 0,6.03154 c 0,0.51101 -0.131157,0.70859 -0.664304,0.68986 -0.982831,-0.0307 -1.974178,-0.007 -2.965525,-0.007 z"
     id="path66"
     inkscape:connector-curvature="0"
     style="fill:#837a21;stroke-width:0.17033453" />
  <path
     class="cls-12"
     d="m 92.99414,46.89139 c 0,0.99306 -0.02044,1.98611 0.0085,2.97916 0.01363,0.46842 -0.122641,0.65067 -0.614907,0.64556 q -3.021735,-0.0307 -6.04347,0 c -0.471827,0 -0.645568,-0.13967 -0.640458,-0.63023 0.02214,-2.04402 0.01874,-4.08803 0,-6.13205 0,-0.43435 0.134565,-0.60469 0.584248,-0.60128 q 3.066021,0.0239 6.132043,0 c 0.446277,0 0.592764,0.14649 0.582544,0.58766 -0.02555,1.05096 -0.0085,2.10022 -0.0085,3.15118 z"
     id="path68"
     inkscape:connector-curvature="0"
     style="fill:#cd4a2d;stroke-width:0.17033453" />
  <path
     class="cls-13"
     d="m 92.99414,35.88778 c 0,1.04926 -0.01533,2.10023 0,3.14949 0.01022,0.43435 -0.12264,0.59787 -0.57573,0.59447 q -3.066022,-0.029 -6.132044,0 c -0.442869,0 -0.592764,-0.15671 -0.589357,-0.59617 q 0.02385,-3.10691 0,-6.21381 c 0,-0.4088 0.146488,-0.54848 0.54507,-0.54677 q 3.106902,0.017 6.213804,0 c 0.405397,0 0.541664,0.14649 0.533147,0.55018 -0.01022,1.0203 0.0051,2.04231 0.0051,3.06261 z"
     id="path70"
     inkscape:connector-curvature="0"
     style="fill:#837a21;stroke-width:0.17033453" />
  <path
     class="cls-1"
     d="m 31.292158,61.38346 q 3.650269,-0.10902 7.300538,0 c 0,2.18198 0,4.36397 0.02044,6.54595 0,0.49057 -0.103904,0.712 -0.655788,0.70349 q -3.018328,-0.0426 -6.036656,0 c -0.5604,0 -0.648974,-0.22485 -0.643864,-0.70689 0.02214,-2.17858 0.01363,-4.36057 0.01533,-6.54255 z"
     id="path72"
     inkscape:connector-curvature="0"
     style="fill:#2a505d;stroke-width:0.17033453" />
  <path
     class="cls-1"
     d="m 71.213463,21.39402 c -2.425564,0.0903 -4.851127,0.0801 -7.276691,0 0,-2.15303 0.02214,-4.30606 -0.02214,-6.45738 -0.01363,-0.65239 0.192478,-0.80909 0.817606,-0.79717 1.92478,0.0392 3.852967,0.0341 5.777748,0 0.55018,-0.009 0.723921,0.13797 0.715405,0.70348 -0.02555,2.1888 -0.01192,4.37079 -0.01192,6.55107 z"
     id="path74"
     inkscape:connector-curvature="0"
     style="fill:#2a505d;stroke-width:0.17033453" />
  <path
     class="cls-1"
     d="m 60.344416,79.50705 c 0,0.99305 -0.01703,1.9861 0,2.97915 0.01192,0.43947 -0.05451,0.6592 -0.584247,0.65238 -2.044014,-0.0307 -4.088029,-0.0272 -6.132043,0 -0.490564,0 -0.623425,-0.155 -0.618315,-0.62853 q 0.03236,-3.02003 0,-6.04177 c 0,-0.48545 0.160115,-0.63534 0.638755,-0.63023 2.013354,0.0204 4.028412,0.029 6.041766,0 0.556994,-0.009 0.664305,0.2044 0.648974,0.69837 -0.01533,0.98623 0.0051,1.97758 0.0051,2.97063 z"
     id="path76"
     inkscape:connector-curvature="0"
     style="fill:#2a505d;stroke-width:0.17033453" />
  <path
     class="cls-12"
     d="m 20.440144,57.74341 c 0,0.99305 -0.01703,1.9844 0,2.97745 0.01192,0.44457 -0.06984,0.6626 -0.592764,0.65578 -2.044014,-0.0272 -4.088029,-0.0204 -6.132043,0 -0.441167,0 -0.591061,-0.14137 -0.587654,-0.58595 q 0.02725,-3.06602 0,-6.13204 c 0,-0.50078 0.192478,-0.62172 0.652381,-0.61831 2.013354,0.017 4.026709,0.0221 6.038359,0 0.497377,0 0.626831,0.17033 0.614908,0.64045 -0.01703,1.02031 0.0068,2.04231 0.0068,3.06262 z"
     id="path78"
     inkscape:connector-curvature="0"
     style="fill:#cd4a2d;stroke-width:0.17033453" />
  <path
     class="cls-1"
     d="m 38.604619,75.80057 c 0,1.02201 -0.01533,2.04402 0,3.06602 0.01022,0.4548 -0.100497,0.66431 -0.609797,0.6575 -2.044015,-0.0239 -4.088029,-0.0187 -6.132044,0 -0.436056,0 -0.597874,-0.12946 -0.594467,-0.57914 q 0.02725,-3.06602 0,-6.13205 c 0,-0.42072 0.09368,-0.59957 0.560401,-0.59446 q 3.106902,0.0341 6.213804,0 c 0.47353,0 0.567214,0.18566 0.556993,0.60468 -0.01022,0.99135 0.0051,1.9844 0.0051,2.97745 z"
     id="path80"
     inkscape:connector-curvature="0"
     style="fill:#2a505d;stroke-width:0.17033453" />
  <path
     class="cls-2"
     d="m 31.285344,6.9258 c 0,-0.99134 0.02214,-1.98269 -0.01022,-2.97234 -0.01533,-0.49567 0.09879,-0.70177 0.650678,-0.69326 q 3.014922,0.0477 6.029843,0 c 0.548477,0 0.662601,0.19589 0.657491,0.69326 -0.02214,1.981 -0.02555,3.96369 0,5.94468 0,0.511 -0.127751,0.68134 -0.659194,0.68134 q -3.014922,-0.0443 -6.029843,0 c -0.541664,0.009 -0.669415,-0.17034 -0.650678,-0.68134 0.03747,-0.98964 0.01192,-1.98099 0.01192,-2.97234 z"
     id="path82"
     inkscape:connector-curvature="0"
     style="fill:#751625;stroke-width:0.17033453" />
  <path
     class="cls-1"
     d="m 67.547864,10.55904 c -0.99305,0 -1.984397,-0.017 -2.977448,0 -0.446276,0.0119 -0.660898,-0.0698 -0.652381,-0.59447 0.02896,-2.04401 0.02044,-4.08803 0,-6.12353 0,-0.44287 0.144784,-0.58935 0.589358,-0.58595 2.069564,0.017 4.139129,0.0136 6.208693,0 0.362813,0 0.500784,0.10731 0.499081,0.48205 -0.01192,2.12577 -0.01533,4.25836 0,6.37903 0,0.41902 -0.206105,0.44116 -0.524631,0.43776 -1.045854,0 -2.093411,0.007 -3.142672,0.005 z"
     id="path84"
     inkscape:connector-curvature="0"
     style="fill:#2a505d;stroke-width:0.17033453" />
  <path
     class="cls-13"
     d="m 85.678272,54.05226 c 0.99305,0 1.986101,0.0239 2.977448,-0.0102 0.53485,-0.0187 0.754582,0.12094 0.744362,0.70518 -0.03236,1.9844 -0.02896,3.9705 0,5.96171 0,0.52463 -0.160115,0.68134 -0.681338,0.68134 -2.013355,-0.0256 -4.026709,-0.0204 -6.040063,0 -0.429243,0 -0.594468,-0.1039 -0.589358,-0.56551 q 0.03236,-3.1052 0,-6.2104 c 0,-0.48034 0.197588,-0.5621 0.609798,-0.55188 0.99305,0.003 1.986101,-0.0102 2.979151,-0.0102 z"
     id="path86"
     inkscape:connector-curvature="0"
     style="fill:#837a21;stroke-width:0.17033453" />
  <path
     class="cls-13"
     d="m 13.148123,25.04088 c 0,-0.99305 0.01703,-1.9861 0,-2.97745 -0.01192,-0.45649 0.09879,-0.65919 0.608094,-0.65408 q 3.066022,0.0358 6.132044,0 c 0.454793,0 0.574027,0.1533 0.57062,0.58765 -0.01874,2.04402 -0.02214,4.08803 0,6.13205 0,0.49397 -0.170334,0.62512 -0.635348,0.62001 q -3.020031,-0.0324 -6.040062,0 c -0.48375,0 -0.643865,-0.17033 -0.630238,-0.64045 0.01533,-1.02542 -0.0051,-2.04743 -0.0051,-3.06773 z"
     id="path88"
     inkscape:connector-curvature="0"
     style="fill:#837a21;stroke-width:0.17033453" />
  <path
     class="cls-13"
     d="m 31.285344,21.39913 c 0.08857,2.46644 0.06984,4.9397 0.01022,7.39763 -2.125775,-0.0204 -4.258363,-0.0733 -6.377325,-0.0443 -0.715405,0.0102 -0.916399,-0.2044 -0.897663,-0.90788 0.04599,-1.87368 0.03918,-3.74736 0,-5.62104 -0.01192,-0.62002 0.137971,-0.83464 0.795463,-0.82272 2.156435,0.0392 4.311167,0.005 6.469305,-0.002 z"
     id="path90"
     inkscape:connector-curvature="0"
     style="fill:#837a21;stroke-width:0.17033453" />
  <path
     class="cls-12"
     d="m 82.101247,25.09198 c 0,-1.04926 0.01533,-2.09852 0,-3.14778 -0.0085,-0.41051 0.134564,-0.53485 0.536554,-0.53145 q 3.105198,0.0238 6.210397,0 c 0.47864,0 0.556994,0.21122 0.553587,0.62002 -0.01363,2.01336 -0.02214,4.02671 0,6.04007 0,0.53314 -0.182258,0.68133 -0.689855,0.67111 -1.984397,-0.0221 -3.970498,-0.0272 -5.961709,0 -0.531443,0 -0.681338,-0.17033 -0.662601,-0.68134 0.03747,-0.98453 0.01363,-1.98099 0.01363,-2.97063 z"
     id="path92"
     inkscape:connector-curvature="0"
     style="fill:#cd4a2d;stroke-width:0.17033453" />
  <path
     class="cls-2"
     d="m 71.21176,75.95898 c 0,0.99305 -0.01703,1.9861 0,2.97745 0.01192,0.43095 -0.105608,0.59277 -0.565511,0.58595 q -3.066021,-0.0341 -6.132043,0 c -0.511004,0 -0.609798,-0.20099 -0.606391,-0.65408 0.01874,-2.01336 0.02214,-4.02841 0,-6.04177 0,-0.49567 0.170334,-0.61831 0.633644,-0.6115 2.013355,0.0221 4.028412,0.0341 6.041766,0 0.570621,-0.0119 0.643865,0.2044 0.628535,0.68134 -0.02044,1.0203 0,2.04061 0,3.06261 z"
     id="path94"
     inkscape:connector-curvature="0"
     style="fill:#751625;stroke-width:0.17033453" />
  <path
     class="cls-13"
     d="m 71.2322,61.36983 q -0.01022,-3.67752 -0.01874,-7.35334 c 2.151325,0.0119 4.302651,0.0545 6.452273,0.0187 0.694964,-0.0119 0.851672,0.21462 0.841452,0.867 -0.03918,1.89582 -0.04429,3.79335 0,5.68917 0.01703,0.66431 -0.209511,0.79887 -0.822716,0.78865 -2.147918,-0.0392 -4.300947,-0.0119 -6.452272,-0.0102 z"
     id="path96"
     inkscape:connector-curvature="0"
     style="fill:#837a21;stroke-width:0.17033453" />
  <path
     class="cls-4"
     d="m 38.642093,96.19813 c -0.264018,1.00157 -0.533147,1.99973 -0.790352,3.003 -0.07835,0.30831 -0.105608,0.60299 -0.556994,0.59617 -0.451387,-0.007 -0.444573,-0.34067 -0.543367,-0.62172 -0.315119,-0.91299 -0.323636,-1.92989 -0.95728,-2.89569 0,1.07992 0,2.00825 0,2.93657 0,0.28105 0.0528,0.56722 -0.400287,0.57914 -0.453089,0.0119 -0.502486,-0.21292 -0.49908,-0.57573 0.01192,-1.41719 0,-2.83437 0,-4.25837 0,-0.28445 -0.115827,-0.70688 0.403693,-0.62853 0.41221,0.063 0.996457,-0.32875 1.182122,0.43265 a 11.77182,11.77182 0 0 0 0.924916,2.64359 c 0.226545,-0.82953 0.511004,-1.64713 0.660898,-2.49199 0.149895,-0.87212 0.766506,-0.55529 1.240036,-0.58766 0.601281,-0.0392 0.381549,0.44798 0.384956,0.72904 0.02044,1.36267 0.01192,2.72535 0,4.08802 0,0.29298 0.09879,0.63365 -0.41732,0.64898 -0.562104,0.017 -0.47353,-0.34067 -0.47353,-0.68134 0,-0.96409 0,-1.92648 0,-2.89569 z"
     id="path98"
     inkscape:connector-curvature="0"
     style="fill:#302c2d;stroke-width:0.17033453" />
  <path
     class="cls-3"
     d="m 75.824419,97.03277 c 0,-0.69667 0.01192,-1.39504 0,-2.09171 -0.01022,-0.38155 0.01533,-0.64216 0.522927,-0.63023 0.47353,0.0102 0.470124,0.26061 0.466717,0.59957 -0.0085,1.41719 0,2.83437 0,4.25837 0,0.2555 0.117531,0.6115 -0.340669,0.62513 -0.340669,0.0102 -0.659195,0.0562 -0.83975,-0.37474 a 13.396811,13.396811 0 0 0 -1.398446,-2.61464 c 0,0.80398 0,1.60796 0,2.41024 0,0.35089 -0.03236,0.58425 -0.48886,0.59447 -0.531444,0.0119 -0.511004,-0.29639 -0.511004,-0.65579 0,-1.38823 0,-2.77646 0.01022,-4.16468 0,-0.23847 -0.170334,-0.64046 0.298086,-0.64046 0.359406,0 0.798869,-0.19759 1.022007,0.34067 0.340669,0.80568 0.713702,1.59433 1.071404,2.38468 z"
     id="path100"
     inkscape:connector-curvature="0"
     style="fill:#322f30;stroke-width:0.17033453" />
  <path
     class="cls-3"
     d="m 26.035634,96.81304 c 0,0.82101 -0.0085,1.64203 0,2.46133 0,0.34067 -0.08346,0.51101 -0.471827,0.52464 -0.417319,0 -0.53485,-0.15331 -0.52974,-0.54848 0.01703,-1.41548 0,-2.83267 0.01363,-4.24815 0,-0.23846 -0.182258,-0.64386 0.277645,-0.65919 0.383253,-0.0136 0.843156,-0.20781 1.071404,0.38155 0.306602,0.78694 0.681338,1.54493 1.107175,2.46644 0.236765,-0.84145 0.100497,-1.55345 0.120937,-2.25012 0.01022,-0.38495 0.02555,-0.63705 0.529741,-0.63023 0.50419,0.007 0.461606,0.26913 0.459903,0.60128 0,1.41548 0,2.83266 0,4.24814 0,0.25039 0.131157,0.6115 -0.340669,0.62683 -0.340669,0.0119 -0.660898,0.0477 -0.839749,-0.37644 -0.378143,-0.89596 -0.800573,-1.77488 -1.204266,-2.66062 z"
     id="path102"
     inkscape:connector-curvature="0"
     style="fill:#322f30;stroke-width:0.17033453" />
  <path
     class="cls-3"
     d="m 8.3906793,97.07025 c 0,0.68133 0,1.36267 0,2.04401 0,0.39007 0.034067,0.70689 -0.5467739,0.69837 -0.6080943,0 -0.5110036,-0.37984 -0.5110036,-0.73755 a 3.9500579,3.9500579 0 0 1 0,-0.7631 c 0.1567078,-0.82271 -0.2691285,-0.94195 -0.9504667,-0.88744 -0.3594059,0.029 -0.5110036,0.12264 -0.4922668,0.49227 0.02044,0.42413 -0.013627,0.85167 0.00852,1.2741 0.022143,0.42243 -0.068134,0.61832 -0.5501805,0.62002 -0.4820468,0.002 -0.5382572,-0.24699 -0.5348505,-0.63535 0.011923,-1.44444 0.018737,-2.89569 0,-4.33161 0,-0.42583 0.1567078,-0.52463 0.5450705,-0.52292 0.3883628,0.002 0.5910609,0.0869 0.5467739,0.51952 -0.028957,0.27935 0.032364,0.57232 -0.011923,0.85167 -0.1158275,0.71881 0.236765,0.85167 0.8516727,0.8142 0.424133,-0.0221 0.6336444,-0.11413 0.5842474,-0.57573 -0.03066,-0.27935 0,-0.56551 0,-0.85167 0,-0.39007 -0.1022007,-0.77673 0.5535873,-0.76821 0.6234244,0 0.4973768,0.37984 0.5007835,0.72732 0.01022,0.67283 0.00681,1.35246 0.00681,2.0321 z"
     id="path104"
     inkscape:connector-curvature="0"
     style="fill:#322f30;stroke-width:0.17033453" />
  <path
     class="cls-3"
     d="m 18.93098,97.01915 c 0,0.14137 0,0.28275 0,0.42583 0,1.94522 -1.200858,2.848 -3.066021,2.34721 -0.315119,-0.0835 -0.304899,-0.28275 -0.306602,-0.511 0,-1.50235 0,-3.003 0,-4.50535 0,-0.24699 0.01874,-0.46331 0.340669,-0.45139 0.621721,0.0239 1.253662,-0.0119 1.861756,0.0886 0.703482,0.11582 1.033931,0.66941 1.124208,1.33201 a 9.5097772,9.5097772 0 0 1 0.01022,1.2724 h 0.03747 z m -2.297812,0 c 0,0.39688 -0.01703,0.79546 0,1.19234 0.01363,0.22314 -0.143081,0.55699 0.255501,0.60809 0.359406,0.046 0.732439,-0.0239 0.841453,-0.4105 a 5.5852695,5.5852695 0 0 0 0.02385,-2.68277 c -0.08176,-0.38666 -0.4582,-0.48375 -0.819309,-0.46161 -0.466717,0.029 -0.282756,0.4088 -0.301492,0.65238 -0.02044,0.356 0,0.72733 0,1.09525 z"
     id="path106"
     inkscape:connector-curvature="0"
     style="fill:#322f30;stroke-width:0.17033453" />
  <path
     class="cls-3"
     d="m 33.215235,99.78197 c -0.424133,0.0852 -0.539961,-0.19077 -0.574028,-0.53144 -0.04769,-0.47864 -0.267425,-0.6626 -0.775022,-0.63876 -0.507597,0.0238 -0.914696,0 -0.95728,0.63365 -0.03747,0.5587 -0.429243,0.63364 -0.839749,0.52463 -0.497377,-0.13286 -0.170335,-0.51101 -0.115828,-0.75118 0.323636,-1.3763 0.708592,-2.73898 0.996457,-4.12209 0.112421,-0.53826 0.378143,-0.58595 0.821013,-0.58255 0.44287,0.003 0.720515,0.0255 0.832936,0.56892 0.304899,1.46658 0.681338,2.92124 1.04926,4.37078 0.109015,0.43947 -0.01022,0.58255 -0.437759,0.52804 z m -1.44103,-4.16808 c -0.170335,0.65919 -0.292976,1.1208 -0.400287,1.58581 -0.03407,0.1516 -0.129454,0.3577 0.07665,0.44968 a 0.73754855,0.73754855 0 0 0 0.652381,-0.009 c 0.190775,-0.10561 0.08857,-0.3032 0.05451,-0.4582 -0.110717,-0.4582 -0.229951,-0.9147 -0.391769,-1.56878 z"
     id="path108"
     inkscape:connector-curvature="0"
     style="fill:#322f30;stroke-width:0.17033453" />
  <path
     class="cls-4"
     d="m 71.540506,99.77686 c -0.47864,0.0801 -0.538258,-0.2538 -0.570621,-0.56721 -0.0528,-0.51101 -0.340669,-0.61832 -0.810793,-0.59447 -0.437759,0.0221 -0.851672,-0.0358 -0.904476,0.58595 -0.02896,0.3577 -0.170334,0.63535 -0.642161,0.59447 -0.340669,-0.029 -0.529741,-0.0647 -0.419023,-0.48886 0.391769,-1.50406 0.776725,-3.00981 1.119098,-4.52409 0.107311,-0.47693 0.396879,-0.48204 0.746065,-0.45479 0.349186,0.0272 0.722219,-0.14649 0.851673,0.42413 0.332152,1.51768 0.711998,3.02514 1.095251,4.5309 0.117531,0.48205 -0.107311,0.55359 -0.465013,0.49397 z m -1.381414,-3.96028 c -0.340669,0.50079 -0.315118,0.96921 -0.451386,1.39164 -0.04599,0.14478 -0.143081,0.37303 0.07154,0.43776 a 1.1446481,1.1446481 0 0 0 0.648975,0 c 0.206105,-0.0681 0.102201,-0.28957 0.06813,-0.44287 -0.09028,-0.41392 -0.197588,-0.81761 -0.338966,-1.38653 z"
     id="path110"
     inkscape:connector-curvature="0"
     style="fill:#302c2d;stroke-width:0.17033453" />
  <path
     class="cls-4"
     d="m 89.739047,94.35341 c 0.526334,-0.10561 0.776726,0.0443 0.88574,0.55359 0.303196,1.41377 0.681338,2.81052 0.99305,4.22259 0.04599,0.20611 0.356,0.58595 -0.170334,0.65068 -0.340669,0.0409 -0.735845,0.0784 -0.763099,-0.41902 -0.03407,-0.63365 -0.354296,-0.77673 -0.943653,-0.75459 -0.471827,0.017 -0.771616,0.10561 -0.805683,0.61491 -0.03747,0.55189 -0.400286,0.65579 -0.829529,0.55189 -0.511003,-0.12435 -0.194181,-0.51101 -0.137971,-0.74948 0.310009,-1.35416 0.669415,-2.69639 0.984534,-4.04885 0.103904,-0.48034 0.255502,-0.83123 0.786945,-0.62172 z m 0.127751,1.50576 -0.156707,-0.0255 c -0.105608,0.45309 -0.216325,0.90447 -0.313416,1.36267 -0.03236,0.1516 -0.178851,0.36622 0.03577,0.44628 a 1.0833277,1.0833277 0 0 0 0.659195,0.0238 c 0.279349,-0.0886 0.100497,-0.33216 0.06473,-0.51101 -0.09028,-0.43435 -0.192478,-0.8653 -0.289569,-1.29795 z"
     id="path112"
     inkscape:connector-curvature="0"
     style="fill:#302c2d;stroke-width:0.17033453" />
  <path
     class="cls-3"
     d="m 9.8964366,97.03959 c 0,-0.7086 0.02044,-1.41889 0,-2.12578 -0.017034,-0.42243 0.081761,-0.62513 0.5569944,-0.59617 0.621721,0.0375 1.246848,0.0272 1.873679,0 0.390067,-0.0153 0.470124,0.15841 0.470124,0.511 0,0.3526 -0.156708,0.44117 -0.46331,0.42414 -0.226545,-0.0119 -0.454793,0.0187 -0.681338,0 -0.48886,-0.0511 -0.710295,0.0903 -0.706889,0.64386 0,0.511 0.214622,0.62002 0.659195,0.60299 0.340669,-0.0136 0.759692,-0.1516 0.752879,0.48034 -0.0068,0.63194 -0.471827,0.47183 -0.775022,0.43776 -0.582545,-0.0545 -0.637052,0.23676 -0.635348,0.70859 0.0017,0.47183 0.03918,0.78354 0.626831,0.70008 0.277645,-0.0392 0.567214,0 0.851672,-0.0102 0.34067,-0.0221 0.429244,0.15671 0.43265,0.46331 0,0.34067 -0.06643,0.53315 -0.46842,0.51101 -0.650678,-0.0256 -1.304762,-0.0239 -1.95544,0 -0.410506,0.0153 -0.5467741,-0.14649 -0.5348507,-0.54678 0.011923,-0.73073 -0.00341,-1.46828 -0.00341,-2.20412 z"
     id="path114"
     inkscape:connector-curvature="0"
     style="fill:#322f30;stroke-width:0.17033453" />
  <path
     class="cls-3"
     d="m 59.342849,97.00722 c 0,-0.68134 0.03747,-1.36267 -0.01192,-2.04401 -0.03918,-0.55189 0.180555,-0.68134 0.681338,-0.64898 a 15.299448,15.299448 0 0 0 1.533011,0 c 0.313415,0 0.536554,0 0.54507,0.43265 0.0085,0.43265 -0.192478,0.48546 -0.562104,0.51101 -0.369625,0.0255 -0.832935,-0.2538 -1.078217,0.19588 -0.281052,0.511 0.05791,0.99986 0.681338,1.01349 0.340669,0 0.587654,0.0187 0.589357,0.48375 0.0017,0.46502 -0.246985,0.52293 -0.589357,0.46842 -0.640458,-0.1022 -0.778429,0.21292 -0.718812,0.77162 0.03577,0.34067 -0.01533,0.68134 0.01192,1.022 0.03747,0.45139 -0.146488,0.58425 -0.587654,0.58425 -0.441167,0 -0.511004,-0.21973 -0.511004,-0.58084 0.02555,-0.73244 0.01703,-1.46999 0.01703,-2.20924 z"
     id="path116"
     inkscape:connector-curvature="0"
     style="fill:#322f30;stroke-width:0.17033453" />
  <path
     class="cls-4"
     d="m 20.000681,94.41132 c 0.664305,-0.20951 1.141242,-0.12264 1.345643,0.64898 a 9.1844382,9.1844382 0 0 0 0.521224,1.22981 c 0.766505,-0.55699 0.281052,-2.27226 1.958847,-1.90945 a 7.452136,7.452136 0 0 1 -0.851673,2.00314 c -0.528037,0.9181 -0.548477,1.8856 -0.511003,2.88035 0.01363,0.34067 -0.05791,0.56211 -0.459904,0.52464 -0.267425,-0.0239 -0.655787,0.0801 -0.58595,-0.37474 0.277645,-1.79362 -0.681338,-3.22103 -1.347347,-4.74211 a 1.7305989,1.7305989 0 0 1 -0.06984,-0.26062 z"
     id="path118"
     inkscape:connector-curvature="0"
     style="fill:#302c2d;stroke-width:0.17033453" />
  <path
     class="cls-3"
     d="m 64.584043,97.01915 c 0,-0.73755 0.02555,-1.4768 -0.0085,-2.21435 -0.02214,-0.46842 0.228249,-0.48035 0.577434,-0.49057 0.349186,-0.0102 0.511004,0.092 0.493971,0.47694 -0.02214,1.04926 0.03747,2.10193 -0.02385,3.14778 -0.04088,0.70178 0.151597,1.00668 0.875519,0.88063 a 2.638482,2.638482 0 0 1 0.511004,0 c 0.277645,0 0.311712,0.201 0.298085,0.41221 -0.01363,0.21122 0.08006,0.47864 -0.252095,0.53996 -0.05451,0.0102 -0.114124,0 -0.170334,0.0119 -2.200723,0.29127 -2.299517,0.2044 -2.299517,-2.00484 q -0.0017,-0.37644 -0.0017,-0.75969 z"
     id="path120"
     inkscape:connector-curvature="0"
     style="fill:#322f30;stroke-width:0.17033453" />
  <path
     class="cls-5"
     d="m 22.508006,87.91306 c 0,1.19234 0,2.13259 0,3.06602 0,0.19078 0.137971,0.52463 -0.236765,0.51101 -0.281052,-0.0102 -0.204402,-0.29298 -0.206105,-0.47694 q -0.0085,-1.61818 0,-3.23636 c 0,-0.2078 -0.08176,-0.48375 0.255502,-0.53825 a 0.5518839,0.5518839 0 0 1 0.628534,0.31512 14.752674,14.752674 0 0 0 1.650542,2.51584 c 0,-0.77162 0,-1.54494 0,-2.31655 0,-0.18737 -0.05451,-0.46502 0.209511,-0.48375 0.369626,-0.0255 0.252095,0.3083 0.255502,0.50248 0.01363,1.07822 0.01022,2.15814 0,3.23636 0,0.17033 0.103904,0.43095 -0.183961,0.49227 -0.245282,0.0528 -0.340669,-0.1499 -0.441167,-0.32364 q -0.778428,-1.36268 -1.558561,-2.73728 c -0.06473,-0.11582 -0.151597,-0.21802 -0.373032,-0.52633 z"
     id="path122"
     inkscape:connector-curvature="0"
     style="fill:#434041;stroke-width:0.17033453" />
  <path
     class="cls-5"
     d="m 42.351979,97.00893 c 0,0.73584 -0.01703,1.47169 0,2.21434 0.01363,0.42925 -0.119234,0.6064 -0.57573,0.59618 -0.41732,0 -0.533148,-0.17034 -0.529741,-0.5587 0.01363,-1.47169 0.01874,-2.94338 0,-4.41337 0,-0.41221 0.137971,-0.52804 0.534851,-0.53826 0.447979,-0.0102 0.594467,0.14138 0.574027,0.58595 -0.02725,0.69838 -0.0034,1.40697 -0.0034,2.11386 z"
     id="path124"
     inkscape:connector-curvature="0"
     style="fill:#434041;stroke-width:0.17033453" />
  <path
     class="cls-3"
     d="m 78.469715,90.09675 c 0,-0.77843 0,-1.55686 0,-2.33529 0,-0.18396 -0.06813,-0.46671 0.199291,-0.48034 0.292975,-0.0153 0.212918,0.27765 0.214621,0.45479 q 0.01192,1.65736 0,3.31471 c 0,0.1533 0.07835,0.36622 -0.149894,0.42925 -0.228248,0.063 -0.340669,-0.13797 -0.43776,-0.31001 a 24.916536,24.916536 0 0 0 -1.95544,-3.06602 c 0,0.93854 0.0085,1.87368 0,2.81733 0,0.19248 0.151598,0.52974 -0.192478,0.54848 -0.344076,0.0187 -0.226545,-0.32534 -0.229952,-0.51952 -0.01363,-0.99135 -0.01874,-1.9844 0,-2.97575 0,-0.24869 -0.170334,-0.6098 0.224842,-0.72392 0.432649,-0.12434 0.585951,0.21462 0.756285,0.511 0.44798,0.79717 0.90618,1.58922 1.362676,2.38469 z"
     id="path126"
     inkscape:connector-curvature="0"
     style="fill:#322f30;stroke-width:0.17033453" />
  <path
     class="cls-5"
     d="m 30.331471,89.40008 c 0,-0.34067 -0.05451,-0.69326 0.01363,-1.02201 0.08176,-0.38665 -0.355999,-0.96579 0.340669,-1.14294 0.91129,-0.23166 2.084895,0.0732 2.340396,0.60809 0.279349,0.58425 0.170335,1.12251 -0.384956,1.49043 -0.311712,0.2027 -0.211214,0.40369 -0.100497,0.64387 0.170334,0.36111 0.340669,0.72221 0.482047,1.08843 0.05621,0.13627 0.218028,0.31853 -0.03066,0.42243 a 0.31000886,0.31000886 0 0 1 -0.419022,-0.18736 11.635552,11.635552 0 0 1 -0.545071,-1.24685 c -0.153301,-0.47524 -0.490563,-0.48205 -0.873816,-0.44458 -0.46842,0.046 -0.246985,0.41732 -0.304899,0.65749 -0.09879,0.4071 0.223138,1.17872 -0.218028,1.16339 -0.618315,-0.0204 -0.187368,-0.76821 -0.287866,-1.19234 a 3.7473598,3.7473598 0 0 1 -0.01192,-0.83805 z m 0.511004,-1.14635 c 0.02044,0.47012 -0.158411,0.98794 0.567214,0.91299 0.522927,-0.0528 1.175308,0.0562 1.229815,-0.70518 0.0511,-0.71881 -0.51952,-0.75288 -1.052667,-0.77673 -0.459904,-0.0187 -0.892553,-0.0272 -0.740956,0.56892 z"
     id="path128"
     inkscape:connector-curvature="0"
     style="fill:#434041;stroke-width:0.17033453" />
  <path
     class="cls-5"
     d="m 4.5990325,89.28425 a 5.1100361,5.1100361 0 0 1 0,-0.7648 c 0.063024,-0.42243 -0.2384684,-0.93854 0.2129182,-1.25196 0.3679226,-0.2555 1.9775839,0.0119 2.2824828,0.34067 0.4564965,0.48886 0.5331471,1.14635 0.023847,1.50406 -0.6506779,0.4599 -0.2878654,0.8159 -0.1533011,1.27751 0.1056074,0.36281 0.6660081,0.8687 0.2333583,1.05948 C 6.7060709,91.66553 6.7299178,90.90073 6.5169996,90.5788 A 3.960278,3.960278 0 0 1 6.1950673,89.88554 C 6.0247328,89.48525 5.675547,89.61641 5.3842749,89.62492 c -0.3559992,0.0102 -0.2520951,0.31172 -0.2623152,0.51101 -0.01533,0.34067 0,0.68134 0,1.022 0,0.18226 -0.02555,0.3526 -0.2606118,0.34067 -0.2350617,-0.0119 -0.2623152,-0.1567 -0.2623152,-0.34918 0.01022,-0.61661 0,-1.24004 -2e-7,-1.86517 z m 0.5280371,-0.92321 c -0.049397,0.46842 -0.07154,0.88404 0.5995775,0.80909 0.5297404,-0.0596 1.1650883,0.0119 1.173605,-0.75629 0,-0.72051 -0.5808408,-0.68133 -1.0935477,-0.73414 -0.5484772,-0.0545 -0.7954623,0.13116 -0.6711181,0.68134 z"
     id="path130"
     inkscape:connector-curvature="0"
     style="fill:#434041;stroke-width:0.17033453" />
  <path
     class="cls-5"
     d="m 92.95837,89.40179 c 0,-1.4751 0.681338,-2.29611 1.831097,-2.20413 1.022007,0.0818 1.551747,0.9181 1.50746,2.35061 -0.04088,1.29625 -0.642161,2.04402 -1.655652,2.04402 -1.061184,0.0119 -1.681201,-0.79547 -1.682905,-2.1905 z m 2.844587,-0.0647 c -0.02214,-0.19418 -0.03577,-0.44969 -0.08517,-0.69837 -0.117531,-0.58766 -0.439463,-0.99816 -1.076515,-1.00498 -0.637051,-0.007 -0.98283,0.4071 -1.090141,0.98794 -0.11242,0.61321 -0.143081,1.24004 0.09879,1.83962 a 0.98453362,0.98453362 0 0 0 0.974314,0.68133 1.0066771,1.0066771 0 0 0 0.98794,-0.6626 c 0.155005,-0.35259 0.156708,-0.7154 0.189072,-1.14294 z"
     id="path132"
     inkscape:connector-curvature="0"
     style="fill:#434041;stroke-width:0.17033453" />
  <path
     class="cls-5"
     d="m 84.557471,89.42393 q 0,-0.17034 0,-0.34067 c 0,-2.02698 0.132861,-2.1377 2.193909,-1.85665 0.170334,0.0239 0.381549,0.0204 0.378142,0.23677 -0.0034,0.21632 -0.207808,0.22995 -0.386659,0.22825 -0.282755,0 -0.567214,0 -0.851673,0 -0.45309,0 -0.861892,-0.092 -0.865299,0.64556 -0.0034,0.73755 0.330449,0.76821 0.877223,0.74266 0.211215,-0.0102 0.620017,-0.15841 0.596171,0.22655 -0.01874,0.34067 -0.420727,0.22484 -0.640458,0.19588 -0.717109,-0.092 -0.821013,0.2555 -0.826123,0.87893 -0.0051,0.62342 0.267425,0.77161 0.812496,0.71881 a 6.5306261,6.5306261 0 0 1 0.935137,0 c 0.170334,0 0.46331,-0.0903 0.441166,0.22655 -0.02214,0.31682 -0.299789,0.18225 -0.476937,0.19418 -2.187095,0.13967 -2.187095,0.13967 -2.187095,-2.09682 z"
     id="path134"
     inkscape:connector-curvature="0"
     style="fill:#434041;stroke-width:0.17033453" />
  <path
     class="cls-5"
     d="m 42.813586,89.40179 a 3.2363562,3.2363562 0 0 1 -0.281052,1.32009 1.4682837,1.4682837 0 0 1 -1.43081,0.87041 1.4529536,1.4529536 0 0 1 -1.412074,-0.89767 3.353887,3.353887 0 0 1 -0.155004,-2.15813 c 0.170335,-0.78184 0.637051,-1.31158 1.512571,-1.34054 0.832936,-0.0272 1.417183,0.41732 1.642025,1.28944 a 7.6173605,7.6173605 0 0 1 0.124344,0.9164 z m -0.536554,-0.0716 a 5.5597193,5.5597193 0 0 0 -0.06984,-0.68133 c -0.122641,-0.57744 -0.429243,-1.00668 -1.071404,-1.02201 -0.642162,-0.0153 -0.976017,0.38836 -1.096955,0.97772 a 3.2721265,3.2721265 0 0 0 0.08857,1.84132 0.97772024,0.97772024 0 0 0 0.969204,0.68133 1.0066771,1.0066771 0 0 0 0.994753,-0.65067 c 0.160115,-0.33216 0.163522,-0.70008 0.185665,-1.14636 z"
     id="path136"
     inkscape:connector-curvature="0"
     style="fill:#434041;stroke-width:0.17033453" />
  <path
     class="cls-5"
     d="m 48.831505,89.34557 a 3.1954759,3.1954759 0 0 1 0,-0.34066 c 0.06132,-0.57574 -0.281052,-1.43422 0.170335,-1.66588 0.563807,-0.28956 1.376303,-0.0971 2.081488,-0.10731 0.144784,0 0.306602,0.0375 0.311712,0.20951 0,0.23507 -0.192478,0.24188 -0.361109,0.24529 a 8.3719425,8.3719425 0 0 1 -1.022008,0 c -0.49908,-0.0511 -0.681338,0.0937 -0.681338,0.64216 0,0.59106 0.158411,0.81079 0.761396,0.75628 0.221435,-0.0204 0.671118,-0.21803 0.672821,0.21973 0,0.34067 -0.41732,0.22825 -0.628534,0.19589 -0.756286,-0.11413 -0.781836,0.29808 -0.802276,0.88574 -0.02214,0.64046 0.240172,0.79546 0.792056,0.712 a 0.19929141,0.19929141 0 0 1 0.08517,0 c 0.424133,0.13115 1.149758,-0.30661 1.224705,0.24358 0.04429,0.32874 -0.768209,0.16181 -1.192342,0.17033 -1.41037,0.029 -1.41037,0.0119 -1.41037,-1.40356 q -0.0017,-0.38155 -0.0017,-0.7631 z"
     id="path138"
     inkscape:connector-curvature="0"
     style="fill:#434041;stroke-width:0.17033453" />
  <path
     class="cls-5"
     d="m 60.502828,89.40179 a 10.766846,10.766846 0 0 0 -0.01022,-1.36268 c -0.09198,-0.712 0.226545,-0.88744 0.8653,-0.82442 0.44798,0.0443 0.904476,0.0102 1.362676,0.009 0.170335,0 0.373033,0.0153 0.362813,0.24017 -0.01022,0.22484 -0.211215,0.22314 -0.384956,0.22314 -0.282756,0 -0.567214,0.0153 -0.851673,0 -0.48886,-0.0307 -0.851673,-0.0324 -0.838046,0.67111 0,0.64728 0.264019,0.75799 0.809089,0.71882 0.219732,-0.0153 0.628535,-0.1499 0.642161,0.17033 0.02044,0.44457 -0.432649,0.27254 -0.654084,0.24528 -0.769912,-0.0954 -0.757989,0.34067 -0.792056,0.913 -0.04258,0.70007 0.330449,0.68133 0.831233,0.70177 0.44798,0.0204 1.314982,-0.17033 1.265585,0.15501 -0.08346,0.53826 -0.834639,0.22314 -1.291135,0.23847 -1.314983,0.0443 -1.314983,0.0153 -1.314983,-1.34224 q -0.0017,-0.37133 -0.0017,-0.75628 z"
     id="path140"
     inkscape:connector-curvature="0"
     style="fill:#434041;stroke-width:0.17033453" />
  <path
     class="cls-5"
     d="m 3.3896573,91.0898 c 0.054507,0.22995 0.054507,0.35941 -0.064727,0.40369 A 0.28275533,0.28275533 0 0 1 2.9553043,91.38107 1.6539484,1.6539484 0 0 1 2.7679363,90.82238 C 2.7100223,90.16148 2.2569327,90.22791 1.7834027,90.20576 1.2894325,90.18196 0.96239023,90.29266 0.89425642,90.83771 A 2.2381958,2.2381958 0 0 1 0.74606537,91.31975 0.28445868,0.28445868 0 0 1 0.3304491,91.49009 C 0.14989449,91.41349 0.2401718,91.25673 0.2793487,91.12898 0.64216126,89.93664 1.0083806,88.75451 1.3677864,87.56558 a 0.39517613,0.39517613 0 0 1 0.4224297,-0.34067 c 0.2061048,0 0.3985828,0.0119 0.4752333,0.2538 0.3866594,1.24514 0.7733188,2.47837 1.1242079,3.61109 z M 1.7851059,87.72229 1.2349254,89.7663 c 0.4411664,-0.14138 1.0611842,0.35089 1.0816243,-0.36111 0.01533,-0.5093 -0.1754446,-1.09184 -0.5314438,-1.6829 z"
     id="path142"
     inkscape:connector-curvature="0"
     style="fill:#434041;stroke-width:0.17033453" />
  <path
     class="cls-5"
     d="m 53.825714,88.74429 c 0.316822,-0.52633 0.556994,-0.93343 0.807385,-1.33372 a 0.32704231,0.32704231 0 0 1 0.439464,-0.14648 c 0.207808,0.12434 0.06984,0.32363 -0.03236,0.43094 -1.149758,1.20427 -0.681338,2.32337 0.156708,3.43054 a 1.7765892,1.7765892 0 0 1 0.149894,0.33045 c -0.759692,0.19077 -0.780132,-0.47353 -1.00327,-0.8142 -0.534851,-0.81761 -0.48886,-0.82272 -1.001567,0 -0.204402,0.32875 -0.323636,1.05948 -0.775023,0.80228 -0.400286,-0.22655 0.129455,-0.75629 0.354296,-1.02201 0.752879,-0.87893 0.466717,-1.62159 -0.109014,-2.41875 -0.141377,-0.19589 -0.56551,-0.52293 -0.182258,-0.73925 0.340669,-0.19418 0.470124,0.29127 0.633645,0.53485 0.163521,0.24358 0.323635,0.53996 0.562104,0.94535 z"
     id="path144"
     inkscape:connector-curvature="0"
     style="fill:#434041;stroke-width:0.17033453" />
  <path
     class="cls-5"
     d="m 80.690877,89.29958 c 0.0085,0.52974 0.02555,0.98454 0.294679,1.37971 0.454793,0.66431 1.246848,0.61491 1.722082,-0.10901 0.114124,-0.17033 0.146488,-0.511 0.451386,-0.34067 0.275942,0.17034 0.03918,0.41562 -0.0528,0.59277 -0.521224,1.00497 -2.018465,1.05777 -2.578865,0.0511 a 2.968931,2.968931 0 0 1 0.01874,-3.003 c 0.325338,-0.58936 0.897663,-0.74777 1.53301,-0.6626 a 1.2996525,1.2996525 0 0 1 1.062888,0.8687 c 0.06643,0.16012 0.126047,0.32704 -0.09028,0.42925 a 0.19247803,0.19247803 0 0 1 -0.284459,-0.0852 c -0.260612,-0.57573 -0.645568,-0.98454 -1.318389,-0.7137 -0.737549,0.30319 -0.710295,1.01689 -0.757989,1.59262 z"
     id="path146"
     inkscape:connector-curvature="0"
     style="fill:#434041;stroke-width:0.17033453" />
  <path
     class="cls-5"
     d="m 9.1384479,89.5108 c 0.023847,0.37133 0.018737,0.86019 0.3542958,1.25877 0.4854535,0.57744 1.2076723,0.48034 1.6658723,-0.22825 0.114124,-0.17033 0.151597,-0.511 0.463309,-0.29468 0.236765,0.15671 0.01874,0.36452 -0.0511,0.52463 a 1.3337194,1.3337194 0 0 1 -1.282619,0.81931 C 9.6732984,91.60418 9.1605914,91.35382 8.9033863,90.7849 a 3.2210261,3.2210261 0 0 1 0.01022,-2.79519 c 0.2827554,-0.59958 0.8159025,-0.83464 1.4716907,-0.79205 a 1.3030592,1.3030592 0 0 1 1.177011,0.83634 c 0.06813,0.1533 0.156708,0.32874 -0.02385,0.4565 a 0.21291817,0.21291817 0 0 1 -0.34067,-0.0886 C 10.945693,87.79892 10.53178,87.44803 9.8725858,87.72056 9.2133911,87.9931 9.1912476,88.63185 9.1469606,89.23313 c -0.011923,0.0562 -0.00852,0.11242 -0.00852,0.27765 z"
     id="path148"
     inkscape:connector-curvature="0"
     style="fill:#434041;stroke-width:0.17033453" />
  <path
     class="cls-5"
     d="m 56.142263,89.37283 c 0,-1.45977 0.664305,-2.26375 1.774886,-2.17688 a 1.3200927,1.3200927 0 0 1 1.170199,0.85168 c 0.06984,0.155 0.144784,0.34066 -0.04088,0.45309 -0.185664,0.11242 -0.313415,0 -0.384956,-0.17034 -0.206105,-0.511 -0.582544,-0.78013 -1.131021,-0.65238 -0.584248,0.13627 -0.761395,0.62342 -0.834639,1.15487 -0.07835,0.56721 -0.08687,1.13272 0.148191,1.66928 a 0.97261021,0.97261021 0 0 0 0.912993,0.64556 0.90447639,0.90447639 0 0 0 0.892553,-0.52463 c 0.09368,-0.17033 0.110717,-0.54336 0.424133,-0.39347 0.369626,0.17034 0.05791,0.44798 -0.03236,0.63876 -0.243578,0.511 -0.703481,0.72562 -1.246849,0.73414 a 1.4512503,1.4512503 0 0 1 -1.384819,-0.8142 c -0.229952,-0.44968 -0.264019,-0.93003 -0.267426,-1.41548 z"
     id="path150"
     inkscape:connector-curvature="0"
     style="fill:#434041;stroke-width:0.17033453" />
  <path
     class="cls-5"
     d="m 14.163317,89.61641 a 2.8548068,2.8548068 0 0 0 0.160114,0.76821 0.98964366,0.98964366 0 0 0 0.918103,0.75798 0.91299312,0.91299312 0 0 0 0.953874,-0.5604 c 0.09028,-0.18055 0.141377,-0.52803 0.446276,-0.34067 0.255502,0.16012 0.04429,0.41051 -0.05621,0.59788 a 1.5023506,1.5023506 0 0 1 -2.447707,0.24017 c -0.655788,-0.75799 -0.662602,-2.58057 -0.01363,-3.35729 0.407099,-0.48716 0.940246,-0.6081 1.533011,-0.49568 0.485453,0.092 0.785242,0.42414 0.976017,0.8619 0.05791,0.13115 0.105607,0.26912 -0.03407,0.38325 a 0.21802821,0.21802821 0 0 1 -0.359406,-0.0494 C 15.991,87.81767 15.585604,87.43612 14.929816,87.71547 c -0.749472,0.32023 -0.744362,1.06119 -0.766505,1.90094 z"
     id="path152"
     inkscape:connector-curvature="0"
     style="fill:#434041;stroke-width:0.17033453" />
  <path
     class="cls-5"
     d="m 71.881175,89.27574 c 0,-0.0562 0,-0.11413 0,-0.17034 0,-2.06786 0.09368,-2.14792 2.170062,-1.87368 0.170334,0.0222 0.378142,0 0.386659,0.22314 0.0085,0.22314 -0.200995,0.23336 -0.371329,0.23847 -0.255502,0 -0.511004,0 -0.764802,0 -0.456497,0 -0.935137,-0.17033 -0.930027,0.6609 0,0.74777 0.359406,0.73584 0.882333,0.72392 0.211215,0 0.602984,-0.17034 0.589357,0.23506 -0.01022,0.29298 -0.359405,0.18567 -0.568917,0.19589 -0.763099,0.0409 -1.159978,0.68133 -0.851673,1.38311 0.112421,0.2555 0.315119,0.19418 0.499081,0.19929 0.45309,0.0119 0.906179,0 1.362676,0.0102 0.143081,0 0.303195,0.0273 0.294679,0.21633 -0.0085,0.18907 -0.170335,0.19759 -0.311713,0.19929 -0.652381,0 -1.303059,0 -1.95544,0 -0.340669,0 -0.434353,-0.1533 -0.42754,-0.46501 0.0085,-0.58425 -0.0034,-1.18042 -0.0034,-1.77659 z"
     id="path154"
     inkscape:connector-curvature="0"
     style="fill:#434041;stroke-width:0.17033453" />
  <path
     class="cls-5"
     d="m 18.043538,89.34217 v -0.2538 c 0,-2.04401 0.114124,-2.136 2.178578,-1.85835 0.170335,0.0221 0.379846,0 0.38155,0.22825 0.0017,0.22825 -0.206105,0.22995 -0.37644,0.23336 -0.253798,0 -0.511003,0 -0.763098,0 -0.45309,0 -0.933434,-0.17034 -0.930027,0.65749 0,0.73925 0.340669,0.75117 0.873816,0.72733 0.197588,-0.009 0.546774,-0.13457 0.568918,0.17033 0.02896,0.39858 -0.354296,0.24869 -0.572325,0.26232 a 0.95217006,0.95217006 0 0 0 -0.809089,1.40696 c 0.180555,0.32704 0.511004,0.12094 0.763099,0.18396 0.45309,0.11072 1.192342,-0.28957 1.292839,0.25721 0.0528,0.29467 -0.827826,0.14137 -1.279212,0.155 -1.328609,0.0358 -1.330313,0.0119 -1.330313,-1.3218 q 0.0017,-0.42413 0.0017,-0.84826 z"
     id="path156"
     inkscape:connector-curvature="0"
     style="fill:#434041;stroke-width:0.17033453" />
  <path
     class="cls-5"
     d="m 34.731212,89.38134 v -0.34066 c 0,-1.91456 0.291272,-2.15133 2.214349,-1.81236 0.137971,0.0238 0.304899,0.0119 0.327042,0.19077 0.02896,0.23847 -0.156707,0.26402 -0.328745,0.26743 a 7.264768,7.264768 0 0 1 -0.93173,0 c -0.538257,-0.0562 -0.793759,0.0528 -0.800573,0.70177 0,0.68134 0.310009,0.71371 0.821013,0.69156 0.214621,-0.009 0.611501,-0.17033 0.621721,0.19759 0.01022,0.36792 -0.396879,0.25721 -0.602984,0.22484 -0.798869,-0.12605 -0.809089,0.31512 -0.834639,0.93003 -0.02896,0.70859 0.340669,0.65408 0.832935,0.68134 0.446277,0.0256 1.286026,-0.20611 1.262179,0.17033 -0.03236,0.53315 -0.790352,0.20951 -1.219595,0.22484 -1.362676,0.0477 -1.362676,0.0187 -1.362676,-1.36267 q 0.0017,-0.38326 0.0017,-0.76481 z"
     id="path158"
     inkscape:connector-curvature="0"
     style="fill:#434041;stroke-width:0.17033453" />
  <path
     class="cls-6"
     d="m 20.453771,39.34898 q 8.44689,0 16.89378,0 c 0.327042,0 0.681338,-0.11412 0.97772,0.14308 -1.82258,0 -3.645159,0 -5.467739,0.0324 -0.490563,0 -1.00327,-0.14479 -1.4768,0.11753 l -0.08176,0.017 c -3.36581,-0.0136 -6.731621,-0.0204 -10.097431,-0.0494 -0.250392,0 -0.642161,0.22655 -0.74777,-0.26061 z"
     id="path160"
     inkscape:connector-curvature="0"
     style="fill:#cc492c;stroke-width:0.17033453" />
  <path
     class="cls-5"
     d="m 44.072358,89.34217 q 0,-0.17034 0,-0.34067 c 0,-1.89923 0.229952,-2.0849 2.173469,-1.77318 0.170334,0.0272 0.366219,0.0238 0.340669,0.2589 -0.01533,0.17034 -0.170335,0.2027 -0.321932,0.2027 a 6.3585883,6.3585883 0 0 1 -0.851673,0 c -0.643865,-0.0852 -0.87552,0.12094 -0.860189,0.81591 0.01533,0.73073 0.465013,0.52633 0.851672,0.57232 0.221435,0.0272 0.614908,-0.17034 0.621721,0.2061 0.0068,0.37644 -0.403693,0.25721 -0.608094,0.22144 -0.89596,-0.16182 -0.851673,0.39347 -0.851673,0.99986 0,0.34067 0.274239,0.96069 -0.270832,0.95899 -0.4582,0 -0.170334,-0.60299 -0.211214,-0.93003 a 9.5387341,9.5387341 0 0 1 -0.01192,-1.19234 z"
     id="path162"
     inkscape:connector-curvature="0"
     style="fill:#434041;stroke-width:0.17033453" />
  <path
     class="cls-5"
     d="m 68.198542,89.34046 c 0,-0.56551 0,-1.13102 0,-1.70334 0,-0.17034 0,-0.36792 0.226545,-0.39177 0.296382,-0.0307 0.291272,0.2027 0.292975,0.40199 0,0.87722 0.03236,1.75445 0,2.62996 -0.02725,0.59277 0.103904,0.87382 0.781836,0.83805 0.388363,-0.0204 1.113988,-0.29297 1.132724,0.21462 0.01363,0.37474 -0.763098,0.11242 -1.180418,0.18396 -0.170334,0.029 -0.340669,-0.017 -0.511003,0 -0.596171,0.0903 -0.80909,-0.15159 -0.751176,-0.74777 0.04429,-0.46842 0.0068,-0.94535 0.0085,-1.4257 z"
     id="path164"
     inkscape:connector-curvature="0"
     style="fill:#434041;stroke-width:0.17033453" />
  <path
     class="cls-5"
     d="m 27.457927,89.60448 c 0,-0.2538 -0.0085,-0.511 0,-0.7631 0.02385,-0.64897 0.158411,-1.37289 -0.916399,-1.15486 a 0.23676501,0.23676501 0 0 1 -0.308306,-0.20781 c -0.0017,-0.24699 0.192478,-0.24699 0.359406,-0.24699 q 1.144648,0 2.289296,0 c 0.170335,0 0.378143,0.0136 0.355999,0.24528 -0.02214,0.23166 -0.235061,0.24018 -0.396879,0.20781 -0.841453,-0.17033 -0.90107,0.31172 -0.867003,0.96239 0.04088,0.81761 0.01022,1.63862 0.01022,2.45793 0,0.2027 0.01022,0.42584 -0.287865,0.39858 -0.223139,-0.0204 -0.236765,-0.19929 -0.236765,-0.37644 q 0,-0.76139 -0.0017,-1.52279 z"
     id="path166"
     inkscape:connector-curvature="0"
     style="fill:#434041;stroke-width:0.17033453" />
  <path
     class="cls-5"
     d="M 89.563603,89.42734 V 89.0015 c 0,-1.87368 0.291272,-2.10534 2.193909,-1.77148 0.139674,0.0239 0.310009,0.017 0.330449,0.19418 0.02725,0.23506 -0.161818,0.26232 -0.340669,0.26743 -0.255502,0 -0.511004,0 -0.766506,0 -0.45309,0 -0.935136,-0.17034 -0.933433,0.65749 0,0.74777 0.350889,0.74436 0.877223,0.72733 0.218028,0 0.621721,-0.1533 0.616611,0.21291 -0.0051,0.36622 -0.413913,0.24869 -0.626831,0.20952 -0.912993,-0.17034 -0.827826,0.4071 -0.851673,0.99986 -0.01363,0.34067 0.277645,0.95728 -0.275942,0.95728 -0.459903,0 -0.170334,-0.60128 -0.216325,-0.92662 a 8.1215507,8.1215507 0 0 1 -0.0068,-1.10206 z"
     id="path168"
     inkscape:connector-curvature="0"
     style="fill:#434041;stroke-width:0.17033453" />
  <path
     class="cls-6"
     d="m 30.489882,32.34823 c -0.240172,0.29638 -0.575731,0.18056 -0.872113,0.18226 q -4.585405,0.0119 -9.170811,0 c 0.0085,-0.24699 0.199291,-0.24358 0.362812,-0.24188 3.23295,0.0204 6.460789,-0.092 9.680112,0.0596 z"
     id="path170"
     inkscape:connector-curvature="0"
     style="fill:#cc492c;stroke-width:0.17033453" />
  <path
     class="cls-5"
     d="m 64.532943,89.27574 c 0,-0.51101 -0.01022,-1.02201 0,-1.53301 0,-0.19929 -0.09028,-0.51101 0.279348,-0.48546 0.272536,0.0204 0.231655,0.27595 0.231655,0.46672 0,0.87552 0.03747,1.75445 -0.01022,2.62656 -0.03236,0.58765 0.141378,0.79035 0.746066,0.7648 0.405396,-0.017 1.168494,-0.23336 1.165088,0.18737 -0.0034,0.42072 -0.751176,0.12605 -1.159978,0.21632 -0.08176,0.017 -0.170335,-0.0102 -0.253799,0 -0.798869,0.14308 -1.142945,-0.14137 -1.022007,-0.98453 a 8.4962867,8.4962867 0 0 0 0.02385,-1.25877 z"
     id="path172"
     inkscape:connector-curvature="0"
     style="fill:#434041;stroke-width:0.17033453" />
  <path
     class="cls-11"
     d="m 60.254139,54.00797 a 1.2843224,1.2843224 0 0 1 -0.139674,0.0324 H 53.32493 l -0.264018,-0.0307 q 0,-1.63862 0,-3.27554 L 53.207399,50.465 c 2.364244,0.0136 4.73019,-0.0869 7.09273,0.0511 l 0.03236,0.22144 q 0,1.55856 0,3.11882 z"
     id="path174"
     inkscape:connector-curvature="0"
     style="fill:#264d5a;stroke-width:0.17033453" />
  <path
     class="cls-14"
     d="m 64.21612,43.17299 6.983716,-0.0732 a 0.31682224,0.31682224 0 0 1 -0.11753,0.11242 c -2.294407,0.0596 -4.581999,0.14819 -6.866186,-0.0392 z"
     id="path176"
     inkscape:connector-curvature="0"
     style="fill:#947469;stroke-width:0.17033453" />
  <path
     class="cls-14"
     d="m 53.055802,50.73074 -0.119235,-0.2504 0.265722,-0.0187 z"
     id="path178"
     inkscape:connector-curvature="0"
     style="fill:#947469;stroke-width:0.17033453" />
  <path
     class="cls-14"
     d="m 63.902705,43.13211 0.04769,-0.17033 0.09879,0.17033 -0.07154,0.0136 z"
     id="path180"
     inkscape:connector-curvature="0"
     style="fill:#947469;stroke-width:0.17033453" />
  <path
     class="cls-14"
     d="m 60.35634,50.53996 -0.02725,0.19418 -0.03236,-0.22143 z"
     id="path182"
     inkscape:connector-curvature="0"
     style="fill:#947469;stroke-width:0.17033453" />
  <path
     class="cls-10"
     d="m 63.941882,39.63174 c -1.200859,0.017 -2.405124,-0.0869 -3.604279,0.0596 q 0,-3.74736 0,-7.49472 a 15.468079,15.468079 0 0 0 3.617906,0.0204 l 0.0494,0.31683 c -0.265722,0.88574 -0.114125,1.79532 -0.105608,2.68958 0.01363,1.37801 -0.158411,2.76112 0.103904,4.13231 z"
     id="path184"
     inkscape:connector-curvature="0"
     style="fill:#827920;stroke-width:0.17033453" />
  <path
     class="cls-6"
     d="m 52.985964,39.35409 q 0,-3.40669 0,-6.8253 c 0.178852,0.14478 0.151598,0.35089 0.151598,0.54507 q 0,2.86843 0,5.73686 c 0.0068,0.19419 0.02725,0.39859 -0.151598,0.54337 z"
     id="path186"
     inkscape:connector-curvature="0"
     style="fill:#cc492c;stroke-width:0.17033453" />
  <path
     class="cls-6"
     d="m 52.803706,32.35505 0.170335,-0.0102 0.01022,0.18225 z"
     id="path188"
     inkscape:connector-curvature="0"
     style="fill:#cc492c;stroke-width:0.17033453" />
  <path
     class="cls-6"
     d="M 52.85651,39.56871 52.985964,39.3575 Z"
     id="path190"
     inkscape:connector-curvature="0"
     style="fill:#cc492c;stroke-width:0.17033453" />
  <path
     class="cls-9"
     d="m 38.66594,50.4582 a 0.57232404,0.57232404 0 0 1 -0.119234,-0.21803 c -0.01533,-2.37617 -0.114124,-4.75233 0.04769,-7.1285 a 25.778429,25.778429 0 0 0 3.577026,-0.0102 c 0.155004,2.38468 0.06132,4.75744 0.04429,7.13532 a 0.52633372,0.52633372 0 0 1 -0.143081,0.20269 z"
     id="path192"
     inkscape:connector-curvature="0"
     style="fill:#837a27;stroke-width:0.17033453" />
  <path
     class="cls-6"
     d="m 42.183348,39.67943 -3.537848,-0.0852 -0.01533,-0.0647 c 0.195884,-0.22314 0.461606,-0.18056 0.711998,-0.18056 q 4.581999,0 9.165701,0 c 0.257206,0 0.592765,-0.13116 0.713702,0.26572 z"
     id="path194"
     inkscape:connector-curvature="0"
     style="fill:#cc492c;stroke-width:0.17033453" />
  <path
     class="cls-11"
     d="m 49.448116,28.78313 q 0,1.74763 0,3.49697 L 49.221571,32.367 H 42.4133 a 0.85167269,0.85167269 0 0 0 -0.144785,-0.0596 l -0.07495,-0.17033 -0.02725,-3.35389 h 7.281801 z"
     id="path196"
     inkscape:connector-curvature="0"
     style="fill:#264d5a;stroke-width:0.17033453" />
  <path
     class="cls-9"
     d="m 38.63017,39.53805 0.01533,0.0647 -0.08346,0.17033 c -1.572188,-0.2044 -3.152892,-0.0426 -4.728487,-0.0886 -0.817606,-0.0239 -1.635211,-0.017 -2.452817,-0.0256 0.47353,-0.26231 0.986237,-0.11072 1.4768,-0.11923 1.82258,-0.0273 3.645159,-0.0239 5.467739,-0.0324 z"
     id="path198"
     inkscape:connector-curvature="0"
     style="fill:#837a27;stroke-width:0.17033453" />
  <path
     class="cls-6"
     d="m 42.4133,32.36527 h 6.813381 a 0.51100361,0.51100361 0 0 1 -0.202698,0.13626 q -3.203993,0.0119 -6.407985,0 A 0.51100361,0.51100361 0 0 1 42.4133,32.36527 Z"
     id="path200"
     inkscape:connector-curvature="0"
     style="fill:#cc492c;stroke-width:0.17033453" />
  <path
     class="cls-6"
     d="m 31.511889,32.35845 h 6.813382 a 26.437623,26.437623 0 0 1 -6.813382,0 z"
     id="path202"
     inkscape:connector-curvature="0"
     style="fill:#cc492c;stroke-width:0.17033453" />
  <path
     class="cls-9"
     d="m 42.072631,32.31928 0.115827,-0.18397 0.07495,0.17034 z"
     id="path204"
     inkscape:connector-curvature="0"
     style="fill:#837a27;stroke-width:0.17033453" />
  <polygon
     class="cls-9"
     points="226.16,316.98 226.18,316.68 226.42,316.59 226.67,316.8 226.55,317.1 "
     id="polygon206"
     transform="matrix(0.17033454,0,0,0.17033454,0,0.0017)"
     style="fill:#837a27" />
  <path
     class="cls-14"
     d="m 71.043129,28.72351 c -2.28078,0.092 -4.563263,0.0818 -6.844042,0 1.062888,-0.24528 2.141105,-0.0954 3.209103,-0.0954 1.211078,0.009 2.42897,-0.13287 3.634939,0.0954 z"
     id="path208"
     inkscape:connector-curvature="0"
     style="fill:#947469;stroke-width:0.17033453" />
  <path
     class="cls-14"
     d="m 63.948695,28.92621 -0.0511,-0.17033 a 0.24528173,0.24528173 0 0 1 0.158411,0 z"
     id="path210"
     inkscape:connector-curvature="0"
     style="fill:#947469;stroke-width:0.17033453" />
  <path
     class="cls-14"
     d="m 63.895892,61.19098 q 0,-3.09668 0,-6.19166 c 0,-0.22144 -0.0511,-0.4565 0.124344,-0.64557 q 0.0085,3.13927 0.01703,6.27683 c -0.0068,0.19929 0.0085,0.39858 -0.141377,0.5604 z"
     id="path212"
     inkscape:connector-curvature="0"
     style="fill:#947469;stroke-width:0.17033453" />
  <path
     class="cls-14"
     d="m 53.32493,54.03863 h 6.791238 c -1.308169,0.27254 -2.631668,0.0903 -3.944948,0.10561 -0.948763,0.0136 -1.907747,0.1516 -2.84629,-0.10561 z"
     id="path214"
     inkscape:connector-curvature="0"
     style="fill:#947469;stroke-width:0.17033453" />
  <path
     class="cls-14"
     d="m 60.327383,53.84615 a 0.78524222,0.78524222 0 0 1 0.05962,0.11583 0.1277509,0.1277509 0 0 1 -0.02214,0.0613 0.24357839,0.24357839 0 0 1 -0.110718,-0.0221 z"
     id="path216"
     inkscape:connector-curvature="0"
     style="fill:#947469;stroke-width:0.17033453" />
  <path
     class="cls-14"
     d="m 63.999796,39.35409 c -0.264019,-1.37119 -0.09028,-2.75601 -0.103904,-4.13231 -0.0085,-0.89426 -0.160115,-1.80214 0.105607,-2.68959 q -0.0017,3.4101 -0.0017,6.8219 z"
     id="path218"
     inkscape:connector-curvature="0"
     style="fill:#947469;stroke-width:0.17033453" />
</svg>
