<?xml version="1.0" encoding="UTF-8" standalone="no"?>
<!-- Generator: Adobe Illustrator 19.2.0, SVG Export Plug-In . SVG Version: 6.00 Build 0)  -->

<svg
   xmlns:dc="http://purl.org/dc/elements/1.1/"
   xmlns:cc="http://creativecommons.org/ns#"
   xmlns:rdf="http://www.w3.org/1999/02/22-rdf-syntax-ns#"
   xmlns:svg="http://www.w3.org/2000/svg"
   xmlns="http://www.w3.org/2000/svg"
   xmlns:sodipodi="http://sodipodi.sourceforge.net/DTD/sodipodi-0.dtd"
   xmlns:inkscape="http://www.inkscape.org/namespaces/inkscape"
   version="1.1"
   id="Layer_1"
   x="0px"
   y="0px"
   viewBox="0 0 54.3831 99.999997"
   xml:space="preserve"
   sodipodi:docname="nglc-logo-stacked.svg"
   width="54.383099"
   height="100"
   inkscape:version="0.92.3 (2405546, 2018-03-11)"><metadata
   id="metadata5341"><rdf:RDF><cc:Work
       rdf:about=""><dc:format>image/svg+xml</dc:format><dc:type
         rdf:resource="http://purl.org/dc/dcmitype/StillImage" /></cc:Work></rdf:RDF></metadata><defs
   id="defs5339" /><sodipodi:namedview
   pagecolor="#ffffff"
   bordercolor="#666666"
   borderopacity="1"
   objecttolerance="10"
   gridtolerance="10"
   guidetolerance="10"
   inkscape:pageopacity="0"
   inkscape:pageshadow="2"
   inkscape:window-width="1486"
   inkscape:window-height="865"
   id="namedview5337"
   showgrid="false"
   inkscape:zoom="0.95973391"
   inkscape:cx="61.890954"
   inkscape:cy="118.96595"
   inkscape:window-x="0"
   inkscape:window-y="0"
   inkscape:window-maximized="0"
   inkscape:current-layer="Layer_1" />
<style
   type="text/css"
   id="style5170">
	.st0{fill:#DF393B;}
	.st1{fill:#DF373A;}
	.st2{fill:#EC773A;}
	.st3{fill:#E63C2B;}
	.st4{fill:#E04A45;}
	.st5{fill:#ED7A3E;}
	.st6{fill:#EC783B;}
	.st7{fill:#EC7F45;}
	.st8{fill:#E78272;}
	.st9{fill:#DF3C3C;}
	.st10{fill:#F0A171;}
	.st11{fill:#EE8C56;}
	.st12{fill:#E5685A;}
	.st13{fill:#E97F64;}
</style>
<g
   id="g5334"
   transform="matrix(0.42740245,0,0,0.42740245,-100.76399,-130.76141)">
	<path
   class="st0"
   d="m 311.7,347.8 c -2,0.8 -2.6,2.8 -3.9,4.5 -2.1,-1.4 -2.6,-5 -5.8,-4.3 -1.4,0.3 -0.9,1.9 -0.8,3 0,0.6 -0.1,1.2 -0.1,1.8 0,0.7 -0.1,1.4 -0.1,2.1 -2.4,0 -4.8,-1 -7.5,0.8 1.4,1.9 2.7,3.7 5.2,4.3 0.1,0.6 0.2,1.3 0.3,1.9 -2.4,0.9 -5.3,2.5 -4.2,4.9 0.9,2.1 4.2,0.7 6.4,0 0.8,-0.3 1.5,-0.6 2.3,-1 -1.2,5.3 -10.1,10.2 -17.9,9.7 4.1,-5.8 -0.4,-14.5 8,-18.5 -2.7,-2.1 -3.5,1.4 -5.3,0.7 0,-4.2 0,-8.3 0,-13.7 2,2.6 3,4.4 4.4,5.8 0.8,0.9 1.9,2.3 3.3,1.6 1.4,-0.7 0.9,-2.4 0.9,-3.6 0,-1.3 -0.3,-2.5 -0.5,-3.8 2.5,-0.9 6.4,1.4 7.3,-1.3 1,-2.7 -2.9,-3.8 -4.8,-5.5 1.2,-2.4 5.9,-3.2 4.4,-6.4 -1.1,-2.4 -4.5,-0.6 -7.1,-0.3 -0.1,-2.6 -0.2,-5.2 -0.4,-7.8 2.8,-0.4 5.3,-2 8.4,-1.2 1.5,0.4 3.2,-1.8 4.9,0.5 1.8,2.5 -0.9,3.6 -1.6,5.2 3.3,1.5 6.5,0.7 9.4,1.4 1.6,0.1 3.3,0.1 4.9,0.2 0,0.3 0,0.6 -0.1,0.9 -2.1,2.5 -2.2,6 -5.1,8.4 6.6,-0.1 6.7,-0.1 6.2,-7.4 0.3,0 0.7,0 1,0 0.1,0.1 0.3,0.2 0.4,0.2 -0.1,-0.1 -0.3,-0.1 -0.4,-0.2 0,-0.6 0,-1.3 0,-1.9 0.7,0 1.3,0.1 2,0.1 1.2,2.6 0.8,6.4 5,6.8 v 0 c 0,1.3 0.7,2 2,2 -0.1,2.4 0.8,3.7 3.1,3.5 1.8,-4.5 -1.6,-7.7 -2.1,-11.6 0.3,0 0.7,-0.1 1,-0.1 1.6,2.4 3.3,0.5 4.7,-0.2 2.7,-1.2 5.9,-0.8 6.3,1.7 1.1,5.9 5.2,4.6 8.9,4.7 6.2,12.3 7.4,25.3 4.9,38.9 -2.2,-0.4 -4.3,-0.7 -6.3,-1.1 -0.3,-2.5 3,-5.3 0.5,-6.9 -2.3,-1.4 -4.2,1.8 -6.2,3.3 -1.3,-2.1 -1.6,-6 -4.2,-5.7 -2.6,0.3 -1.8,4.1 -2.7,6.4 -2.3,-0.3 -5.1,-2.5 -6.5,-0.5 -1.5,2.2 1.6,3.9 2.8,5.9 -0.1,0.2 -0.2,0.6 -0.4,0.7 -1.9,1.2 -5.7,1.8 -4.9,4 1.1,3.1 5.2,1.6 8.8,2.2 -6.1,5 -12.2,4.4 -18.1,1.7 -7.2,-3.2 -14.2,-7 -23.3,-8.7 4.2,-2.4 4.4,-7.4 8.9,-8.2 0.3,0.5 0.6,1 0.9,1.5 1,2.4 1.9,4.7 5.1,4.5 0.8,-0.5 0.8,-1.1 0.6,-1.9 -0.1,-1.6 -0.2,-3.2 -0.3,-4.8 2.2,-1.1 5.7,1.4 6.6,-1.5 0.8,-2.5 -2.6,-3.3 -4.2,-4.9 0.1,-0.3 0.1,-0.7 0.3,-0.8 1.8,-1.4 5,-2.9 4.2,-4.9 -1.1,-2.6 -4.4,-0.6 -6.7,-0.8 -0.2,-0.1 -0.3,-0.3 -0.5,-0.4 -0.1,-2 0.5,-4 -0.2,-6 -0.6,-1.4 -1.4,-0.9 -2.1,0.1 z m 1,-13.5 c -0.1,0.3 -0.2,0.5 -0.4,0.8 0.3,0.1 0.6,0.4 0.8,0.3 0.2,-0.1 0.3,-0.5 0.4,-0.8 -0.2,0 -0.5,-0.2 -0.8,-0.3 z"
   id="path5172"
   inkscape:connector-curvature="0"
   style="fill:#df393b" />
	<path
   class="st1"
   d="m 300.8,389.5 c -2.7,0.2 -6.7,-0.8 -7.3,1.8 -0.7,3.2 3.7,3.4 6.2,5.2 -0.7,0.6 -1.5,1 -2,1.6 -1.2,1.5 -3.4,3.2 -2.2,5.1 0.9,1.4 3.4,0.6 5.1,-0.1 2,-0.8 2.5,0.1 2.8,2 0.3,1.7 0.1,4.4 2.2,4.5 2.1,0.1 2.9,-2.4 3.7,-4.2 0.3,-0.6 0.6,-1.2 1,-2 2.1,1.7 4.3,5.2 6.7,3.8 2.7,-1.6 -0.2,-4.7 -0.7,-7.3 2.5,-0.9 6.8,0.2 7.3,-2.7 0.5,-3 -4.1,-3.2 -6.1,-4.9 1.7,-2.2 3.6,-2.7 6.5,-2.1 7.9,1.7 14.3,-1.5 19.9,-7.7 0.1,1.5 0.1,2.3 0.2,3 0.3,2.9 1.2,6.7 3.9,6.7 2.8,0 1.6,-4 2.3,-6.2 6.3,1.4 6.3,1.4 3.5,7.5 -10.8,23.1 -30.3,35.5 -54.1,34.4 -15.4,-0.7 -21.9,-4.4 -22.6,-24.2 -0.5,-12.6 4.9,-18 17.5,-19.3 4.1,-0.4 5.2,1.6 6.2,5.1 z"
   id="path5174"
   inkscape:connector-curvature="0"
   style="fill:#df373a" />
	<path
   class="st0"
   d="m 275.3,331 c 0,0.2 -0.2,0.4 -0.1,0.5 4.5,4.8 0.6,8.5 -1.5,12.6 -3.7,7.2 -4.7,15.2 -6.1,23.2 -2.3,-12.9 -15.3,-21.8 -13.3,-37 1,1.9 1.5,3.3 2.3,4.5 1.1,1.7 2.6,3.9 4.5,3.5 2.2,-0.5 1.3,-3.1 1.1,-4.7 -0.3,-2.5 0.8,-2.8 2.8,-2.7 1.5,0.1 3,-0.1 4.5,-0.2 1.8,0 3.8,0.2 5.8,0.3 z"
   id="path5176"
   inkscape:connector-curvature="0"
   style="fill:#df393b" />
	<path
   class="st2"
   d="m 322.1,535.9 c -0.1,-7.8 -0.2,-15.6 -0.3,-23.4 0,-1 -0.3,-2.3 0.9,-2.6 4.7,-1.5 9.6,-1.7 14.1,0.6 3.4,1.7 4.8,4.9 4.4,8.8 -0.3,2.6 -1.2,5.2 -3.7,6.1 -3.4,1.2 -2.5,2.7 -1.1,4.7 1.1,1.5 2.2,3 3,4.6 0.6,1.3 2.9,3 0.9,4.1 -1.9,1 -4.8,1.6 -6.3,-1.6 -1.1,-2.5 -2.2,-5.1 -4.4,-7.2 -1.5,2.1 -0.3,4.2 -0.9,6 -2.2,2 -4.4,-0.7 -6.6,-0.1 z M 334,518.2 c -0.2,-2.1 -1.3,-3.2 -3.5,-3.3 -1.8,-0.1 -2.8,0.7 -2.7,2.6 0.1,1.6 -0.3,3.4 2.3,3.4 1.9,0 3.5,-0.3 3.9,-2.7 z m -8.5,14.1 c 0.3,-0.5 0.6,-0.8 0.8,-1.3 0.1,-0.2 -0.2,-0.5 -0.3,-0.8 -0.3,0.3 -0.7,0.6 -0.8,1 -0.2,0.3 0.1,0.6 0.3,1.1 z"
   id="path5178"
   inkscape:connector-curvature="0"
   style="fill:#ec773a" />
	<path
   class="st3"
   d="m 279.2,528.9 c 0,-1 0,-2 0,-3 0.1,-0.1 0.3,-0.2 0.3,-0.3 -0.1,-0.2 -0.2,-0.5 -0.3,-0.7 0,-1.3 0,-2.7 0,-4 1.1,-0.1 2.6,0.1 2.6,-1.5 0,-1.6 -1.5,-1.4 -2.6,-1.5 0.1,-1.7 0.2,-3.4 0.3,-5.1 0.8,-0.8 0.6,-1.8 0.6,-2.7 6.9,-2.5 6.9,4.9 10.9,8.1 0,-2.3 0.1,-3.9 0,-5.4 -0.3,-2.8 1.1,-3.4 3.5,-3.5 2.5,-0.1 3.3,1 3.2,3.2 -0.1,1.8 -0.1,3.6 -0.2,5.5 -0.1,0.7 -0.1,1.5 -0.2,2.2 0,0.5 0,0.9 0,1.4 -0.3,0.8 -0.3,1.6 0.2,2.3 0,3.6 0,7.3 0,10.9 -2.4,0.4 -4.9,0.7 -7.3,1.1 -0.7,-1.9 -1.5,-3.8 -2.2,-5.7 -0.1,-1.2 0.1,-2.8 -1.9,-1.3 0,0 0,0.1 0,0.1 -0.8,0.5 -0.9,1.3 -0.8,2.1 0.2,0.8 0.4,1.5 0.5,2.3 0,0.4 0,0.8 0,1.1 -1.2,-0.5 -2.4,-1 -3.6,-1.5 -0.1,-0.1 -0.3,-0.2 -0.4,-0.2 0.1,0.1 0.3,0.2 0.4,0.2 0,0.3 0,0.7 0,1 -0.6,0 -1.3,-0.1 -1.9,-0.1 -0.6,-1.7 0.2,-3.6 -1.1,-5 z"
   id="path5180"
   inkscape:connector-curvature="0"
   style="fill:#e63c2b" />
	<path
   class="st4"
   d="m 317,328.9 c -3,-0.7 -6.2,0.2 -9.4,-1.4 0.7,-1.7 3.4,-2.8 1.6,-5.2 -1.7,-2.3 -3.4,0 -4.9,-0.5 -3,-0.9 -5.6,0.7 -8.4,1.2 0,0 0,0 0,0 0.3,-1.3 -0.8,-3.2 1.4,-3.7 3.3,-0.8 1.7,-3.5 1.4,-4.8 -0.6,-2.7 -1.8,-1.1 -2.8,0.1 -0.1,0.1 -1.1,-0.5 -1.6,-0.8 -3.1,-1.7 -1.3,-4.4 -1.3,-6.7 4.9,-1.2 9.9,-1.4 15,-0.9 -0.2,1.3 2.1,3.2 -0.8,4 -1,0.3 -1.2,1.1 -0.8,2 0.5,1 1.5,0.4 2.2,0.3 2.8,-0.1 5.6,-0.3 8.4,-0.4 1,4.3 2.1,8.6 3.1,12.9 0.3,2.2 -3.4,1.5 -3.1,3.9 z m -14.5,-14.2 c -0.4,1.8 -1.2,3.8 1.5,4.3 0.8,0.2 1.7,0.5 1.9,-0.7 0.5,-2.4 -2.5,-2 -3.4,-3.6 z"
   id="path5182"
   inkscape:connector-curvature="0"
   style="fill:#e04a45" />
	<path
   class="st5"
   d="m 241.8,468.5 c -0.1,1.5 -0.1,2.9 -0.2,4.4 -0.1,1.7 0.7,3.9 -2.3,3.9 -2.6,0 -3.4,-1.2 -3.3,-3.7 0.2,-5.8 0,-11.7 0.1,-17.5 0,-1.4 -0.6,-3.3 1.5,-3.7 1.9,-0.3 3.6,-0.1 4.6,2 0.7,1.6 1.9,3 3.5,5.7 0.2,-2.8 0.3,-4.3 0.3,-5.8 0,-1.5 0.8,-2 2.3,-2 1.4,0.1 2.8,0 2.8,2 0.1,7 0.1,14 0.1,21 0,1 -0.3,2.1 -1.6,2 -1.5,-0.1 -3.1,0.3 -3.9,-1.5 -1,-2.3 -2,-4.5 -2.9,-6.8 -0.3,0 -0.6,0 -1,0 z"
   id="path5184"
   inkscape:connector-curvature="0"
   style="fill:#ed7a3e" />
	<path
   class="st6"
   d="m 346.3,474.9 c -0.1,-6.6 0,-13.3 -0.3,-19.9 -0.1,-2.7 1.1,-3.4 3.4,-3.7 2.5,-0.3 4.9,-0.3 7.4,0.4 2.8,0.8 4.6,2.6 5.3,5.4 0.7,3 0.1,5.9 -2.6,7.4 -2.6,1.4 -2.4,2.5 -0.8,4.5 1,1.1 1.8,2.4 2.4,3.8 0.5,1 2.3,2.3 0.5,3.3 -1.5,0.8 -3.6,1.1 -4.8,-1 -1.2,-2.1 -2.4,-4.3 -3.8,-6.9 -2.3,2.8 1.9,10.2 -5.9,7.9 -0.4,-0.4 -0.6,-0.8 -0.8,-1.2 z m 7.2,-13.9 c 1.5,-0.1 2.6,-0.6 2.6,-2.2 0,-1.7 -1.1,-2.7 -2.8,-2.8 -2,-0.1 -2.3,1.2 -2.3,2.9 0,1.8 1,2.3 2.5,2.1 z"
   id="path5186"
   inkscape:connector-curvature="0"
   style="fill:#ec783b" />
	<path
   class="st0"
   d="m 273.3,376.9 c -0.6,-9.1 -0.4,-17.5 1.4,-25.8 0.8,-3.7 1.4,-7.1 6.5,-6.8 1.4,0.1 2.8,-0.9 5.7,-2 -3.9,8.7 -1.8,17.4 -4.7,25.3 -1.6,4.1 -4.2,7.2 -8.9,9.3 z"
   id="path5188"
   inkscape:connector-curvature="0"
   style="fill:#df393b" />
	<path
   class="st5"
   d="m 329,453.1 c 1.8,-0.5 3.5,-1.1 5.3,-1.3 3.7,-0.5 6.5,0.9 8.1,4.4 1.4,3.1 0.8,6.3 -2,8 -3.2,2 -2.4,3.6 -0.7,5.8 0.6,0.8 1.2,1.6 1.6,2.5 0.5,1.2 2.7,2.5 0.9,3.6 -1.8,1.1 -4.1,1.1 -5.4,-1.6 -0.9,-2 -1.7,-4.2 -3.6,-5.6 -1.5,1 -1,2.3 -0.9,3.3 0.2,2.3 0.5,4.3 -2.8,4.4 -3.5,0.1 -2.4,-2.3 -2.5,-4.1 -0.3,-5.5 0.5,-11.1 -0.8,-16.6 2.1,0.2 3,-0.7 2.8,-2.8 z m 7.8,5.7 c -0.2,-1.8 -1.2,-2.6 -2.9,-2.6 -1.8,0 -2.2,1.1 -2.2,2.6 0,1.7 0.8,2.4 2.4,2.3 1.5,-0.1 2.6,-0.6 2.7,-2.3 z"
   id="path5190"
   inkscape:connector-curvature="0"
   style="fill:#ed7a3e" />
	<path
   class="st2"
   d="m 272.9,496.2 c 0,2.2 0,3.5 0,4.9 0.1,1.8 -0.1,3.3 -2.6,3.1 -2.1,-0.1 -2.4,-1.2 -2.4,-2.9 0.1,-5.5 0,-11 0,-16.5 0,-1.2 -0.4,-2.9 1.6,-3 1.5,-0.1 2.9,-0.1 3.8,1.6 0.8,1.4 1.2,3.1 2.8,3.9 0.3,-0.2 0.6,-0.3 0.7,-0.6 0.7,-1.9 -1.5,-5.3 2.5,-5.3 4.4,0 2.3,3.7 2.4,5.7 0.3,4.6 0.1,9.3 0,14 0,1.2 0.6,2.9 -1.5,3.1 -1.7,0.2 -3.3,0.1 -4.1,-1.9 -0.6,-1.9 -0.8,-3.9 -3.2,-6.1 z"
   id="path5192"
   inkscape:connector-curvature="0"
   style="fill:#ec773a" />
	<path
   class="st6"
   d="m 296,470.7 c 0,1.2 -0.1,2.3 0,3.5 0.1,1.7 -0.8,2.3 -2.4,2.4 -1.9,0.1 -2.7,-0.7 -2.7,-2.6 0.1,-6.5 0.1,-12.9 0.1,-19.4 0,-1.4 -0.1,-2.6 1.9,-2.7 1.9,-0.1 2.7,0.7 2.7,2.6 0,1.3 0.2,2.5 0.3,4 2.5,-1.1 2.8,-3.5 4,-5.1 1.2,-1.7 2.9,-1.9 4.4,-1.3 1.6,0.7 0.7,2.5 0,3.4 -4,5.9 -3.2,11.7 0,17.6 0.5,0.9 1.4,2.3 0,3.1 -1.3,0.8 -3.1,0.6 -4.1,-0.7 -1.3,-1.6 -2.3,-3.4 -3.5,-5.2 -0.1,0.1 -0.4,0.3 -0.7,0.4 z"
   id="path5194"
   inkscape:connector-curvature="0"
   style="fill:#ec783b" />
	<path
   class="st5"
   d="m 272.3,464 c 0.2,-3.7 0.4,-6.3 0.4,-9 0,-1.6 0.6,-2.4 2.4,-2.4 1.9,0 2.1,1.1 2.1,2.6 0.1,4.3 0.1,8.6 0.3,12.9 0.1,1.6 0.3,3.7 2.6,3.5 2.2,-0.2 2.1,-2.2 2.2,-3.8 0.2,-4.1 0.3,-8.3 0.4,-12.4 0,-1.9 0.7,-2.7 2.6,-2.7 2.1,0 2.6,1.1 2.5,2.8 -0.2,5.3 -0.3,10.6 -0.8,15.9 -0.4,3.9 -3.1,5.7 -7,5.5 -4,-0.1 -7.3,-1.5 -7.7,-6 -0.3,-2.6 0,-5.3 0,-6.9 z"
   id="path5196"
   inkscape:connector-curvature="0"
   style="fill:#ed7a3e" />
	<path
   class="st1"
   d="m 266,405.6 c 0.1,3 0.3,6.9 -1.8,8 -2.3,1.3 -4.3,-2.3 -6.2,-3.9 -3.8,-3.2 -6.9,-7.1 -10,-11.1 -1.8,-2.4 -1.1,-3.8 0.9,-5.4 4.7,-3.7 12.1,-1.9 15.3,3.9 1.5,2.7 2.1,5.6 1.8,8.5 z"
   id="path5198"
   inkscape:connector-curvature="0"
   style="fill:#df373a" />
	<path
   class="st2"
   d="m 345.2,530.9 c -0.1,-5.8 -0.1,-11.6 -0.2,-17.4 -0.1,-2.5 0.6,-3.7 3.3,-3.6 3.8,0.1 7.6,0.1 11.5,-0.1 2.3,-0.1 3.2,0.7 3.2,3.1 0,2.4 -1,3.2 -3.3,3.1 -2,-0.1 -4,0 -6,0 -2,0 -2.6,1 -2.6,2.8 0,1.7 0.2,3 2.3,3 1.9,-0.1 3.7,-0.1 3.5,2.7 -0.1,2.3 -0.9,3 -3.2,3.4 -3.3,0.5 -3.5,3.3 -0.7,6.2 -0.4,4.1 -3.3,1.3 -4.9,1.8 -0.4,-2.1 1.1,-5.1 -2.9,-5 z"
   id="path5200"
   inkscape:connector-curvature="0"
   style="fill:#ec773a" />
	<path
   class="st6"
   d="m 258.1,532.9 c -0.1,-6.5 0,-13 -0.2,-19.5 -0.1,-2.5 0.8,-3.6 3.4,-3.5 3.8,0.1 7.7,0 11.5,-0.1 1.9,0 3.3,0.2 3.1,2.7 -0.1,2 -0.2,3.7 -2.9,3.5 -2,-0.1 -4,0 -6,0 -1.8,0 -2.8,0.6 -2.9,2.5 -0.1,1.9 0.3,3.3 2.6,3.3 1.7,0 3.4,-0.2 3.2,2.5 -0.1,2.1 -0.4,3.7 -3,3.4 -2.3,-0.2 -2.8,1.3 -3,3.1 -3,-2.6 -3.3,0 -3.8,2 -0.7,2.7 -1.3,0.2 -2,0.1 z"
   id="path5202"
   inkscape:connector-curvature="0"
   style="fill:#ec783b" />
	<path
   class="st3"
   d="m 306.4,526.9 c -0.1,-2.1 -0.4,-4.3 -0.4,-6.4 0,-2.5 -0.1,-4.2 -3.5,-4.6 -3.7,-0.5 -1.4,-3.8 -1.6,-6 2.7,0 5.5,1.6 8.2,-0.4 2.1,0.1 4.3,0.3 6.4,0.3 2,0 3.2,0.5 3,2.8 -0.1,1.9 0.1,3.8 -2.7,3.5 -3,-0.4 -3,1.6 -3.1,3.7 -0.3,5.4 1.6,11.1 -1.7,16.3 -2.9,0.2 -4.6,-0.4 -3.8,-4.1 0.5,-1.6 -0.4,-3.5 -0.8,-5.1 z"
   id="path5204"
   inkscape:connector-curvature="0"
   style="fill:#e63c2b" />
	<path
   class="st7"
   d="m 301.2,491.8 c 0,-2.2 0,-4.3 0,-6.5 0,-1.7 -0.1,-3.5 2.5,-3.3 2.2,0.1 2,1.7 2.1,3.2 0.1,3.8 0.1,7.7 0.3,11.5 0,1.4 0.2,2.9 1.9,3 2.2,0.2 2.2,-1.6 2.3,-3.1 0.2,-3.8 0.3,-7.7 0.3,-11.5 0,-1.7 0.5,-2.9 2.5,-3 2.3,-0.1 2.2,1.6 2.2,3.1 0,4.3 0,8.7 -0.2,13 -0.2,4.1 -2.4,6.5 -6.6,6.6 -4.6,0.1 -7.1,-2.4 -7.2,-7 -0.1,-2 0,-4 0,-6 -0.2,0 -0.1,0 -0.1,0 z"
   id="path5206"
   inkscape:connector-curvature="0"
   style="fill:#ec7f45" />
	<path
   class="st7"
   d="m 336.9,493.3 c 0,1.3 0,2.7 0,4 0.1,1.7 0.7,3 2.7,2.6 2.6,-0.6 0.5,-1.8 0.3,-2.8 -0.8,-3.1 1.5,-3.7 3.6,-4.1 2.6,-0.5 2.5,1.3 2.6,3.1 0.4,6.9 -3.8,10.4 -9.7,8.3 -1.7,-0.6 -3.1,-1.5 -3.3,-3.4 -0.6,-5.1 -1.2,-10.2 -0.2,-15.4 0.7,-3.7 3.6,-4.6 6.3,-4.1 2.5,0.4 6,0.2 6.2,4.8 0.1,2.9 -0.9,2.8 -2.6,2.2 -6.1,-2.2 -6.1,-2.3 -5.9,4.8 z"
   id="path5208"
   inkscape:connector-curvature="0"
   style="fill:#ec7f45" />
	<path
   class="st6"
   d="m 237.2,530.8 c -2.1,-4.9 -1.4,-10.1 -1,-15.1 0.5,-4.8 4.8,-6.9 10.3,-5.8 4.5,1 8,5.7 7.5,9.8 -0.2,1.7 -1,2.5 -2.5,2.3 -1.5,-0.1 -3.4,0.7 -3.8,-2 -0.3,-2 -0.9,-4.2 -3.6,-3.6 -2.8,0.6 -2,3.1 -2,4.9 -0.1,3.1 -0.1,6.3 -0.1,9.4 -1.6,0.1 -3.2,0.1 -4.8,0.1 z"
   id="path5210"
   inkscape:connector-curvature="0"
   style="fill:#ec783b" />
	<path
   class="st2"
   d="m 284.9,492.7 c 0,-1.7 0,-3.3 0,-5 0,-2.7 0.5,-5.1 3.5,-5.9 3,-0.8 6,-0.8 8.4,1.4 1.5,1.4 2,3.4 0.7,4.9 -1.2,1.3 -3,0.9 -4.1,-0.9 -0.7,-1.1 -1.7,-1.6 -3,-1.1 -1.2,0.5 -1.5,1.7 -1.4,2.9 0,2.8 0,5.6 0.1,8.5 0.1,1.9 1.3,2.8 3,2.3 2.5,-0.7 0.6,-1.6 0.1,-2.6 -0.5,-1.2 -0.8,-2.8 0.2,-3.7 1.1,-1 2.9,-0.6 4.3,-0.4 2,0.2 1.4,2 1.4,3.2 0.4,6.1 -1.4,8.4 -6.8,8.6 -4.4,0.2 -6.3,-2.2 -6.4,-8 0,-1.5 0,-2.8 0,-4.2 0,0 0,0 0,0 z"
   id="path5212"
   inkscape:connector-curvature="0"
   style="fill:#ec773a" />
	<path
   class="st6"
   d="m 322,462.9 c 3.5,7.3 0.2,14.4 -6.6,14.1 -5,-0.2 -7.2,-2.5 -7.2,-7.5 0,-4.7 0.1,-9.3 0.1,-14 0,-1.8 0.4,-2.8 2.5,-2.8 2.2,0 2.2,1.4 2.2,3 0,4.2 0,8.3 0.1,12.5 0,1.7 0.5,3.6 2.6,3.6 2.3,0 2.2,-2 2.3,-3.7 0.1,-2 0.3,-4 0.5,-6 1.2,0.2 2.4,0.5 3.5,0.8 z"
   id="path5214"
   inkscape:connector-curvature="0"
   style="fill:#ec783b" />
	<path
   class="st8"
   d="m 320,324.9 c -1,-4.3 -2.1,-8.6 -3.1,-12.9 0.1,-0.8 0.3,-1.6 1.2,-2 0.9,0.9 1.7,2.5 2.8,2.6 3.1,0.4 6.1,0.3 7.6,3.9 0.3,0.8 2.3,0.7 2.1,-1.2 -0.1,-1.1 -0.4,-2.3 -0.6,-3.4 6.3,2.3 11.9,5.6 15.8,11.2 -2.9,0.7 -5.7,2.9 -8.8,0.8 -0.8,-1.1 -1.9,-0.9 -3,-0.9 0.6,-3.5 4.1,-0.9 5.6,-2.8 -2.2,-1.2 -4.6,-0.8 -6.8,-1 -1.7,-0.2 -4.1,-1.2 -4.7,1.8 0,0.3 0,0.6 0,0.9 -3.3,-0.3 -5.2,2.5 -8.1,3 z"
   id="path5216"
   inkscape:connector-curvature="0"
   style="fill:#e78272" />
	<path
   class="st2"
   d="m 349.1,491.3 c 0,0.5 0,-0.1 0.1,-0.8 0.1,-9.6 0.2,-9.7 10.1,-8.8 1.3,0.1 2.6,-0.2 2.7,1.9 0.1,1.9 -0.6,2.9 -2.4,3.1 -1.5,0.2 -3,0.2 -4.5,0.2 -1.3,0 -2.1,0.4 -2.5,1.7 -0.6,2 1.3,1.3 2,1.9 1,0.8 3.2,-0.5 3.4,2 0.2,2 -1,2.5 -2.6,2.8 -1.5,0.3 -1.5,1.5 -1.5,2.7 0.1,2 1.7,1.5 2.9,1.9 2,0.6 6,-1.9 5.7,2.2 -0.2,3.5 -4.1,1.7 -6.2,1.8 -8.6,0.2 -7.1,0.8 -7.3,-6.9 0.1,-1.5 0.1,-3 0.1,-5.7 z"
   id="path5218"
   inkscape:connector-curvature="0"
   style="fill:#ec773a" />
	<path
   class="st4"
   d="m 275.3,331 c -2,-0.1 -4,-0.3 -5.9,-0.4 0.6,-0.8 0.6,-1.6 0.3,-2.5 5.8,-5 -1.7,-4.1 -2.7,-6.2 0.9,-1.1 1.8,-2.1 2.7,-3.2 1.6,0.5 1.6,3.8 4.2,2.6 2,-0.9 2.2,-2.6 2.6,-4.7 0.8,-3.9 -3.3,-0.5 -3.3,-2.6 3.7,-2.3 7.7,-4 11.9,-5.1 0.7,1.4 3,0.1 3.4,2.2 -0.4,0.2 -0.8,0.5 -1.2,0.6 -1.9,0.2 -4.2,0.1 -4.9,2.3 -0.6,1.9 1.3,2.8 2.5,3.8 2.1,1.7 0.7,3.5 0,5.3 -1,-0.3 -1.8,-0.1 -2.4,0.7 -4.1,0.5 -5.7,2.7 -4.4,6.8 -1,0.1 -1.9,0.3 -2.8,0.4 z"
   id="path5220"
   inkscape:connector-curvature="0"
   style="fill:#e04a45" />
	<path
   class="st9"
   d="m 284.9,323.1 c 0.7,-1.8 2.1,-3.5 0,-5.3 -1.2,-1 -3.1,-1.9 -2.5,-3.8 0.7,-2.2 3,-2.1 4.9,-2.3 0.4,-0.1 0.8,-0.4 1.2,-0.6 -0.4,-2.1 -2.8,-0.7 -3.4,-2.2 2.5,-1.1 5.2,-1.9 7.9,-2 0,2.3 -1.8,5 1.3,6.7 0.6,0.3 1.6,0.9 1.6,0.8 1,-1.2 2.2,-2.8 2.8,-0.1 0.3,1.4 1.9,4 -1.4,4.8 -2.2,0.5 -1.1,2.4 -1.4,3.7 -3.7,-0.2 -4.7,2.9 -6.4,5.4 -1.5,-1.6 -3.1,-3.3 -4.6,-5.1 z"
   id="path5222"
   inkscape:connector-curvature="0"
   style="fill:#df3c3c" />
	<path
   class="st5"
   d="m 264.9,501.4 c 0.2,1.3 0.3,2.4 -1.2,2.5 -1.2,0.2 -2.3,0 -2.9,-1.3 -1.4,-3.1 -2.9,-4.5 -4.4,-0.1 -0.6,1.7 -1.9,1.6 -3.3,1.3 -1.8,-0.3 -1.3,-1.8 -1.1,-2.8 1.2,-5.8 2.6,-11.6 3.9,-17.5 0.3,-1.3 1,-2 2.4,-2.1 1.3,-0.1 2.3,0.2 2.6,1.7 1.4,6.3 2.7,12.5 4,18.3 z"
   id="path5224"
   inkscape:connector-curvature="0"
   style="fill:#ed7a3e" />
	<path
   class="st6"
   d="m 330.2,502 c 0.1,0.8 0.3,1.7 -0.8,2 -1.4,0.3 -2.6,0.3 -3.3,-1.3 -1.5,-3.4 -2.9,-4.5 -4.2,0.1 -0.5,1.8 -2.1,1.3 -3.3,1.2 -1.9,-0.1 -1.4,-1.4 -1.2,-2.5 1.2,-5.7 2.4,-11.3 3.7,-17 0.3,-1.6 0.9,-2.7 2.8,-2.8 2.3,-0.1 2.2,1.6 2.5,2.9 1.3,5.5 2.5,11 3.7,16.4 0,0.3 0,0.6 0.1,1 z"
   id="path5226"
   inkscape:connector-curvature="0"
   style="fill:#ec783b" />
	<path
   class="st6"
   d="m 259.1,458.1 c 0,3.5 0,7 0,10.5 0,1.6 0.3,3.1 2.3,3.3 0.6,0.1 1.4,-0.1 1.9,-0.4 1,-0.7 0.3,-1.3 -0.3,-1.9 -1.4,-1.4 -1.4,-3.4 -0.5,-4.6 1.2,-1.6 3.5,-0.9 5.2,-0.6 2.4,0.4 1.5,2.7 1.5,4.1 0.2,6.7 -2.7,9.3 -9.1,8.5 -2.8,-0.4 -4.9,-1.8 -5,-4.7 -0.2,-5.4 -1.6,-10.9 0.1,-16.4 1.5,0.2 3,0.8 3.9,2.2 z"
   id="path5228"
   inkscape:connector-curvature="0"
   style="fill:#ec783b" />
	<path
   class="st5"
   d="m 236,492.8 c 0,-3 0.1,-6 0,-9 0,-1.8 0.5,-2.9 2.5,-2.8 1.9,0 2.6,1 2.6,2.8 -0.1,3.7 0.1,7.3 -0.1,11 -0.1,3 0.4,4.9 4,4.5 1.1,-0.1 2.3,0.3 3.4,0.5 1.3,0.3 1.2,1.4 1.2,2.4 0,1.2 -0.6,1.8 -1.8,1.9 -0.3,0 -0.7,-0.1 -1,0 -10.6,0.6 -10.6,0.6 -10.8,-11.3 z"
   id="path5230"
   inkscape:connector-curvature="0"
   style="fill:#ed7a3e" />
	<path
   class="st9"
   d="m 259.6,372.1 c -4.7,-8.7 -13.4,-14.5 -16.6,-24.2 1.9,1.2 3.1,3.2 5.1,3.9 1.1,0.4 2.2,1.4 3.2,0.6 1.1,-0.9 0,-2.1 0,-3.2 0,-1.2 -3.1,-2.4 -0.4,-3.5 2.2,-0.9 2,1.6 2.6,2.8 3.9,7.4 5.7,15.3 6.1,23.6 z"
   id="path5232"
   inkscape:connector-curvature="0"
   style="fill:#df3c3c" />
	<path
   class="st4"
   d="m 337,323.8 c 3.2,2.1 5.9,-0.2 8.8,-0.8 4.1,3.6 7.1,7.9 9.1,12.9 -3.7,-0.1 -7.8,1.2 -8.9,-4.7 -0.5,-2.5 -3.6,-2.9 -6.3,-1.7 -1.5,0.6 -3.1,2.5 -4.7,0.2 2.5,-1.4 2,-3.7 2,-5.9 z"
   id="path5234"
   inkscape:connector-curvature="0"
   style="fill:#e04a45" />
	<path
   class="st1"
   d="m 249.2,374 c -1.5,0.1 -2.5,0.1 -3.5,0.2 -6.9,0.7 -7,0.7 -6.8,-6.5 0.1,-3.1 -0.3,-6.3 1.1,-9.3 3.4,3.2 7.4,10.1 9.2,15.6 z"
   id="path5236"
   inkscape:connector-curvature="0"
   style="fill:#df373a" />
	<path
   class="st10"
   d="m 258.1,532.9 c 0.6,0.1 1.3,2.7 1.9,-0.1 0.5,-2 0.8,-4.6 3.8,-2 1.3,5.3 5.4,3.1 8.6,3.2 1.8,0 3.3,-0.5 3.4,2.1 0.1,2.2 -1,2.9 -3,2.9 -3,-0.1 -6,-0.4 -9,0 -4.8,0.6 -6.6,-1.4 -5.7,-6.1 z"
   id="path5238"
   inkscape:connector-curvature="0"
   style="fill:#f0a171" />
	<path
   class="st10"
   d="m 237.2,530.8 c 1.6,0 3.1,0 4.7,0.1 1,1.5 2.2,2.5 4.1,2.3 0.2,4.5 3.6,2 5.6,2.6 -2.9,4.2 -8.3,5.4 -12.9,2.6 -2.9,-1.9 -3.5,-4.5 -1.5,-7.6 z"
   id="path5240"
   inkscape:connector-curvature="0"
   style="fill:#f0a171" />
	<path
   class="st7"
   d="m 259.1,458.1 c -0.9,-1.4 -2.4,-2 -4,-2.2 2.7,-4.6 9.5,-5.6 12.7,-1.9 1.3,1.5 2,3.5 0.8,5 -1.3,1.6 -3.3,1.2 -4.6,-0.6 -1.5,-2.4 -3.2,-1.9 -4.9,-0.3 z"
   id="path5242"
   inkscape:connector-curvature="0"
   style="fill:#ec7f45" />
	<path
   class="st11"
   d="m 348,535.8 c 1.7,-0.5 4.6,2.3 4.9,-1.8 2.4,-0.2 4.9,-0.6 7.3,0.5 0.9,0.4 1.8,0.7 1.7,2.1 -0.1,1.3 -0.7,2.3 -2,2.4 -4.3,0.1 -8.6,0.1 -12.8,0.1 -2.3,0 -2,-1.6 -1.9,-3.1 0.9,-0.1 1.9,-0.1 2.8,-0.2 z"
   id="path5244"
   inkscape:connector-curvature="0"
   style="fill:#ee8c56" />
	<path
   class="st12"
   d="m 318.1,309.9 c -0.9,0.4 -1.1,1.2 -1.2,2 -2.8,0.1 -5.6,0.3 -8.4,0.4 -0.8,0 -1.7,0.7 -2.2,-0.3 -0.5,-0.8 -0.2,-1.7 0.8,-2 2.9,-0.8 0.7,-2.6 0.8,-4 3.5,0 6.9,0.2 10.1,1.7 0.1,0.8 0.1,1.5 0.1,2.2 z"
   id="path5246"
   inkscape:connector-curvature="0"
   style="fill:#e5685a" />
	<path
   class="st11"
   d="m 322,462.9 c -1.1,-0.3 -2.3,-0.6 -3.4,-0.9 -0.1,-2.3 -0.2,-4.6 -0.3,-6.9 0,-1.6 0.7,-2.4 2.4,-2.4 1.8,-0.1 2.9,0.4 2.9,2.4 0.1,2.7 1,5.6 -1.6,7.8 z"
   id="path5248"
   inkscape:connector-curvature="0"
   style="fill:#ee8c56" />
	<path
   class="st10"
   d="m 318.1,309.9 c 0,-0.7 0,-1.4 0,-2.1 4.3,0.4 8.3,1.5 11.9,4 0.2,1.1 0.4,2.2 0.6,3.4 0.2,2 -1.7,2 -2.1,1.2 -1.5,-3.6 -4.5,-3.5 -7.6,-3.9 -1,-0.1 -1.9,-1.7 -2.8,-2.6 z"
   id="path5250"
   inkscape:connector-curvature="0"
   style="fill:#f0a171" />
	<path
   class="st1"
   d="m 252.1,383.6 c -1.9,1.4 -3.3,2.6 -4.8,3.6 -1.3,0.9 -2.5,3.6 -3.7,2.5 -1.5,-1.4 -1.9,-4.1 -2.5,-6.3 -0.4,-1.4 0.9,-1.5 1.9,-1.5 2.9,-0.2 5.8,0 9.1,1.7 z"
   id="path5252"
   inkscape:connector-curvature="0"
   style="fill:#df373a" />
	<path
   class="st11"
   d="m 251.7,535.8 c -2,-0.6 -5.4,1.9 -5.6,-2.6 0.9,-0.8 1.9,-1.5 1.8,-2.8 -0.1,-3.3 2.2,-2.7 4.1,-2.5 2.8,0.3 2,2.5 1.9,4.2 0,1.6 -1.1,2.7 -2.2,3.7 z"
   id="path5254"
   inkscape:connector-curvature="0"
   style="fill:#ee8c56" />
	<path
   class="st13"
   d="m 279.2,528.9 c 1.3,1.5 0.5,3.3 1,5 0.2,0.6 0.3,1.5 0.6,1.6 1.1,0.3 1.1,-0.7 1.3,-1.5 0,-0.3 0,-0.7 0,-1 v 0 c 1.2,0.5 2.4,1 3.6,1.5 -0.2,2 2,5 -2,5.3 -3.2,0.2 -5.1,-1.3 -4.6,-5 0.3,-2 0,-4 0.1,-5.9 z"
   id="path5256"
   inkscape:connector-curvature="0"
   style="fill:#e97f64" />
	<path
   class="st12"
   d="m 273.1,314.1 c 0.1,2.1 4.1,-1.3 3.3,2.6 -0.4,2 -0.6,3.8 -2.6,4.7 -2.6,1.2 -2.6,-2.1 -4.2,-2.6 0.3,-2.3 1.1,-4.1 3.5,-4.7 z"
   id="path5258"
   inkscape:connector-curvature="0"
   style="fill:#e5685a" />
	<path
   class="st12"
   d="m 290.1,535.8 c 2.4,-0.4 4.9,-0.7 7.3,-1.1 0.2,2 1.4,4.5 -2,5 -2.9,0.5 -5.1,-0.3 -5.3,-3.9 z"
   id="path5260"
   inkscape:connector-curvature="0"
   style="fill:#e5685a" />
	<path
   class="st1"
   d="m 278,330.6 c -1.3,-4.1 0.3,-6.2 4.4,-6.8 -0.2,1.8 -0.4,3.5 0.2,5.2 0.6,1.7 -0.3,2 -1.7,1.7 -0.3,-0.5 -0.6,-0.6 -1,-0.1 -0.6,0 -1.2,0 -1.9,0 z"
   id="path5262"
   inkscape:connector-curvature="0"
   style="fill:#df373a" />
	<path
   class="st13"
   d="m 306.4,526.9 c 0.4,1.7 1.3,3.5 0.9,5 -0.9,3.7 0.8,4.3 3.8,4.1 0.4,1.2 2.1,2.9 -0.8,3.1 -1.6,0.1 -3.9,1 -4,-2 -0.1,-3.4 -0.6,-6.8 0.1,-10.2 z"
   id="path5264"
   inkscape:connector-curvature="0"
   style="fill:#e97f64" />
	<path
   class="st0"
   d="m 267,321.9 c 0.9,2 8.5,1.2 2.7,6.2 -1.1,-1 -2.1,-2.2 -3.3,-2.8 -3.8,-2.1 -0.9,-2.6 0.6,-3.4 z"
   id="path5266"
   inkscape:connector-curvature="0"
   style="fill:#df393b" />
	<path
   class="st11"
   d="m 322.1,535.9 c 2.2,-0.5 4.4,2.1 6.5,0 -0.2,3.6 -1.1,4.1 -6.3,3 0.3,-0.2 0.7,-0.4 1,-0.6 -0.4,-0.1 -0.8,-0.2 -1.2,-0.3 0,-0.8 0,-1.5 0,-2.1 z"
   id="path5268"
   inkscape:connector-curvature="0"
   style="fill:#ee8c56" />
	<path
   class="st9"
   d="m 357.7,384.3 c -1.6,-1.5 -2.6,-2.5 -3.9,-3.8 1.9,-0.9 3.3,-1.6 4.9,-2.3 0.7,2.1 -0.7,3.6 -1,6.1 z"
   id="path5270"
   inkscape:connector-curvature="0"
   style="fill:#df3c3c" />
	<path
   class="st7"
   d="m 348,535.8 c -1,0 -1.9,0 -2.9,0 0,-1.7 0,-3.3 0,-5 4.1,0 2.6,3 2.9,5 z"
   id="path5272"
   inkscape:connector-curvature="0"
   style="fill:#ec7f45" />
	<path
   class="st10"
   d="m 309.2,509.5 c -2.6,1.9 -5.4,0.4 -8.2,0.4 2.7,-1.7 5.4,-0.9 8.2,-0.4 z"
   id="path5274"
   inkscape:connector-curvature="0"
   style="fill:#f0a171" />
	<path
   class="st4"
   d="m 279.2,517.9 c 1.1,0.1 2.6,-0.1 2.6,1.5 0,1.6 -1.5,1.4 -2.6,1.5 0,-1 0,-2 0,-3 z"
   id="path5276"
   inkscape:connector-curvature="0"
   style="fill:#e04a45" />
	<path
   class="st11"
   d="m 329,453.1 c 0.2,2.1 -0.8,3 -2.8,2.9 -0.6,-2.5 0.4,-3.4 2.8,-2.9 z"
   id="path5278"
   inkscape:connector-curvature="0"
   style="fill:#ee8c56" />
	<path
   class="st12"
   d="m 301,354.8 c 0,-0.7 0.1,-1.4 0.1,-2.1 0.2,0.2 0.5,0.3 0.8,0.5 -0.5,0.5 1.1,2 -0.9,1.6 z"
   id="path5280"
   inkscape:connector-curvature="0"
   style="fill:#e5685a" />
	<path
   class="st4"
   d="m 286,528.8 c 2,-1.4 1.8,0.1 1.9,1.3 -0.6,-0.4 -1.3,-0.9 -1.9,-1.3 z"
   id="path5282"
   inkscape:connector-curvature="0"
   style="fill:#e04a45" />
	<path
   class="st4"
   d="m 280,510.1 c 0,1 0.2,1.9 -0.6,2.7 0,-0.9 -0.6,-2 0.6,-2.7 z"
   id="path5284"
   inkscape:connector-curvature="0"
   style="fill:#e04a45" />
	<path
   class="st4"
   d="m 285.1,531 c -0.1,-0.8 0,-1.6 0.8,-2.1 0,0.7 0,1.3 -0.1,2 -0.2,0 -0.4,0.1 -0.7,0.1 z"
   id="path5286"
   inkscape:connector-curvature="0"
   style="fill:#e04a45" />
	<path
   class="st13"
   d="m 285.1,531 c 0.3,0 0.5,-0.1 0.8,-0.1 -0.1,0.8 -0.2,1.6 -0.2,2.5 -0.2,-0.9 -0.4,-1.6 -0.6,-2.4 z"
   id="path5288"
   inkscape:connector-curvature="0"
   style="fill:#e97f64" />
	<path
   class="st12"
   d="m 297.2,520.2 c 0.1,-0.7 0.1,-1.5 0.2,-2.2 0.5,0.7 0.4,1.5 -0.2,2.2 z"
   id="path5290"
   inkscape:connector-curvature="0"
   style="fill:#e5685a" />
	<path
   class="st12"
   d="m 297.5,523.9 c -0.6,-0.7 -0.5,-1.5 -0.2,-2.3 0.5,0.7 0.6,1.5 0.2,2.3 z"
   id="path5292"
   inkscape:connector-curvature="0"
   style="fill:#e5685a" />
	<path
   class="st2"
   d="m 322.1,537.9 c 0.4,0.1 0.8,0.2 1.2,0.3 -0.3,0.2 -0.7,0.4 -1,0.6 0,-0.3 -0.1,-0.6 -0.2,-0.9 z"
   id="path5294"
   inkscape:connector-curvature="0"
   style="fill:#ec773a" />
	<path
   class="st4"
   d="m 280,330.7 c 0.4,-0.5 0.7,-0.4 1,0.1 -0.3,-0.1 -0.7,-0.1 -1,-0.1 z"
   id="path5296"
   inkscape:connector-curvature="0"
   style="fill:#e04a45" />
	<path
   class="st0"
   d="m 314.5,354.3 c -0.3,0 -0.7,0.1 -1,0.1 0.2,-0.2 0.3,-0.4 0.5,-0.5 0.1,0.1 0.3,0.2 0.5,0.4 z"
   id="path5298"
   inkscape:connector-curvature="0"
   style="fill:#df393b" />
	<path
   class="st7"
   d="m 346.3,474.9 c 0.2,0.4 0.4,0.8 0.7,1.2 -0.7,-0.1 -0.9,-0.6 -0.7,-1.2 z"
   id="path5300"
   inkscape:connector-curvature="0"
   style="fill:#ec7f45" />
	<path
   class="st4"
   d="m 279.2,524.9 c 0.1,0.2 0.2,0.5 0.3,0.7 0,0.1 -0.2,0.2 -0.3,0.3 0,-0.3 0,-0.7 0,-1 z"
   id="path5302"
   inkscape:connector-curvature="0"
   style="fill:#e04a45" />
	<path
   class="st13"
   d="m 337,323.8 c 0.1,2.2 0.6,4.5 -2,5.9 -0.3,0 -0.7,0.1 -1,0.1 -0.3,0 -0.6,0 -0.9,0 -2.1,-3.6 -4.7,-0.5 -7.1,-0.7 -0.7,0 -1.3,-0.1 -2,-0.1 0,-0.7 -0.1,-1.4 -0.1,-2.1 3.6,0.1 5.6,-1.1 4.1,-5.1 0,-0.3 0,-0.6 0,-0.9 2.5,-0.9 4.4,-0.1 5.9,2 1.1,0 2.3,-0.2 3.1,0.9 z m -5.4,0.8 c -0.3,-0.1 -0.6,-0.4 -0.8,-0.3 -0.2,0.1 -0.4,0.6 -0.3,0.8 0.1,0.2 0.6,0.4 0.8,0.3 0.1,-0.1 0.2,-0.5 0.3,-0.8 z"
   id="path5304"
   inkscape:connector-curvature="0"
   style="fill:#e97f64" />
	<path
   class="st9"
   d="m 333.1,329.7 c 0.3,0 0.6,0 0.9,0 0.4,3.9 3.9,7.1 2.1,11.6 -2.2,0.2 -3.2,-1.2 -3.1,-3.5 0,-1.3 -0.7,-2 -2,-2 0,0 0,0 0,0 -1.7,-4.1 -1.7,-4.1 2.1,-6.1 z"
   id="path5306"
   inkscape:connector-curvature="0"
   style="fill:#df3c3c" />
	<path
   class="st12"
   d="m 328,321.8 c 1.5,4 -0.5,5.2 -4.1,5.1 -1.3,0.1 -1.8,0.9 -1.9,2.1 -1.6,-0.1 -3.3,-0.1 -4.9,-0.2 -0.3,-2.3 3.3,-1.7 3,-4 2.8,-0.4 4.7,-3.2 7.9,-3 z"
   id="path5308"
   inkscape:connector-curvature="0"
   style="fill:#e5685a" />
	<path
   class="st9"
   d="m 323,330.9 c 0.5,7.3 0.5,7.3 -6.2,7.4 3,-2.4 3,-5.9 5.1,-8.4 0.4,0.3 0.7,0.7 1.1,1 z"
   id="path5310"
   inkscape:connector-curvature="0"
   style="fill:#df3c3c" />
	<path
   class="st4"
   d="m 333.1,329.7 c -3.8,1.9 -3.8,1.9 -2.1,6.1 -4.2,-0.4 -3.8,-4.2 -5,-6.8 2.3,0.2 5,-2.9 7.1,0.7 z"
   id="path5312"
   inkscape:connector-curvature="0"
   style="fill:#e04a45" />
	<path
   class="st4"
   d="m 323,330.9 c -0.4,-0.3 -0.7,-0.7 -1.1,-1 0,-0.3 0,-0.6 0.1,-0.9 0,-1.2 0.6,-2 1.9,-2.1 0,0.7 0.1,1.4 0.1,2.1 0,0.6 0,1.3 0,1.9 v 0 c -0.3,0 -0.7,0 -1,0 z"
   id="path5314"
   inkscape:connector-curvature="0"
   style="fill:#e04a45" />
	<path
   class="st4"
   d="m 331,335.9 c 1.3,0 2,0.7 2,2 -1.3,0 -2,-0.7 -2,-2 z"
   id="path5316"
   inkscape:connector-curvature="0"
   style="fill:#e04a45" />
	<path
   class="st9"
   d="m 312.7,334.3 c 0.3,0.1 0.5,0.2 0.8,0.4 -0.1,0.3 -0.2,0.7 -0.4,0.8 -0.2,0.1 -0.5,-0.2 -0.8,-0.3 0.2,-0.3 0.3,-0.6 0.4,-0.9 z"
   id="path5318"
   inkscape:connector-curvature="0"
   style="fill:#df3c3c" />
	<path
   class="st4"
   d="m 324,330.9 c 0.1,0.1 0.3,0.1 0.4,0.2 -0.1,-0.1 -0.3,-0.1 -0.4,-0.2 0,0 0,0 0,0 z"
   id="path5320"
   inkscape:connector-curvature="0"
   style="fill:#e04a45" />
	<path
   class="st11"
   d="m 325.5,532.3 c -0.2,-0.5 -0.4,-0.8 -0.3,-1 0.2,-0.4 0.6,-0.7 0.8,-1 0.1,0.3 0.4,0.6 0.3,0.8 -0.2,0.3 -0.5,0.7 -0.8,1.2 z"
   id="path5322"
   inkscape:connector-curvature="0"
   style="fill:#ee8c56" />
	<path
   class="st4"
   d="m 282,533.9 c -0.1,0.8 -0.2,1.7 -1.3,1.5 -0.3,-0.1 -0.4,-1 -0.6,-1.6 0.7,0.1 1.3,0.1 1.9,0.1 z"
   id="path5324"
   inkscape:connector-curvature="0"
   style="fill:#e04a45" />
	<path
   class="st4"
   d="m 282,532.9 c -0.1,-0.1 -0.3,-0.2 -0.4,-0.2 0.2,0.1 0.3,0.2 0.4,0.2 0,0 0,0 0,0 z"
   id="path5326"
   inkscape:connector-curvature="0"
   style="fill:#e04a45" />
	<path
   class="st0"
   d="m 302.5,314.7 c 0.9,1.6 3.8,1.2 3.4,3.6 -0.2,1.2 -1.1,0.8 -1.9,0.7 -2.7,-0.6 -1.8,-2.5 -1.5,-4.3 z"
   id="path5328"
   inkscape:connector-curvature="0"
   style="fill:#df393b" />
	<path
   class="st10"
   d="m 334,322.9 c -1.5,-2.1 -3.4,-2.9 -5.9,-2 0.6,-3.1 3,-2 4.7,-1.8 2.2,0.3 4.7,-0.2 6.8,1 -1.5,1.9 -5.1,-0.7 -5.6,2.8 z"
   id="path5330"
   inkscape:connector-curvature="0"
   style="fill:#f0a171" />
	<path
   class="st12"
   d="m 331.6,324.6 c -0.1,0.3 -0.2,0.7 -0.4,0.8 -0.2,0.1 -0.7,-0.1 -0.8,-0.3 -0.1,-0.2 0.1,-0.7 0.3,-0.8 0.3,-0.1 0.6,0.2 0.9,0.3 z"
   id="path5332"
   inkscape:connector-curvature="0"
   style="fill:#e5685a" />
</g>
</svg>