<?xml version="1.0" encoding="UTF-8" standalone="no"?>
<!-- Generator: Adobe Illustrator 19.2.0, SVG Export Plug-In . SVG Version: 6.00 Build 0)  -->

<svg
   xmlns:dc="http://purl.org/dc/elements/1.1/"
   xmlns:cc="http://creativecommons.org/ns#"
   xmlns:rdf="http://www.w3.org/1999/02/22-rdf-syntax-ns#"
   xmlns:svg="http://www.w3.org/2000/svg"
   xmlns="http://www.w3.org/2000/svg"
   xmlns:sodipodi="http://sodipodi.sourceforge.net/DTD/sodipodi-0.dtd"
   xmlns:inkscape="http://www.inkscape.org/namespaces/inkscape"
   version="1.1"
   id="Layer_1"
   x="0px"
   y="0px"
   viewBox="0 0 104.34675 99.999997"
   xml:space="preserve"
   sodipodi:docname="uq-logo-stacked.svg"
   width="104.34675"
   height="100"
   inkscape:version="0.92.3 (2405546, 2018-03-11)"><metadata
   id="metadata192"><rdf:RDF><cc:Work
       rdf:about=""><dc:format>image/svg+xml</dc:format><dc:type
         rdf:resource="http://purl.org/dc/dcmitype/StillImage" /></cc:Work></rdf:RDF></metadata><defs
   id="defs190" /><sodipodi:namedview
   pagecolor="#ffffff"
   bordercolor="#666666"
   borderopacity="1"
   objecttolerance="10"
   gridtolerance="10"
   guidetolerance="10"
   inkscape:pageopacity="0"
   inkscape:pageshadow="2"
   inkscape:window-width="1593"
   inkscape:window-height="991"
   id="namedview188"
   showgrid="false"
   inkscape:zoom="0.28031832"
   inkscape:cx="92.961105"
   inkscape:cy="90.149984"
   inkscape:window-x="0"
   inkscape:window-y="0"
   inkscape:window-maximized="0"
   inkscape:current-layer="Layer_1" />
<style
   type="text/css"
   id="style2">
	.st0{fill:#4D4D4C;}
	.st1{fill:#4A4A4A;}
	.st2{fill:#515050;}
	.st3{fill:#4F4E4E;}
	.st4{fill:#565555;}
	.st5{fill:#B4A365;}
	.st6{fill:#B8A766;}
	.st7{fill:#4266A2;}
	.st8{fill:none;}
	.st9{fill:#53524E;}
	.st10{fill:#FFFFFF;}
	.st11{fill:#4266A4;}
	.st12{fill:#BBA966;}
	.st13{fill:#E9E9E9;}
</style>
<g
   id="g185"
   transform="matrix(0.55648303,0,0,0.55648303,-113.90589,-184.41848)">
	<path
   class="st0"
   d="m 322.5,420.1 c 0,-1.1 0,-2.1 0,-3.1 0,-0.5 -0.1,-0.7 -0.6,-0.4 -2.7,1.4 -5.4,2.5 -8.2,3.6 -0.7,0.2 -0.8,0.6 -0.8,1.2 0,2 0,3.9 0,5.9 0,0.7 -0.2,1.1 -0.9,1.4 -5.6,2.3 -11.4,2.9 -17.4,2.4 -3.3,-0.3 -6.5,-1.2 -9.6,-2.3 -0.9,-0.3 -1.2,-0.8 -1.2,-1.7 0.1,-1.9 0,-3.8 0,-5.6 0,-0.6 -0.2,-1 -0.8,-1.2 -2.9,-1.1 -5.8,-2.3 -8.8,-3.9 0,1.1 0,2.1 0,3 0,0.6 -0.1,0.9 -0.7,0.5 -2.8,-1.6 -5.4,-3.3 -8,-5.2 -1.1,-0.8 -1.5,-2.1 -1.4,-3.5 0.1,-0.9 -0.3,-1.4 -1,-2 -2.8,-2.1 -5.3,-4.4 -7.8,-6.9 -0.3,-0.3 -0.4,-0.8 -0.4,-1.2 0,-2.9 0,-5.8 0,-8.8 0,-0.7 0.2,-1 1,-1 2.6,0 5.3,0 7.9,0 0.6,0 1,0.2 1.4,0.8 2.5,3.8 5,7.5 7.5,11.3 0.4,0.6 0.8,1.3 0.9,2.1 0.3,1.4 1.2,2 2.3,2.5 5.3,2.6 10.8,4.8 16.6,6.2 0.8,0.2 1,0.5 1,1.3 0,1.7 0,3.4 0,5.2 0,0.8 0.2,1.2 1.1,1.2 2.5,0.2 4.9,0.2 7.4,0 0.8,-0.1 1,-0.2 1,-1 -0.1,-1.8 0,-3.5 0,-5.3 0,-0.8 0.2,-1.2 1.1,-1.4 5.8,-1.4 11.4,-3.6 16.7,-6.2 1,-0.5 1.7,-1.1 2.1,-2.3 0.9,-2.8 2.9,-5.1 4.5,-7.6 1.3,-2 2.7,-3.9 4,-5.9 0.4,-0.5 0.7,-0.8 1.4,-0.7 2.6,0 5.3,0 7.9,0 0.7,0 1,0.3 0.9,1 0,2.9 0,5.8 0,8.6 0,0.5 -0.2,0.9 -0.6,1.4 -2.5,2.6 -5.2,5 -8.1,7.1 -0.5,0.4 -0.5,0.9 -0.5,1.4 0.1,2 -0.7,3.6 -2.5,4.7 -2.3,1.2 -4.7,3 -7.4,4.4 z m -24.2,10 c 4.6,0 8.9,-0.6 12.9,-2.4 0.4,-0.2 0.8,-0.3 0.8,-0.9 0,-1.8 0,-3.7 0,-5.5 0,-0.6 -0.3,-0.7 -0.8,-0.5 -3,1 -6.1,1.6 -9.2,1.9 -5.5,0.6 -10.9,-0.2 -16.1,-1.8 -0.7,-0.2 -1,-0.2 -1,0.6 0,1.8 0,3.5 0,5.3 0,0.5 0.2,0.7 0.7,1 4,1.8 8.4,2.4 12.7,2.3 z M 256,393.3 c 0,2.5 0,4.7 0,6.9 0,0.9 0.3,1.5 0.9,2.1 3.3,3.1 6.7,6 10.4,8.5 5.1,3.5 10.5,6.3 16.3,8.4 0.3,0.1 0.7,0.2 0.9,0.1 2.3,-1.5 4.8,-2.7 7.1,-4.4 C 279,411.7 264.4,404 256,393.3 Z m 48.9,21.6 c 2.5,1.5 4.8,2.9 7.1,4.3 0.4,0.2 0.8,0.1 1.3,-0.1 3.8,-1.5 7.6,-3.1 11.1,-5.2 5.8,-3.4 11.2,-7.4 15.9,-12.2 0.3,-0.3 0.5,-0.5 0.5,-0.9 0,-2.4 0,-4.8 0,-7.7 -4.5,5.9 -10.1,10.1 -16.2,13.7 -6.1,3.6 -12.6,6.3 -19.7,8.1 z M 264.1,400 c 0,-2.6 0,-4.9 0,-7.1 0,-0.6 -0.4,-0.7 -0.9,-0.7 -1.4,0 -2.8,0 -4.2,0 -0.6,0 -1.5,-0.3 -1.8,0.2 -0.4,0.7 0.6,1 0.9,1.5 1.8,2.2 3.7,4 6,6.1 z m 68.5,-0.1 c 2.8,-2.4 5.2,-4.7 7.2,-7.7 -2.3,0 -4.5,0 -6.6,0 -0.4,0 -0.7,0.2 -0.7,0.6 0.1,2.3 0.1,4.6 0.1,7.1 z m -1,-5.6 c -0.1,0 -0.2,-0.1 -0.3,-0.1 -2.4,3.8 -5.1,7.5 -7.4,11.4 0.6,0.2 0.9,-0.1 1.1,-0.3 1.9,-1.3 3.9,-2.5 5.6,-4 0.4,-0.3 1,-0.4 0.9,-1.1 0.1,-1.9 0.1,-3.9 0.1,-5.9 z m -59.1,11.3 c -2.1,-4 -4.7,-7.7 -7.3,-11.4 -0.1,1.6 0,3.1 -0.2,4.6 -0.1,1.3 0.3,2.2 1.4,3 2,1.4 3.9,2.9 6.1,3.8 z m 13.4,14.2 c 2.1,0.9 4.1,1.3 6.2,1.7 0.6,0.1 0.6,-0.4 0.6,-0.8 0,-1.3 0,-2.6 0,-3.8 0,-1.1 -0.1,-1.2 -1.1,-0.6 -1.9,1 -3.7,2.2 -5.7,3.5 z m -20.7,-9.1 c -0.3,1.3 0.1,2.3 1,3 2,1.5 4.2,2.9 6.3,4.3 0.2,0.1 0.5,0.4 0.7,0 0.4,-0.6 -0.1,-2.5 -0.8,-2.9 -2.3,-1.4 -4.7,-2.8 -7.2,-4.4 z m 58.2,6.2 c 0.1,0.4 -0.2,1 0.1,1.2 0.5,0.3 0.8,-0.3 1.2,-0.5 1.4,-0.9 2.9,-1.9 4.3,-2.8 1.2,-0.8 2.5,-1.6 2.5,-3.3 0,-0.2 0.1,-0.5 -0.2,-0.7 -0.3,-0.2 -0.4,0.1 -0.6,0.3 -2.1,1.3 -4.1,2.7 -6.2,3.9 -0.7,0.4 -1.3,0.9 -1.1,1.9 z m -12.8,2.8 c -1.8,-1.2 -3.6,-2.3 -5.3,-3.4 -0.6,-0.4 -1.1,-0.5 -1,0.5 0,1.4 0,2.7 0,4.1 0,0.5 0.3,0.7 0.7,0.6 0.4,-0.1 0.7,-0.1 1,-0.2 1.5,-0.8 3.2,-0.6 4.6,-1.6 z"
   id="path4"
   inkscape:connector-curvature="0"
   style="fill:#4d4d4c" />
	<path
   class="st1"
   d="m 260.4,491.3 c -3.4,-0.4 -6.4,-1.5 -9,-4 -0.6,-0.6 -1.7,-0.7 -2.6,-1.1 -2.3,-1.1 -3.7,-3 -4.4,-5.4 -1,-3.2 -0.6,-6.3 1.1,-9.1 1.9,-3 6,-4.5 9.5,-3.6 7.6,2 8.3,10.6 5.4,15.2 -0.9,1.4 -2.1,2.5 -3.7,3.1 -0.7,0.3 -0.7,0.7 -0.3,1.2 1.2,1.5 2.6,2.7 4.6,3 0.3,0.1 1.1,-0.1 1,0.5 -0.1,0.5 -0.7,0.2 -1.1,0.2 -0.2,0.1 -0.4,0.1 -0.5,0 z m -1.9,-13.8 c 0,-2 -0.3,-4 -1.3,-5.8 -1.8,-3.4 -5.9,-3.7 -8.2,-0.7 -2.2,2.9 -2.3,8.7 -0.5,12.1 1,1.8 2.5,2.9 4.7,2.8 2.1,-0.2 3.4,-1.4 4.3,-3.3 0.8,-1.6 0.9,-3.3 1,-5.1 z"
   id="path6"
   inkscape:connector-curvature="0"
   style="fill:#4a4a4a" />
	<path
   class="st1"
   d="m 213.7,467.5 c 5.2,0 9.1,4.1 9.1,9.6 0,5.5 -3.9,9.8 -9.1,9.7 -5.4,-0.1 -9,-4.2 -9,-9.5 0.1,-5.7 3.5,-9.7 9,-9.8 z m 5.7,9.9 c 0.1,-1.8 -0.2,-3.6 -0.9,-5.3 -0.9,-2 -2.3,-3.3 -4.6,-3.4 -2,-0.1 -3.8,1.3 -4.7,3.3 -1.5,3.5 -1.5,7.1 0.1,10.5 1.6,3.4 5.5,4.5 8.2,1.2 1.4,-1.8 1.8,-4 1.9,-6.3 z"
   id="path8"
   inkscape:connector-curvature="0"
   style="fill:#4a4a4a" />
	<path
   class="st0"
   d="m 274.5,447.8 c 0,-1.8 0,-3.6 0,-5.4 0,-0.9 -0.2,-1.6 -1.3,-1.6 -0.2,0 -0.5,0 -0.5,-0.3 0,-0.4 0.3,-0.3 0.5,-0.3 1.4,0 2.9,0 4.3,0 0.2,0 0.4,-0.1 0.5,0.2 0,0.3 -0.2,0.4 -0.4,0.4 -1.3,0 -1.4,0.8 -1.4,1.8 0,3.3 0.1,6.6 0,9.8 -0.2,5.4 -4.8,8.4 -9.9,6.6 -3.4,-1.2 -4.8,-3.1 -4.8,-6.7 0,-3 0,-6.1 0,-9.1 0,-1.1 -0.2,-2.1 -1.5,-2.3 -0.2,0 -0.4,-0.2 -0.4,-0.4 0,-0.4 0.3,-0.3 0.5,-0.3 1.9,0 3.8,0 5.8,0 0.2,0 0.5,-0.1 0.6,0.3 0,0.3 -0.2,0.4 -0.5,0.4 -1.1,0.2 -1.4,1.1 -1.4,2.1 0,3.3 -0.2,6.6 0,10 0.2,2.6 1,4.2 3.6,4.9 2.1,0.5 4.7,-0.5 5.8,-2.4 0.4,-0.7 0.5,-1.4 0.5,-2.2 0,-0.1 0,-0.2 0,-0.2 0,-1.9 0,-3.6 0,-5.3 z"
   id="path10"
   inkscape:connector-curvature="0"
   style="fill:#4d4d4c" />
	<path
   class="st2"
   d="m 227.4,459.1 c -1.7,0 -3.5,0 -5.2,0 1.7,-0.6 1.3,-2 1.3,-3.2 0,-3.1 0,-6.2 0,-9.4 0,-1 -0.1,-2 -1.4,-2.3 1.8,0 3.5,0 5.3,0 -1.4,0.5 -1.4,1.5 -1.3,2.6 0,1 0,2.1 0,3.1 0,0.6 0.2,0.8 0.8,0.8 1.6,0 3.1,0 4.7,0 0.5,0 0.8,-0.1 0.8,-0.7 0,-1.4 0,-2.7 0,-4.1 0,-1 -0.6,-1.4 -1.4,-1.8 1.8,0 3.5,0 5.3,0 -1.5,0.5 -1.3,1.7 -1.3,2.8 0,3.2 0,6.4 0,9.6 0,1 -0.1,2.1 1.6,2.1 -0.1,0.1 -0.1,0.2 -0.2,0.3 -1.8,0 -3.5,0 -5.3,0 1.6,-0.5 1.3,-1.9 1.3,-3 0,-1 0,-2.1 0,-3.1 0,-0.6 -0.2,-0.9 -0.8,-0.8 -1.6,0 -3.1,0 -4.7,0 -0.6,0 -0.8,0.3 -0.8,0.9 0,1.2 0,2.3 0,3.5 0,1.1 -0.2,2.2 1.6,2.4 -0.1,0.1 -0.2,0.2 -0.3,0.3 z"
   id="path12"
   inkscape:connector-curvature="0"
   style="fill:#515050" />
	<path
   class="st3"
   d="m 220.7,444.7 c -0.7,-0.3 -0.7,-0.9 -0.8,-1.3 -0.4,-1.3 -1.3,-1.6 -2.4,-1.7 -3.1,0 -3.1,0 -3.1,3 0,3.8 0,7.5 0,11.3 0,2 0,2.1 2,2.6 0.2,0 0.4,0 0.4,0.3 0,0.2 -0.3,0.3 -0.5,0.3 -2.4,0 -4.8,0 -7.2,0 -0.2,0 -0.4,0 -0.4,-0.3 0,-0.4 0.3,-0.3 0.5,-0.3 1.7,-0.3 2,-0.6 2,-2.4 0,-4.4 0,-8.9 0,-13.3 0,-0.9 -0.2,-1.3 -1.1,-1.2 -0.5,0.1 -1,0 -1.6,0 -2.2,0 -2.6,0.3 -3.1,2.4 -0.1,0.2 0.1,0.7 -0.4,0.6 -0.4,0 -0.3,-0.4 -0.3,-0.7 0,0 0,-0.1 0,-0.1 0.1,-1.2 -0.2,-2.8 0.4,-3.6 0.6,-0.8 2.3,-0.2 3.4,-0.2 3.7,0 7.4,0 11,0 0.7,0 1,0.2 1,0.9 0.1,1.3 0.2,2.5 0.2,3.7 z"
   id="path14"
   inkscape:connector-curvature="0"
   style="fill:#4f4e4e" />
	<path
   class="st3"
   d="m 331.5,444.3 c 3,-0.1 6.1,-0.6 9,0.5 1.3,0.5 1.9,1.8 2,3.2 0.1,1.6 -0.8,2.8 -2.2,3.4 -1.1,0.5 -1,0.9 -0.4,1.7 1.2,1.5 2.3,3 3.5,4.6 0.4,0.5 1,0.9 1.6,1.3 -1.2,0.8 -3.3,0.5 -4.1,-0.6 -1.3,-1.8 -2.6,-3.5 -3.9,-5.2 -0.3,-0.4 -0.7,-0.9 -1.3,-0.7 -0.6,0.2 -0.3,0.8 -0.3,1.1 0,1 0,2.1 0,3.1 0,0.9 -0.1,1.8 1.1,2.1 0.2,0 0.3,0.2 0.2,0.3 0,0.1 -0.2,0.2 -0.3,0.2 -1.5,0 -3,0 -4.6,0 -0.2,0 -0.3,-0.1 -0.3,-0.3 0,-0.2 0.1,-0.3 0.3,-0.3 1,-0.1 1,-0.9 1,-1.6 0,-3.6 0,-7.2 0,-10.8 0.1,-1 -0.4,-1.6 -1.3,-2 z m 3.9,4 c 0,0.8 0,1.5 0,2.3 0,0.4 0,0.7 0.5,0.8 1.4,0.1 2.6,-0.3 3.4,-1.4 0.7,-0.9 0.8,-2 0.3,-3.1 -0.6,-1.3 -1.8,-1.7 -3,-1.8 -0.7,0 -1.3,0.2 -1.2,1.2 0,0.7 0,1.4 0,2 z"
   id="path16"
   inkscape:connector-curvature="0"
   style="fill:#4f4e4e" />
	<path
   class="st3"
   d="m 282.3,447.8 c 0,3.5 0,6.6 0,9.8 0,0.9 0.8,0.9 1.3,1.4 -1.4,0.2 -2.7,0.3 -4.1,0 1.6,-0.4 1.5,-1.5 1.5,-2.7 0,-2.7 -0.1,-5.4 0,-8 0.1,-1.9 -0.3,-3.3 -2.4,-3.8 2.2,-0.7 3.8,-0.3 5.1,1.2 2.2,2.6 4.5,5.2 6.7,7.8 0.1,0.2 0.3,0.4 0.6,0.3 0.3,-0.1 0.2,-0.4 0.2,-0.6 0,-2.4 0,-4.7 0,-7.1 0,-1 -0.7,-1.3 -1.5,-1.8 1.3,0 2.7,0 4,0 -1.7,0.4 -1.3,1.8 -1.3,2.9 0,3.6 0,7.3 0,10.9 0,0.3 0.2,0.8 -0.2,1 -0.4,0.1 -0.5,-0.3 -0.7,-0.5 -2.7,-3.1 -5.3,-6.1 -8,-9.2 -0.3,-0.5 -0.6,-0.9 -1.2,-1.6 z"
   id="path18"
   inkscape:connector-curvature="0"
   style="fill:#4f4e4e" />
	<path
   class="st1"
   d="m 377.3,472.1 c 3,-0.1 6,-0.4 9,0.1 1.7,0.3 3.1,1.1 4.1,2.4 2.8,3.6 1.8,8.9 -2,11.1 -1.4,0.9 -3,1.3 -4.7,1.2 -2.1,-0.1 -4.2,0 -6.5,-0.1 2,-0.8 1.4,-2.4 1.4,-3.8 0,-2.9 0,-5.8 0,-8.7 0.1,-0.9 0,-1.9 -1.3,-2.2 z m 4.1,7.2 c 0,1.8 0,3.7 0,5.5 0,0.9 0.4,1.1 1.1,1.2 1.1,0 2.2,-0.1 3.2,-0.4 2.7,-0.8 4.3,-3.6 3.9,-7 -0.5,-4.5 -3.2,-5.9 -7.1,-5.8 -0.8,0 -1.1,0.4 -1.1,1.2 0,1.8 0,3.5 0,5.3 z"
   id="path20"
   inkscape:connector-curvature="0"
   style="fill:#4a4a4a" />
	<path
   class="st2"
   d="m 304.7,471.9 c 1.1,0 2.3,0 3.4,0 0.5,0 0.7,0.4 0.9,0.7 2.3,2.7 4.7,5.4 7,8.1 0.3,0.3 0.5,0.7 1.1,0.9 0,-2.8 0,-5.5 0,-8.1 0,-0.8 -0.6,-1.1 -1.3,-1.4 1.3,0 2.6,0 4,0 -1.2,0.4 -1.4,1.3 -1.3,2.3 0,3.8 0,7.7 0,11.5 0,0.3 0.2,0.8 -0.2,0.9 -0.4,0.1 -0.5,-0.4 -0.7,-0.6 -2.9,-3.4 -5.9,-6.8 -8.8,-10.2 -0.1,-0.1 -0.2,-0.1 -0.3,-0.2 -0.4,0.3 -0.2,0.8 -0.2,1.1 0,2.2 0,4.4 0,6.6 0,1.2 -0.4,2.7 1.4,3.2 -1.3,0 -2.7,0 -4,0 2,-0.7 1.3,-2.4 1.4,-3.7 0,-2.6 -0.1,-5.1 0,-7.7 0,-1.6 -0.9,-2.6 -2.4,-3.4 z"
   id="path22"
   inkscape:connector-curvature="0"
   style="fill:#515050" />
	<path
   class="st3"
   d="m 372.9,481.8 c 0,-2.9 0,-5.6 0,-8.2 0,-0.8 -0.6,-1.1 -1.2,-1.5 1.2,0 2.5,0 3.7,0 -1.2,0.4 -1.3,1.4 -1.3,2.6 0,4.1 0,8.1 -0.2,12.4 -3.2,-3.7 -6.4,-7.4 -9.6,-11.1 -0.1,0 -0.2,0.1 -0.3,0.1 0,1 0,2 0,2.9 0,1.6 0,3.3 0,4.9 0,1.2 -0.4,2.5 1.6,2.8 -0.1,0.1 -0.2,0.2 -0.3,0.2 -1.3,0 -2.5,0 -3.8,0 0,0 0,-0.2 0,-0.2 1.3,-0.5 1.3,-1.5 1.3,-2.7 -0.1,-2.8 -0.1,-5.7 0,-8.5 0.1,-1.7 -0.7,-2.6 -2.3,-3.3 2.1,-0.8 3.9,-0.2 5.4,1.6 2,2.5 4.2,4.9 6.3,7.3 0.1,0.2 0.3,0.4 0.7,0.7 z"
   id="path24"
   inkscape:connector-curvature="0"
   style="fill:#4f4e4e" />
	<path
   class="st0"
   d="m 318.6,458.7 c 1.3,-0.1 1.4,-1 1.4,-2 0,-3.2 0,-6.4 0,-9.6 0,-1.2 0.1,-2.4 -1.5,-2.7 0.3,-0.4 0.6,-0.3 0.8,-0.3 3,0 6,0 9,0 0.8,0 1.1,0.2 1.1,1 0,0.8 0,1.5 -0.1,2.4 -0.4,-2.1 -1.8,-2.5 -3.7,-2.4 -1,0.1 -2.4,-0.4 -3,0.2 -0.7,0.6 -0.2,2 -0.2,3 0,2.3 0,2.3 2.2,2.3 0.4,0 0.7,0 1.1,0 1.1,0.1 2,-0.1 2.2,-1.5 0.3,0.9 0.4,2.5 0.1,4.5 -0.4,-1.4 -1.1,-2 -2.3,-1.8 -1,0.1 -2,0 -3,0 -0.4,0 -0.3,0.4 -0.3,0.6 0,1.6 0,3.1 0,4.7 0,0.7 0.4,1 1,1 1.2,0 2.5,0.1 3.7,0 1.2,-0.1 2.2,-0.7 2.8,-1.9 0.1,-0.2 0.1,-0.5 0.7,-0.6 -0.3,1.1 -0.7,2.2 -1,3.3 -0.1,0.3 -0.4,0.4 -0.7,0.4 -3.3,0 -6.6,0 -9.9,0 -0.2,-0.1 -0.4,-0.1 -0.4,-0.6 z"
   id="path26"
   inkscape:connector-curvature="0"
   style="fill:#4d4d4c" />
	<path
   class="st2"
   d="m 292.4,472.2 c 0.4,-0.4 0.8,-0.2 1.2,-0.2 2.7,0 5.4,0 8,0 1.1,0 1.7,0.2 1.6,1.4 0,0.7 0.1,1.3 0,2.1 -0.4,-2.4 -2.1,-2.5 -3.9,-2.3 -1,0.1 -2.3,-0.4 -2.9,0.2 -0.5,0.6 -0.2,1.8 -0.2,2.8 0,2.3 0,2.3 2.3,2.3 0.3,0 0.6,0 0.8,0 1.1,0.1 2.2,0 2.6,-1.4 0,1.3 0,2.6 0,3.9 -0.5,-1.3 -1.5,-1.3 -2.6,-1.3 -3.2,0 -3.2,0 -3.2,3.1 0,3.1 0,3.1 3.1,3.1 1.5,0 3.1,0.3 4.1,-1.3 0.3,-0.5 0.6,-0.9 1,-1.5 -0.4,0.5 -0.1,0.8 -0.1,1.2 -0.4,2.4 -0.7,2.7 -3.2,2.7 -2.5,0 -5,0 -7.6,0 -0.4,0 -0.8,0 -1.3,-0.2 1.8,-0.6 1.4,-2.1 1.4,-3.3 0,-2.9 0,-5.8 0,-8.8 0.3,-1.1 0.2,-2.1 -1.1,-2.5 z"
   id="path28"
   inkscape:connector-curvature="0"
   style="fill:#515050" />
	<path
   class="st2"
   d="m 290.9,484.6 c -0.5,2.4 -0.5,2.4 -2.9,2.4 -2.6,0 -5.1,0 -7.7,0 -0.4,0 -0.8,0 -1.1,0 -0.1,-0.1 -0.2,-0.2 -0.2,-0.2 2,-0.4 1.6,-1.8 1.6,-3.1 0,-3.1 0,-6.2 0,-9.4 0,-1.1 -0.2,-1.9 -1.4,-2.1 0.3,-0.4 0.6,-0.3 0.9,-0.3 3,0 5.9,0 8.9,0 0.9,0 1.2,0.3 1.2,1.2 0,0.7 0,1.5 0,2.2 -0.1,0 -0.3,0 -0.3,0 -0.7,-2.2 -0.8,-2.3 -3.1,-2.2 -1.2,0 -2.8,-0.5 -3.4,0.2 -0.6,0.7 -0.2,2.2 -0.2,3.4 0,2 -0.2,1.7 1.7,1.7 0.4,0 0.9,0 1.3,0 1.1,0 2.3,0.2 2.7,-1.4 0,1.3 0,2.6 0,4.1 -0.5,-0.5 -0.4,-1.3 -1.1,-1.4 -0.6,-0.1 -1.1,-0.1 -1.7,-0.1 -3,0 -3,0 -3,3 0,0.7 0,1.4 0,2 0,0.8 0.3,1.2 1.1,1.1 1,0 1.9,-0.1 2.9,0 1.8,0.1 3.1,-0.6 3.8,-2.3 0.4,0.5 -0.2,0.9 0,1.2 z"
   id="path30"
   inkscape:connector-curvature="0"
   style="fill:#515050" />
	<path
   class="st2"
   d="m 262.9,472.1 c 1.5,-0.3 4.5,-0.2 5.5,0 -1.2,0.5 -1.4,1.4 -1.4,2.5 0,2.4 0,4.7 0,7.1 0,1.6 0.4,3.2 2,3.9 1.6,0.7 3.3,0.4 4.7,-0.8 0.7,-0.6 1.1,-1.4 1.1,-2.3 0,-3 0,-6 0,-9 0,-0.8 -0.4,-1.3 -1.2,-1.5 1.3,0 2.6,0 3.8,0 -1.2,0.2 -1.3,1.1 -1.3,2.1 0,2.4 0,4.8 0,7.2 0,3.4 -1.4,5.1 -4.3,5.6 -3.7,0.7 -6.4,-0.8 -7.4,-3.8 -0.2,-0.6 -0.1,-1.2 -0.1,-1.8 0,-2.3 0,-4.6 0,-6.8 0.2,-1.1 -0.1,-1.9 -1.4,-2.4 z"
   id="path32"
   inkscape:connector-curvature="0"
   style="fill:#515050" />
	<path
   class="st3"
   d="m 247.8,453.1 c -0.5,-1.4 -1.6,-1.5 -2.8,-1.4 -3,0.1 -3,0 -3,3 0,3.9 -0.3,3.3 3.4,3.4 1.9,0.1 3.4,-0.5 4.5,-2.2 0.1,1.1 -0.3,1.9 -0.6,2.8 -0.1,0.4 -0.4,0.5 -0.7,0.5 -3.4,0 -6.7,0 -10.1,0 -0.1,0 -0.3,-0.1 -0.7,-0.3 1.6,-0.3 1.8,-1.3 1.7,-2.5 -0.1,-3.2 -0.1,-6.3 0,-9.5 0,-1.2 -0.2,-2.2 -1.5,-2.4 0.2,-0.5 0.6,-0.3 0.9,-0.3 3,0 6,0 9,0 0.7,0 1.1,0.2 1.1,1 0,0.8 0.1,1.5 0.2,2.4 -0.2,-0.1 -0.3,-0.1 -0.3,-0.1 -0.5,-2.1 -2,-2.3 -3.7,-2.3 -3,0.1 -3,0 -3,3 0,2.5 0,2.5 2.5,2.5 0.2,0 0.4,0 0.6,0 1.7,0 1.7,0 2.6,-1.6 -0.1,1.4 -0.1,2.7 -0.1,4 z"
   id="path34"
   inkscape:connector-curvature="0"
   style="fill:#4f4e4e" />
	<path
   class="st4"
   d="m 229.6,486.9 c -1.8,0 -3.5,0 -5.3,0 1.8,-0.8 1.2,-2.3 1.3,-3.7 0,-3 0,-6 0,-9 0,-1 -0.2,-1.8 -1.4,-2 0.2,-0.4 0.5,-0.3 0.8,-0.3 3.2,0 6.5,0 9.7,0 0.8,0 1.1,0.2 1.1,1 0,0.8 0.3,1.6 0,2.5 -0.4,-0.3 -0.4,-0.7 -0.5,-1 -0.3,-0.9 -1,-1.3 -1.9,-1.4 -1.5,0 -3,0 -4.4,0 -0.6,0 -0.9,0.1 -0.9,0.8 0,1.2 0,2.5 0,3.7 0,0.6 0.2,0.9 0.8,0.9 1,0 1.9,0 2.9,0 0.8,0 1.5,-0.1 1.6,-1.1 0,-0.2 0.1,-0.4 0.4,-0.3 0.2,0 0.2,0.2 0.2,0.4 0,1.1 0,2.2 0,3.2 0,0.1 -0.1,0.3 -0.2,0.4 -0.2,0.1 -0.3,-0.1 -0.4,-0.4 -0.1,-0.8 -0.7,-1 -1.4,-1 -1.3,0.1 -2.9,-0.5 -3.7,0.3 -0.7,0.7 -0.2,2.3 -0.2,3.5 0.1,2.2 0.1,2.2 1.5,3.5 z"
   id="path36"
   inkscape:connector-curvature="0"
   style="fill:#565555" />
	<path
   class="st3"
   d="m 344.6,486.6 c 2.2,-0.6 2.3,-2.7 3,-4.2 1.4,-3.2 2.6,-6.5 4,-9.7 0.1,-0.4 0.4,-0.7 0.6,-1.1 0.6,0.4 0.7,0.9 0.9,1.4 1.7,4 3.4,8 5.1,12.1 0.2,0.6 0.6,1.1 1.2,1.3 0.2,0.1 0.4,0.2 0.3,0.4 -0.1,0.2 -0.2,0.2 -0.4,0.2 -1.5,0 -3.1,0 -4.6,0 -0.1,-0.5 0.2,-0.5 0.4,-0.6 0.6,-0.1 0.7,-0.5 0.5,-1.1 -0.4,-0.9 -0.8,-1.8 -1.2,-2.7 -0.2,-0.4 -0.6,-0.4 -0.9,-0.4 -1.3,0 -2.6,0 -3.8,0 -0.5,0 -0.9,0.1 -1.1,0.7 -0.2,0.7 -0.6,1.4 -0.9,2.1 -0.2,0.6 -0.4,1.2 0.4,1.4 0.1,0 0.2,0.2 0.3,0.3 0,0.2 -0.1,0.2 -0.3,0.2 -1.2,0 -2.3,0 -3.5,0 0.1,-0.1 0,-0.2 0,-0.3 z m 7,-5.6 c 0.4,0 0.7,0 1.1,0 1,0.1 1.1,-0.2 0.7,-1.1 -0.5,-1 -0.9,-2.1 -1.3,-3.1 -0.1,-0.2 -0.1,-0.5 -0.4,-0.5 -0.3,0 -0.3,0.3 -0.4,0.5 -0.3,0.7 -0.6,1.4 -0.9,2.1 -1,2.1 -1,2.1 1.2,2.1 z"
   id="path38"
   inkscape:connector-curvature="0"
   style="fill:#4f4e4e" />
	<path
   class="st2"
   d="m 388.1,444.1 c 1.5,0 2.7,-0.1 4.1,0.1 -2.5,1.2 -2.9,3.8 -4.4,5.6 -1.6,2 -1.7,4.4 -1.6,6.8 0.1,1.7 0,1.7 1.6,2.5 -2,0 -3.8,0 -5.6,0 1.5,-0.5 1.1,-1.9 1.3,-3 0.6,-3.4 -1.6,-5.7 -3.1,-8.2 -0.3,-0.4 -0.6,-0.9 -0.9,-1.3 -0.6,-0.8 -0.9,-2 -2.1,-2.4 1.7,0 3.5,0 5.2,0 -1,0.5 -1.1,1.2 -0.5,2 1.1,1.6 2.2,3.3 3.4,5.1 1.1,-1.9 2.2,-3.7 3.2,-5.5 0.6,-0.7 0.6,-0.8 -0.6,-1.7 z"
   id="path40"
   inkscape:connector-curvature="0"
   style="fill:#515050" />
	<path
   class="st3"
   d="m 321.5,486.9 c 0,-1.6 0,-3.3 0,-5.1 0.6,0.5 0.5,1 0.7,1.5 0.6,1.8 2.1,2.9 3.8,2.8 1.1,-0.1 1.8,-0.7 2.2,-1.6 0.4,-0.9 0.2,-1.8 -0.6,-2.6 -1.2,-1.1 -2.7,-1.8 -4,-2.7 -1.9,-1.2 -2.6,-3.1 -1.9,-4.9 0.8,-1.9 2.7,-2.8 4.9,-2.3 1,0.2 2,1.1 3.1,-0.1 0,1.8 0,3.3 0,4.9 -0.5,-0.1 -0.4,-0.5 -0.4,-0.7 -0.5,-2.2 -2.5,-3.5 -4.3,-3 -0.8,0.2 -1.4,0.7 -1.5,1.5 -0.1,0.9 0.1,1.7 0.8,2.2 1.2,0.8 2.4,1.5 3.6,2.3 1.6,1.1 2.9,2.3 2.6,4.5 -0.4,2.6 -2.7,4 -5.5,3.5 -0.4,-0.1 -0.8,-0.1 -1.1,-0.3 -0.9,-0.9 -1.6,-0.7 -2.4,0.1 z"
   id="path42"
   inkscape:connector-curvature="0"
   style="fill:#4f4e4e" />
	<path
   class="st0"
   d="m 346.2,459.1 c 0,-1.7 0,-3.3 0,-5 0.5,0.1 0.4,0.6 0.5,0.9 0.3,1.4 1.1,2.4 2.3,3.1 1.3,0.8 2.9,0.2 3.8,-1.3 0.6,-1 0.2,-2.2 -1,-3.1 -1.4,-1.2 -3.2,-1.8 -4.5,-3.1 -1.3,-1.2 -1.6,-3.1 -0.7,-4.7 0.8,-1.4 2.6,-2.3 4.2,-2 0.4,0.1 0.9,0.2 1.3,0.4 0.8,0.3 1.6,0.7 2.3,-0.5 0,1.9 0,3.4 0,5.2 -0.5,-0.4 -0.5,-0.9 -0.6,-1.3 -0.3,-1.5 -1.3,-2.2 -2.6,-2.8 -1.1,-0.5 -2.4,0.2 -3,1.3 -0.5,1 0.1,2.2 1.2,2.9 1.5,0.9 3.2,1.7 4.4,3 1.6,1.6 1.8,3 0.8,4.9 -0.9,1.6 -3.1,2.5 -4.9,2 -0.4,-0.1 -0.8,-0.3 -1.2,-0.4 -1.2,-0.3 -1.2,-0.3 -2.3,0.5 z"
   id="path44"
   inkscape:connector-curvature="0"
   style="fill:#4d4d4c" />
	<path
   class="st3"
   d="m 307.6,444.2 c -1.3,0.4 -1.2,1.1 -0.7,2.1 1.1,2.3 2.1,4.7 3.1,7.1 0.1,0.3 0.2,0.8 0.6,0.8 0.4,0 0.4,-0.5 0.6,-0.8 1,-2.4 1.8,-4.7 2.8,-7.1 0.4,-0.9 0.6,-1.6 -0.6,-2.1 1.1,0 2.2,0 3.6,0 -1.7,1 -1.9,2.6 -2.5,4 -1.4,3.3 -2.6,6.7 -3.9,10 -0.1,0.4 -0.3,0.7 -0.8,1 -2.6,-4.9 -4,-10.3 -6.9,-15 1.5,0 3.1,0 4.7,0 z"
   id="path46"
   inkscape:connector-curvature="0"
   style="fill:#4f4e4e" />
	<path
   class="st2"
   d="m 376.5,447.9 c -0.8,-2.4 -2.5,-3.2 -4.7,-2.6 -0.5,0.1 -0.4,0.5 -0.4,0.7 0,3.7 0,7.4 0,11.1 0,1 0.5,1.4 1.4,1.8 -1.8,0 -3.5,0 -5.5,0 0.6,-0.5 1.3,-0.4 1.5,-1.1 0.2,-0.6 0.1,-1.2 0.1,-1.8 0,-3.3 0,-6.5 0,-9.8 0,-0.8 -0.2,-1.1 -1,-1 -0.3,0 -0.6,0 -0.8,0 -2.4,0 -2.4,0 -3.2,2.4 -0.2,-1.2 -0.1,-2.2 -0.1,-3.2 0,-0.5 0.4,-0.5 0.8,-0.5 3.7,0 7.4,0 11.1,0 0.4,0 0.8,0 0.8,0.5 0,1.2 0,2.2 0,3.5 z"
   id="path48"
   inkscape:connector-curvature="0"
   style="fill:#515050" />
	<path
   class="st0"
   d="m 332.5,486.7 c 1.9,-0.3 1.5,-1.7 1.5,-2.8 0,-3.2 0,-6.3 0,-9.5 0,-1 -0.1,-1.9 -1.3,-2.3 1.7,0 3.4,0 5.1,0 -1.1,0.5 -1.4,1.4 -1.4,2.5 0,3.2 0,6.5 0,9.7 0,1.4 0.2,1.6 1.6,1.6 0.5,0 1,0 1.6,0 1.8,0.1 3.4,-0.1 4.2,-2 0,-0.1 0.1,-0.1 0.2,-0.2 0.1,0 0.1,0 0.3,-0.1 0,1.1 -0.7,2 -0.7,3 0,0.3 -0.4,0.3 -0.7,0.3 -3.2,0 -6.3,0 -9.5,0 -0.2,0 -0.5,0 -0.7,0 0,-0.1 -0.1,-0.2 -0.2,-0.2 z"
   id="path50"
   inkscape:connector-curvature="0"
   style="fill:#4d4d4c" />
	<path
   class="st3"
   d="m 300.8,459.1 c -1.7,0 -3.4,0 -5.1,0 1.8,-0.6 1.4,-2 1.4,-3.3 0,-2.9 0,-5.8 0,-8.7 0,-1.1 0.2,-2.4 -1.4,-2.9 1.7,0 3.4,0 5.1,0 -1.4,0.6 -1.3,1.7 -1.3,2.9 0,3.2 0,6.3 0,9.5 0,1 0.1,2 1.4,2.2 0,0.1 0,0.2 -0.1,0.3 z"
   id="path52"
   inkscape:connector-curvature="0"
   style="fill:#4f4e4e" />
	<path
   class="st3"
   d="m 361.9,459.1 c -1.7,0 -3.4,0 -5.2,0 1.4,-0.5 1.4,-1.5 1.4,-2.6 0,-3.2 0,-6.5 0,-9.7 0,-1 0,-2.1 -1.3,-2.5 1.7,0 3.4,0 5.1,0 -1.6,0.4 -1.4,1.7 -1.4,2.8 0,3.2 0,6.4 0,9.6 0,1 0.1,1.9 1.5,2.1 0,0 0,0.2 -0.1,0.3 z"
   id="path54"
   inkscape:connector-curvature="0"
   style="fill:#4f4e4e" />
	<path
   class="st3"
   d="m 304.1,510.5 c -1.6,0.6 -2.3,0.4 -3.1,-0.7 -0.6,-0.8 -1.1,-1.5 -1.7,-2.3 -0.1,-0.2 -0.3,-0.4 -0.6,-0.3 -0.3,0.1 -0.2,0.4 -0.2,0.6 0.1,1 -0.5,2.3 1.4,2.8 -1.4,0.4 -2.5,0.2 -3.5,0.2 -0.2,0 -0.3,-0.1 -0.3,-0.3 0,-0.1 0.2,-0.3 0.3,-0.3 0.7,-0.1 0.7,-0.7 0.7,-1.2 0,-1.6 0,-3.1 0,-4.7 0,-0.6 0.1,-1.2 -0.7,-1.3 -0.2,0 -0.3,-0.2 -0.2,-0.3 0.1,-0.1 0.3,-0.2 0.4,-0.2 1.5,0.1 3,-0.2 4.5,0.2 1,0.3 1.5,0.9 1.6,1.8 0.1,0.9 -0.4,1.7 -1.3,2 -0.8,0.3 -0.5,0.7 -0.2,1 0.9,1.1 1.4,2.4 2.9,3 z m -4.9,-7.3 c -0.8,-0.1 -0.9,0.5 -0.7,1 0.2,0.7 -0.7,1.8 0.6,2 1.1,0.2 1.9,-0.6 1.9,-1.5 0,-0.9 -0.6,-1.5 -1.8,-1.5 z"
   id="path56"
   inkscape:connector-curvature="0"
   style="fill:#4f4e4e" />
	<path
   class="st4"
   d="m 264,502.6 c 1.3,-0.2 2.3,-0.2 3.3,0.1 -1.2,0.3 -1.1,1.2 -1.1,2 0,1.2 0,2.5 -0.1,3.7 -0.2,1.7 -1.4,2.5 -3.2,2.5 -1.8,0 -3,-1 -3.1,-2.6 -0.1,-1.3 0,-2.7 -0.1,-4.1 0,-0.5 0.1,-1.2 -0.7,-1.2 -0.2,0 -0.3,-0.2 -0.2,-0.3 0.1,-0.1 0.2,-0.2 0.4,-0.2 0.9,0 1.8,0 2.8,0 0.1,0 0.3,0.1 0.4,0.2 0.1,0.3 -0.1,0.3 -0.3,0.4 -0.6,0.1 -0.6,0.5 -0.6,0.9 0,1.4 0,2.9 0,4.3 0.1,1.3 0.5,1.8 1.8,1.8 1.4,0 2,-0.4 2.1,-1.7 0.1,-1.5 0,-3 0.1,-4.4 -0.1,-0.9 -0.9,-0.9 -1.5,-1.4 z"
   id="path58"
   inkscape:connector-curvature="0"
   style="fill:#565555" />
	<path
   class="st4"
   d="m 277.9,505.2 c -0.7,-0.2 -0.7,-0.7 -0.9,-1 -0.3,-0.5 -0.7,-0.9 -1.2,-1 -0.6,-0.2 -1.1,-0.1 -1.4,0.5 -0.3,0.6 0,1.1 0.4,1.5 0.7,0.5 1.4,0.9 2.1,1.4 1.1,0.6 1.5,1.5 1.2,2.7 -0.3,1.1 -1.3,1.7 -2.6,1.8 -0.8,0 -1.5,-0.6 -2.3,-0.1 0,0 -0.2,-0.1 -0.2,-0.2 -0.3,-0.9 -0.5,-1.7 -0.3,-2.6 0.5,0.1 0.5,0.5 0.6,0.7 0.3,0.4 0.6,0.9 1.1,1.1 0.7,0.3 1.6,0.5 2.1,-0.2 0.5,-0.7 0.2,-1.5 -0.6,-2 -0.6,-0.4 -1.2,-0.8 -1.8,-1.2 -1,-0.7 -1.4,-1.8 -1,-2.9 0.4,-0.9 1.6,-1.4 2.7,-1.2 0.5,0.1 0.9,0.5 1.5,0.1 0.4,-0.3 0.5,0.2 0.5,0.4 0.1,0.6 0.1,1.4 0.1,2.2 z"
   id="path60"
   inkscape:connector-curvature="0"
   style="fill:#565555" />
	<path
   class="st4"
   d="m 342.8,510.5 c 1.6,-0.9 1.6,-2.5 2.3,-3.8 0.6,-1.2 1,-2.4 1.5,-3.6 0.1,-0.3 0.1,-0.7 0.6,-0.7 0.4,0 0.4,0.4 0.5,0.7 0.8,1.9 1.6,3.7 2.4,5.6 0.3,0.7 0.7,1.3 1.6,1.8 -1.4,0.4 -2.4,0.2 -3.5,0.2 0.1,-0.6 0.9,-0.8 0.6,-1.5 -0.3,-0.7 -0.6,-1.2 -1.4,-1.1 -0.9,0.1 -2.2,-0.5 -2.4,1.1 0,0.1 -0.1,0.2 -0.1,0.4 0,1.2 -0.1,1.3 -1.6,1.1 -0.1,0 -0.2,0 -0.5,-0.2 z m 4.1,-5.6 c -0.4,0.3 -0.4,0.8 -0.6,1.3 -0.6,1.3 -0.6,1.3 0.9,1.2 0.3,0 1,0.2 0.7,-0.5 -0.3,-0.7 -0.4,-1.5 -1,-2 z"
   id="path62"
   inkscape:connector-curvature="0"
   style="fill:#565555" />
	<path
   class="st4"
   d="m 311,510.6 c -0.2,0.1 -0.4,0.1 -0.5,0.1 -0.7,-0.1 -1.5,0.3 -1.9,-0.2 -0.3,-0.4 0.6,-0.7 0.8,-1.2 0.8,-2.1 1.7,-4.1 2.7,-6.1 0.1,-0.3 0.1,-0.8 0.6,-0.8 0.4,0 0.4,0.4 0.5,0.7 0.9,2 1.8,4.1 2.7,6.1 0.1,0.2 0.2,0.4 0.2,0.5 0.2,0.3 0.9,0.3 0.7,0.8 -0.2,0.4 -0.8,0.2 -1.2,0.2 -0.6,0 -1.3,0 -2.2,0 0.7,-0.7 1.2,-1.1 0.6,-2 -0.7,-1.1 -1.8,-0.5 -2.7,-0.6 -0.8,-0.1 -0.8,0.7 -1.1,1.2 -0.3,0.8 0.6,0.8 0.8,1.3 z m 1.3,-5.9 c -0.3,0.7 -0.4,1.2 -0.7,1.6 -0.6,0.9 -0.3,1.1 0.7,1.1 1,0 1.4,-0.2 0.8,-1.2 -0.3,-0.4 -0.5,-0.9 -0.8,-1.5 z"
   id="path64"
   inkscape:connector-curvature="0"
   style="fill:#565555" />
	<path
   class="st4"
   d="m 253.8,510.6 c -1.1,0.2 -2.2,0.2 -3.4,0 0.4,-0.5 1.1,-0.7 0.7,-1.5 -0.4,-0.7 -0.8,-1.1 -1.7,-1 -0.9,0.1 -1.9,-0.3 -2.2,1 -0.1,0.2 -0.1,0.5 -0.1,0.7 0.3,0.9 0.4,0.9 -0.7,0.9 -0.4,0 -0.8,0.1 -1.2,-0.1 1.7,-1.9 2.2,-4.4 3.3,-6.6 0.3,-0.6 0.4,-1.5 0.9,-1.5 0.7,0 0.7,0.9 0.9,1.5 0.8,1.8 1.6,3.6 2.4,5.5 0.2,0.5 0.9,0.5 1.1,1.1 z m -4.6,-5.8 c -0.5,0.5 -0.7,1 -0.9,1.6 -0.1,0.3 -0.5,0.8 0,0.9 0.5,0.2 1.2,0.2 1.7,0 0.4,-0.1 0,-0.6 -0.1,-0.9 -0.2,-0.5 -0.5,-1 -0.7,-1.6 z"
   id="path66"
   inkscape:connector-curvature="0"
   style="fill:#565555" />
	<path
   class="st4"
   d="m 321.7,510.8 c 1.5,-1.4 1.5,-7.2 0.3,-8 0.8,-0.4 2.6,-0.4 3.8,0 -1.5,0.2 -1.3,1.2 -1.3,2 0,1.4 0,2.8 0,4.2 0,0.7 0.2,1 0.9,1 1.2,-0.1 2.4,0.1 3.1,-1.3 0.1,-0.2 0.3,-0.3 0.5,-0.2 0.3,0.1 0.2,0.4 0.1,0.6 -0.3,1.6 -0.4,1.7 -2.1,1.7 -1.7,0 -3.4,0 -5.3,0 z"
   id="path68"
   inkscape:connector-curvature="0"
   style="fill:#565555" />
	<path
   class="st2"
   d="m 290.7,505 c -0.5,-0.8 -0.6,-1.8 -1.8,-1.7 -0.6,0 -0.8,0.2 -0.8,0.8 0,1.8 0.1,3.5 0,5.3 -0.1,1 0.9,0.7 1.2,1.4 -1.3,0.1 -2.5,0.1 -3.9,-0.1 1.5,-0.4 1.2,-1.5 1.2,-2.4 0,-1.3 0,-2.6 0,-3.8 0,-0.4 0.2,-1 -0.5,-1 -0.6,0 -1.2,-0.1 -1.6,0.6 -0.2,0.4 -0.2,0.8 -0.7,1 -0.4,-0.6 -0.1,-1.3 -0.1,-2 0,-0.4 0.3,-0.4 0.6,-0.4 1.9,0 3.8,0 5.8,0 0.3,0 0.6,0 0.6,0.5 0.1,0.4 0.3,1 0,1.8 z"
   id="path70"
   inkscape:connector-curvature="0"
   style="fill:#515050" />
	<path
   class="st4"
   d="m 334.1,510.5 c 1.3,-0.3 1.2,-1.2 1.2,-2.2 -0.1,-1.2 0,-2.4 0,-3.6 0,-0.9 0.2,-1.9 -1.2,-2.1 1.3,-0.2 2.6,-0.3 3.9,0 -1.5,0.4 -1.2,1.5 -1.2,2.5 0,1 0,1.9 0,2.9 0,1 -0.3,2.1 1.2,2.5 -1.4,0.3 -2.6,0.3 -3.9,0 z"
   id="path72"
   inkscape:connector-curvature="0"
   style="fill:#565555" />
	<path
   class="st5"
   d="m 290.9,484.6 c -0.2,-0.3 0.4,-0.7 -0.1,-1 0,-0.4 0,-0.8 0.5,-0.7 0.3,0.1 0.2,0.5 0,0.7 -0.1,0.3 0.1,0.8 -0.4,1 z"
   id="path74"
   inkscape:connector-curvature="0"
   style="fill:#b4a365" />
	<path
   class="st6"
   d="m 298.3,430.1 c -4.2,0.1 -8.6,-0.5 -12.8,-2.4 -0.5,-0.2 -0.7,-0.5 -0.7,-1 0,-1.8 0,-3.5 0,-5.3 0,-0.8 0.3,-0.8 1,-0.6 5.3,1.6 10.6,2.4 16.1,1.8 3.1,-0.3 6.2,-0.9 9.2,-1.9 0.5,-0.2 0.8,0 0.8,0.5 0,1.8 0,3.7 0,5.5 0,0.6 -0.3,0.7 -0.8,0.9 -4,2 -8.2,2.6 -12.8,2.5 z m 1.3,-3.6 c 0,-0.5 -0.1,-1.1 0.4,-1.4 0.7,-0.6 1.4,-0.8 2.1,0 0.3,0.3 0.7,0.4 1,0.2 0.3,-0.4 -0.1,-0.7 -0.3,-1 -0.1,-0.2 -0.4,-0.3 -0.6,-0.3 -1.2,-0.4 -2.2,-0.1 -3.1,1 -0.7,0.9 -0.8,2.3 -0.1,3.2 0.5,0.7 1.2,1.4 2.2,1.2 0.8,-0.1 1.6,-0.5 2,-1.3 0.1,-0.3 0.4,-0.7 0,-0.9 -0.4,-0.2 -0.6,0.1 -0.7,0.4 -0.4,0.7 -0.9,1.2 -1.7,0.9 -1,-0.5 -1.2,-1.2 -1.2,-2 z m -1.4,2.3 c -0.8,-1.4 -1,-3.2 -1.9,-4.7 -0.4,-0.6 -1,-0.4 -1.3,0.3 -0.5,1.2 -0.9,2.4 -1.3,3.6 -0.1,0.3 -0.6,0.6 -0.1,0.9 0.5,0.2 0.8,-0.1 0.9,-0.5 0.2,-0.7 0.6,-0.6 1.2,-0.7 0.9,-0.1 1.3,0.3 1.5,1.1 0.1,0.3 0.3,0.6 0.7,0.5 0.2,0 0.3,-0.1 0.3,-0.5 z"
   id="path76"
   inkscape:connector-curvature="0"
   style="fill:#b8a766" />
	<path
   class="st5"
   d="m 256,393.3 c 8.4,10.7 23,18.4 35.6,21.5 -2.3,1.7 -4.8,2.9 -7.1,4.4 -0.3,0.2 -0.6,0.1 -0.9,-0.1 -5.8,-2.2 -11.2,-4.9 -16.3,-8.4 -3.7,-2.6 -7.2,-5.4 -10.4,-8.5 -0.6,-0.6 -0.9,-1.2 -0.9,-2.1 0,-2.1 0,-4.3 0,-6.8 z m 17.3,18.5 c -0.6,-1.1 -1,-2.1 -1.3,-3 -0.2,-0.5 -0.4,-1 -0.6,-1.4 -0.1,-0.1 -0.3,-0.3 -0.5,-0.3 -0.3,0 -0.3,0.3 -0.3,0.5 0,1.4 0,2.7 0,4.1 0,0.3 0,0.6 0.4,0.6 0.3,0 0.3,-0.3 0.3,-0.6 0.1,-0.6 -0.2,-1.2 0.2,-1.7 0.4,0.3 0.5,0.7 0.6,1.1 0.3,0.7 0.6,1.5 0.9,2.2 0.1,0.3 0.3,0.7 0.7,0.6 0.4,-0.1 0.2,-0.6 0.2,-0.8 0,-1.2 0,-2.4 0,-3.6 0,-0.3 -0.1,-0.6 -0.5,-0.6 -0.3,0 -0.2,0.4 -0.2,0.6 0.1,0.6 0.1,1.3 0.1,2.3 z m -6.7,-4.5 c 0.2,0.7 -0.5,1.8 0.5,2.5 0.6,0.5 1.3,0.9 2,1.3 0.2,0.1 0.4,0.3 0.6,0 0.1,-0.2 0,-0.5 -0.2,-0.6 -0.4,-0.3 -0.8,-0.5 -1.2,-0.8 -0.5,-0.4 -1,-0.9 -0.6,-1.5 0.4,-0.6 0.9,0.2 1.2,0.4 0.2,0.1 0.5,0.4 0.7,0.1 0.2,-0.3 -0.1,-0.5 -0.3,-0.7 -0.5,-0.3 -0.9,-0.6 -1.4,-0.9 -0.4,-0.3 -0.5,-0.7 -0.3,-1.1 0.3,-0.5 0.6,0.1 0.8,0.2 0.2,0.1 0.3,0.2 0.5,0.3 0.2,0.1 0.5,0.3 0.6,0.1 0.3,-0.3 -0.1,-0.5 -0.3,-0.7 -0.6,-0.4 -1.2,-0.8 -1.8,-1.2 -0.7,-0.4 -0.9,-0.2 -0.9,0.6 0.1,0.7 0.1,1.3 0.1,2 z m 18.1,11.1 c -0.6,-1.9 -1,-3.5 -1.6,-5 -0.3,-0.7 -0.9,-0.9 -1.3,0 -0.5,1.1 -1,2.2 -1.5,3.2 -0.1,0.3 -0.2,0.5 0.2,0.7 0.3,0.1 0.6,0.1 0.7,-0.2 0.3,-1 0.9,-0.6 1.5,-0.4 0.8,0.2 0.9,0.9 1.1,1.5 0.1,0.3 0.3,0.5 0.6,0.4 0.4,-0.1 0.3,-0.3 0.3,-0.2 z m -27,-17.7 c 0.4,1.1 0.5,2.1 1.4,2.7 0.4,0.2 0.7,0.6 1.2,0.3 0.5,-0.3 0.3,-0.8 0.3,-1.2 0,-1.2 -1.1,-1.8 -1.7,-2.6 -0.2,-0.3 -0.4,-0.7 -0.1,-0.9 0.4,-0.3 0.6,0.1 0.8,0.4 0.2,0.3 0.2,1.1 0.7,0.8 0.4,-0.2 0,-0.8 -0.3,-1.2 -0.2,-0.3 -0.4,-0.5 -0.6,-0.8 -0.3,-0.3 -0.7,-0.4 -1.1,-0.2 -0.3,0.2 -0.4,0.6 -0.4,0.9 0.1,0.8 0.4,1.5 1,2 0.3,0.2 0.5,0.5 0.7,0.8 0.2,0.4 0.5,0.8 0.1,1.1 -0.4,0.2 -0.6,-0.3 -0.9,-0.6 -0.4,-0.3 -0.2,-1.1 -1.1,-1.5 z m 6.7,3.3 c -0.1,-0.9 -0.3,-1.7 -1,-2.2 -0.4,-0.4 -0.8,-0.9 -1.4,-0.7 -0.7,0.3 -0.8,0.9 -0.9,1.6 -0.1,1.3 0.4,2.4 1,3.5 0.2,0.4 0.7,0.6 1.1,0.7 0.4,0.2 0.8,0.1 1,-0.3 0.1,-0.3 0.3,-0.6 0.1,-0.9 -0.4,-0.5 -0.6,0.1 -0.8,0.3 -0.3,0.2 -0.5,0 -0.7,-0.2 -0.8,-0.6 -1,-1.5 -1,-2.5 0,-0.5 -0.1,-1.1 0.5,-1.2 0.6,-0.2 0.9,0.3 1.2,0.8 0.1,0.4 0.2,0.9 0.9,1.1 z m 12.5,11.4 c 0,-1.1 0,-2.2 0,-3.3 0,-0.5 0,-0.9 0.7,-0.6 0.2,0.1 0.5,0.3 0.6,0 0.2,-0.3 -0.1,-0.6 -0.3,-0.7 -0.9,-0.5 -1.8,-1 -2.7,-1.4 -0.2,-0.1 -0.3,0 -0.4,0.1 -0.1,0.3 0,0.5 0.3,0.6 1,0.3 0.9,1.1 0.9,1.8 0,0.7 0,1.4 0,2 -0.1,0.9 0.1,1.3 0.9,1.5 z M 266,406.3 c 0,0 0,0 0,0 0,-0.7 0,-1.4 0,-2.1 0,-0.3 -0.3,-0.5 -0.5,-0.6 -0.3,-0.1 -0.4,0.1 -0.4,0.3 0,1.4 0,2.9 0,4.3 0,0.3 0.3,0.5 0.6,0.5 0.3,0 0.3,-0.3 0.3,-0.6 0,-0.6 0,-1.2 0,-1.8 z m 13,7.8 c 0.1,0 0.1,0 0,0 0,0.7 0,1.4 0,2.1 0,0.3 0.2,0.5 0.5,0.5 0.3,0.1 0.4,-0.1 0.4,-0.3 0,-1.4 0,-2.9 0,-4.3 0,-0.3 -0.2,-0.5 -0.6,-0.5 -0.4,0 -0.3,0.4 -0.3,0.6 0,0.7 0,1.3 0,1.9 z"
   id="path78"
   inkscape:connector-curvature="0"
   style="fill:#b4a365" />
	<path
   class="st5"
   d="m 304.9,414.9 c 7.1,-1.8 13.6,-4.5 19.6,-8 6.1,-3.5 11.6,-7.7 16.2,-13.7 0,2.8 0,5.2 0,7.7 0,0.4 -0.2,0.7 -0.5,0.9 -4.7,4.8 -10.1,8.8 -15.9,12.2 -3.6,2.1 -7.3,3.7 -11.1,5.2 -0.4,0.2 -0.9,0.3 -1.3,0.1 -2.2,-1.5 -4.5,-2.9 -7,-4.4 z m 25.4,-6.7 c 0.4,-0.7 0.4,-1.5 0.3,-2.2 -0.1,-1.1 -1,-1.6 -1.9,-1 -0.3,0.2 -0.5,0.5 -0.7,0.8 -1,0.9 -1,2.2 -1,3.4 0,0.5 0.1,1.1 0.7,1.2 0.6,0.2 1.1,0 1.5,-0.5 0.4,-0.5 1,-0.9 1.1,-1.7 z m 2.5,-3.3 c 0.4,0 0.9,-0.2 1.1,0.4 0.1,0.3 -0.1,0.8 0.4,0.7 0.5,-0.1 0.5,-0.6 0.4,-1 -0.2,-0.9 -0.3,-1.7 0,-2.6 0.2,-0.4 -0.1,-0.9 -0.7,-0.8 -0.6,0 -2.5,1.7 -2.6,2.2 -0.1,1.4 0,2.9 0,4.3 0.1,0 0.2,0 0.3,0.1 0.6,-1.1 0.2,-2.4 1.1,-3.3 z m -6.6,3.5 c 0.1,-0.8 -0.3,-1.2 -0.9,-1 -1.9,0.5 -2.6,1.5 -2.6,3.4 0,0.1 0,0.2 0,0.4 0.1,0.8 -0.4,2.1 0.3,2.4 0.7,0.4 1.5,-0.7 2.2,-1.1 1,-0.5 1.4,-1.5 1.1,-2.5 -0.2,-0.6 -0.3,-1.1 -0.1,-1.6 z m -8.5,7.9 c 0.7,0 0.8,-0.4 1,-0.8 0.4,-1.4 1.4,-1.7 2.6,-0.9 0.2,0.2 0.4,0.2 0.7,0 0.2,-0.1 0.3,-0.3 0.1,-0.6 -0.6,-1.1 -1.2,-2.2 -1.7,-3.2 -0.2,-0.3 -0.3,-0.4 -0.7,-0.4 -0.3,0 -0.5,0.2 -0.6,0.5 -0.4,1.8 -1.2,3.5 -1.4,5.4 z m 18.5,-15.1 c -0.2,-0.7 0,-1.1 0.5,-1.5 0.4,-0.3 0.8,-0.8 1.2,-1.2 0.1,-0.1 0.1,-0.3 0.1,-0.4 0,0 -0.2,-0.1 -0.3,-0.1 -0.4,0 -2.3,2 -2.3,2.4 0,1.3 0,2.5 0,3.8 0,0.3 0.1,0.7 0.5,0.4 0.8,-0.7 1.7,-1.3 2.3,-2.5 -1,0.1 -1.2,0.9 -1.9,1.1 -0.7,-1.3 1.2,-1.6 1,-2.7 -0.4,0.4 -0.7,0.5 -1.1,0.7 z m -22.8,14.3 c 0,0 0,0 0,0 0,0.2 0,0.3 0,0.5 0,2.1 0,2.1 2,1.4 0.1,0 0.2,0 0.2,-0.1 0.5,-0.3 1.6,-0.2 1.2,-1 -0.2,-0.5 -1,0.1 -1.5,0.3 -0.1,0 -0.2,0 -0.2,0.1 -0.6,0.3 -0.8,0 -0.8,-0.6 0,-0.9 0,-1.8 0,-2.6 0,-0.3 0,-0.6 -0.3,-0.6 -0.4,0 -0.6,0.2 -0.6,0.6 0,0.6 0,1.3 0,2 z"
   id="path80"
   inkscape:connector-curvature="0"
   style="fill:#b4a365" />
	<path
   class="st7"
   d="m 264.1,400 c -2.3,-2 -4.3,-3.9 -5.9,-6 -0.4,-0.5 -1.3,-0.8 -0.9,-1.5 0.3,-0.6 1.2,-0.2 1.8,-0.2 1.4,0 2.8,0 4.2,0 0.5,0 0.9,0 0.9,0.7 -0.1,2.1 -0.1,4.4 -0.1,7 z"
   id="path82"
   inkscape:connector-curvature="0"
   style="fill:#4266a2" />
	<path
   class="st7"
   d="m 332.6,399.9 c 0,-2.5 0,-4.8 0,-7.1 0,-0.4 0.2,-0.6 0.7,-0.6 2.1,0 4.2,0 6.6,0 -2.1,3 -4.5,5.3 -7.3,7.7 z"
   id="path84"
   inkscape:connector-curvature="0"
   style="fill:#4266a2" />
	<path
   class="st7"
   d="m 331.6,394.3 c 0,2 0,4 0,6 0,0.7 -0.6,0.8 -0.9,1.1 -1.7,1.5 -3.7,2.7 -5.6,4 -0.3,0.2 -0.6,0.5 -1.1,0.3 2.3,-4 5,-7.6 7.4,-11.4 0,0 0.1,0 0.2,0 z"
   id="path86"
   inkscape:connector-curvature="0"
   style="fill:#4266a2" />
	<path
   class="st7"
   d="m 272.5,405.6 c -2.2,-1 -4.1,-2.4 -6.1,-3.8 -1.1,-0.8 -1.5,-1.7 -1.4,-3 0.1,-1.5 0,-3 0.2,-4.6 2.6,3.8 5.3,7.4 7.3,11.4 z"
   id="path88"
   inkscape:connector-curvature="0"
   style="fill:#4266a2" />
	<path
   class="st7"
   d="m 285.9,419.8 c 2,-1.3 3.8,-2.5 5.6,-3.6 1,-0.6 1.1,-0.5 1.1,0.6 0,1.3 0,2.6 0,3.8 0,0.4 0,0.9 -0.6,0.8 -1.9,-0.3 -4,-0.8 -6.1,-1.6 z"
   id="path90"
   inkscape:connector-curvature="0"
   style="fill:#4266a2" />
	<path
   class="st7"
   d="m 265.2,410.7 c 2.5,1.5 4.8,3 7.2,4.4 0.7,0.4 1.2,2.3 0.8,2.9 -0.3,0.3 -0.5,0.1 -0.7,0 -2.1,-1.4 -4.2,-2.8 -6.3,-4.3 -0.9,-0.6 -1.3,-1.7 -1,-3 z"
   id="path92"
   inkscape:connector-curvature="0"
   style="fill:#4266a2" />
	<path
   class="st7"
   d="m 323.4,416.9 c -0.2,-1 0.3,-1.5 1.2,-2 2.1,-1.2 4.2,-2.6 6.2,-3.9 0.2,-0.1 0.3,-0.4 0.6,-0.3 0.2,0.1 0.2,0.4 0.2,0.7 0,1.7 -1.3,2.5 -2.5,3.3 -1.4,0.9 -2.9,1.9 -4.3,2.8 -0.4,0.3 -0.7,0.8 -1.2,0.5 -0.4,-0.1 -0.1,-0.7 -0.2,-1.1 z"
   id="path94"
   inkscape:connector-curvature="0"
   style="fill:#4266a2" />
	<path
   class="st7"
   d="m 310.6,419.7 c -1.4,1.1 -3.1,0.9 -4.6,1.5 -0.3,0.1 -0.7,0.2 -1,0.2 -0.5,0.1 -0.8,-0.1 -0.7,-0.6 0,-1.4 0,-2.7 0,-4.1 0,-1 0.5,-0.8 1,-0.5 1.7,1.1 3.5,2.3 5.3,3.5 z"
   id="path96"
   inkscape:connector-curvature="0"
   style="fill:#4266a2" />
	<path
   class="st8"
   d="m 346.9,504.9 c 0.7,0.5 0.7,1.3 1,2 0.3,0.7 -0.4,0.5 -0.7,0.5 -1.4,0.1 -1.4,0.1 -0.9,-1.2 0.1,-0.5 0.1,-1 0.6,-1.3 z"
   id="path98"
   inkscape:connector-curvature="0"
   style="fill:none" />
	<path
   class="st8"
   d="m 312.3,504.7 c 0.3,0.6 0.6,1.1 0.8,1.5 0.5,1 0.2,1.2 -0.8,1.2 -1,0 -1.2,-0.2 -0.7,-1.1 0.2,-0.4 0.4,-1 0.7,-1.6 z"
   id="path100"
   inkscape:connector-curvature="0"
   style="fill:none" />
	<path
   class="st8"
   d="m 249.2,504.8 c 0.3,0.6 0.6,1 0.8,1.5 0.1,0.3 0.5,0.8 0.1,0.9 -0.5,0.2 -1.2,0.2 -1.7,0 -0.5,-0.1 -0.1,-0.6 0,-0.9 0.1,-0.4 0.3,-1 0.8,-1.5 z"
   id="path102"
   inkscape:connector-curvature="0"
   style="fill:none" />
	<path
   class="st9"
   d="m 299.6,426.5 c -0.1,0.8 0.2,1.5 1,1.9 0.8,0.3 1.3,-0.2 1.7,-0.9 0.2,-0.3 0.4,-0.6 0.7,-0.4 0.5,0.2 0.2,0.6 0,0.9 -0.4,0.9 -1.1,1.2 -2,1.3 -1,0.1 -1.7,-0.5 -2.2,-1.2 -0.7,-0.9 -0.6,-2.3 0.1,-3.2 0.8,-1 1.9,-1.4 3.1,-1 0.2,0.1 0.5,0.2 0.6,0.3 0.2,0.3 0.7,0.6 0.3,1 -0.3,0.3 -0.7,0.1 -1,-0.2 -0.7,-0.8 -1.4,-0.6 -2.1,0 -0.2,0.4 -0.1,1 -0.2,1.5 z"
   id="path104"
   inkscape:connector-curvature="0"
   style="fill:#53524e" />
	<path
   class="st0"
   d="m 298.2,428.8 c 0,0.4 -0.1,0.5 -0.3,0.6 -0.4,0.1 -0.6,-0.2 -0.7,-0.5 -0.2,-0.8 -0.6,-1.2 -1.5,-1.1 -0.5,0 -1,0 -1.2,0.7 -0.1,0.4 -0.5,0.7 -0.9,0.5 -0.6,-0.3 0,-0.6 0.1,-0.9 0.4,-1.2 0.9,-2.4 1.3,-3.6 0.3,-0.7 0.9,-0.9 1.3,-0.3 0.9,1.4 1.1,3.2 1.9,4.6 z m -1.9,-2.5 c -0.3,-0.3 0,-1.1 -0.6,-1.1 -0.6,0 -0.5,0.8 -0.6,1.3 -0.1,0.4 0.3,0.5 0.6,0.5 0.5,-0.1 0.7,-0.2 0.6,-0.7 z"
   id="path106"
   inkscape:connector-curvature="0"
   style="fill:#4d4d4c" />
	<path
   class="st9"
   d="m 273.3,411.8 c 0,-1 0,-1.7 0,-2.4 0,-0.2 -0.1,-0.5 0.2,-0.6 0.4,0 0.5,0.3 0.5,0.6 0,1.2 0,2.4 0,3.6 0,0.3 0.2,0.7 -0.2,0.8 -0.4,0.1 -0.6,-0.3 -0.7,-0.6 -0.3,-0.7 -0.6,-1.5 -0.9,-2.2 -0.1,-0.4 -0.2,-0.8 -0.6,-1.1 -0.4,0.6 -0.2,1.2 -0.2,1.7 0,0.2 0,0.5 -0.3,0.6 -0.4,0 -0.4,-0.3 -0.4,-0.6 0,-1.4 0,-2.7 0,-4.1 0,-0.2 0,-0.5 0.3,-0.5 0.2,0 0.4,0.1 0.5,0.3 0.2,0.5 0.5,0.9 0.6,1.4 0.2,1.1 0.6,2 1.2,3.1 z"
   id="path108"
   inkscape:connector-curvature="0"
   style="fill:#53524e" />
	<path
   class="st9"
   d="m 266.6,407.3 c 0,-0.8 0,-1.3 0,-1.9 0,-0.7 0.2,-1 0.9,-0.6 0.6,0.4 1.2,0.8 1.8,1.2 0.2,0.1 0.5,0.4 0.3,0.7 -0.2,0.2 -0.4,0.1 -0.6,-0.1 -0.2,-0.1 -0.3,-0.2 -0.5,-0.3 -0.3,-0.1 -0.5,-0.7 -0.8,-0.2 -0.2,0.3 -0.1,0.8 0.3,1.1 0.5,0.3 0.9,0.6 1.4,0.9 0.2,0.2 0.5,0.4 0.3,0.7 -0.2,0.3 -0.5,0.1 -0.7,-0.1 -0.4,-0.2 -0.8,-1 -1.2,-0.4 -0.4,0.5 0.1,1.1 0.6,1.5 0.4,0.3 0.8,0.5 1.2,0.8 0.2,0.1 0.3,0.4 0.2,0.6 -0.2,0.3 -0.4,0.1 -0.6,0 -0.7,-0.4 -1.3,-0.9 -2,-1.3 -1.1,-0.8 -0.4,-1.9 -0.6,-2.6 z"
   id="path110"
   inkscape:connector-curvature="0"
   style="fill:#53524e" />
	<path
   class="st9"
   d="m 284.7,418.4 c 0,-0.1 0,0.1 -0.3,0.2 -0.3,0 -0.5,-0.1 -0.6,-0.4 -0.2,-0.6 -0.3,-1.2 -1.1,-1.5 -0.6,-0.2 -1.2,-0.6 -1.5,0.4 -0.1,0.3 -0.4,0.3 -0.7,0.2 -0.3,-0.2 -0.3,-0.4 -0.2,-0.7 0.5,-1.1 1,-2.2 1.5,-3.2 0.4,-0.9 1,-0.7 1.3,0 0.7,1.5 1.1,3.1 1.6,5 z m -2.2,-4.2 c -0.2,0.5 -0.8,0.9 -0.3,1.5 0.2,0.2 0.6,0.4 0.7,0.1 0.4,-0.6 -0.1,-1.1 -0.4,-1.6 z"
   id="path112"
   inkscape:connector-curvature="0"
   style="fill:#53524e" />
	<path
   class="st9"
   d="m 257.7,400.7 c 0.9,0.4 0.7,1.1 1.1,1.5 0.3,0.3 0.5,0.8 0.9,0.6 0.4,-0.2 0.1,-0.7 -0.1,-1.1 -0.2,-0.3 -0.4,-0.6 -0.7,-0.8 -0.6,-0.5 -0.8,-1.2 -1,-2 -0.1,-0.4 0,-0.8 0.4,-0.9 0.4,-0.2 0.8,-0.1 1.1,0.2 0.2,0.2 0.4,0.5 0.6,0.8 0.3,0.4 0.7,1 0.3,1.2 -0.5,0.3 -0.5,-0.5 -0.7,-0.8 -0.2,-0.4 -0.4,-0.7 -0.8,-0.4 -0.4,0.2 -0.2,0.6 0.1,0.9 0.6,0.8 1.7,1.4 1.7,2.6 0,0.4 0.2,0.9 -0.3,1.2 -0.5,0.3 -0.8,-0.1 -1.2,-0.3 -0.9,-0.5 -1,-1.5 -1.4,-2.7 z"
   id="path114"
   inkscape:connector-curvature="0"
   style="fill:#53524e" />
	<path
   class="st9"
   d="m 264.4,404 c -0.6,-0.2 -0.7,-0.7 -0.9,-1.2 -0.3,-0.5 -0.6,-1 -1.2,-0.8 -0.5,0.2 -0.5,0.8 -0.5,1.2 0,0.9 0.2,1.8 1,2.5 0.2,0.2 0.4,0.4 0.7,0.2 0.2,-0.2 0.4,-0.8 0.8,-0.3 0.3,0.3 0,0.6 -0.1,0.9 -0.2,0.4 -0.6,0.5 -1,0.3 -0.4,-0.2 -0.8,-0.3 -1.1,-0.7 -0.6,-1.1 -1.2,-2.2 -1,-3.5 0.1,-0.7 0.2,-1.3 0.9,-1.6 0.6,-0.2 1,0.3 1.4,0.7 0.6,0.7 0.8,1.4 1,2.3 z"
   id="path116"
   inkscape:connector-curvature="0"
   style="fill:#53524e" />
	<path
   class="st9"
   d="m 276.9,415.4 c -0.8,-0.2 -1,-0.7 -1,-1.3 0,-0.7 0,-1.4 0,-2 0,-0.8 0.1,-1.6 -0.9,-1.8 -0.3,-0.1 -0.4,-0.3 -0.3,-0.6 0.1,-0.2 0.2,-0.2 0.4,-0.1 0.9,0.5 1.8,0.9 2.7,1.4 0.2,0.1 0.5,0.4 0.3,0.7 -0.2,0.3 -0.4,0.1 -0.6,0 -0.7,-0.3 -0.7,0.1 -0.7,0.6 0.1,0.9 0.1,2 0.1,3.1 z"
   id="path118"
   inkscape:connector-curvature="0"
   style="fill:#53524e" />
	<path
   class="st4"
   d="m 266,406.3 c 0,0.6 0,1.2 0,1.8 0,0.2 0,0.5 -0.3,0.6 -0.3,0 -0.6,-0.2 -0.6,-0.5 0,-1.4 0,-2.9 0,-4.3 0,-0.2 0.1,-0.4 0.4,-0.3 0.3,0.1 0.5,0.2 0.5,0.6 0,0.7 0,1.4 0,2.1 0,0 0,0 0,0 z"
   id="path120"
   inkscape:connector-curvature="0"
   style="fill:#565555" />
	<path
   class="st0"
   d="m 279,414.1 c 0,-0.6 0,-1.2 0,-1.8 0,-0.3 -0.1,-0.6 0.3,-0.6 0.3,0 0.6,0.2 0.6,0.5 0,1.4 0,2.9 0,4.3 0,0.2 -0.1,0.4 -0.4,0.3 -0.3,-0.1 -0.5,-0.2 -0.5,-0.5 0.1,-0.8 0.1,-1.5 0,-2.2 0.1,0 0.1,0 0,0 z"
   id="path122"
   inkscape:connector-curvature="0"
   style="fill:#4d4d4c" />
	<path
   class="st9"
   d="m 326.2,408.4 c -0.3,0.5 -0.1,1 0.1,1.6 0.3,1 0,2 -1.1,2.5 -0.8,0.4 -1.5,1.5 -2.2,1.1 -0.7,-0.4 -0.2,-1.6 -0.3,-2.4 0,-0.1 0,-0.2 0,-0.4 0,-2 0.7,-2.9 2.6,-3.4 0.6,-0.2 1,0.2 0.9,1 z m -2.6,3.4 c 0.1,0.3 -0.2,0.8 0.5,0.6 0.6,-0.2 1.1,-0.6 1.4,-1.1 0.2,-0.3 0.4,-0.9 -0.3,-1 -0.6,-0.1 -1.5,0.8 -1.6,1.5 z m 1.9,-3.2 c 0,-0.2 -0.1,-0.3 -0.3,-0.4 -0.6,0 -0.9,0.3 -1.4,0.7 -0.4,0.3 -0.4,0.7 -0.3,1.1 0,0.2 0.1,0.3 0.3,0.3 0.5,0 1.8,-1.1 1.7,-1.7 z"
   id="path124"
   inkscape:connector-curvature="0"
   style="fill:#53524e" />
	<path
   class="st9"
   d="m 317.7,416.3 c 0.2,-1.9 1,-3.6 1.4,-5.4 0.1,-0.3 0.3,-0.5 0.6,-0.5 0.3,0 0.5,0.1 0.7,0.4 0.6,1.1 1.1,2.2 1.7,3.2 0.1,0.3 0.1,0.5 -0.1,0.6 -0.2,0.1 -0.4,0.1 -0.7,0 -1.1,-0.9 -2.1,-0.5 -2.6,0.9 -0.2,0.5 -0.3,0.8 -1,0.8 z m 2.6,-3.6 c -0.3,-0.2 0,-1 -0.6,-0.9 -0.6,0.1 -0.4,0.9 -0.6,1.3 -0.1,0.3 0.1,0.4 0.4,0.4 0.5,0 0.8,-0.2 0.8,-0.8 z"
   id="path126"
   inkscape:connector-curvature="0"
   style="fill:#53524e" />
	<path
   class="st9"
   d="m 332.8,404.9 c -0.9,0.9 -0.5,2.3 -1.1,3.2 -0.1,0 -0.2,0 -0.3,-0.1 0,-1.4 0,-2.9 0,-4.3 0,-0.5 2,-2.2 2.6,-2.2 0.6,-0.1 0.9,0.4 0.7,0.8 -0.3,0.9 -0.2,1.7 0,2.6 0.1,0.4 0.2,0.9 -0.4,1 -0.5,0.1 -0.3,-0.4 -0.4,-0.7 -0.2,-0.5 -0.7,-0.3 -1.1,-0.3 0.1,-0.1 0.2,-0.3 0.3,-0.4 0.5,-0.4 0.8,-0.8 0.8,-1.5 0,-0.2 -0.2,-0.3 -0.4,-0.2 -0.6,0.2 -1.1,0.6 -1.3,1.1 -0.3,0.4 -0.3,1 0.6,1 z"
   id="path128"
   inkscape:connector-curvature="0"
   style="fill:#53524e" />
	<path
   class="st9"
   d="m 336.2,401.2 c 0.4,-0.2 0.7,-0.4 1.1,-0.6 0.1,1.1 -1.8,1.4 -1,2.7 0.6,-0.2 0.9,-1 1.9,-1.1 -0.6,1.1 -1.5,1.8 -2.3,2.5 -0.3,0.3 -0.4,-0.1 -0.5,-0.4 0,-1.3 0,-2.5 0,-3.8 0,-0.4 1.9,-2.4 2.3,-2.4 0.1,0 0.3,0.1 0.3,0.1 0,0.1 0,0.3 -0.1,0.4 -0.4,0.4 -0.7,0.9 -1.2,1.2 -0.5,0.3 -0.6,0.7 -0.5,1.4 z"
   id="path130"
   inkscape:connector-curvature="0"
   style="fill:#53524e" />
	<path
   class="st9"
   d="m 313.4,415.5 c 0,-0.7 0,-1.4 0,-2 0,-0.4 0.2,-0.6 0.6,-0.6 0.4,0 0.3,0.4 0.3,0.6 0,0.9 0,1.8 0,2.6 0,0.6 0.2,0.8 0.8,0.6 0.1,0 0.2,0 0.2,-0.1 0.5,-0.2 1.3,-0.8 1.5,-0.3 0.4,0.9 -0.8,0.7 -1.2,1 -0.1,0 -0.2,0 -0.2,0.1 -2,0.7 -2,0.7 -2,-1.4 0,-0.2 0,-0.3 0,-0.5 0,0 0,0 0,0 z"
   id="path132"
   inkscape:connector-curvature="0"
   style="fill:#53524e" />
	<path
   class="st9"
   d="m 330.3,408.2 c -0.2,0.7 -0.8,1.2 -1.2,1.8 -0.3,0.5 -0.9,0.6 -1.5,0.5 -0.6,-0.2 -0.7,-0.7 -0.7,-1.2 0,-1.2 0,-2.5 1,-3.4 0,0.2 0,0.4 0.2,0.5 -0.2,0.6 -0.5,1.2 -0.6,1.8 -0.1,0.6 0.1,1.3 0.7,1.5 0.5,0.1 0.9,-0.3 1.2,-0.8 0.1,-0.2 0.2,-0.5 0.5,-0.6 0.2,-0.1 0.3,-0.1 0.4,-0.1 z"
   id="path134"
   inkscape:connector-curvature="0"
   style="fill:#53524e" />
	<path
   class="st1"
   d="m 328.2,406.3 c -0.2,-0.1 -0.2,-0.3 -0.2,-0.5 0.2,-0.3 0.4,-0.6 0.7,-0.8 1,-0.6 1.8,-0.2 1.9,1 0.1,0.8 0.1,1.5 -0.3,2.2 -0.1,0 -0.2,0 -0.3,0 0,-0.4 0.1,-0.8 0.1,-1.2 0,-0.5 -0.1,-1.1 -0.6,-1.3 -0.5,-0.2 -1,0.1 -1.3,0.6 z"
   id="path136"
   inkscape:connector-curvature="0"
   style="fill:#4a4a4a" />
	<path
   class="st5"
   d="m 296.3,426.3 c 0.1,0.5 -0.1,0.7 -0.5,0.6 -0.3,0 -0.7,0 -0.6,-0.5 0.1,-0.5 0,-1.3 0.6,-1.3 0.5,0 0.2,0.9 0.5,1.2 z"
   id="path138"
   inkscape:connector-curvature="0"
   style="fill:#b4a365" />
	<path
   class="st5"
   d="m 282.5,414.2 c 0.2,0.5 0.8,1 0.5,1.6 -0.2,0.3 -0.5,0.1 -0.7,-0.1 -0.6,-0.6 0.1,-1 0.2,-1.5 z"
   id="path140"
   inkscape:connector-curvature="0"
   style="fill:#b4a365" />
	<path
   class="st5"
   d="m 323.6,411.8 c 0,-0.7 1,-1.6 1.6,-1.5 0.7,0.1 0.5,0.7 0.3,1 -0.3,0.5 -0.8,0.9 -1.4,1.1 -0.6,0.2 -0.4,-0.3 -0.5,-0.6 z"
   id="path142"
   inkscape:connector-curvature="0"
   style="fill:#b4a365" />
	<path
   class="st5"
   d="m 325.5,408.6 c 0,0.5 -1.2,1.7 -1.7,1.7 -0.2,0 -0.3,-0.1 -0.3,-0.3 0,-0.4 0,-0.8 0.3,-1.1 0.4,-0.3 0.8,-0.7 1.4,-0.7 0.2,0.1 0.4,0.3 0.3,0.4 z"
   id="path144"
   inkscape:connector-curvature="0"
   style="fill:#b4a365" />
	<path
   class="st5"
   d="m 320.3,412.7 c 0,0.6 -0.3,0.8 -0.7,0.8 -0.3,0 -0.5,-0.2 -0.4,-0.4 0.2,-0.5 0,-1.2 0.6,-1.3 0.5,-0.1 0.2,0.7 0.5,0.9 z"
   id="path146"
   inkscape:connector-curvature="0"
   style="fill:#b4a365" />
	<path
   class="st5"
   d="m 332.8,404.9 c -0.9,0 -0.9,-0.6 -0.6,-1.1 0.3,-0.5 0.8,-0.9 1.3,-1.1 0.2,-0.1 0.3,0.1 0.4,0.2 0.1,0.6 -0.2,1.1 -0.8,1.5 -0.1,0.1 -0.2,0.3 -0.3,0.5 0,0 0,0 0,0 z"
   id="path148"
   inkscape:connector-curvature="0"
   style="fill:#b4a365" />
	<path
   class="st5"
   d="m 328.2,406.3 c 0.3,-0.5 0.8,-0.8 1.3,-0.6 0.5,0.2 0.6,0.8 0.6,1.3 0,0.4 -0.1,0.8 -0.1,1.2 -0.3,0.1 -0.4,0.4 -0.5,0.6 -0.2,0.5 -0.7,0.9 -1.2,0.8 -0.6,-0.2 -0.8,-0.9 -0.7,-1.5 0.1,-0.6 0.4,-1.2 0.6,-1.8 z"
   id="path150"
   inkscape:connector-curvature="0"
   style="fill:#b4a365" />
	<g
   id="XMLID_1_">
		<g
   id="g180">
			<path
   class="st10"
   d="m 299.3,372.4 c -0.8,0.3 -0.5,-0.5 -0.5,-0.8 0,-3 0,-6.1 0,-9.1 0,-0.5 0,-1 0,-1.4 0,-2 1,-3 3,-3.1 1.9,-0.1 3.7,0.7 5.6,0.7 0.5,0 0.4,0.5 0.4,0.8 0,1.9 0,3.8 0,5.8 0,1.9 0,3.8 0,5.8 0,0.8 -0.2,0.9 -1,0.9 -2.5,0 -5,-0.4 -7.5,0.4 z"
   id="path152"
   inkscape:connector-curvature="0"
   style="fill:#ffffff" />
			<path
   class="st10"
   d="m 296.8,372.3 c -2.2,-0.6 -4.5,-0.4 -6.8,-0.4 -0.9,0 -1.2,-0.3 -1.1,-1.2 0.1,-1.8 0,-3.7 0,-5.5 0,-1.9 0,-3.8 0,-5.8 0,-0.6 0.1,-1 0.9,-0.9 1.2,0.1 2.3,-0.4 3.4,-0.6 0.6,0 1.2,-0.1 1.8,-0.1 2.1,0.1 2.9,1 2.9,3.1 0,3.5 0,7 0,10.4 0,1 -0.1,1.3 -1.1,1 z"
   id="path154"
   inkscape:connector-curvature="0"
   style="fill:#ffffff" />
			<path
   class="st7"
   d="m 309.9,357.9 c 5.1,-1.3 8.8,-4.2 11.5,-8.8 0,11.5 0,22.6 0,33.9 -1.2,-1.3 -2.1,-2.8 -3.3,-4 -1.9,-1.8 -4,-3.1 -6.4,-4 -0.4,-0.1 -1,-0.1 -1,-0.6 -0.1,-0.9 -0.2,-1.8 0.1,-2.7 0.1,-0.3 0.6,-0.2 0.9,-0.2 1.2,0 2.5,0 3.7,0 0.9,0 1.4,-0.4 1.5,-1.2 0.1,-0.9 -0.5,-1.2 -1.2,-1.3 -1.3,-0.3 -2.6,-0.1 -3.8,-0.1 -1,0 -1.3,-0.3 -1.2,-1.3 0.1,-0.8 0.1,-1.6 0,-2.4 0,-0.8 0.3,-1 1,-1 1.2,0 2.4,0 3.6,0 1,0 1.5,-0.4 1.6,-1.4 0.1,-1 -0.6,-1.4 -1.4,-1.5 -1.2,-0.1 -2.4,-0.1 -3.6,0 -0.9,0 -1.4,-0.2 -1.2,-1.2 0.1,-0.8 0.1,-1.6 -0.8,-2.2 z"
   id="path156"
   inkscape:connector-curvature="0"
   style="fill:#4266a2" />
			<path
   class="st11"
   d="m 291.8,357.3 c -0.6,0.1 -0.9,0 -1,-0.7 -0.4,-2.6 -1.2,-5.1 -2.4,-7.4 -1.5,-2.8 -3.7,-4.7 -6.3,-6.6 10.8,0 21.6,0 32.5,0 -1.4,1.2 -2.7,2.1 -3.8,3.4 -2.3,2.4 -3.5,5.3 -4.3,8.5 0,0.1 0,0.2 0,0.4 -0.4,2.6 -0.4,2.5 -3,2.2 -1.7,-0.2 -3.5,-0.1 -4.8,1.2 -0.3,0.3 -0.4,0.2 -0.6,0 -1.5,-1.4 -3.4,-1.5 -5.3,-1.1 -0.4,0 -0.7,0.1 -1,0.1 z"
   id="path158"
   inkscape:connector-curvature="0"
   style="fill:#4266a4" />
			<path
   class="st12"
   d="m 299.2,409.9 c -0.6,0.3 -1.2,0.2 -1.7,0 -3.5,-1.2 -6.9,-2.5 -10.1,-4.4 -4.5,-2.6 -8.5,-5.8 -12,-9.8 -2.5,-2.8 -4.6,-5.9 -6.3,-9.2 -1.5,-3 -2.5,-6.2 -3.1,-9.6 -0.6,-3.7 -0.4,-7.3 -0.4,-11 0,-10.6 0,-21.3 0,-31.9 0,-1.2 0.3,-1.6 1.5,-1.5 10.4,0 20.8,0 31.2,0 10.4,0 20.9,0 31.3,0 1,0 1.4,0.2 1.4,1.3 0,13.2 0,26.3 0,39.5 0,5.5 -1.6,10.4 -4.2,15.1 -2.3,4.2 -5.4,7.9 -9,11.1 -3.5,3.1 -7.4,5.8 -11.7,7.8 -2.3,0.9 -4.7,1.7 -6.9,2.6 z m -19.5,-67.3 c 4.1,2 7.1,4.9 8.8,9.2 0.6,1.6 0.8,3.2 1.4,4.8 0.3,0.7 0,0.9 -0.7,0.8 -0.8,-0.2 -1.5,-0.5 -2.3,-0.6 -4.7,-1.1 -8.3,-3.7 -10.6,-7.9 -0.7,-1.3 -1.4,-2.7 -2.1,-4.2 0,14.4 0,28.7 0,43.2 1.5,-3.5 3,-6.7 5.8,-9 2.7,-2.2 5.8,-3.3 9.1,-4 0.8,-0.2 1,0.3 0.8,1 -0.6,1.8 -0.9,3.7 -1.7,5.5 -1.4,3 -3.3,5.6 -6.1,7.4 -1.4,0.9 -3,1.6 -4.8,2.5 14.1,0 27.8,0 41.6,0 -0.1,-0.4 -0.5,-0.4 -0.8,-0.5 -2.7,-1.2 -5.2,-2.6 -7.1,-4.9 -2.5,-2.9 -3.5,-6.4 -4.2,-10.1 -0.1,-0.8 0.2,-0.9 0.9,-0.8 0.9,0.1 1.7,0.5 2.5,0.7 4.5,1.2 7.8,3.8 10.1,7.8 0.8,1.3 1.2,2.8 2,4.3 0,-14.4 0,-28.7 0,-43.3 -0.4,1 -0.7,1.6 -1,2.3 -1.4,3.2 -3.4,5.9 -6.4,7.8 -2.2,1.4 -4.7,2 -7.1,2.7 -0.7,0.2 -1.2,0.1 -0.9,-0.9 0.2,-0.6 0.2,-1.2 0.4,-1.8 1,-4.2 3,-7.7 6.5,-10.3 1.6,-1.1 3.4,-1.8 5.1,-2.9 -13.8,0 -27.5,0 -41.3,0 0.5,0.3 0.9,0.5 1.3,0.7 0.3,0.3 0.6,0.4 0.8,0.5 z"
   id="path160"
   inkscape:connector-curvature="0"
   style="fill:#bba966" />
			<path
   class="st13"
   d="m 287,372.4 c 0,-4.1 0,-8.2 0,-12.2 0,-0.2 0,-0.5 0,-0.7 0,-0.4 0.2,-0.6 0.6,-0.6 0.5,0 0.4,0.4 0.4,0.7 0,3.8 0,7.7 0,11.5 0,1.9 -0.3,1.7 1.6,1.7 1.3,0 2.6,0 3.8,0 1.2,0 2.4,0 3.6,0.6 0.9,0.5 2,0.4 2.8,0 1.2,-0.6 2.4,-0.6 3.6,-0.6 1.4,0 2.8,-0.1 4.2,0 0.9,0 1.1,-0.2 1.1,-1.1 0,-3.9 0,-7.8 0,-11.6 0,-0.4 -0.3,-1.1 0.3,-1.1 0.8,0 0.7,0.7 0.7,1.3 0,2 0,4.1 0,6.1 0,2.1 0,4.2 0,6.4 0,0.7 -0.2,1 -1,1 -1.6,0 -3.1,0 -4.7,0 -1.5,0 -3,0 -4.4,0.7 -0.9,0.4 -2.1,0.4 -3.1,-0.2 -0.7,-0.4 -1.5,-0.5 -2.3,-0.5 -2,0 -4.1,0 -6.1,0 -0.9,-0.2 -1.1,-0.5 -1.1,-1.4 z"
   id="path162"
   inkscape:connector-curvature="0"
   style="fill:#e9e9e9" />
			<path
   class="st11"
   d="m 282.8,389.6 c 1.7,-1.2 3.2,-2.5 4.4,-4.3 1.7,-2.4 2.8,-5.1 3.3,-8 0.4,-2.7 0.3,-2.6 3.1,-2.7 1.9,-0.1 3.8,0.9 5.7,0.5 1.6,-0.4 3.3,-0.4 5,-0.5 1.4,-0.1 1.8,0.5 1.9,1.7 0.2,1.6 0.6,3.2 1.1,4.7 1.2,3.6 3.5,6.3 6.4,8.5 0.2,0.1 0.4,0.3 0.6,0.5 -0.5,0.4 -0.9,0.3 -1.3,0.3 -9.8,0 -19.6,0 -29.4,0 -0.2,0 -0.5,0 -0.7,0 -0.2,0 -0.4,0 -0.5,-0.2 0.1,-0.3 0.3,-0.4 0.4,-0.5 z"
   id="path164"
   inkscape:connector-curvature="0"
   style="fill:#4266a4" />
			<path
   class="st7"
   d="m 279.6,378 c -1.7,1.4 -2.9,3.1 -4.3,5.1 0,-11.4 0,-22.5 0,-33.9 1.1,1.6 2.1,3 3.4,4.2 1.9,1.9 4.3,3.1 6.8,4 0.7,0.2 1.4,0.3 0.7,1.3 -0.3,0.4 -0.1,1.1 -0.1,1.6 0,0.6 -0.2,0.9 -0.8,0.9 -1.2,-0.1 -2.4,0.2 -3.4,-0.7 -0.7,-0.6 -1.2,0.1 -1.6,0.5 -0.4,0.3 -0.5,1 -1,1.3 -0.1,0 -0.1,0.3 -0.1,0.3 0.4,0.6 0.7,1.3 1.3,1.8 0.6,0.5 1.4,0.5 2.1,0 1,-0.6 2.1,-0.2 3.2,-0.3 0.4,0 0.4,0.3 0.4,0.6 0,0.3 0,0.6 0,1 0.4,3 0.3,3.1 -2.7,3 -0.4,0 -0.6,-0.1 -0.9,-0.4 -0.9,-0.9 -1.9,-0.7 -2.5,0.4 -0.3,0.5 -1,0.8 -0.8,1.3 0.3,0.7 0.8,1.3 1.4,1.9 0.5,0.5 1.1,0.6 1.7,0 1.1,-1.1 2.4,-0.4 3.6,-0.5 0.3,0 0.4,0.4 0.4,0.6 0,0.6 0,1.1 0,1.7 0,0.6 -0.3,0.9 -0.8,1 -2.3,0.7 -4.3,1.8 -6,3.3 z"
   id="path166"
   inkscape:connector-curvature="0"
   style="fill:#4266a2" />
			<path
   class="st7"
   d="m 280.6,361.8 c 0.2,-0.3 0.4,-0.6 0.8,-0.6 0.4,0 0.7,0.2 0.6,0.6 -0.1,0.6 -0.6,0.3 -1,0.4 -0.1,0 -0.4,0 -0.4,-0.4 z"
   id="path168"
   inkscape:connector-curvature="0"
   style="fill:#4266a2" />
			<path
   class="st7"
   d="m 280.6,370.7 c -0.1,-0.5 0.4,-0.3 0.7,-0.4 0.3,0.1 0.8,-0.1 0.8,0.4 0,0.4 -0.3,0.5 -0.7,0.5 -0.4,0.1 -0.7,-0.2 -0.8,-0.5 z"
   id="path170"
   inkscape:connector-curvature="0"
   style="fill:#4266a2" />
			<path
   class="st7"
   d="m 280.6,369.2 c 0.3,-0.4 0.5,-1 1.1,-0.5 0.1,0.1 0.3,0.4 0.3,0.5 -0.4,0.4 -0.9,0.1 -1.4,0 z"
   id="path172"
   inkscape:connector-curvature="0"
   style="fill:#4266a2" />
			<path
   class="st7"
   d="m 281.7,364 c -0.6,0.3 -0.8,-0.2 -1.3,-0.7 0.7,-0.1 1.3,-0.3 1.6,0.2 0.1,0.1 -0.1,0.4 -0.3,0.5 z"
   id="path174"
   inkscape:connector-curvature="0"
   style="fill:#4266a2" />
			<path
   class="st1"
   d="m 309.9,357.9 c 0.9,0.7 0.8,1.4 0.8,2.2 -0.1,1 0.3,1.2 1.2,1.2 1.2,-0.1 2.4,-0.1 3.6,0 0.8,0.1 1.5,0.5 1.4,1.5 -0.1,0.9 -0.6,1.4 -1.6,1.4 -1.2,0 -2.4,0 -3.6,0 -0.7,0 -1,0.2 -1,1 0.1,0.8 0.1,1.6 0,2.4 -0.1,0.9 0.2,1.3 1.2,1.3 1.3,0 2.5,-0.2 3.8,0.1 0.7,0.1 1.3,0.4 1.2,1.3 -0.1,0.8 -0.6,1.3 -1.5,1.2 -1.2,0 -2.5,0 -3.7,0 -0.3,0 -0.8,-0.1 -0.9,0.2 -0.3,0.9 -0.2,1.8 -0.1,2.7 0,0.6 0.7,0.5 1,0.6 2.4,1 4.5,2.2 6.4,4 1.2,1.2 2.1,2.7 3.3,4 0,-11.3 0,-22.4 0,-33.9 -2.7,4.6 -6.4,7.5 -11.5,8.8 z m -11.1,4.6 c 0,3 0,6.1 0,9.1 0,0.4 -0.3,1.1 0.5,0.8 2.5,-0.8 5,-0.4 7.5,-0.5 0.7,0 1,-0.2 1,-0.9 0,-1.9 0,-3.8 0,-5.8 0,-1.9 0,-3.8 0,-5.8 0,-0.3 0.2,-0.8 -0.4,-0.8 -1.9,0 -3.7,-0.8 -5.6,-0.7 -2.1,0.1 -3,1.1 -3,3.1 0,0.5 0,1 0,1.5 z m -9.9,8.3 c 0,0.9 0.2,1.2 1.1,1.2 2.3,0 4.6,-0.3 6.8,0.4 0.9,0.3 1.1,0 1,-0.8 0,-3.5 0,-7 0,-10.4 0,-2.1 -0.8,-3 -2.9,-3.1 -0.6,0 -1.2,0 -1.8,0.1 -1.1,0.1 -2.3,0.6 -3.4,0.6 -0.7,0 -0.9,0.3 -0.9,0.9 0,1.9 0,3.8 0,5.8 0.1,1.6 0.1,3.4 0.1,5.3 z M 287,360.2 c 0,4.1 0,8.2 0,12.2 0,0.9 0.2,1.2 1.1,1.2 2,-0.1 4.1,0 6.1,0 0.8,0 1.6,0.1 2.3,0.5 1,0.6 2.2,0.6 3.1,0.2 1.5,-0.7 2.9,-0.7 4.4,-0.7 1.6,0 3.1,0 4.7,0 0.7,0 1,-0.2 1,-1 0,-2.1 0,-4.2 0,-6.4 0,-2 0,-4.1 0,-6.1 0,-0.6 0,-1.3 -0.7,-1.3 -0.5,0 -0.2,0.7 -0.3,1.1 0,3.9 0,7.8 0,11.6 0,0.9 -0.3,1.2 -1.1,1.1 -1.4,-0.1 -2.8,0 -4.2,0 -1.2,0 -2.4,0 -3.6,0.6 -0.8,0.5 -1.9,0.5 -2.8,0 -1.2,-0.6 -2.4,-0.6 -3.6,-0.6 -1.3,0 -2.6,0 -3.8,0 -1.9,0 -1.6,0.3 -1.6,-1.7 0,-3.8 0,-7.7 0,-11.5 0,-0.3 0.2,-0.7 -0.4,-0.7 -0.4,0 -0.6,0.3 -0.6,0.6 0,0.4 0,0.7 0,0.9 z m -4,30.1 c 0.2,0 0.5,0 0.7,0 9.8,0 19.6,0 29.4,0 0.4,0 0.8,0.1 1.3,-0.3 -0.3,-0.2 -0.5,-0.4 -0.6,-0.5 -2.9,-2.2 -5.2,-4.9 -6.4,-8.5 -0.5,-1.6 -0.9,-3.1 -1.1,-4.7 -0.2,-1.1 -0.6,-1.7 -1.9,-1.7 -1.7,0.1 -3.3,0.2 -5,0.5 -1.9,0.4 -3.7,-0.6 -5.7,-0.5 -2.7,0.1 -2.6,0 -3.1,2.7 -0.5,2.9 -1.6,5.5 -3.3,8 -1.2,1.7 -2.7,3.1 -4.4,4.3 -0.2,0.1 -0.4,0.2 -0.3,0.5 -0.1,0.2 0.2,0.2 0.4,0.2 z m -0.9,-47.7 c 2.6,1.9 4.8,3.9 6.3,6.6 1.3,2.3 2.1,4.8 2.4,7.4 0.1,0.7 0.4,0.9 1,0.7 0.3,-0.1 0.6,-0.1 0.9,-0.2 1.9,-0.4 3.7,-0.4 5.3,1.1 0.2,0.2 0.3,0.3 0.6,0 1.4,-1.3 3.1,-1.4 4.8,-1.2 2.6,0.4 2.6,0.4 3,-2.2 0,-0.1 0,-0.2 0,-0.4 0.7,-3.2 2,-6.1 4.3,-8.5 1.1,-1.2 2.5,-2.2 3.8,-3.4 -10.9,0.1 -21.6,0.1 -32.4,0.1 z m -0.8,27.7 c -0.2,0.1 -0.7,-0.2 -0.7,0.4 0,0.3 0.4,0.6 0.8,0.6 0.3,0 0.6,-0.1 0.7,-0.5 0,-0.6 -0.5,-0.4 -0.8,-0.5 z m 0.5,-1.6 c -0.6,-0.4 -0.8,0.2 -1.1,0.5 0.5,0.1 1,0.4 1.4,-0.1 0,0 -0.2,-0.3 -0.3,-0.4 z m -1.4,-5.5 c 0.5,0.5 0.7,1 1.3,0.7 0.2,-0.1 0.4,-0.4 0.3,-0.6 -0.3,-0.4 -0.9,-0.1 -1.6,-0.1 z m 0.2,-1.4 c 0,0.4 0.3,0.4 0.5,0.3 0.3,0 0.9,0.3 1,-0.4 0.1,-0.4 -0.3,-0.5 -0.6,-0.6 -0.5,0.1 -0.7,0.4 -0.9,0.7 z m -0.5,17.1 c -2.8,2.3 -4.3,5.5 -5.8,9 0,-14.6 0,-28.8 0,-43.2 0.7,1.5 1.4,2.9 2.1,4.2 2.3,4.2 5.9,6.8 10.6,7.9 0.8,0.2 1.5,0.5 2.3,0.6 0.6,0.1 0.9,-0.1 0.7,-0.8 -0.6,-1.5 -0.8,-3.2 -1.4,-4.8 -1.7,-4.3 -4.7,-7.2 -8.8,-9.2 -0.3,-0.1 -0.5,-0.2 -0.8,-0.3 -0.4,-0.2 -0.7,-0.4 -1.3,-0.7 13.8,0 27.5,0 41.3,0 -1.8,1.1 -3.6,1.7 -5.1,2.9 -3.5,2.6 -5.5,6.1 -6.5,10.3 -0.1,0.6 -0.2,1.2 -0.4,1.8 -0.3,0.9 0.2,1.1 0.9,0.9 2.4,-0.7 4.9,-1.3 7.1,-2.7 3,-1.9 5,-4.6 6.4,-7.8 0.3,-0.7 0.6,-1.4 1,-2.3 0,14.6 0,28.8 0,43.3 -0.8,-1.4 -1.2,-2.9 -2,-4.3 -2.3,-4 -5.7,-6.6 -10.1,-7.8 -0.8,-0.2 -1.6,-0.6 -2.5,-0.7 -0.6,-0.1 -1,0.1 -0.9,0.8 0.7,3.7 1.8,7.2 4.2,10.1 1.9,2.3 4.4,3.7 7.1,4.9 0.3,0.1 0.6,0.1 0.8,0.5 -13.8,0 -27.5,0 -41.6,0 1.8,-1 3.3,-1.6 4.8,-2.5 2.9,-1.8 4.8,-4.4 6.1,-7.4 0.8,-1.8 1.1,-3.7 1.7,-5.5 0.2,-0.7 0,-1.1 -0.8,-1 -3.3,0.5 -6.4,1.5 -9.1,3.8 z m 5.4,-21.4 c -2.5,-0.9 -4.9,-2.1 -6.8,-4 -1.2,-1.2 -2.2,-2.6 -3.4,-4.2 0,11.4 0,22.5 0,33.9 1.3,-2 2.6,-3.7 4.3,-5.1 1.8,-1.4 3.7,-2.6 5.9,-3.2 0.5,-0.1 0.8,-0.5 0.8,-1 0,-0.6 0,-1.1 0,-1.7 0,-0.3 -0.1,-0.6 -0.4,-0.6 -1.2,0 -2.5,-0.6 -3.6,0.5 -0.6,0.6 -1.2,0.4 -1.7,0 -0.5,-0.5 -1.1,-1.2 -1.4,-1.9 -0.2,-0.5 0.5,-0.8 0.8,-1.3 0.6,-1.1 1.6,-1.3 2.5,-0.4 0.3,0.3 0.6,0.4 0.9,0.4 3,0.2 3.1,0.1 2.7,-3 -0.1,-0.3 0,-0.6 0,-1 0,-0.3 0,-0.6 -0.4,-0.6 -1.1,0 -2.2,-0.4 -3.2,0.3 -0.7,0.5 -1.5,0.5 -2.1,0 -0.5,-0.5 -0.9,-1.2 -1.3,-1.8 0,-0.1 0,-0.3 0.1,-0.3 0.5,-0.3 0.6,-1 1,-1.3 0.5,-0.4 0.9,-1.1 1.6,-0.5 1,0.9 2.2,0.6 3.4,0.7 0.6,0 0.8,-0.3 0.8,-0.9 0,-0.5 -0.2,-1.3 0.1,-1.6 0.7,-1.2 0,-1.2 -0.6,-1.4 z"
   id="path176"
   inkscape:connector-curvature="0"
   style="fill:#4a4a4a" />
			<path
   class="st9"
   d="m 269,386.5 c 1.7,3.4 3.8,6.4 6.3,9.2 3.5,3.9 7.5,7.1 12,9.8 3.2,1.9 6.6,3.2 10.1,4.4 0.6,0.2 1.1,0.3 1.7,0 2.3,-0.9 4.6,-1.7 6.9,-2.7 4.3,-2 8.2,-4.6 11.7,-7.8 3.6,-3.2 6.6,-6.9 9,-11.1 2.6,-4.7 4.3,-9.7 4.2,-15.1 0,-13.2 0,-26.3 0,-39.5 0,-1.1 -0.3,-1.3 -1.4,-1.3 -10.4,0 -20.9,0 -31.3,0 -10.4,0 -20.8,0 -31.2,0 -1.2,0 -1.5,0.4 -1.5,1.5 0,10.6 0,21.3 0,31.9 0,3.7 -0.2,7.3 0.4,11 0.6,3.5 1.6,6.7 3.1,9.7 z m 1.6,4.7 c -2.8,-4.3 -4.9,-8.9 -5.6,-14.1 -0.3,-1.9 -0.5,-3.9 -0.5,-5.9 0,-12.8 0,-25.7 0,-38.5 0,-1 0.3,-1.3 1.3,-1.3 10.8,0 21.7,0 32.5,0 10.8,0 21.7,0 32.5,0 1,0 1.3,0.2 1.3,1.3 0,13.2 0,26.5 0,39.7 0,6.8 -2.1,12.9 -5.8,18.5 -3.5,5.4 -7.9,9.7 -13.1,13.4 -4,2.8 -8.4,4.7 -12.9,6.4 -2.4,0.9 -4.3,-0.1 -6.3,-0.9 -4.1,-1.5 -8,-3.6 -11.6,-6.3 -4.6,-3.4 -8.7,-7.4 -11.8,-12.3 z"
   id="path178"
   inkscape:connector-curvature="0"
   style="fill:#53524e" />
		</g>
		<g
   id="g182">
		</g>
	</g>
</g>
</svg>